<svg viewBox="0 0 330 200" xmlns="http://www.w3.org/2000/svg"><g><g><g><g><g><line x1="60" y1="178" x2="55" y2="178" style="visibility: inherit;" fill="rgb(0, 0, 0)" stroke="rgb(204, 204, 204)" stroke-width="1px"></line><line x1="60" y1="161.8181818181818" x2="55" y2="161.8181818181818" style="visibility: inherit;" fill="rgb(0, 0, 0)" stroke="rgb(204, 204, 204)" stroke-width="1px"></line><line x1="60" y1="145.63636363636363" x2="55" y2="145.63636363636363" style="visibility: inherit;" fill="rgb(0, 0, 0)" stroke="rgb(204, 204, 204)" stroke-width="1px"></line><line x1="60" y1="129.45454545454547" x2="55" y2="129.45454545454547" style="visibility: inherit;" fill="rgb(0, 0, 0)" stroke="rgb(204, 204, 204)" stroke-width="1px"></line><line x1="60" y1="113.27272727272727" x2="55" y2="113.27272727272727" style="visibility: inherit;" fill="rgb(0, 0, 0)" stroke="rgb(204, 204, 204)" stroke-width="1px"></line><line x1="60" y1="97.09090909090908" x2="55" y2="97.09090909090908" style="visibility: inherit;" fill="rgb(0, 0, 0)" stroke="rgb(204, 204, 204)" stroke-width="1px"></line><line x1="60" y1="80.90909090909089" x2="55" y2="80.90909090909089" style="visibility: inherit;" fill="rgb(0, 0, 0)" stroke="rgb(204, 204, 204)" stroke-width="1px"></line><line x1="60" y1="64.72727272727275" x2="55" y2="64.72727272727275" style="visibility: inherit;" fill="rgb(0, 0, 0)" stroke="rgb(204, 204, 204)" stroke-width="1px"></line><line x1="60" y1="48.54545454545453" x2="55" y2="48.54545454545453" style="visibility: inherit;" fill="rgb(0, 0, 0)" stroke="rgb(204, 204, 204)" stroke-width="1px"></line><line x1="60" y1="32.363636363636374" x2="55" y2="32.363636363636374" style="visibility: inherit;" fill="rgb(0, 0, 0)" stroke="rgb(204, 204, 204)" stroke-width="1px"></line><line x1="60" y1="16.181818181818187" x2="55" y2="16.181818181818187" style="visibility: inherit;" fill="rgb(0, 0, 0)" stroke="rgb(204, 204, 204)" stroke-width="1px"></line><line x1="60" y1="0" x2="55" y2="0" style="visibility: inherit;" fill="rgb(0, 0, 0)" stroke="rgb(204, 204, 204)" stroke-width="1px"></line></g><g transform="translate(50, 0)"><text x="0" y="178" dx="0em" dy="0.3em" style="text-anchor: end; visibility: hidden; font-family: &quot;Helvetica Neue&quot;, sans-serif; font-size: 12px; font-weight: 200;" fill="rgb(50, 49, 63)" stroke="none" stroke-width="1px">-5e-3</text><text x="0" y="161.8181818181818" dx="0em" dy="0.3em" style="text-anchor: end; visibility: inherit; font-family: &quot;Helvetica Neue&quot;, sans-serif; font-size: 12px; font-weight: 200;" fill="rgb(50, 49, 63)" stroke="none" stroke-width="1px">0</text><text x="0" y="145.63636363636363" dx="0em" dy="0.3em" style="text-anchor: end; visibility: hidden; font-family: &quot;Helvetica Neue&quot;, sans-serif; font-size: 12px; font-weight: 200;" fill="rgb(50, 49, 63)" stroke="none" stroke-width="1px">5e-3</text><text x="0" y="129.45454545454547" dx="0em" dy="0.3em" style="text-anchor: end; visibility: inherit; font-family: &quot;Helvetica Neue&quot;, sans-serif; font-size: 12px; font-weight: 200;" fill="rgb(50, 49, 63)" stroke="none" stroke-width="1px">0.01</text><text x="0" y="113.27272727272727" dx="0em" dy="0.3em" style="text-anchor: end; visibility: hidden; font-family: &quot;Helvetica Neue&quot;, sans-serif; font-size: 12px; font-weight: 200;" fill="rgb(50, 49, 63)" stroke="none" stroke-width="1px">0.015</text><text x="0" y="97.09090909090908" dx="0em" dy="0.3em" style="text-anchor: end; visibility: inherit; font-family: &quot;Helvetica Neue&quot;, sans-serif; font-size: 12px; font-weight: 200;" fill="rgb(50, 49, 63)" stroke="none" stroke-width="1px">0.02</text><text x="0" y="80.90909090909089" dx="0em" dy="0.3em" style="text-anchor: end; visibility: hidden; font-family: &quot;Helvetica Neue&quot;, sans-serif; font-size: 12px; font-weight: 200;" fill="rgb(50, 49, 63)" stroke="none" stroke-width="1px">0.025</text><text x="0" y="64.72727272727275" dx="0em" dy="0.3em" style="text-anchor: end; visibility: inherit; font-family: &quot;Helvetica Neue&quot;, sans-serif; font-size: 12px; font-weight: 200;" fill="rgb(50, 49, 63)" stroke="none" stroke-width="1px">0.03</text><text x="0" y="48.54545454545453" dx="0em" dy="0.3em" style="text-anchor: end; visibility: hidden; font-family: &quot;Helvetica Neue&quot;, sans-serif; font-size: 12px; font-weight: 200;" fill="rgb(50, 49, 63)" stroke="none" stroke-width="1px">0.035</text><text x="0" y="32.363636363636374" dx="0em" dy="0.3em" style="text-anchor: end; visibility: inherit; font-family: &quot;Helvetica Neue&quot;, sans-serif; font-size: 12px; font-weight: 200;" fill="rgb(50, 49, 63)" stroke="none" stroke-width="1px">0.04</text><text x="0" y="16.181818181818187" dx="0em" dy="0.3em" style="text-anchor: end; visibility: hidden; font-family: &quot;Helvetica Neue&quot;, sans-serif; font-size: 12px; font-weight: 200;" fill="rgb(50, 49, 63)" stroke="none" stroke-width="1px">0.045</text><text x="0" y="0" dx="0em" dy="0.3em" style="text-anchor: end; visibility: hidden; font-family: &quot;Helvetica Neue&quot;, sans-serif; font-size: 12px; font-weight: 200;" fill="rgb(50, 49, 63)" stroke="none" stroke-width="1px">0.05</text></g><line x1="60" y1="0" x2="60" y2="178" fill="rgb(0, 0, 0)" stroke="rgb(204, 204, 204)" stroke-width="1px"></line></g></g><g transform="translate(60, 0)" clip-path="url(#clip_0)"><clipPath id="clip_0"><rect width="270" height="178"></rect></clipPath><g><g><g><line x1="0" y1="0" x2="0" y2="178" fill="rgb(0, 0, 0)" stroke="rgb(60, 60, 60)" stroke-width="1px" opacity="0.25"></line><line x1="20.76923076923077" y1="0" x2="20.76923076923077" y2="178" fill="rgb(0, 0, 0)" stroke="rgb(60, 60, 60)" stroke-width="1px" opacity="0.25"></line><line x1="41.53846153846154" y1="0" x2="41.53846153846154" y2="178" fill="rgb(0, 0, 0)" stroke="rgb(60, 60, 60)" stroke-width="1px" opacity="0.25"></line><line x1="62.307692307692314" y1="0" x2="62.307692307692314" y2="178" fill="rgb(0, 0, 0)" stroke="rgb(60, 60, 60)" stroke-width="1px" opacity="0.25"></line><line x1="83.07692307692308" y1="0" x2="83.07692307692308" y2="178" fill="rgb(0, 0, 0)" stroke="rgb(60, 60, 60)" stroke-width="1px" opacity="0.25"></line><line x1="103.84615384615385" y1="0" x2="103.84615384615385" y2="178" fill="rgb(0, 0, 0)" stroke="rgb(60, 60, 60)" stroke-width="1px" opacity="0.25"></line><line x1="124.61538461538463" y1="0" x2="124.61538461538463" y2="178" fill="rgb(0, 0, 0)" stroke="rgb(60, 60, 60)" stroke-width="1px" opacity="0.25"></line><line x1="145.3846153846154" y1="0" x2="145.3846153846154" y2="178" fill="rgb(0, 0, 0)" stroke="rgb(60, 60, 60)" stroke-width="1px" opacity="0.25"></line><line x1="166.15384615384616" y1="0" x2="166.15384615384616" y2="178" fill="rgb(0, 0, 0)" stroke="rgb(60, 60, 60)" stroke-width="1px" opacity="0.25"></line><line x1="186.9230769230769" y1="0" x2="186.9230769230769" y2="178" fill="rgb(0, 0, 0)" stroke="rgb(60, 60, 60)" stroke-width="1px" opacity="0.25"></line><line x1="207.6923076923077" y1="0" x2="207.6923076923077" y2="178" fill="rgb(0, 0, 0)" stroke="rgb(60, 60, 60)" stroke-width="1px" opacity="0.25"></line><line x1="228.46153846153845" y1="0" x2="228.46153846153845" y2="178" fill="rgb(0, 0, 0)" stroke="rgb(60, 60, 60)" stroke-width="1px" opacity="0.25"></line><line x1="249.23076923076925" y1="0" x2="249.23076923076925" y2="178" fill="rgb(0, 0, 0)" stroke="rgb(60, 60, 60)" stroke-width="1px" opacity="0.25"></line><line x1="270" y1="0" x2="270" y2="178" fill="rgb(0, 0, 0)" stroke="rgb(60, 60, 60)" stroke-width="1px" opacity="0.25"></line></g><g><line x1="0" y1="178" x2="270" y2="178" fill="rgb(0, 0, 0)" stroke="rgb(60, 60, 60)" stroke-width="1px" opacity="0.25"></line><line x1="0" y1="161.8181818181818" x2="270" y2="161.8181818181818" fill="rgb(0, 0, 0)" stroke="rgb(60, 60, 60)" stroke-width="1px" opacity="0.25"></line><line x1="0" y1="145.63636363636363" x2="270" y2="145.63636363636363" fill="rgb(0, 0, 0)" stroke="rgb(60, 60, 60)" stroke-width="1px" opacity="0.25"></line><line x1="0" y1="129.45454545454547" x2="270" y2="129.45454545454547" fill="rgb(0, 0, 0)" stroke="rgb(60, 60, 60)" stroke-width="1px" opacity="0.25"></line><line x1="0" y1="113.27272727272727" x2="270" y2="113.27272727272727" fill="rgb(0, 0, 0)" stroke="rgb(60, 60, 60)" stroke-width="1px" opacity="0.25"></line><line x1="0" y1="97.09090909090908" x2="270" y2="97.09090909090908" fill="rgb(0, 0, 0)" stroke="rgb(60, 60, 60)" stroke-width="1px" opacity="0.25"></line><line x1="0" y1="80.90909090909089" x2="270" y2="80.90909090909089" fill="rgb(0, 0, 0)" stroke="rgb(60, 60, 60)" stroke-width="1px" opacity="0.25"></line><line x1="0" y1="64.72727272727275" x2="270" y2="64.72727272727275" fill="rgb(0, 0, 0)" stroke="rgb(60, 60, 60)" stroke-width="1px" opacity="0.25"></line><line x1="0" y1="48.54545454545453" x2="270" y2="48.54545454545453" fill="rgb(0, 0, 0)" stroke="rgb(60, 60, 60)" stroke-width="1px" opacity="0.25"></line><line x1="0" y1="32.363636363636374" x2="270" y2="32.363636363636374" fill="rgb(0, 0, 0)" stroke="rgb(60, 60, 60)" stroke-width="1px" opacity="0.25"></line><line x1="0" y1="16.181818181818187" x2="270" y2="16.181818181818187" fill="rgb(0, 0, 0)" stroke="rgb(60, 60, 60)" stroke-width="1px" opacity="0.25"></line><line x1="0" y1="0" x2="270" y2="0" fill="rgb(0, 0, 0)" stroke="rgb(60, 60, 60)" stroke-width="1px" opacity="0.25"></line></g></g></g><g><g><line x1="0" y1="161.8181818181818" x2="270" y2="161.8181818181818" fill="rgb(0, 0, 0)" stroke="rgb(153, 153, 153)" stroke-width="1.5px"></line></g></g><g><g><line x1="20.76923076923077" y1="0" x2="20.76923076923077" y2="178" fill="rgb(0, 0, 0)" stroke="rgb(153, 153, 153)" stroke-width="1.5px"></line></g></g><g><g><g><g><g><path stroke="rgb(255, 112, 67)" stroke-width="2px" d="M20.85230769230769,118.32252790982074L21.101538461538464,117.67524648627096L21.13269230769231,117.41105037131425L21.40269230769231,116.77888987922074L21.641538461538463,116.02597603121866L22.306153846153848,114.45477596926187L22.399615384615384,113.40050104870042L23.04346153846154,111.69869387034034L23.095384615384614,110.6089087862608L23.31346153846154,109.59742631226871L23.500384615384615,108.68263836574057L23.863846153846154,107.53044732522105L23.884615384615387,106.80617495256615L23.967692307692307,106.23401999954184L24.26884615384615,105.39021645740857L24.47653846153846,104.53887293765428L25.037307692307692,103.09598052986836L25.442307692307693,101.55715945135748L25.587692307692308,100.39230097642839L26.231538461538463,98.62322084210145L26.511923076923075,97.09576161053421L26.678076923076922,95.90313047439616L26.75076923076923,95.06673652639175L26.761153846153846,94.54764436945652L27.249230769230767,93.42492805462521L27.38423076923077,92.5269111421602L27.529615384615386,91.74644818781996L27.63346153846154,91.10556183801455L28.08,89.97881668689091L28.163076923076925,89.16468312769904L28.609615384615385,87.93398727799554L28.651153846153846,87.12652530967043L28.67192307692308,86.60752830069184L28.81730769230769,86.05447656432455L28.838076923076922,85.68812566458838L28.910769230769233,85.34749076885102L28.993846153846153,85.00502071783322L29.056153846153844,84.69597426324614L29.34692307692308,84.02724413287382L30.478846153846156,81.74457682517327L30.748846153846156,79.92619405233165L30.75923076923077,78.81790445582003L30.82153846153846,78.0493662732762L31.07076923076923,77.17398325274833L31.101923076923075,76.59697122804917L31.195384615384615,76.09541496455715L31.70423076923077,74.94870105057483L31.735384615384614,74.20889048973763L32.01576923076923,73.2989642409725L32.07807692307692,72.64944165549332L32.129999999999995,72.17342361299231L32.67,70.99025041914098L32.721923076923076,70.19404201161572L32.73230769230769,69.69905703336967L32.91923076923077,69.09137036029858L33.05423076923077,68.502367161549L33.58384615384615,67.26866521896017L33.760384615384616,66.23500830101521L34.33153846153846,64.66546956942449L34.362692307692306,63.67196411799604L34.50807692307693,62.83420971850012L34.549615384615386,62.26251252131786L35.04807692307693,61.090976392143645L35.120769230769234,60.26723035595904L35.34923076923077,59.393244901918834L35.473846153846154,58.66172477959816L35.57769230769231,58.050203723772796L35.88923076923077,57.165464142978664L36.003461538461536,56.444751478337466L36.14884615384615,55.77067033963502L36.481153846153845,54.8138748416511L36.7823076923077,53.73923535185122L36.94846153846154,52.81827825059008L37.114615384615384,51.98953058245216L37.15615384615384,51.42324224664233L37.332692307692305,50.79003590404341L37.69615384615385,49.80598065996864L38.1323076923077,48.49059171632837L38.22576923076923,47.546014124000635L38.4126923076923,46.66856947120158L38.50615384615384,45.9867584533786L38.651538461538465,45.336018302767116L38.67230769230769,44.911049522379045L38.70346153846154,44.6042884529509L39.160384615384615,43.66075614663501L39.62769230769231,42.317901164454724L39.81461538461538,41.201490077744154L39.90807692307692,40.37629919957425L40.043076923076924,39.65679106648636L40.07423076923077,39.17330638543834L40.15730769230769,38.7451312843977L40.57269230769231,37.79779029404145L40.74923076923076,36.9359523587147L40.85307692307693,36.24624061508567L40.88423076923077,35.780628945155314L41.445,34.569177296105124L41.56961538461538,33.68696208053146L41.80846153846154,33.1577969181464L42.23423076923077,32.84121892922133L42.31730769230769,32.6515470216508L42.35884615384615,32.53788855383712L42.43153846153846,32.46997800404867L42.981923076923074,32.4321107410764L43.05461538461538,32.409872639055294L43.37653846153846,32.39894587921165L43.418076923076924,32.39273704745429L43.50115384615384,32.389725486928L43.62576923076924,32.38905185165359L43.833461538461535,32.390682789805766L43.885384615384616,32.39219665659314L43.895769230769226,32.393215895490926L44.10346153846154,32.39611815370037L44.15538461538462,32.39846232832892L44.518846153846155,32.40442615005949L44.62269230769231,32.40941262992368L44.74730769230769,32.4141599288169L45.017307692307696,32.42104961144068L45.11076923076923,32.42665912364751L45.47423076923077,32.436135011479564L45.48461538461539,32.44200862392614L45.505384615384614,32.44589448321577L45.9623076923077,32.45681015135804L46.13884615384615,32.46692342232657L46.159615384615385,32.47342541509374L46.21153846153846,32.47840686366155L46.47115384615385,32.48697543197173L46.48153846153846,32.49234323316611L46.58538461538461,32.49788838665691L46.606153846153845,32.50168326684076L46.65807692307692,32.50514654412632L46.80346153846154,32.51060030083352L46.86576923076923,32.515353080048044L46.95923076923077,32.52045205942895L47.114999999999995,32.527345380367564L47.177307692307686,32.53304388160049L48.54807692307692,32.57525081329993L48.735,32.60651154075319L49.11923076923077,32.63796577144578L49.26461538461538,32.661815189327996L49.628076923076925,32.688972133564334L50.49,32.73809344984406L50.739230769230765,32.777679142946795L51.47653846153846,32.83294597287298L51.559615384615384,32.869809795083L51.933461538461536,32.90897100704774L52.21384615384615,32.945662251882425L52.245000000000005,32.96916234653102L52.847307692307695,33.01285361689327L53.49115384615384,33.07247905832094L53.84423076923077,33.127356473921196L53.854615384615386,33.16085198508088L54.207692307692305,33.20062532687743L54.31153846153846,33.23037767481273L54.35307692307692,33.250596959366646L54.37384615384615,33.26391487927418L54.38423076923077,33.27249880580632L54.986538461538466,33.312945460966375L55.401923076923076,33.362483656005594L55.723846153846154,33.4123118157583L56.00423076923077,33.460100400390246L56.05615384615385,33.492120406159586L56.28461538461538,33.52620999988736L56.48192307692308,33.55970395193589L56.637692307692305,33.59021222507246L56.80384615384616,33.619739280542575L58.05,33.725500948342926L58.23692307692308,33.80275528638177L58.25769230769231,33.85064628508675L58.34076923076923,33.88556822573969L58.63153846153846,33.92841097918105L58.776923076923076,33.965198868662924L59.35846153846154,34.03253130564144L59.4,34.07621975212726L59.514230769230764,34.11151851857994L60.05423076923077,34.17640944074407L60.27230769230769,34.233356246763464L60.324230769230766,34.27184051944744L60.345,34.2966623812444L60.448846153846155,34.32023610204348L60.79153846153846,34.363368728393226L60.91615384615385,34.39991580166452L61.456153846153846,34.468835047103255L61.746923076923075,34.53601621299387L62.03769230769231,34.60252104553493L62.432307692307695,34.678559369326734L62.54653846153846,34.73476305502612L62.57769230769231,34.77138362357701L63.16961538461539,34.849181891748344L63.221538461538465,34.900832909560165L63.33576923076923,34.94279483883898L64.09384615384616,35.0422152710083L64.21846153846154,35.11430490641894L64.23923076923077,35.15963721000074L64.29115384615385,35.19204495438237L64.30153846153846,35.21253127345784L64.56115384615384,35.25104813325555L64.61307692307692,35.27943412717349L64.64423076923077,35.29963896643997L64.935,35.34157492122361L64.96615384615384,35.369948317470545L65.36076923076924,35.42806536872206L65.49576923076923,35.47714767678718L65.51653846153846,35.50878650278696L66.285,35.61020659838985L66.3576923076923,35.678982117925756L66.70038461538462,35.75792124979611L67.31307692307692,35.87388561110177L67.48961538461538,35.96352124503812L67.7076923076923,36.04226418365522L68.20615384615385,36.14731312249157L68.23730769230768,36.213993161913805L68.72538461538461,36.31167415217743L69.09923076923077,36.41514217734232L69.14076923076924,36.4822432749265L69.22384615384615,36.53256378867806L69.60807692307692,36.60966993748295L69.66,36.66231869305841L69.99230769230769,36.735049185483234L70.07538461538462,36.78904633471177L70.38692307692307,36.86054109889642L70.51153846153846,36.91918843060307L70.53230769230768,36.957009946089045L70.92692307692307,37.030040711846766L71.05153846153846,37.089894175397006L71.4876923076923,37.18241825746043L72.19384615384615,37.331263664371306L72.28730769230769,37.43307580043361L72.31846153846153,37.49834423952987L73.1076923076923,37.64464806569197L73.12846153846154,37.73528531550187L73.13884615384616,37.79109514244416L73.68923076923078,37.900883545316475L73.98,38.00756506964345L74.66538461538461,38.16912950238995L75.07038461538461,38.32461883413549L76.005,38.55554822773573L76.17115384615384,38.71894203565293L76.31653846153846,38.83880521620378L76.94999999999999,39.00680294005207L77.17846153846155,39.142647100605444L77.93653846153846,39.34193492175754L77.9573076923077,39.46476766340177L78.28961538461537,39.59084992928649L78.53884615384617,39.70606837411188L78.68423076923077,39.79839594317244L79.13076923076923,39.925566609708L79.4423076923077,40.05240459095796L79.48384615384616,40.13527825061027L79.63961538461538,40.21044143786159L80.06538461538462,40.32555324177926L80.09653846153846,40.39977563822856L80.64692307692307,40.53593284837251L80.97923076923077,40.673520617306394L81.15576923076922,40.78594420058195L81.18692307692308,40.85868387370181L81.53999999999999,40.962469793686864L81.56076923076922,41.02829557064587L81.63346153846153,41.08023805804552L82.00730769230769,41.175746114287875L82.22538461538461,41.270835687007434L82.47461538461538,41.37129244924378L82.52653846153846,41.44064256003159L82.58884615384615,41.49315160673166L82.86923076923077,41.573890525522216L83.07692307692308,41.65900460495985L83.12884615384615,41.71926484745131L83.28461538461538,41.78305907068216L83.33653846153847,41.830570802468145L83.78307692307692,41.93891046042654L84.22961538461539,42.08451366075036L84.33346153846153,42.1907221361343L84.85269230769231,42.34932139747676L85.05,42.48079481318143L85.185,42.58461148551379L85.24730769230769,42.65843222418917L85.38230769230769,42.72775856401401L85.97423076923077,42.87992114652539L86.21307692307693,43.01620351353711L86.265,43.1077820159488L86.51423076923076,43.209946779079985L86.62846153846154,43.2929616139339L86.74269230769231,43.3645395399553L86.8776923076923,43.43327251117688L87.12692307692306,43.522294194835894L88.12384615384616,43.769135168721675L88.16538461538462,43.92537540776263L88.37307692307692,44.05990874356036L88.93384615384616,44.25154274780428L89.03769230769231,44.3871926323217L89.235,44.50795392346413L89.79576923076924,44.69308493444723L89.88923076923078,44.823048676687705L90.01384615384616,44.926258543514166L90.045,44.994502014095815L90.20076923076924,45.06708407444998L90.23192307692307,45.11697497393632L90.35653846153846,45.17230027951186L90.63692307692307,45.262816382761L90.67846153846153,45.32564268147226L90.7926923076923,45.386795380976L91.61307692307692,45.59327960945953L91.75846153846155,45.747513679111904L91.84153846153846,45.85742497346044L91.99730769230769,45.956005997502615L92.6723076923077,46.15756473852733L93.00461538461539,46.34919385533385L93.27461538461539,46.5218973401619L93.50307692307693,46.67456484208196L94.45846153846155,46.97320738709331L94.54153846153847,47.17054502099208L94.7803846153846,47.34127235153804L94.9673076923077,47.484792118253694L95.60076923076923,47.71101374489646L95.92269230769232,47.918472620405055L96.47307692307693,48.166390953179416L96.58730769230769,48.340889587991796L96.77423076923077,48.487815083423925L96.87807692307693,48.59948034909402L96.88846153846154,48.66883291661597L97.08576923076923,48.755217082098625L97.32461538461538,48.861426741142196L97.52192307692307,48.97021451499518L97.92692307692307,49.12838410679376L97.95807692307693,49.2304570050579L98.03076923076922,49.30843984152489L98.13461538461539,49.37917354200198L98.16576923076923,49.42880419570372L98.32153846153847,49.494578158020886L98.66423076923077,49.61351828503385L98.86153846153846,49.730817222598205L99.68192307692308,49.993539473362034L100.04538461538462,50.237081865311765L100.22192307692308,50.42509121343504L100.37769230769231,50.574934064851604L100.49192307692309,50.69205346836668L100.55423076923077,50.77718341051137L100.81384615384616,50.89031322472994L100.9176923076923,50.98306586547915L101.10461538461539,51.08359134860822L101.25,51.17887982636576L101.4576923076923,51.28613517393241L101.54076923076923,51.370559867298184L101.64461538461538,51.44633538597449L102.00807692307691,51.579985985869655L102.06,51.6728066242207L102.69346153846153,51.883283816690664L102.70384615384616,52.01211644259746L103.03615384615385,52.17111978938591L103.64884615384615,52.41806584819584L104.01230769230769,52.65668055169621L104.12653846153847,52.82835551190442L104.25115384615385,52.96250456515699L104.4276923076923,53.08719756027854L105.61153846153846,53.46086725323241L105.65307692307692,53.69563047019854L105.79846153846154,53.87349188501746L105.97500000000001,54.0252369544323L106.03730769230769,54.13219361367861L106.47346153846154,54.30808215655708L106.63961538461538,54.45631903003351L106.75384615384615,54.57465946538754L107.13807692307692,54.74485891434203L107.19000000000001,54.86041422925166L107.21076923076923,54.93512456994681L107.27307692307693,54.99608705216957L107.51192307692307,55.09463440695535L107.56384615384616,55.16725633605529L107.6573076923077,55.23514000649145L108.59192307692308,55.52033047720727L108.62307692307692,55.69963346248015L108.91384615384615,55.883807113808174L108.96576923076923,56.0080170133688L109.01769230769231,56.09624866186901L109.62,56.30877090526309L109.88999999999999,56.508154827551195L109.98346153846154,56.65271298127594L110.32615384615384,56.83104753299705L110.33653846153845,56.94082605722039L110.42999999999999,57.031736713489295L110.8246153846154,57.19227327868313L110.90769230769232,57.31096706261131L110.95961538461539,57.39617357263177L111.78,57.66931838647956L112.0603846153846,57.909502958937566L112.2473076923077,58.10459778159991L112.27846153846154,58.230161666843856L112.49653846153846,58.365116455322465L112.61076923076922,58.4773684371507L112.86,58.61308420310753L112.9326923076923,58.71448387379739L113.10923076923076,58.82388200891461L113.13,58.89524044332555L113.16115384615385,58.94663483398294L113.37923076923076,59.03759429426003L113.45192307692308,59.11224145525212L113.69076923076923,59.22306985593312L113.86730769230769,59.33848209830913L114.05423076923077,59.45960087352488L114.11653846153847,59.549585120519964L114.22038461538462,59.63244832120432L114.4176923076923,59.737104818053155L114.69807692307693,59.87814471359137L114.78115384615384,59.98598926586773L114.99923076923076,60.11173993162217L115.73653846153846,60.39446385770003L116.47384615384615,60.77273411250039L116.54653846153846,61.02034163456349L116.82692307692308,61.24865196065096L117.045,61.44779851278169L117.315,61.64440396300529L117.40846153846154,61.78910108132109L117.74076923076923,61.971155220244356L117.95884615384615,62.14303031583887L118.40538461538462,62.37478021883037L118.43653846153846,62.52281699675521L118.64423076923077,62.67164132545223L118.71692307692308,62.78196227390558L118.98692307692308,62.92635502610902L119.71384615384615,63.22438025698736L119.80730769230769,63.43046454759208L119.88,63.575334375494975L120.015,63.70170479359068L120.24346153846153,63.84437492693567L120.3576923076923,63.96344314556562L120.63807692307692,64.11715932106631L120.88730769230769,64.28267743455942L120.94961538461538,64.40033090057335L121.18846153846154,64.54131785380082L121.37538461538462,64.68109214133547L122.10230769230769,64.98028873426904L122.55923076923077,65.29575217813529L122.85000000000001,65.57177841097281L122.88115384615384,65.7466992756084L123.29653846153846,65.97591704793359L123.54576923076924,66.18818529808709L124.22076923076922,66.51861691583615L125.03076923076922,66.96180876558677L125.08269230769231,67.24347193735413L125.11384615384615,67.42191964207633L125.25923076923077,67.5731170784365L125.38384615384615,67.70169502886989L125.6226923076923,67.85149362971643L125.685,67.96034473191222L125.84076923076923,68.07311900535265L126.00692307692307,68.19146141619544L126.25615384615384,68.338590934776L126.4326923076923,68.48086441234729L127.16999999999999,68.79239439500233L127.37769230769231,69.04320886181782L127.4503846153846,69.21608144311303L127.5023076923077,69.3358038268036L128.62384615384616,69.75436709369859L128.655,70.01516704803274L128.87307692307692,70.23935331837765L128.92499999999998,70.38999894711144L129.37153846153845,70.619333854578L129.48576923076922,70.7925373307078L129.58961538461537,70.92884530210115L129.63115384615384,71.02358829726947L129.9323076923077,71.17449084696548L130.02576923076924,71.29425225341923L130.26461538461538,71.4408563291651L130.275,71.53206917845034L130.39961538461537,71.62584031453515L130.72153846153847,71.78308494152733L130.815,71.90677939213577L130.99153846153845,72.03648199922924L131.04346153846154,72.13063033231711L131.13692307692307,72.21652005471684L131.22,72.29420661814477L131.30307692307693,72.36697610874724L131.47961538461539,72.4662684165658L131.79115384615383,72.62414199328116L131.895,72.75166676498142L132.27923076923076,72.94970766881573L132.37269230769232,73.09813065852586L132.38307692307694,73.19047343665065L132.61153846153846,73.31828980623088L132.68423076923077,73.41803868725214L132.975,73.57020623643693L133.07884615384614,73.69451476159664L133.13076923076923,73.78560749143507L133.245,73.87659627846786L133.33846153846153,73.96093508610451L133.48384615384614,74.05783251258597L133.87846153846152,74.24179873068852L133.9096153846154,74.3621225753681L134.2626923076923,74.54711891625047L134.30423076923077,74.6714004557517L134.5430769230769,74.8224020952152L134.60538461538462,74.93295641105733L134.62615384615384,75.00594413008203L135.04153846153847,75.18292374664274L135.10384615384618,75.30911066304066L135.1246153846154,75.39149241007165L135.23884615384614,75.47760665412642L135.29076923076923,75.54595883865511L135.43615384615384,75.63370073273666L135.5296153846154,75.71640245956927L135.69576923076923,75.81948878075333L135.95538461538462,75.96496613392081L136.15269230769232,76.11587172598043L136.24615384615385,76.23657053403119L136.43307692307692,76.36933448239492L136.71346153846156,76.53960629786557L136.9523076923077,76.71904605049465L136.97307692307695,76.83343495867705L136.98346153846154,76.9054296262495L137.59615384615384,77.1472458737642L137.62730769230768,77.30244852560787L137.72076923076924,77.42591606055515L138.1153846153846,77.62825732405781L138.64499999999998,77.92212397658488L139.2473076923077,78.29501865064027L139.62115384615385,78.64100005697345L139.7976923076923,78.90637278620899L140.0053846153846,79.13363065541307L140.29615384615383,79.36532010730056L140.3273076923077,79.51455518931445L140.4,79.6279437859672L140.42076923076922,79.7027960404374L140.59730769230768,79.80566489062957L140.6803846153846,79.89466982049551L140.77384615384614,79.97878282535665L141.09576923076924,80.13509612297715L141.50076923076924,80.3622229972605L141.6253846153846,80.53956319998808L141.75,80.6870458674551L141.86423076923074,80.81320928808414L142.0096153846154,80.93687732113492L142.03038461538463,81.01793099534727L142.40423076923076,81.19002549757437L142.77807692307692,81.4168939958966L143.05846153846153,81.64582521633949L143.21423076923077,81.83478049261088L143.5257692307692,82.05142149602817L143.775,82.26408884852037L143.96192307692309,82.45374593150504L144.30461538461537,82.68139594421102L144.58499999999998,82.91122286963378L144.72,83.09404356042205L144.74076923076925,83.21064669996838L144.95884615384617,83.35321218870648L145.01076923076926,83.45604517358446L145.15615384615384,83.56617791071639L145.26000000000002,83.66686904905393L145.31192307692308,83.74459189136445L145.3846153846154,83.8154565375262L145.58192307692306,83.92378153526431L145.70653846153846,84.03035421445158L146.71384615384613,84.43089787635806L146.8696153846154,84.72335109884611L146.98384615384614,84.93706591428723L147.0253846153846,85.07920064845706L147.19153846153844,85.22013139264654L147.53423076923076,85.41952940383042L147.6276923076923,85.5705051899733L148.29230769230767,85.88412189531653L148.32346153846154,86.08275445728496L148.4896153846154,86.25774545383396L148.65576923076924,86.4185756239194L149.3930769230769,86.76307134044107L149.48653846153846,87.00123595884241L149.80846153846156,87.25255305907878L150.00576923076923,87.46982709860762L150.03692307692307,87.61068781899083L150.26538461538462,87.77222290773464L150.9403846153846,88.0968820108782L151.02346153846153,88.319727879177L151.24153846153845,88.52708067761309L151.47000000000003,88.7286749801478L151.77115384615382,88.95141405157531L152.24884615384616,89.24661076351467L152.5396153846154,89.52212102257613L153.1523076923077,89.89489119566433L153.31846153846155,90.1748421920898L153.6403846153846,90.45191351104425L153.94153846153844,90.72025949240549L154.20115384615383,90.96931251574054L154.25307692307692,91.13635872145862L154.38807692307694,91.28238627463259L154.5853846153846,91.43694955145578L155.02153846153846,91.67773280273127L155.03192307692308,91.82572804311879L155.23961538461538,91.98504544746856L155.84192307692308,92.2852304859442L156.01846153846157,92.5253317145776L156.29884615384614,92.7646861903829L156.30923076923077,92.91183139932475L156.3923076923077,93.02835459957097L156.5169230769231,93.14063468843445L156.64153846153846,93.25036649918945L156.7973076923077,93.36917173601299L156.83884615384613,93.45457773810527L157.01538461538462,93.56585735920609L157.2023076923077,93.6961984977283L157.38923076923075,93.83798619181859L157.54500000000002,93.97605148271019L157.64884615384614,94.09422071438932L157.67999999999998,94.17571982377277L157.8046153846154,94.26701921602194L157.815,94.32533137483009L157.85653846153846,94.37445599778603L158.1473076923077,94.50287518630526L158.4173076923077,94.67181812363924L158.76,94.88982708726076L158.91576923076923,95.07366130905326L159.2896153846154,95.31123396035039L159.84,95.64117972906938L159.88153846153847,95.85329175180826L160.08923076923077,96.05128177298903L160.59807692307692,96.34335751491882L160.89923076923077,96.6211594704818L161.3353846153846,96.93637300732105L161.865,97.30585272812087L162.02076923076922,97.58058387189324L162.10384615384615,97.77371168117163L162.16615384615386,97.91080279772109L162.68538461538463,98.16985001882145L162.71653846153848,98.33588315569408L162.7476923076923,98.44611025330885L162.8826923076923,98.55820789730122L163.16307692307691,98.72091454416581L163.4226923076923,98.9069094894424L163.49538461538464,99.0432485884918L163.72384615384615,99.20280855575164L164.07692307692307,99.41869132544157L164.4403846153846,99.67188100981774L164.67923076923077,99.90504285999248L164.7103846153846,100.05553512919447L164.84538461538463,100.19174847312055L165.39576923076925,100.46062788442053L165.40615384615384,100.62548805465919L165.60346153846154,100.79147387694057L165.6346153846154,100.90165570684893L165.7280769230769,100.99953340313373L165.73846153846154,101.06178531052683L165.80076923076922,101.12031471676293L166.00846153846152,101.22601049131333L166.02923076923076,101.29648818040326L166.88076923076923,101.62800527600201L166.94307692307694,101.84806968237339L167.72192307692308,102.2444134192679L168.34500000000003,102.69348867702023L168.40730769230768,102.98404940022279L168.64615384615382,103.23932523000552L169.0303846153846,103.52263709043993L169.04076923076923,103.69613985120755L169.10307692307694,103.8213401972676L169.19653846153844,103.92810602802402L169.37307692307692,104.0519218379812L169.4976923076923,104.16838941292394L169.56,104.2593517685374L169.7676923076923,104.38419625774753L170.17269230769233,104.5960587652017L170.69192307692308,104.89862814982578L170.94115384615384,105.16433064495341L171.18,105.40437566036688L171.55384615384617,105.67452460784358L171.80307692307693,105.92064463162696L171.83423076923074,106.07882017639932L172.61307692307693,106.43605575898789L172.67538461538462,106.67136558908469L172.98692307692306,106.91735530940008L173.08038461538462,107.09637774961668L173.12192307692308,107.21775492934329L173.18423076923077,107.3115304274924L173.79692307692306,107.57362007444144L174.13961538461538,107.8458701604038L174.15,108.01270450986367L174.23307692307694,108.14067226876257L174.27461538461537,108.23138288179517L174.45115384615386,108.34499649931858L174.5134615384615,108.43404634433908L174.55499999999998,108.50140138648702L174.8353846153846,108.635740955315L175.11576923076922,108.81021095818073L175.31307692307692,108.98091377375543L175.64538461538461,109.19443995689166L175.65576923076924,109.32602790826176L175.66615384615383,109.40845050929339L175.9153846153846,109.54117034982652L176.715,109.88757649672091L177.36923076923077,110.31325270139773L177.8053846153846,110.7136510304102L177.84692307692308,110.96768977645515L178.30384615384614,111.27178969515359L178.50115384615387,111.51968331383736L178.88538461538462,111.795726566812L179.19692307692307,112.0644612118497L179.2696153846154,112.24974485990047L179.37346153846153,112.39525527592303L179.79923076923077,112.62322588627654L179.97576923076923,112.81827198240774L180.03807692307691,112.95585699759278L180.11076923076925,113.06238576320402L180.59884615384615,113.28713773056785L180.65076923076924,113.43908367211932L180.81692307692308,113.5849318066556L180.8792307692308,113.69293776291342L180.9830769230769,113.79189227847351L181.17000000000002,113.91270557756263L181.34653846153847,114.0431848124295L181.3673076923077,114.12829265546758L181.69961538461538,114.28840744553455L182.02153846153846,114.48999146908139L182.5096153846154,114.77067101987154L182.63423076923075,114.97981127766667L182.74846153846156,115.1426184114255L183.41307692307691,115.45712488239901L183.73499999999999,115.7506458492739L184.11923076923077,116.05168316769758L184.36846153846156,116.31323048694011L184.46192307692306,116.50048794337502L184.52423076923077,116.63304893367524L184.68,116.76309217383827L185.00192307692308,116.94538422501847L185.03307692307692,117.06484101243691L185.2303846153846,117.20034042938549L185.42769230769233,117.3454135815577L186.60115384615384,117.81057010327166L186.68423076923077,118.11635928402069L186.74653846153848,118.31984520096505L186.99576923076924,118.5219309256988L187.00615384615386,118.64651354221695L187.4007692307692,118.84772021811125L187.68115384615385,119.05815344054595L187.80576923076924,119.22424769997056L188.02384615384616,119.3935492215341L188.63653846153846,119.69040875465026L188.77153846153846,119.91146935015041L188.87538461538463,120.07712093693576L188.9169230769231,120.18971484613863L189.405,120.41218018197847L190.1526923076923,120.782213068714L190.38115384615384,121.07632521465761L190.4226923076923,121.26589298000594L190.45384615384614,121.38945357217423L190.55769230769232,121.49631942042132L190.76538461538462,121.6258376332915L191.03538461538463,121.7884593330771L191.3884615384615,121.99688125118588L191.48192307692307,122.1512374678063L192.06346153846155,122.4258521111818L192.62423076923076,122.765550735496L192.89423076923077,123.05339212590607L192.94615384615386,123.24223926615481L193.15384615384616,123.42006854873863L193.68346153846153,123.69093683052151L193.725,123.86631594385287L194.05730769230772,124.07426027229775L194.56615384615387,124.35590466883227L194.77384615384616,124.588780550139L195.10615384615386,124.83055863205658L195.20999999999998,125.00747124046885L195.2203846153846,125.11680410482603L195.48,125.26192659299986L195.57346153846154,125.37759423568876L195.71884615384616,125.49143710107442L196.155,125.6928333542993L196.4146153846154,125.89271162003143L197.19346153846155,126.248941491706L197.88923076923075,126.67271747249316L198.21115384615385,127.02382484058762L198.5642307692308,127.34045290880988L198.57461538461538,127.53354391632811L198.80307692307693,127.71781494019339L199.1976923076923,127.94628908838848L199.24961538461537,128.09886724930797L199.30153846153846,128.20589576146804L199.68576923076924,128.38451478633004L199.76884615384614,128.51637769627564L199.91423076923078,128.6386742119182L200.02846153846153,128.7459450562763L200.21538461538464,128.86570307666415L200.23615384615383,128.94370906114463L200.47500000000002,129.06117035484243L200.48538461538462,129.13471668898802L200.4957692307692,129.18191404740222L200.52692307692305,129.21943872495254L200.7242307692308,129.30020641064718L201.0876923076923,129.4557519140768L201.26423076923078,129.60098078690987L201.39923076923077,129.72776315118682L201.4096153846154,129.80688042617058L201.6276923076923,129.91829790523832L201.73153846153846,130.01556064668733L201.8146153846154,130.09822880453294L201.91846153846154,130.1781985502301L202.4273076923077,130.37462474947324L202.51038461538462,130.51666197857892L202.5519230769231,130.61396482288728L202.84269230769232,130.75682206571037L202.98807692307693,130.88469521014218L203.05038461538462,130.9794759581802L203.19576923076923,131.0784308673766L203.28923076923076,131.1648342483699L203.3619230769231,131.23769057180698L203.3723076923077,131.28440640798934L203.41384615384618,131.32443081614593L203.67346153846154,131.423351837315L203.7773076923077,131.5126199805897L203.81884615384615,131.5781420150983L203.98499999999999,131.6652491931236L204.13038461538463,131.7592816715093L204.5042307692308,131.92286441711497L204.5873076923077,132.0447808340826L204.70153846153846,132.15058663320553L205.2103846153846,132.35914711364404L205.22076923076924,132.4872384240905L205.27269230769232,132.5788574705204L205.55307692307693,132.7134553529267L205.9476923076923,132.90594430301348L207.10038461538463,133.3455726216443L207.19384615384615,133.63548184694093L207.36,133.85583605976197L207.39115384615386,133.99674245320895L207.48461538461538,134.10734980194923L207.7753846153846,134.2546560183334L208.12846153846155,134.44103532469728L208.13884615384615,134.55574197541642L208.2323076923077,134.6504486326091L208.2634615384615,134.71589535995417L208.66846153846154,134.86702503169937L208.92807692307693,135.0291803725519L209.08384615384614,135.16927859852282L209.10461538461539,135.25904020849424L209.18769230769232,135.3356946099992L209.35384615384615,135.42722425125484L209.56153846153848,135.53896743811634L209.81076923076924,135.67404396497778L210.03923076923078,135.81730569698556L210.33,135.98224417365657L210.45461538461538,136.11498686452765L210.89076923076925,136.31252833961392L210.9219230769231,136.4394565313233L211.3476923076923,136.63016305474207L211.43076923076924,136.76687863858473L212.2719230769231,137.07355176525292L212.28230769230768,137.26031293857463L213.18576923076924,137.6114190013691L213.26884615384617,137.8439469096678L213.72576923076923,138.10337353583787L213.73615384615385,138.26174822839974L214.26576923076922,138.4949929707818L214.35923076923078,138.65924731508872L214.88884615384617,138.89506437928884L214.9926923076923,139.06337406638832L215.0653846153846,139.18311781934136L215.36653846153845,139.3324957271942L215.75076923076924,139.52065516079455L215.9273076923077,139.678680918008L216.36346153846154,139.88458760409407L216.86192307692306,140.13439823070297L217.2773076923077,140.3889359155408L217.53692307692307,140.60680404609022L217.73423076923078,140.78689706372205L217.78615384615384,140.90792856840483L217.83807692307693,140.99350869764527L218.025,141.09146197205567L218.0769230769231,141.16316321368848L218.12884615384615,141.21910057644095L218.25346153846152,141.28363406196536L218.47153846153844,141.3764409454781L218.9596153846154,141.55264380467642L219.17769230769233,141.71197548200857L219.56192307692308,141.90166921864414L219.72807692307694,142.056036539216L220.08115384615382,142.23453100950775L220.19538461538463,142.3693266542087L220.33038461538462,142.48288952813706L220.71461538461537,142.64373610023358L220.7873076923077,142.7577288289724L220.82884615384617,142.83611077741298L221.08846153846156,142.94541966125675L221.35846153846154,143.07555130842513L222.19961538461538,143.35321304958248L222.23076923076923,143.52716087773337L222.28269230769232,143.64376741741125L222.80192307692306,143.83565162611782L223.00961538461536,143.9993037120432L223.16538461538462,144.13379797174298L223.19653846153847,144.22174584576834L223.2173076923077,144.27934315600334L223.425,144.36214580578246L223.4873076923077,144.42627035291034L223.72615384615386,144.52000013796928L223.98576923076925,144.63608112654515L224.00653846153847,144.7105070658357L224.14153846153846,144.7861861425971L224.55692307692308,144.9266685037271L224.61923076923077,145.02517060053896L224.76461538461538,145.1173799223456L224.87884615384613,145.19867197412947L224.97230769230768,145.26866043054284L225.01384615384615,145.32007316506744L225.45,145.44946615388463L225.5226923076923,145.54346126827065L225.56423076923076,145.609202645116L225.61615384615385,145.66031444375204L225.62653846153847,145.69331503800336L226.04192307692307,145.80612504932535L226.23923076923074,145.91778976753938L226.51961538461538,146.04705083147584L226.75846153846152,146.17743798577507L227.48538461538462,146.41525654674712L227.58923076923077,146.58059561956608L227.71384615384616,146.7069319780824L227.89038461538462,146.82107674321117L228.05653846153848,146.9255543498269L228.13961538461538,147.0062007212031L228.23307692307694,147.07476311102386L228.30576923076924,147.13157024027197L228.72115384615384,147.2548561605292L228.85615384615386,147.35768408903886L228.90807692307692,147.43046609766023L228.9703846153846,147.48742084626397L229.00153846153847,147.52823254881363L229.79076923076923,147.71976332127977L229.80115384615385,147.83686580054282L229.82192307692307,147.91148989429016L230.2580769230769,148.0475873157812L230.28923076923076,148.13574416507242L230.61115384615385,148.2555771829099L230.83961538461537,148.37475975982446L230.89153846153846,148.45698985156855L230.9226923076923,148.5127539646473L230.9746153846154,148.5569173047776L231.4003846153846,148.6708295911452L231.55615384615385,148.7709937868818L231.71192307692309,148.86282533630103L231.80538461538464,148.93691971760884L231.82615384615386,148.9855954814937L232.02346153846153,149.05478717635356L232.23115384615386,149.1382421684553L232.335,149.2092257735685L232.48038461538462,149.28102918225588L232.49076923076922,149.32619457236132L232.90615384615384,149.43631594435908L232.92692307692306,149.50652290507983L233.15538461538463,149.59402554028313L233.39423076923077,149.69376497754936L233.82,149.83729749643496L233.955,149.9498105642257L233.96538461538464,150.0193462903805L234.06923076923076,150.08132397513813L234.1626923076923,150.136706698723L234.17307692307693,150.17195638169812L234.19384615384615,150.19714478208243L234.2457692307692,150.2223487227287L234.35999999999999,150.25963194503237L235.11807692307693,150.42785289987776L235.5023076923077,150.60189544634568L235.5126923076923,150.70829008478577L235.68923076923076,150.8055266963055L235.73076923076923,150.8717113475513L236.115,150.98365561201155L236.43692307692308,151.11091817109354L236.44730769230767,151.18920774369036L236.47846153846154,151.24197639305189L236.48884615384614,151.27556811276713L236.84192307692308,151.36111853300986L236.89384615384617,151.42202457613513L236.9873076923077,151.4757826228545L237.03923076923076,151.5175870192087L237.23653846153846,151.57886265057L237.57923076923078,151.6781422410306L237.82846153846154,151.78289404472363L237.83884615384616,151.8476198962153L238.21269230769232,151.95377680447444L238.6073076923077,152.0879514234468L239.02269230769232,152.24200893946264L239.08499999999998,152.34541748035252L239.10576923076923,152.41111840497433L239.11615384615385,152.45236610626677L239.30307692307693,152.50992831333684L239.43807692307692,152.56808140084757L239.53153846153847,152.61928193759474L239.57307692307694,152.65723700030665L240.2376923076923,152.79490415778713L240.9126923076923,152.99244468783604L241.15153846153848,153.1512162633256L241.3176923076923,153.27434515220293L241.5253846153846,153.38290330585352L242.02384615384614,153.53058953379048L242.05499999999998,153.62432945776473L242.10692307692307,153.68910722927257L242.80269230769233,153.8413434810021L242.98961538461538,153.96281657206666L243.76846153846154,154.15976283141927L244.17346153846154,154.34149099226892L244.18384615384613,154.4521497751892L244.53692307692307,154.57341128301528L244.83807692307693,154.69257264561597L244.97307692307692,154.78475311141045L245.0873076923077,154.8575075959071L245.3053846153846,154.9343177815402L245.4923076923077,155.00867432852425L245.6376923076923,155.07517724294456L245.64807692307693,155.11663908898774" style="fill: none;" fill="none"></path></g></g></g></g><g opacity="0.2"><g><g><g><path stroke="rgb(255, 112, 67)" stroke-width="2px" d="M20.85230769230769,118.32252790982074L21.101538461538464,117.28687763214111L21.13269230769231,117.15742210095578L21.40269230769231,116.03546914051879L21.641538461538463,115.04297171126711L22.306153846153848,112.28124065155332L22.399615384615384,111.89287104389884L23.04346153846154,109.21744266694242L23.095384615384614,109.00168746709824L23.31346153846154,108.09549272060394L23.500384615384615,107.31875350529496L23.863846153846154,105.80843093720348L23.884615384615387,105.72213126854463L23.967692307692307,105.37690848112106L24.26884615384615,104.12550300359726L24.47653846153846,103.26245809143239L25.037307692307692,100.93225250189954L25.442307692307693,99.24931854009628L25.587692307692308,98.6451907184991L26.231538461538463,95.96976234154268L26.511923076923075,94.80465653267773L26.678076923076922,94.11422301422466L26.75076923076923,93.81216211752458L26.761153846153846,93.76901228319515L27.249230769230767,91.74086156216534L27.38423076923077,91.17988960309462L27.529615384615386,90.57575575330041L27.63346153846154,90.14423329721798L28.08,88.28869999809699L28.163076923076925,87.94348323887044L28.609615384615385,86.08794391155243L28.651153846153846,85.91533251784064L28.67192307692308,85.82903284918177L28.81730769230769,85.22489899938756L28.838076923076922,85.13859933072871L28.910769230769233,84.83653843402863L28.993846153846153,84.49131564660506L29.056153846153844,84.23240458423442L29.34692307692308,83.02414894104004L30.478846153846156,78.32057587125085L30.748846153846156,77.19861989671534L30.75923076923077,77.1554700623859L30.82153846153846,76.89655900001526L31.07076923076923,75.86090872233565L31.101923076923075,75.73145319115032L31.195384615384615,75.34308056939733L31.70423076923077,73.22863017970866L31.735384615384614,73.09917464852333L32.01576923076923,71.93407486785543L32.07807692307692,71.67515777728777L32.129999999999995,71.45939654924653L32.67,69.21549062837255L32.721923076923076,68.99972940033133L32.73230769230769,68.95657956600189L32.91923076923077,68.17984035069293L33.05423076923077,67.61886236342518L33.58384615384615,65.41811230507766L33.760384615384616,64.68452292409812L34.33153846153846,62.311161472038805L34.362692307692306,62.181705940853476L34.50807692307693,61.5775781192563L34.549615384615386,61.40496672554451L35.04807692307693,59.3336721983823L35.120769230769234,59.03161130168222L35.34923076923077,58.0822667208585L35.473846153846154,57.5644445961172L35.57769230769231,57.13292214003478L35.88923076923077,55.83835477178748L36.003461538461536,55.36368248137562L36.14884615384615,54.75954863158141L36.481153846153845,53.37868159467524L36.7823076923077,52.12727611715144L36.94846153846154,51.43684259869836L37.114615384615384,50.7464090802453L37.15615384615384,50.57380974292755L37.332692307692305,49.840226390145034L37.69615384615385,48.32989779385653L38.1323076923077,46.517508300867945L38.22576923076923,46.12914773550901L38.4126923076923,45.35240249200302L38.50615384615384,44.96404192664406L38.651538461538465,44.35990807684985L38.67230769230769,44.273596351796954L38.70346153846154,44.144146848808646L39.160384615384615,42.24545768716118L39.62769230769231,40.30361869118431L39.81461538461538,39.5268734476783L39.90807692307692,39.13851288231936L40.043076923076924,38.57752886685458L40.07423076923077,38.4480793638663L40.15730769230769,38.10286863283679L40.57269230769231,36.376778808507055L40.74923076923076,35.643195455724566L40.85307692307693,35.211672999642104L40.88423076923077,35.08221144025978L41.445,32.75199982252988L41.56961538461538,32.363639257170945L41.80846153846154,32.36404917456886L42.23423076923077,32.36635194583374L42.31730769230769,32.36703916029498L42.35884615384615,32.367400852116674L42.43153846153846,32.36811217936602L42.981923076923074,32.37530984661797L43.05461538461538,32.376515486023635L43.37653846153846,32.38255573944613L43.418076923076924,32.38342379981822L43.50115384615384,32.38520814613864L43.62576923076924,32.38804139874199L43.833461538461535,32.39312919703397L43.885384615384616,32.394467456774294L43.895769230769226,32.394744753837585L44.10346153846154,32.40047154101458L44.15538461538462,32.40197859027168L44.518846153846155,32.41337188265541L44.62269230769231,32.41689234972L44.74730769230769,32.421280877156704L45.017307692307696,32.431384135376334L45.11076923076923,32.43507339195773L45.47423076923077,32.450348843227744L45.48461538461539,32.45081904259595L45.505384615384614,32.45172327215022L45.9623076923077,32.4731836535714L46.13884615384615,32.4820933287794L46.159615384615385,32.48317840424451L46.21153846153846,32.48587903651324L46.47115384615385,32.49982828443703L46.48153846153846,32.50039493495768L46.58538461538461,32.50620611689308L46.606153846153845,32.5073755871166L46.65807692307692,32.510341460054576L46.80346153846154,32.51878093589437L46.86576923076923,32.52248224886981L46.95923076923077,32.52810052850029L47.114999999999995,32.53768536177549L47.177307692307686,32.54159163344991L48.54807692307692,32.638561210849076L48.735,32.65340263193306L49.11923076923077,32.68514711748472L49.26461538461538,32.69758931615135L49.628076923076925,32.7297075499188L50.49,32.811775424263686L50.739230769230765,32.837057682600886L51.47653846153846,32.91584621776235L51.559615384615384,32.92510552839801L51.933461538461536,32.96771282499489L52.21384615384615,33.000699119134396L52.245000000000005,33.0044124885039L52.847307692307695,33.07839052243668L53.49115384615384,33.16191722046247L53.84423076923077,33.2096725973216L53.854615384615386,33.211095251820296L54.207692307692305,33.26028533957222L54.31153846153846,33.27500619671562L54.35307692307692,33.28092588619754L54.37384615384615,33.283891759135514L54.38423076923077,33.2853746956045L54.986538461538466,33.37361544370651L55.401923076923076,33.43679094856438L55.723846153846154,33.48705405538735L56.00423076923077,33.53178327733821L56.05615384615385,33.54015041481367L56.28461538461538,33.577344390479L56.48192307692308,33.6099448800087L56.637692307692305,33.635974634777426L56.80384615384616,33.664029863747686L58.05,33.88414345004341L58.23692307692308,33.918636793440044L58.25769230769231,33.922482783144176L58.34076923076923,33.93795113671911L58.63153846153846,33.99267510934311L58.776923076923076,34.02038070288572L59.35846153846154,34.13352996110916L59.4,34.14175242185593L59.514230769230764,34.164466668259024L60.05423076923077,34.273745823990225L60.27230769230769,34.318776455792516L60.324230769230766,34.32956692847338L60.345,34.333895173939794L60.448846153846155,34.35559668324211L60.79153846153846,34.42806766791779L60.91615384615385,34.4547364115715L61.456153846153846,34.57221391526136L61.746923076923075,34.63678796182981L62.03769230769231,34.70227829434654L62.432307692307695,34.79261685501447L62.54653846153846,34.81906858357516L62.57769230769231,34.826314476403326L63.16961538461539,34.965879294005305L63.221538461538465,34.978309436277925L63.33576923076923,35.00573773275724L64.09384615384616,35.19134591926229L64.21846153846154,35.22243935953489L64.23923076923077,35.227635665373384L64.29115384615385,35.24065657095477L64.30153846153846,35.24326075207105L64.56115384615384,35.308823422952145L64.61307692307692,35.32201311805031L64.64423076923077,35.32994622533974L64.935,35.40447885339913L64.96615384615384,35.412508411840975L65.36076923076924,35.51524094559929L65.49576923076923,35.55077113888481L65.51653846153846,35.55624474178663L66.285,35.76233674179426L66.3576923076923,35.78214539722964L66.70038461538462,35.876329947601675L67.31307692307692,36.04783215306023L67.48961538461538,36.09797469594261L67.7076923076923,36.16037859158084L68.20615384615385,36.30488653074613L68.23730769230768,36.314013221047134L68.72538461538461,36.45819563757291L69.09923076923077,36.57034421508965L69.14076923076924,36.582894921302795L69.22384615384615,36.60804455930537L69.60807692307692,36.72532916069031L69.66,36.74129182642159L69.99230769230769,36.844144924120485L70.07538461538462,36.87004205855456L70.38692307692307,36.967783245173365L70.51153846153846,37.00715942816302L70.53230769230768,37.01374221931806L70.92692307692307,37.13958686048335L71.05153846153846,37.17967437072235L71.4876923076923,37.3212043805556L72.19384615384615,37.554531774737626L72.28730769230769,37.585794004527L72.31846153846153,37.596246898174286L73.1076923076923,37.86410380493513L73.12846153846154,37.87124119021675L73.13884615384616,37.87480988285759L73.68923076923078,38.065566149624914L73.98,38.16758735613391L74.66538461538461,38.41147615150973L75.07038461538461,38.55785283175382L76.005,38.901942318136065L76.17115384615384,38.96403274752876L76.31653846153846,39.01859998703003L76.94999999999999,39.25879952582446L77.17846153846155,39.34641334143552L77.93653846153846,39.640866653485745L77.9573076923077,39.64901677586815L78.28961538461537,39.779973328113556L78.53884615384617,39.87889604134995L78.68423076923077,39.93688729676333L79.13076923076923,40.116322609511286L79.4423076923077,40.24266156283292L79.48384615384616,40.25958874008873L79.63961538461538,40.323186218738556L80.06538461538462,40.49822094765577L80.09653846153846,40.51110923290253L80.64692307692307,40.740168663588435L80.97923076923077,40.87990227070722L81.15576923076922,40.9545795754953L81.18692307692308,40.967793383381576L81.53999999999999,41.11814867366445L81.56076923076922,41.12703423608434L81.63346153846153,41.15815178914505L82.00730769230769,41.3190081986514L82.22538461538461,41.41347004608676L82.47461538461538,41.52197759259832L82.52653846153846,41.544667726213305L82.58884615384615,41.571915176781744L82.86923076923077,41.69499890370804L83.07692307692308,41.786675724116236L83.12884615384615,41.809655211188584L83.28461538461538,41.878750405528336L83.33653846153847,41.90183840014717L83.78307692307692,42.10141994736412L84.22961538461539,42.30291846123609L84.33346153846153,42.35003484921023L84.85269230769231,42.58722028949043L85.05,42.67800493673846L85.185,42.740336494012325L85.24730769230769,42.769163332202226L85.38230769230769,42.8317480737513L85.97423076923077,43.10816502029246L86.21307692307693,43.22062706405467L86.265,43.24514976956627L86.51423076923076,43.363193923776805L86.62846153846154,43.41748386621475L86.74269230769231,43.47190642898735L86.8776923076923,43.53637196800926L87.12692307692306,43.65582672032443L88.12384615384616,44.13939662955025L88.16538461538462,44.15973576632413L88.37307692307692,44.261708747256904L88.93384615384616,44.53899375417015L89.03769230769231,44.59066745909777L89.235,44.689095860177844L89.79576923076924,44.97078145092186L89.88923076923078,45.01799429004845L90.01384615384616,45.081073343753815L90.045,45.09686721996829L90.20076923076924,45.175957164981156L90.23192307692307,45.191811323165894L90.35653846153846,45.25528823787516L90.63692307692307,45.39859053763476L90.67846153846153,45.41988212953916L90.7926923076923,45.47852443023163L91.61307692307692,45.903005952184856L91.75846153846155,45.978864783590495L91.84153846153846,46.02229191498324L91.99730769230769,46.10387753356588L92.6723076923077,46.45990285006437L93.00461538461539,46.636637530543595L93.27461538461539,46.78095256740397L93.50307692307693,46.90356609496203L94.45846153846155,47.42117120461032L94.54153846153847,47.46655147184026L94.7803846153846,47.597363347356975L94.9673076923077,47.700071768327206L95.60076923076923,48.05034618486059L95.92269230769232,48.22966093366799L96.47307692307693,48.53826845234093L96.58730769230769,48.602637540210395L96.77423076923077,48.70820332657209L96.87807692307693,48.766978247599184L96.88846153846154,48.77286176789892L97.08576923076923,48.88479333032262L97.32461538461538,49.02074122970757L97.52192307692307,49.133396175774664L97.92692307692307,49.36563849449158L97.95807692307693,49.383566352454096L98.03076923076922,49.42541409622541L98.13461538461539,49.48527409271762L98.16576923076923,49.50325017625636L98.32153846153847,49.59323910149661L98.66423076923077,49.79192847555336L98.86153846153846,49.906765628944754L99.68192307692308,50.387622849507764L100.04538461538462,50.602395453236326L100.22192307692308,50.70710523561998L100.37769230769231,50.79969834197652L100.49192307692309,50.86773257363927L100.55423076923077,50.9048783237284L100.81384615384616,51.06000794605775L100.9176923076923,51.122194826602936L101.10461538461539,51.23437957330185L101.25,51.32181254300205L101.4576923076923,51.44701819528234L101.54076923076923,51.497196907346904L101.64461538461538,51.55999866398899L102.00807692307691,51.78046188571237L102.06,51.812037581747234L102.69346153846153,52.1989996053956L102.70384615384616,52.20536538145761L103.03615384615385,52.409624809568584L103.64884615384615,52.78848493641074L104.01230769230769,53.01460260694678L104.12653846153847,53.08586795221676L104.25115384615385,53.16372814503585L104.4276923076923,53.27423705296083L105.61153846153846,54.02137179266323L105.65307692307692,54.047775295647725L105.79846153846154,54.14028400724585L105.97500000000001,54.252854558554574L106.03730769230769,54.29262860254808L106.47346153846154,54.571914970874786L106.63961538461538,54.67867434024811L106.75384615384615,54.75217011841862L107.13807692307692,55.000158087773755L107.19000000000001,55.03374720161612L107.21076923076923,55.047190080989495L107.27307692307693,55.087530775503694L107.51192307692307,55.242455439134076L107.56384615384616,55.27618922970514L107.6573076923077,55.33696551214565L108.59192307692308,55.948116183280945L108.62307692307692,55.96858794038947L108.91384615384615,56.16006759080021L108.96576923076923,56.194331862709745L109.01769230769231,56.228596134619295L109.62,56.627554270354196L109.88999999999999,56.807230710983276L109.98346153846154,56.8695502118631L110.32615384615384,57.098549360578716L110.33653846153845,57.10549384355545L110.42999999999999,57.16810269789262L110.8246153846154,57.43307812647386L110.90769230769232,57.48900773850356L110.95961538461539,57.52398333766244L111.78,58.07903560725127L112.0603846153846,58.269779817624524L112.2473076923077,58.397240015593454L112.27846153846154,58.418507494709715L112.49653846153846,58.56754863804038L112.61076923076922,58.645746409893036L112.86,58.81665785204281L112.9326923076923,58.86658337983219L113.10923076923076,58.98797921159051L113.13,59.00227809494193L113.16115384615385,59.02372641996904L113.37923076923076,59.17403348467569L113.45192307692308,59.224212196740254L113.69076923076923,59.38931245695461L113.86730769230769,59.51160046187316L114.05423076923077,59.64127903634852L114.11653846153847,59.68456149101257L114.22038461538462,59.75674312223089L114.4176923076923,59.89408956332642L114.69807692307693,60.08970455689865L114.78115384615384,60.14775609428233L114.99923076923076,60.30036593025382L115.73653846153846,60.818549746816814L116.47384615384615,61.340139494700864L116.54653846153846,61.39175291765821L116.82692307692308,61.59111744978212L117.045,61.74651834097777L117.315,61.939312138340696L117.40846153846154,62.006146758794785L117.74076923076923,62.24423642862928L117.95884615384615,62.4008429592306L118.40538461538462,62.72240507331763L118.43653846153846,62.74487216364254L118.64423076923077,62.89487781849776L118.71692307692308,62.94744369658558L118.98692307692308,63.14294415441428L119.71384615384615,63.67141810330479L119.80730769230769,63.739590983499184L119.88,63.79263911734928L120.015,63.89126042073424L120.24346153846153,64.05838012695312L120.3576923076923,64.14204547351058L120.63807692307692,64.34773358431731L120.88730769230769,64.5309546047991L120.94961538461538,64.5768110995943L121.18846153846154,64.752798283642L121.37538461538462,64.8907535726374L122.10230769230769,65.42908362366937L122.55923076923077,65.76894734393467L122.85000000000001,65.98581776022911L122.88115384615384,66.0090805725618L123.29653846153846,66.31974370642143L123.54576923076924,66.50658767331731L124.22076923076922,67.01426434245978L125.03076923076922,67.62659654021263L125.08269230769231,67.66596669500525L125.11384615384615,67.68959119915962L125.25923076923077,67.79991323297675L125.38384615384615,67.89456195451997L125.6226923076923,68.07619153098626L125.685,68.12362138520588L125.84076923076923,68.24228041551332L126.00692307692307,68.36897503245962L126.25615384615384,68.55928521264684L126.4326923076923,68.69427462870425L127.16999999999999,69.25968936898492L127.37769230769231,69.41943056204103L127.4503846153846,69.47539031505585L127.5023076923077,69.51538740233941L128.62384615384616,70.3822119940411L128.655,70.40636697953398L128.87307692307692,70.575632723895L128.92499999999998,70.61596739021216L129.37153846153845,70.96333621577783L129.48576923076922,71.05234254490246L129.58961538461537,71.13330725919117L129.63115384615384,71.1657027900219L129.9323076923077,71.40084467150949L130.02576923076924,71.47389436309989L130.26461538461538,71.66076244278389L130.275,71.6688884523782L130.39961538461537,71.76649701866238L130.72153846153847,72.01895188201559L130.815,72.09232106804848L130.99153846153845,72.23103590986948L131.04346153846154,72.27185283194889L131.13692307692307,72.34535463831644L131.22,72.41073646328668L131.30307692307693,72.47613034465097L131.47961538461539,72.61520687829365L131.79115384615383,72.86095235835423L131.895,72.94295392253183L132.27923076923076,73.24676902456719L132.37269230769232,73.32076514309104L132.38307692307694,73.3289876038378L132.61153846153846,73.51001436060126L132.68423076923077,73.56766200878404L132.975,73.79845756021415L133.07884615384614,73.88097754933618L133.13076923076923,73.92224658619274L133.245,74.01307945901698L133.33846153846153,74.08744329755957L133.48384615384614,74.20317865230821L133.87846153846152,74.51774805784225L133.9096153846154,74.54260834238748L134.2626923076923,74.824613427574L134.30423076923077,74.85782276500356L134.5430769230769,75.04890455441041L134.60538461538462,75.0987878848206L134.62615384615384,75.11542570861904L135.04153846153847,75.44839317148383L135.10384615384618,75.49839103763755L135.1246153846154,75.51506503061815L135.23884615384614,75.60677802020854L135.29076923076923,75.64848711544818L135.43615384615384,75.76531357385896L135.5296153846154,75.84045504981822L135.69576923076923,75.97411826252937L135.95538461538462,76.18318216367203L136.15269230769232,76.34223011406986L136.24615384615385,76.41761874610728L136.43307692307692,76.56848040494053L136.71346153846156,76.79501402107154L136.9523076923077,76.98820567943834L136.97307692307695,77.00501832095058L136.98346153846154,77.01342162760822L137.59615384615384,77.5099702450362L137.62730769230768,77.5352525033734L137.72076923076924,77.61111736297607L138.1153846153846,77.93176921931179L138.64499999999998,78.36292395537549L139.2473076923077,78.85436066172339L139.62115384615385,79.15997216647321L139.7976923076923,79.30443188006228L140.0053846153846,79.47451745921916L140.29615384615383,79.7128542851318L140.3273076923077,79.73840781233527L140.4,79.79802668094635L140.42076923076922,79.81507442214273L140.59730769230768,79.95996816591783L140.6803846153846,80.0281772152944L140.77384615384614,80.10495233264835L141.09576923076924,80.3695660694079L141.50076923076924,80.70291330868548L141.6253846153846,80.80557350407946L141.75,80.90826986865564L141.86423076923074,81.00245441902767L142.0096153846154,81.12237937071107L142.03038461538463,81.13951150666583L142.40423076923076,81.448167250915L142.77807692307692,81.75719674337994L143.05846153846153,81.98922204700382L143.21423076923077,82.11821340701796L143.5257692307692,82.37638300115412L143.775,82.58308987725864L143.96192307692309,82.73823155598207L144.30461538461537,83.02287096327001L144.58499999999998,83.25596325776793L144.72,83.36827459660442L144.74076923076925,83.38555140928788L144.95884615384617,83.56706042181361L145.01076923076926,83.61029465090144L145.15615384615384,83.73137701641429L145.26000000000002,83.81790575656025L145.31192307692308,83.86117615483023L145.3846153846154,83.92175350676882L145.58192307692306,84.08626903187144L145.70653846153846,84.1902132332325L146.71384615384613,85.0317133692178L146.8696153846154,85.16203093257816L146.98384615384614,85.25763813744891L147.0253846153846,85.29240274971181L147.19153846153844,85.43152750893073L147.53423076923076,85.71862642060626L147.6276923076923,85.79696886918761L148.29230769230767,86.35454695333134L148.32346153846154,86.38070330023766L148.4896153846154,86.52023194865747L148.65576923076924,86.65982087904757L149.3930769230769,87.27981491522355L149.48653846153846,87.35848288644443L149.80846153846156,87.6295287094333L150.00576923076923,87.79573815790089L150.03692307692307,87.82197889956562L150.26538461538462,88.01452554085039L150.9403846153846,88.58387066559358L151.02346153846153,88.65399668162519L151.24153846153845,88.83810987526721L151.47000000000003,89.0310664339499L151.77115384615382,89.28552265871654L152.24884615384616,89.68940583142367L152.5396153846154,89.93538641116835L153.1523076923077,90.45404645529659L153.31846153846155,90.59476868672805L153.6403846153846,90.86752048947595L153.94153846153844,91.12277846444736L154.20115384615383,91.3428920507431L154.25307692307692,91.38692803003572L154.38807692307694,91.50142760439353L154.5853846153846,91.66879446669058L155.02153846153846,92.0389076796445L155.03192307692308,92.04772090370004L155.23961538461538,92.22402155399323L155.84192307692308,92.73550804365765L156.01846153846157,92.8854835575277L156.29884615384614,93.12371790409088L156.30923076923077,93.13254921273752L156.3923076923077,93.20313939994031L156.5169230769231,93.30905482172966L156.64153846153846,93.41496421532197L156.7973076923077,93.54737959124826L156.83884615384613,93.5826867412437L157.01538461538462,93.73277679085732L157.2023076923077,93.89171020551161L157.38923076923075,94.05066773295403L157.54500000000002,94.18314941904761L157.64884615384614,94.27147456190802L157.67999999999998,94.29796848784794L157.8046153846154,94.40396830439568L157.815,94.41279961304231L157.85653846153846,94.44814293221994L158.1473076923077,94.69550396908413L158.4173076923077,94.9252325296402L158.76,95.21684053269298L158.91576923076923,95.349412641742L159.2896153846154,95.66759293729608L159.84,96.13609838214786L159.88153846153847,96.17145978591658L160.08923076923077,96.34826680476014L160.59807692307692,96.7814711278135L160.89923076923077,97.03786240382628L161.3353846153846,97.40919331257993L161.865,97.86007230932061L162.02076923076922,97.99268058755182L162.10384615384615,98.06340339508922L162.16615384615386,98.11643947254528L162.68538461538463,98.55842085047202L162.71653846153848,98.584932861003L162.7476923076923,98.61145089973103L162.8826923076923,98.72635436328974L163.16307692307691,98.96497451446272L163.4226923076923,99.18590190735729L163.49538461538464,99.24775723706593L163.72384615384615,99.44214850664139L164.07692307692307,99.74251547997648L164.4403846153846,100.05166553638198L164.67923076923077,100.2547856352546L164.7103846153846,100.28127353299747L164.84538461538463,100.39606848900968L165.39576923076925,100.8639470013705L165.40615384615384,100.87277831001715L165.60346153846154,101.04045261036266L165.6346153846154,101.06692845171148L165.7280769230769,101.14634994756092L165.73846153846154,101.15516317161646L165.80076923076922,101.20810882611708L166.00846153846152,101.38455415313894L166.02923076923076,101.40220471403815L166.88076923076923,102.12528091940013L166.94307692307694,102.17816629193045L167.72192307692308,102.83892902460964L168.34500000000003,103.36710156364875L168.40730769230768,103.41989048502661L168.64615384615382,103.6222389746796L169.0303846153846,103.94760488109155L169.04076923076923,103.95639399235898L169.10307692307694,104.00914071635766L169.19653846153844,104.08825477415864L169.37307692307692,104.23764555291696L169.4976923076923,104.34309077533808L169.56,104.39579530195756L169.7676923076923,104.57146299156275L170.17269230769233,104.91385252638297L170.69192307692308,105.3524822267619L170.94115384615384,105.56288438764484L171.18,105.7644431834871L171.55384615384617,106.07974802905862L171.80307692307693,106.28982466730204L171.83423076923074,106.31608349355784L172.61307692307693,106.97190913287075L172.67538461538462,107.0243303342299L172.98692307692306,107.28633988987316L173.08038461538462,107.36491140994158L173.12192307692308,107.39982069893317L173.18423076923077,107.45219367471607L173.79692307692306,107.966754544865L174.13961538461538,108.2542452893474L174.15,108.26295603405346L174.23307692307694,108.33262390711091L174.27461538461537,108.36744880134408L174.45115384615386,108.51541692560369L174.5134615384615,108.56762111186981L174.55499999999998,108.60243394970894L174.8353846153846,108.83725030855699L175.11576923076922,109.07191596247934L175.31307692307692,109.23696799711747L175.64538461538461,109.514729231596L175.65576923076924,109.52340983531691L175.66615384615383,109.53208441084081L175.9153846153846,109.74025011062622L176.715,110.40718571706252L177.36923076923077,110.95176700841297L177.8053846153846,111.3142485239289L177.84692307692308,111.34874789552255L178.30384615384614,111.72793957320125L178.50115384615387,111.891523741863L178.88538461538462,112.20979144627397L179.19692307692307,112.46756317940624L179.2696153846154,112.52767033197664L179.37346153846153,112.61352089995687L179.79923076923077,112.96518180180679L179.97576923076923,113.11084112660451L180.03807692307691,113.1622345203703L180.11076923076925,113.22217891162092L180.59884615384615,113.62426568161358L180.65076923076924,113.66700258444656L180.81692307692308,113.80370400846004L180.8792307692308,113.85494669730012L180.9830769230769,113.94032405181365L181.17000000000002,114.0939255261963L181.34653846153847,114.2389036647298L181.3673076923077,114.2559544200247L181.69961538461538,114.528579630635L182.02153846153846,114.79236750440162L182.5096153846154,115.19169034605676L182.63423076923075,115.29352166435936L182.74846153846156,115.38682911206377L183.41307692307691,115.92888458885929L183.73499999999999,116.1909272995862L184.11923076923077,116.50323914533311L184.36846153846156,116.70555146580392L184.46192307692306,116.78137412802738L184.52423076923077,116.83189041912556L184.68,116.95815703408283L185.00192307692308,117.21882230178875L185.03307692307692,117.2440261935646L185.2303846153846,117.40358955480835L185.42769230769233,117.563023309816L186.60115384615384,118.50830488584259L186.68423076923077,118.57504305514422L186.74653846153848,118.6250740763816L186.99576923076924,118.82505951279944L187.00615384615386,118.8333874669942L187.4007692307692,119.14953023195267L187.68115384615385,119.373803274198L187.80576923076924,119.47338908910751L188.02384615384616,119.64750150387937L188.63653846153846,120.13569805432451L188.77153846153846,120.24306024340066L188.87538461538463,120.32559831711379L188.9169230769231,120.3586057099429L189.405,120.7458781857382L190.1526923076923,121.33726239881733L190.38115384615384,121.51749343357304L190.4226923076923,121.55024462802842L190.45384615384614,121.57479446042669L190.55769230769232,121.65661819279194L190.76538461538462,121.82011495259675L191.03538461538463,122.03239188275555L191.3884615384615,122.30951412834904L191.48192307692307,122.38277179273692L192.06346153846155,122.83777407624504L192.62423076923076,123.27509867196733L192.89423076923077,123.48515421152115L192.94615384615386,123.5255099765279L193.15384615384616,123.68681247261438L193.68346153846153,124.09723925319585L193.725,124.12938461384991L194.05730769230772,124.38617676496506L194.56615384615387,124.77837126363409L194.77384615384616,124.9380943720991L195.10615384615386,125.19322575493291L195.20999999999998,125.27284015308726L195.2203846153846,125.28080340136182L195.48,125.47961032526058L195.57346153846154,125.55109569972211L195.71884615384616,125.66220139915293L196.155,125.99492773413658L196.4146153846154,126.19252901862967L197.19346153846155,126.78328629921782L197.88923076923075,127.30838144367391L198.21115384615385,127.55048589272931L198.5642307692308,127.81539501114324L198.57461538461538,127.82318042760545L198.80307692307693,127.99422147599134L199.1976923076923,128.28900031068108L199.24961538461537,128.3277344906872L199.30153846153846,128.36643852970818L199.68576923076924,128.65244332362306L199.76884615384614,128.71417206119406L199.91423076923078,128.822118985382L200.02846153846153,128.90685132281345L200.21538461538464,129.04534010724586L200.23615384615383,129.06071803786537L200.47500000000002,129.23736229538918L200.48538461538462,129.24503619020635L200.4957692307692,129.25271008502352L200.52692307692305,129.27572574127805L200.7242307692308,129.42135793918914L201.0876923076923,129.68907016922128L201.26423076923078,129.8188240961595L201.39923076923077,129.91793669760227L201.4096153846154,129.9255563386462L201.6276923076923,130.08542412383989L201.73153846153846,130.16145475886086L201.8146153846154,130.22223104130137L201.91846153846154,130.29815316877583L202.4273076923077,130.66926404833794L202.51038461538462,130.72971782223743L202.5519230769231,130.75991908934984L202.84269230769232,130.971107929945L202.98807692307693,131.07650492678988L203.05038461538462,131.1216470802372L203.19576923076923,131.22686323117125L203.28923076923076,131.29443931985986L203.3619230769231,131.34697505696252L203.3723076923077,131.35448016226292L203.41384615384618,131.3844674283808L203.67346153846154,131.57173336906865L203.7773076923077,131.64652219550175L203.81884615384615,131.67642506686124L203.98499999999999,131.79590996016157L204.13038461538463,131.90033038908786L204.5042307692308,132.16823853552341L204.5873076923077,132.22765545953405L204.70153846153846,132.30929533188993L205.2103846153846,132.67198783430186L205.22076923076924,132.6793753897602L205.27269230769232,132.71628604016522L205.55307692307693,132.9153521765362L205.9476923076923,133.1946777281436L207.10038461538463,134.00501509959048L207.19384615384615,134.07034568488598L207.36,134.18636737899345L207.39115384615386,134.20810204337943L207.48461538461538,134.27326082505962L207.7753846153846,134.47561534290963L208.12846153846155,134.72060428424314L208.13884615384615,134.72780195149508L208.2323076923077,134.79250861839813L208.2634615384615,134.81406545097178L208.66846153846154,135.09371953931722L208.92807692307693,135.27241338383067L209.08384615384614,135.3794259374792L209.10461538461539,135.3936826234514L209.18769230769232,135.4506762122566L209.35384615384615,135.5645187131383L209.56153846153848,135.70658221840858L209.81076923076924,135.87665875526991L210.03923076923078,136.03219829499722L210.33,136.2296518886631L210.45461538461538,136.31410090083426L210.89076923076925,136.60884055224332L210.9219230769231,136.62984881888735L211.3476923076923,136.91622283987024L211.43076923076924,136.97195201434872L212.2719230769231,137.5335614552552L212.28230769230768,137.5404546985572L213.18576923076924,138.13807809556073L213.26884615384617,138.19273877211592L213.72576923076923,138.49251347509298L213.73615384615385,138.49931026724252L214.26576923076922,138.84486008435488L214.35923076923078,138.9056288315491L214.88884615384617,139.24878997558898L214.9926923076923,139.31583859703758L215.0653846153846,139.3627334487709L215.36653846153845,139.55656258897346L215.75076923076924,139.80289431119508L215.9273076923077,139.91571955382824L216.36346153846154,140.1934476332231L216.86192307692306,140.50911417061633L217.2773076923077,140.77074244279754L217.53692307692307,140.93360624191436L217.73423076923078,141.0570365901698L217.78615384615384,141.08947582542896L217.83807692307693,141.121878891506L218.025,141.23839188367128L218.0769230769231,141.27071507613766L218.12884615384615,141.30300662056965L218.25346153846152,141.38043429025194L218.47153846153844,141.51565127074718L218.9596153846154,141.8169480934739L219.17769230769233,141.95097299800676L219.56192307692308,142.18620982359755L219.72807692307694,142.28758752007377L220.08115384615382,142.5022727149454L220.19538461538463,142.5715201212601L220.33038461538462,142.6532338390296L220.71461538461537,142.88500595837831L220.7873076923077,142.92871792208064L220.82884615384617,142.95368370007384L221.08846153846156,143.1093829870224L221.35846153846154,143.27074877917767L222.19961538461538,143.7697056613185L222.23076923076923,143.78808261995965L222.28269230769232,143.81867722692814L222.80192307692306,144.12347793917763L223.00961538461536,144.2447818409313L223.16538461538462,144.33553936129266L223.19653846153847,144.35366765680638L223.2173076923077,144.3657391213558L223.425,144.48634978045118L223.4873076923077,144.52245717360213L223.72615384615386,144.66059481555766L223.98576923076925,144.81020260940898L224.00653846153847,144.82214597477153L224.14153846153846,144.8997047577392L224.55692307692308,145.13739204542202L224.61923076923077,145.1729237457568L224.76461538461538,145.25569390505552L224.87884615384613,145.32061005180532L224.97230769230768,145.37364311516285L225.01384615384615,145.39719226685438L225.45,145.64355563711035L225.5226923076923,145.68445393984967L225.56423076923076,145.70781471038407L225.61615384615385,145.73698214170608L225.62653846153847,145.74281592938033L226.04192307692307,145.97534006630832L226.23923076923074,146.08528684486043L226.51961538461538,146.2409424273805L226.75846153846152,146.37301871722394L227.48538461538462,146.77198438820514L227.58923076923077,146.82860422879457L227.71384615384616,146.89643651585686L227.89038461538462,146.9922938909043L228.05653846153848,147.0822707597505L228.13961538461538,147.1271702782674L228.23307692307694,147.17760669575495L228.30576923076924,147.21678093414414L228.72115384615384,147.439785040915L228.85615384615386,147.51192598180336L228.90807692307692,147.53963911059228L228.9703846153846,147.57285296916962L229.00153846153847,147.58945010263812L229.79076923076923,148.00705947997895L229.80115384615385,148.01251951943743L229.82192307692307,148.0234260349111L230.2580769230769,148.25173344801772L230.28923076923076,148.2679794390093L230.61115384615385,148.43532670966604L230.83961538461537,148.55353362519634L230.89153846153846,148.58033498918468L230.9226923076923,148.59640013426542L230.9746153846154,148.6231623149731L231.4003846153846,148.84169802069664L231.55615384615385,148.92124008048665L231.71192307692309,149.0005726604299L231.80538461538464,149.04806128957054L231.82615384615386,149.05860912732103L232.02346153846153,149.1585747186433L232.23115384615386,149.2634246566079L232.335,149.31570118123835L232.48038461538462,149.38873429528692L232.49076923076922,149.39394265751946L232.90615384615384,149.60149800235575L232.92692307692306,149.61183334616098L233.15538461538463,149.72527949308807L233.39423076923077,149.84337413344872L233.82,150.05259627476335L233.955,150.1185801659118L233.96538461538464,150.1236498796127L234.06923076923076,150.17429050227457L234.1626923076923,150.2197807841003L234.17307692307693,150.22483090616086L234.19384615384615,150.23492738265884L234.2457692307692,150.26015463369814L234.35999999999999,150.31555677848783L235.11807692307693,150.68018433214587L235.5023076923077,150.8629592660476L235.5126923076923,150.86788204244593L235.68923076923076,150.95138161358508L235.73076923076923,150.97098832442L236.115,151.1515720087019L236.43692307692308,151.30181200971657L236.44730769230767,151.30664210258558L236.47846153846154,151.32112936709416L236.48884615384614,151.32595569234002L236.84192307692308,151.48944416337392L236.89384615384617,151.51338364082304L236.9873076923077,151.55641969293356L237.03923076923076,151.58029361374L237.23653846153846,151.67077609761193L237.57923076923078,151.8270616267215L237.82846153846154,151.94002175026318L237.83884615384616,151.9447086734528L238.21269230769232,152.11301216686314L238.6073076923077,152.28921335190535L239.02269230769232,152.47309521348637L239.08499999999998,152.50053029168737L239.10576923076923,152.50966979190707L239.11615384615385,152.51423765820536L239.30307692307693,152.596271623942L239.43807692307692,152.6553110321137L239.53153846153847,152.69608274271542L239.57307692307694,152.71416959437457L240.2376923076923,153.00140489400786L240.9126923076923,153.28875548290935L241.15153846153848,153.38937362655997L241.3176923076923,153.4590384855189L241.5253846153846,153.54574053632942L242.02384615384614,153.75211887569588L242.05499999999998,153.7649393437261L242.10692307692307,153.7862738865343L242.80269230769233,154.06969785859638L242.98961538461538,154.14502620866352L243.76846153846154,154.45518222044814L244.17346153846154,154.61408323354343L244.18384615384613,154.61813794956964L244.53692307692307,154.75530354475433L244.83807692307693,154.87131468951702L244.97307692307692,154.92302381010217L245.0873076923077,154.96663932265204L245.3053846153846,155.04953305998987L245.4923076923077,155.12020914900032L245.6376923076923,155.17493161457506L245.64807692307693,155.17883185805243" style="fill: none;" fill="none"></path></g></g></g></g></g></g><g transform="translate(60, 178)" clip-path="url(#clip_1)"><clipPath id="clip_1"><rect width="270" height="22"></rect></clipPath><g><g><line x1="0" y1="0" x2="0" y2="5" style="visibility: inherit;" fill="rgb(0, 0, 0)" stroke="rgb(204, 204, 204)" stroke-width="1px"></line><line x1="20.76923076923077" y1="0" x2="20.76923076923077" y2="5" style="visibility: inherit;" fill="rgb(0, 0, 0)" stroke="rgb(204, 204, 204)" stroke-width="1px"></line><line x1="41.53846153846154" y1="0" x2="41.53846153846154" y2="5" style="visibility: inherit;" fill="rgb(0, 0, 0)" stroke="rgb(204, 204, 204)" stroke-width="1px"></line><line x1="62.307692307692314" y1="0" x2="62.307692307692314" y2="5" style="visibility: inherit;" fill="rgb(0, 0, 0)" stroke="rgb(204, 204, 204)" stroke-width="1px"></line><line x1="83.07692307692308" y1="0" x2="83.07692307692308" y2="5" style="visibility: inherit;" fill="rgb(0, 0, 0)" stroke="rgb(204, 204, 204)" stroke-width="1px"></line><line x1="103.84615384615385" y1="0" x2="103.84615384615385" y2="5" style="visibility: inherit;" fill="rgb(0, 0, 0)" stroke="rgb(204, 204, 204)" stroke-width="1px"></line><line x1="124.61538461538463" y1="0" x2="124.61538461538463" y2="5" style="visibility: inherit;" fill="rgb(0, 0, 0)" stroke="rgb(204, 204, 204)" stroke-width="1px"></line><line x1="145.3846153846154" y1="0" x2="145.3846153846154" y2="5" style="visibility: inherit;" fill="rgb(0, 0, 0)" stroke="rgb(204, 204, 204)" stroke-width="1px"></line><line x1="166.15384615384616" y1="0" x2="166.15384615384616" y2="5" style="visibility: inherit;" fill="rgb(0, 0, 0)" stroke="rgb(204, 204, 204)" stroke-width="1px"></line><line x1="186.9230769230769" y1="0" x2="186.9230769230769" y2="5" style="visibility: inherit;" fill="rgb(0, 0, 0)" stroke="rgb(204, 204, 204)" stroke-width="1px"></line><line x1="207.6923076923077" y1="0" x2="207.6923076923077" y2="5" style="visibility: inherit;" fill="rgb(0, 0, 0)" stroke="rgb(204, 204, 204)" stroke-width="1px"></line><line x1="228.46153846153845" y1="0" x2="228.46153846153845" y2="5" style="visibility: inherit;" fill="rgb(0, 0, 0)" stroke="rgb(204, 204, 204)" stroke-width="1px"></line><line x1="249.23076923076925" y1="0" x2="249.23076923076925" y2="5" style="visibility: inherit;" fill="rgb(0, 0, 0)" stroke="rgb(204, 204, 204)" stroke-width="1px"></line><line x1="270" y1="0" x2="270" y2="5" style="visibility: inherit;" fill="rgb(0, 0, 0)" stroke="rgb(204, 204, 204)" stroke-width="1px"></line></g><g transform="translate(0, 8)"><text x="0" y="0" dx="0em" dy="0.95em" style="text-anchor: middle; visibility: hidden; font-family: &quot;Helvetica Neue&quot;, sans-serif; font-size: 12px; font-weight: 200;" fill="rgb(50, 49, 63)" stroke="none" stroke-width="1px">-2k</text><text x="20.76923076923077" y="0" dx="0em" dy="0.95em" style="text-anchor: middle; visibility: inherit; font-family: &quot;Helvetica Neue&quot;, sans-serif; font-size: 12px; font-weight: 200;" fill="rgb(50, 49, 63)" stroke="none" stroke-width="1px">0</text><text x="41.53846153846154" y="0" dx="0em" dy="0.95em" style="text-anchor: middle; visibility: hidden; font-family: &quot;Helvetica Neue&quot;, sans-serif; font-size: 12px; font-weight: 200;" fill="rgb(50, 49, 63)" stroke="none" stroke-width="1px">2k</text><text x="62.307692307692314" y="0" dx="0em" dy="0.95em" style="text-anchor: middle; visibility: inherit; font-family: &quot;Helvetica Neue&quot;, sans-serif; font-size: 12px; font-weight: 200;" fill="rgb(50, 49, 63)" stroke="none" stroke-width="1px">4k</text><text x="83.07692307692308" y="0" dx="0em" dy="0.95em" style="text-anchor: middle; visibility: hidden; font-family: &quot;Helvetica Neue&quot;, sans-serif; font-size: 12px; font-weight: 200;" fill="rgb(50, 49, 63)" stroke="none" stroke-width="1px">6k</text><text x="103.84615384615385" y="0" dx="0em" dy="0.95em" style="text-anchor: middle; visibility: inherit; font-family: &quot;Helvetica Neue&quot;, sans-serif; font-size: 12px; font-weight: 200;" fill="rgb(50, 49, 63)" stroke="none" stroke-width="1px">8k</text><text x="124.61538461538463" y="0" dx="0em" dy="0.95em" style="text-anchor: middle; visibility: hidden; font-family: &quot;Helvetica Neue&quot;, sans-serif; font-size: 12px; font-weight: 200;" fill="rgb(50, 49, 63)" stroke="none" stroke-width="1px">10k</text><text x="145.3846153846154" y="0" dx="0em" dy="0.95em" style="text-anchor: middle; visibility: inherit; font-family: &quot;Helvetica Neue&quot;, sans-serif; font-size: 12px; font-weight: 200;" fill="rgb(50, 49, 63)" stroke="none" stroke-width="1px">12k</text><text x="166.15384615384616" y="0" dx="0em" dy="0.95em" style="text-anchor: middle; visibility: hidden; font-family: &quot;Helvetica Neue&quot;, sans-serif; font-size: 12px; font-weight: 200;" fill="rgb(50, 49, 63)" stroke="none" stroke-width="1px">14k</text><text x="186.9230769230769" y="0" dx="0em" dy="0.95em" style="text-anchor: middle; visibility: inherit; font-family: &quot;Helvetica Neue&quot;, sans-serif; font-size: 12px; font-weight: 200;" fill="rgb(50, 49, 63)" stroke="none" stroke-width="1px">16k</text><text x="207.6923076923077" y="0" dx="0em" dy="0.95em" style="text-anchor: middle; visibility: hidden; font-family: &quot;Helvetica Neue&quot;, sans-serif; font-size: 12px; font-weight: 200;" fill="rgb(50, 49, 63)" stroke="none" stroke-width="1px">18k</text><text x="228.46153846153845" y="0" dx="0em" dy="0.95em" style="text-anchor: middle; visibility: inherit; font-family: &quot;Helvetica Neue&quot;, sans-serif; font-size: 12px; font-weight: 200;" fill="rgb(50, 49, 63)" stroke="none" stroke-width="1px">20k</text><text x="249.23076923076925" y="0" dx="0em" dy="0.95em" style="text-anchor: middle; visibility: hidden; font-family: &quot;Helvetica Neue&quot;, sans-serif; font-size: 12px; font-weight: 200;" fill="rgb(50, 49, 63)" stroke="none" stroke-width="1px">22k</text><text x="270" y="0" dx="0em" dy="0.95em" style="text-anchor: middle; visibility: hidden; font-family: &quot;Helvetica Neue&quot;, sans-serif; font-size: 12px; font-weight: 200;" fill="rgb(50, 49, 63)" stroke="none" stroke-width="1px">24k</text></g><line x1="0" y1="0" x2="270" y2="0" fill="rgb(0, 0, 0)" stroke="rgb(204, 204, 204)" stroke-width="1px"></line></g></g></g></g></svg>