<svg viewBox="0 0 330 200" xmlns="http://www.w3.org/2000/svg"><g><g><g><g><g><line x1="30" y1="178" x2="25" y2="178" style="visibility: inherit;" fill="rgb(0, 0, 0)" stroke="rgb(204, 204, 204)" stroke-width="1px"></line><line x1="30" y1="155.75" x2="25" y2="155.75" style="visibility: inherit;" fill="rgb(0, 0, 0)" stroke="rgb(204, 204, 204)" stroke-width="1px"></line><line x1="30" y1="133.5" x2="25" y2="133.5" style="visibility: inherit;" fill="rgb(0, 0, 0)" stroke="rgb(204, 204, 204)" stroke-width="1px"></line><line x1="30" y1="111.25" x2="25" y2="111.25" style="visibility: inherit;" fill="rgb(0, 0, 0)" stroke="rgb(204, 204, 204)" stroke-width="1px"></line><line x1="30" y1="89" x2="25" y2="89" style="visibility: inherit;" fill="rgb(0, 0, 0)" stroke="rgb(204, 204, 204)" stroke-width="1px"></line><line x1="30" y1="66.75" x2="25" y2="66.75" style="visibility: inherit;" fill="rgb(0, 0, 0)" stroke="rgb(204, 204, 204)" stroke-width="1px"></line><line x1="30" y1="44.5" x2="25" y2="44.5" style="visibility: inherit;" fill="rgb(0, 0, 0)" stroke="rgb(204, 204, 204)" stroke-width="1px"></line><line x1="30" y1="22.25" x2="25" y2="22.25" style="visibility: inherit;" fill="rgb(0, 0, 0)" stroke="rgb(204, 204, 204)" stroke-width="1px"></line><line x1="30" y1="0" x2="25" y2="0" style="visibility: inherit;" fill="rgb(0, 0, 0)" stroke="rgb(204, 204, 204)" stroke-width="1px"></line></g><g transform="translate(20, 0)"><text x="0" y="178" dx="0em" dy="0.3em" style="text-anchor: end; visibility: hidden; font-family: &quot;Helvetica Neue&quot;, sans-serif; font-size: 12px; font-weight: 200;" fill="rgb(50, 49, 63)" stroke="none" stroke-width="1px">-1</text><text x="0" y="155.75" dx="0em" dy="0.3em" style="text-anchor: end; visibility: inherit; font-family: &quot;Helvetica Neue&quot;, sans-serif; font-size: 12px; font-weight: 200;" fill="rgb(50, 49, 63)" stroke="none" stroke-width="1px">0</text><text x="0" y="133.5" dx="0em" dy="0.3em" style="text-anchor: end; visibility: hidden; font-family: &quot;Helvetica Neue&quot;, sans-serif; font-size: 12px; font-weight: 200;" fill="rgb(50, 49, 63)" stroke="none" stroke-width="1px">1</text><text x="0" y="111.25" dx="0em" dy="0.3em" style="text-anchor: end; visibility: inherit; font-family: &quot;Helvetica Neue&quot;, sans-serif; font-size: 12px; font-weight: 200;" fill="rgb(50, 49, 63)" stroke="none" stroke-width="1px">2</text><text x="0" y="89" dx="0em" dy="0.3em" style="text-anchor: end; visibility: hidden; font-family: &quot;Helvetica Neue&quot;, sans-serif; font-size: 12px; font-weight: 200;" fill="rgb(50, 49, 63)" stroke="none" stroke-width="1px">3</text><text x="0" y="66.75" dx="0em" dy="0.3em" style="text-anchor: end; visibility: inherit; font-family: &quot;Helvetica Neue&quot;, sans-serif; font-size: 12px; font-weight: 200;" fill="rgb(50, 49, 63)" stroke="none" stroke-width="1px">4</text><text x="0" y="44.5" dx="0em" dy="0.3em" style="text-anchor: end; visibility: hidden; font-family: &quot;Helvetica Neue&quot;, sans-serif; font-size: 12px; font-weight: 200;" fill="rgb(50, 49, 63)" stroke="none" stroke-width="1px">5</text><text x="0" y="22.25" dx="0em" dy="0.3em" style="text-anchor: end; visibility: inherit; font-family: &quot;Helvetica Neue&quot;, sans-serif; font-size: 12px; font-weight: 200;" fill="rgb(50, 49, 63)" stroke="none" stroke-width="1px">6</text><text x="0" y="0" dx="0em" dy="0.3em" style="text-anchor: end; visibility: hidden; font-family: &quot;Helvetica Neue&quot;, sans-serif; font-size: 12px; font-weight: 200;" fill="rgb(50, 49, 63)" stroke="none" stroke-width="1px">7</text></g><line x1="30" y1="0" x2="30" y2="178" fill="rgb(0, 0, 0)" stroke="rgb(204, 204, 204)" stroke-width="1px"></line></g></g><g transform="translate(30, 0)" clip-path="url(#clip_0)"><clipPath id="clip_0"><rect width="300" height="178"></rect></clipPath><g><g><g><line x1="0" y1="0" x2="0" y2="178" fill="rgb(0, 0, 0)" stroke="rgb(60, 60, 60)" stroke-width="1px" opacity="0.25"></line><line x1="23.076923076923077" y1="0" x2="23.076923076923077" y2="178" fill="rgb(0, 0, 0)" stroke="rgb(60, 60, 60)" stroke-width="1px" opacity="0.25"></line><line x1="46.15384615384615" y1="0" x2="46.15384615384615" y2="178" fill="rgb(0, 0, 0)" stroke="rgb(60, 60, 60)" stroke-width="1px" opacity="0.25"></line><line x1="69.23076923076924" y1="0" x2="69.23076923076924" y2="178" fill="rgb(0, 0, 0)" stroke="rgb(60, 60, 60)" stroke-width="1px" opacity="0.25"></line><line x1="92.3076923076923" y1="0" x2="92.3076923076923" y2="178" fill="rgb(0, 0, 0)" stroke="rgb(60, 60, 60)" stroke-width="1px" opacity="0.25"></line><line x1="115.38461538461539" y1="0" x2="115.38461538461539" y2="178" fill="rgb(0, 0, 0)" stroke="rgb(60, 60, 60)" stroke-width="1px" opacity="0.25"></line><line x1="138.46153846153848" y1="0" x2="138.46153846153848" y2="178" fill="rgb(0, 0, 0)" stroke="rgb(60, 60, 60)" stroke-width="1px" opacity="0.25"></line><line x1="161.53846153846152" y1="0" x2="161.53846153846152" y2="178" fill="rgb(0, 0, 0)" stroke="rgb(60, 60, 60)" stroke-width="1px" opacity="0.25"></line><line x1="184.6153846153846" y1="0" x2="184.6153846153846" y2="178" fill="rgb(0, 0, 0)" stroke="rgb(60, 60, 60)" stroke-width="1px" opacity="0.25"></line><line x1="207.69230769230768" y1="0" x2="207.69230769230768" y2="178" fill="rgb(0, 0, 0)" stroke="rgb(60, 60, 60)" stroke-width="1px" opacity="0.25"></line><line x1="230.76923076923077" y1="0" x2="230.76923076923077" y2="178" fill="rgb(0, 0, 0)" stroke="rgb(60, 60, 60)" stroke-width="1px" opacity="0.25"></line><line x1="253.84615384615384" y1="0" x2="253.84615384615384" y2="178" fill="rgb(0, 0, 0)" stroke="rgb(60, 60, 60)" stroke-width="1px" opacity="0.25"></line><line x1="276.92307692307696" y1="0" x2="276.92307692307696" y2="178" fill="rgb(0, 0, 0)" stroke="rgb(60, 60, 60)" stroke-width="1px" opacity="0.25"></line><line x1="300" y1="0" x2="300" y2="178" fill="rgb(0, 0, 0)" stroke="rgb(60, 60, 60)" stroke-width="1px" opacity="0.25"></line></g><g><line x1="0" y1="178" x2="300" y2="178" fill="rgb(0, 0, 0)" stroke="rgb(60, 60, 60)" stroke-width="1px" opacity="0.25"></line><line x1="0" y1="155.75" x2="300" y2="155.75" fill="rgb(0, 0, 0)" stroke="rgb(60, 60, 60)" stroke-width="1px" opacity="0.25"></line><line x1="0" y1="133.5" x2="300" y2="133.5" fill="rgb(0, 0, 0)" stroke="rgb(60, 60, 60)" stroke-width="1px" opacity="0.25"></line><line x1="0" y1="111.25" x2="300" y2="111.25" fill="rgb(0, 0, 0)" stroke="rgb(60, 60, 60)" stroke-width="1px" opacity="0.25"></line><line x1="0" y1="89" x2="300" y2="89" fill="rgb(0, 0, 0)" stroke="rgb(60, 60, 60)" stroke-width="1px" opacity="0.25"></line><line x1="0" y1="66.75" x2="300" y2="66.75" fill="rgb(0, 0, 0)" stroke="rgb(60, 60, 60)" stroke-width="1px" opacity="0.25"></line><line x1="0" y1="44.5" x2="300" y2="44.5" fill="rgb(0, 0, 0)" stroke="rgb(60, 60, 60)" stroke-width="1px" opacity="0.25"></line><line x1="0" y1="22.25" x2="300" y2="22.25" fill="rgb(0, 0, 0)" stroke="rgb(60, 60, 60)" stroke-width="1px" opacity="0.25"></line><line x1="0" y1="0" x2="300" y2="0" fill="rgb(0, 0, 0)" stroke="rgb(60, 60, 60)" stroke-width="1px" opacity="0.25"></line></g></g></g><g><g><line x1="0" y1="155.75" x2="300" y2="155.75" fill="rgb(0, 0, 0)" stroke="rgb(153, 153, 153)" stroke-width="1.5px"></line></g></g><g><g><line x1="23.076923076923077" y1="0" x2="23.076923076923077" y2="178" fill="rgb(0, 0, 0)" stroke="rgb(153, 153, 153)" stroke-width="1.5px"></line></g></g><g><g><g><g><g><path stroke="rgb(255, 112, 67)" stroke-width="2px" d="M23.16923076923077,132.79387098550797L23.446153846153848,123.57948639243841L23.48076923076923,37.430596197138016L23.78076923076923,76.62632519466909L24.046153846153846,101.15806781647935L24.784615384615385,82.88885641101625L24.888461538461538,95.71976360888245L25.603846153846156,102.09199041014914L25.66153846153846,117.40876525342853L25.903846153846153,120.98909558335924L26.111538461538462,127.50372427423864L26.515384615384615,130.8757712064709L26.53846153846154,133.23760191472508L26.63076923076923,133.18088540535138L26.965384615384615,125.86580824206109L27.196153846153845,131.9489471767429L27.819230769230767,136.5187059197716L28.26923076923077,120.84852407190573L28.430769230769233,121.86574263098764L29.146153846153847,130.6891541580576L29.457692307692305,135.32131920615947L29.642307692307693,137.79493834804944L29.723076923076924,139.2558219005191L29.734615384615385,140.82909911513937L30.276923076923076,141.09949227936886L30.426923076923078,141.33903804614008L30.58846153846154,141.46763006612542L30.703846153846154,137.90370174992552L31.2,138.9133540818804L31.29230769230769,138.5380951188729L31.78846153846154,140.699668486899L31.834615384615383,141.06458624524544L31.85769230769231,137.1561515629914L32.01923076923077,133.8031731181677L32.042307692307695,136.19810315513985L32.12307692307692,137.53488611494092L32.215384615384615,129.07258410768696L32.284615384615385,136.57770788784302L32.60769230769231,137.6727503927039L33.86538461538461,143.45149484551467L34.16538461538462,140.2583449950626L34.176923076923075,137.45141566086699L34.246153846153845,137.93666308708427L34.52307692307692,143.93588596738462L34.55769230769231,145.18471338855542L34.66153846153846,142.18709919736358L35.22692307692308,139.2721183828549L35.261538461538464,139.5303906459888L35.573076923076925,129.4390788350701L35.64230769230769,132.83382638541818L35.699999999999996,134.34324968009702L36.3,135.7278243312251L36.35769230769231,140.002448931881L36.36923076923077,140.86415075394495L36.57692307692308,144.85157559146523L36.72692307692308,146.0584276457436L37.315384615384616,143.70761467455614L37.511538461538464,144.06247595214126L38.146153846153844,144.99681604065472L38.18076923076923,144.39698208664637L38.34230769230769,142.43515591797097L38.38846153846154,144.49950145171206L38.94230769230769,143.96609819225145L39.02307692307693,139.01871420318884L39.276923076923076,142.4045351646841L39.41538461538461,141.3292908371985L39.53076923076923,136.27938156732915L39.87692307692308,139.78186092322468L40.00384615384615,142.49359941509604L40.16538461538461,139.13281639234566L40.534615384615385,140.03838314304556L40.869230769230775,138.66701605135086L41.05384615384615,141.94627191849878L41.23846153846154,143.2563444806834L41.284615384615385,142.44717228017447L41.480769230769226,142.93675042153717L41.88461538461539,143.92323935902905L42.369230769230775,142.4846833042907L42.473076923076924,141.37932340458676L42.68076923076923,142.03419869038848L42.784615384615385,144.14155652757518L42.94615384615385,145.80265085182208L42.96923076923076,146.26935526300443L43.003846153846155,145.08771615367516L43.51153846153846,143.47697435701718L44.03076923076923,137.41456586649912L44.238461538461536,135.71678759176075L44.34230769230769,139.39746144424998L44.49230769230769,144.2640337408252L44.52692307692308,144.13533587817355L44.61923076923077,143.40227936842444L45.08076923076923,145.02485876761915L45.276923076923076,143.54251440455343L45.392307692307696,142.05053986960544L45.426923076923075,143.72980309935747L46.05,138.25056069739065L46.18846153846154,142.8732704946244L46.45384615384616,142.7244155304935L46.926923076923075,144.15884653909842L47.01923076923077,145.09645835866831L47.06538461538461,144.59880014246883L47.146153846153844,147.03287227294553L47.75769230769231,143.6327658315999L47.83846153846154,145.04584053280965L48.19615384615384,145.41586808039554L48.2423076923077,146.40223633750563L48.33461538461538,140.5765086382883L48.473076923076924,144.33274873317822L48.70384615384615,145.57668336761918L48.761538461538464,145.14133436997489L48.77307692307692,142.81930311035964L49.00384615384615,143.6938841194621L49.06153846153846,145.88603026275106L49.465384615384615,144.22164538266819L49.580769230769235,144.32933487750626L49.71923076923077,141.92384922061882L50.019230769230774,136.12077307435584L50.12307692307692,141.76575948287675L50.526923076923076,141.90205040865914L50.53846153846154,143.6470102148877L50.56153846153846,145.53783602581183L51.06923076923077,146.20328627863978L51.26538461538462,145.1885541787115L51.28846153846154,146.74853455784125L51.34615384615385,140.20974975682617L51.63461538461539,142.79553635631396L51.646153846153844,144.4863392395639L51.76153846153846,144.42328022020243L51.784615384615385,145.0683620816301L51.84230769230769,134.27109277521555L52.003846153846155,137.47571793362488L52.073076923076925,140.21045041778677L52.17692307692308,141.08815536915657L52.349999999999994,142.56713238966105L52.419230769230765,127.29053153760216L53.94230769230769,132.02694108585706L54.15,137.43993039727326L54.57692307692307,137.56533973693917L54.738461538461536,142.51972458529514L55.142307692307696,141.68075636487032L56.1,142.00088086998954L56.37692307692308,141.165239752987L57.19615384615384,144.15794866481957L57.28846153846154,142.39123771905622L57.70384615384615,135.97807728242708L58.01538461538461,137.93518685097595L58.050000000000004,143.5635556000179L58.71923076923077,137.9299346219126L59.434615384615384,142.43954202000043L59.82692307692308,139.3719183770641L59.83846153846154,141.39389180945304L60.230769230769226,143.36442206088867L60.34615384615385,143.79984078874688L60.39230769230769,144.36120229405464L60.41538461538462,146.190654167189L60.426923076923075,143.97523698130476L61.09615384615385,146.46129572045342L61.557692307692314,143.40714009196483L61.91538461538462,145.41079599017453L62.22692307692308,146.1593404552612L62.284615384615385,146.5415803337856L62.53846153846153,129.77684689430976L62.75769230769231,138.10347866039623L62.93076923076923,139.8841957391569L63.11538461538462,143.22900893934184L64.5,139.44678265838394L64.7076923076923,140.3354038893495L64.73076923076923,141.42387123103822L64.82307692307693,142.32783429739408L65.14615384615384,138.25539211581665L65.3076923076923,138.22924114555428L65.95384615384616,141.5270160453934L66,144.49665009781233L66.12692307692308,136.06410598638362L66.72692307692307,138.78388199140255L66.96923076923078,137.9725913878061L67.02692307692307,137.43813948486908L67.05,138.92765846046606L67.16538461538461,141.99447312171935L67.54615384615384,140.59078497419165L67.68461538461538,144.83178312468175L68.28461538461538,145.378163980768L68.6076923076923,143.75727937658183L68.93076923076923,145.47285935306283L69.36923076923077,145.4557787896617L69.49615384615385,144.62979126104258L69.53076923076924,146.37766055541363L70.18846153846154,147.75663620696739L70.24615384615385,147.2871445862429L70.37307692307692,146.80364284205297L71.21538461538462,148.44990504257595L71.35384615384615,143.8069469718499L71.37692307692308,142.6816736750819L71.43461538461538,146.58709629881488L71.44615384615385,133.6237303287274L71.73461538461538,138.53673277023353L71.79230769230769,143.20896740241596L71.82692307692308,144.46427411725372L72.14999999999999,144.11972303325086L72.18461538461538,142.79270703872533L72.62307692307692,144.19901352095894L72.77307692307693,145.55320268254457L72.79615384615384,147.02007896829232L73.65,145.68460301237457L73.73076923076923,146.21806975708694L74.11153846153846,149.9916374100747L74.79230769230769,149.54631222268955L74.98846153846154,150.52232771206508L75.23076923076923,150.66471653186446L75.78461538461539,149.68918064834574L75.81923076923076,143.58985519171893L76.36153846153846,144.90297633565152L76.77692307692308,144.12955040429046L76.82307692307693,144.50923390206106L76.91538461538461,146.468817040422L77.34230769230768,145.0978551895013L77.4,144.72107549849693L77.76923076923076,146.41966188158716L77.86153846153846,148.31985767457562L78.2076923076923,148.28470103903817L78.34615384615385,145.56603067495945L78.36923076923077,146.36137714909626L78.8076923076923,148.02715698586175L78.94615384615383,147.71309354726236L79.43076923076923,148.9471438456998L80.21538461538462,146.37371068176185L80.31923076923077,147.38363992557856L80.35384615384615,147.97665717533786L81.23076923076923,147.03769891161656L81.25384615384615,148.71457502662503L81.26538461538462,143.90106525075055L81.87692307692308,145.5355981949068L82.2,145.31141315180642L82.96153846153845,147.00806164013494L83.41153846153846,147.57167967419116L84.44999999999999,146.62440986490424L84.63461538461539,147.79151290390595L84.79615384615384,145.54589276155056L85.49999999999999,147.63153490209712L85.75384615384615,147.4556039141663L86.59615384615384,149.6666061351924L86.61923076923077,145.97905568303042L86.98846153846154,147.2792786748491L87.26538461538462,147.91856781788363L87.42692307692307,148.6960290023547L87.92307692307692,147.55040183656584L88.26923076923077,147.11942971344692L88.31538461538463,144.66062681434096L88.48846153846154,148.9724266538101L88.96153846153845,148.43431243354544L88.99615384615385,149.95218629571477L89.6076923076923,149.6264663006823L89.97692307692307,150.28629064059024L90.17307692307692,150.06718576249935L90.20769230769231,149.95383452950392L90.6,148.8329358343987L90.62307692307692,144.3099956956332L90.70384615384614,143.21083326022773L91.11923076923077,143.37623746324152L91.36153846153846,146.03674361782413L91.63846153846154,145.05359188125814L91.69615384615385,146.48604688886573L91.7653846153846,148.57142619397504L92.07692307692307,151.2312809265033L92.3076923076923,151.32903409817075L92.36538461538461,147.2519808102742L92.53846153846153,145.60687591964574L92.59615384615385,145.8438931038056L93.09230769230768,146.5761694777056L93.58846153846153,146.8199598293331L93.70384615384614,146.08322689836186L94.28076923076922,147.29710585716344L94.5,147.01587419714318L94.65,139.1011127412664L94.71923076923076,141.60057569625062L94.86923076923077,144.3115338688021L95.52692307692308,146.09864011734277L95.79230769230769,145.67133895355195L95.85000000000001,146.80314728497106L96.12692307692308,147.27093016134882L96.25384615384615,149.9526212872695L96.38076923076923,147.2114688373584L96.53076923076922,148.10887842279544L96.8076923076923,145.07776192964238L97.91538461538461,141.29302527988625L97.96153846153847,142.62284765532416L98.1923076923077,147.58633199865105L98.81538461538462,145.72362602075626L98.93076923076923,146.23847812009268L99.15,148.18533061499843L99.77307692307693,146.27231949898868L99.87692307692308,146.34465624590678L100.01538461538462,145.68306212246395L100.05000000000001,148.26730122637736L100.22307692307693,147.9806395439624L100.25769230769231,146.1713606875133L100.39615384615384,146.48896133965204L100.7076923076923,148.20003137329786L100.75384615384615,148.89634717309218L100.88076923076923,148.6176249999031L101.79230769230769,148.2522181909218L101.95384615384616,149.7386991853079L102.04615384615384,149.39820218232637L102.21923076923076,148.3338605800114L102.96923076923076,147.6537284784819L103.33846153846154,146.66857809026868L103.63846153846154,147.86497708678144L103.8923076923077,146.83317842495381L104.95384615384616,142.2608241821047L105.04615384615384,143.40098302571275L105.31153846153846,146.4433263585466L105.51923076923077,143.5793708232342L106.22307692307692,146.4068858499705L106.58076923076923,147.32344393583412L107.1923076923077,144.7227949479358L107.31923076923077,139.62724449510196L107.52692307692307,142.79320644602072L107.6423076923077,143.8290090755516L107.65384615384616,144.61190896307787L107.87307692307692,146.14784132287122L108.13846153846153,147.67991712299118L108.3576923076923,144.5977495587297L108.8076923076923,145.546004690315L108.8423076923077,146.7678463504229L108.92307692307692,148.0069053498217L109.03846153846153,147.84427013559988L109.07307692307693,148.30421614088922L109.24615384615385,150.73034847639985L109.62692307692308,151.32554908462157L109.84615384615385,150.58092005174035L110.75769230769231,149.93768152070447L111.16153846153846,146.2489000527406L111.35769230769232,147.94300181080962L111.53076923076924,147.2608281994466L111.65769230769232,147.44336720851683L111.72692307692307,147.84117247490659L112.0153846153846,146.9994699140106L112.13076923076922,147.0800101238319L112.33846153846153,147.4349880056279L112.5,145.77329904059752L112.73076923076923,142.63486087453475L112.82307692307693,144.6309218086726L112.93846153846154,144.5475480543331L113.34230769230768,146.44023744086957L113.4,147.88425409090837L114.10384615384615,146.78311197931959L114.11538461538461,146.0265708564245L114.4846153846154,146.8149745940282L115.16538461538461,147.8289234595963L115.56923076923076,149.36823991730623L115.69615384615385,147.13926685926205L115.83461538461539,147.29593888865045L116.03076923076922,148.14368659523805L117.34615384615384,146.74280345301437L117.3923076923077,145.31045505917433L117.55384615384615,146.9142782957337L117.75,141.84600680297504L117.81923076923077,141.3155563904398L118.30384615384615,145.22974052033146L118.48846153846154,146.67425085306957L118.61538461538461,147.26456274807924L119.04230769230769,148.6442329092054L119.10000000000001,148.66365544815233L119.12307692307691,147.41865146350486L119.1923076923077,147.3773043673731L119.4576923076923,144.99588342437133L119.51538461538462,143.22385134058584L119.61923076923077,144.37432753299112L120.6576923076923,145.70577792676946L120.6923076923077,142.3441323599378L121.01538461538462,139.9345713234639L121.07307692307691,142.63462619940614L121.13076923076923,147.24994229799614L121.80000000000001,148.2954732926256L122.1,145.69312707493106L122.20384615384616,145.36865116899847L122.58461538461538,147.4441194012501L122.59615384615384,148.47166745810142L122.69999999999999,150.01540565907018L123.13846153846154,150.85212720137272L123.23076923076923,147.94638209164998L123.28846153846155,150.11203781885422L124.19999999999999,149.3591139383466L124.51153846153845,150.73124145074792L124.71923076923078,150.7611011570937L124.75384615384615,149.81041508354224L124.99615384615385,150.79012070409942L125.12307692307692,150.13779952414325L125.39999999999999,150.1141903238743L125.48076923076924,150.67196206523477L125.67692307692307,144.89086185260712L125.69999999999999,146.94791894474088L125.73461538461538,147.60859094153915L125.97692307692307,148.64584517086195L126.0576923076923,149.6580038836875L126.32307692307693,148.5948649657535L126.51923076923077,147.8149142034511L126.72692307692307,148.72783414826753L126.79615384615384,149.72156336787916L126.91153846153846,149.2793301009153L127.13076923076923,148.53688450831262L127.4423076923077,147.34122821496777L127.53461538461538,149.136895752292L127.77692307692307,150.96323606153794L128.59615384615384,150.7850720720319L129.4153846153846,150.30829158644843L129.49615384615385,150.3444148494063L129.80769230769232,151.0294453765904L130.05,150.8547995636436L130.35,150.06571157274084L130.45384615384614,149.35325995980168L130.8230769230769,150.27441127537764L131.0653846153846,148.8856960620825L131.56153846153848,147.93013263263373L131.59615384615384,149.905658073831L131.82692307692307,151.65763509578014L131.90769230769232,150.41096115593018L132.20769230769233,151.59124518474283L133.01538461538462,151.62358967089855L133.11923076923077,150.89394345059517L133.2,147.75526992782665L133.35,147.52135086241194L133.60384615384615,147.2181047837903L133.73076923076923,149.4029931256753L134.0423076923077,150.62701710787903L134.31923076923076,145.39286699728663L134.38846153846154,144.57253679535683L134.65384615384616,147.54287047327693L134.86153846153846,149.3333636947938L135.66923076923075,144.53246050646712L136.1769230769231,146.63564462107902L136.5,146.65798093761495L136.53461538461536,148.98316019109186L136.99615384615385,150.77740183595594L137.27307692307693,150.6962050534712L138.02307692307693,150.3607355616943L138.9230769230769,149.44075827970838L138.98076923076923,149.73455623790466L139.01538461538462,149.5930575937321L139.1769230769231,148.82861101688687L139.31538461538463,148.70965854562368L139.58076923076922,149.46188321254877L139.65,149.00100628162758L139.8230769230769,146.3826710499843L140.0076923076923,149.79100580766917L140.2846153846154,149.31982611867858L140.48076923076923,150.32831107677862L141.29999999999998,149.93999550999308L141.53076923076924,150.56239207691613L141.61153846153846,150.5640627271334L141.66923076923078,152.2164064769536L142.91538461538462,148.24084152129828L142.95,147.3640100499841L143.1923076923077,149.60223894511773L143.25,146.50731409308383L143.74615384615385,147.0770813418452L143.87307692307692,149.1900450150981L143.98846153846154,149.60408286516753L144.0346153846154,149.50301147261195L144.36923076923077,151.68903714200218L144.47307692307692,149.0779240058682L144.73846153846154,147.70324474733005L144.75,148.113969076639L144.88846153846154,146.7588624769244L145.24615384615385,149.79692195438108L145.35,150.15902674694513L145.54615384615386,149.58211516141688L145.60384615384615,150.4273270460951L145.7076923076923,146.05900244074985L145.79999999999998,148.0815170580621L145.8923076923077,148.2282905861423L146.08846153846153,147.54689046053204L146.4346153846154,147.49449830238888L146.54999999999998,146.97022913387337L146.97692307692307,149.18974635148598L147.08076923076925,148.43896956529946L147.0923076923077,149.19512931726413L147.34615384615384,149.5914548052671L147.42692307692306,151.74378108722402L147.75,150.57690196479817L147.8653846153846,151.51298118529L147.92307692307693,151.05371897308396L148.05,150.96540033899763L148.15384615384616,152.2232002978505L148.3153846153846,149.94107062309868L148.75384615384615,147.85413060897523L148.78846153846155,147.10710101016718L149.18076923076924,148.99051490687347L149.22692307692307,144.1522615984858L149.4923076923077,147.05836765830404L149.56153846153848,148.45565045395307L149.58461538461538,148.59060161124953L150.04615384615386,149.27317474669985L150.11538461538464,149.93378536633713L150.13846153846154,149.5514618947033L150.26538461538462,151.26035000869177L150.32307692307694,151.73229064636553L150.48461538461538,150.02256687339022L150.58846153846153,149.26719586763306L150.7730769230769,148.07457511254268L151.06153846153845,150.02627622412513L151.28076923076924,149.73072115377707L151.3846153846154,149.4002293962009L151.5923076923077,150.12452745990558L151.90384615384616,151.05209719423416L152.16923076923078,151.8786102051077L152.1923076923077,153.04318198052275L152.20384615384617,152.72241723082797L152.8846153846154,152.58653076763352L152.91923076923075,152.47251181468607L153.02307692307693,152.12377328226114L153.46153846153845,149.5866325649568L154.04999999999998,150.29454539286786L154.71923076923076,152.07605537700766L155.1346153846154,151.25555669324467L155.33076923076922,150.12722786400835L155.56153846153845,150.52167316755128L155.8846153846154,148.4370349108009L155.91923076923078,147.8574477141397L156,149.70480754705054L156.02307692307693,150.05391712624896L156.21923076923076,149.7139164038841L156.31153846153848,150.39318848570252L156.4153846153846,150.99239886057416L156.77307692307693,150.5446667000773L157.22307692307695,148.77747915834917L157.36153846153846,150.40317679882486L157.5,151.2708356585529L157.62692307692308,149.50566168465772L157.78846153846155,148.18888235591982L157.81153846153848,147.34215616883716L158.22692307692307,149.25445084692169L158.6423076923077,150.73126332861858L158.95384615384614,149.67834961952374L159.12692307692308,150.30362307752137L159.47307692307692,149.04884292319394L159.75,148.99655554077017L159.95769230769233,149.96567449647776L160.33846153846153,149.96016230093593L160.65,150.50902810190414L160.8,148.64833163317616L160.82307692307694,150.50840986205085L161.06538461538463,150.81639997323123L161.12307692307692,152.33162787540118L161.2846153846154,151.55849354257202L161.4,151.02963083559285L161.45769230769233,151.26228788241153L161.53846153846152,147.87373719659092L161.75769230769228,149.2083930256763L161.89615384615385,150.31205383585683L163.01538461538462,150.20882264463182L163.18846153846155,152.30965090124278L163.3153846153846,150.85035346346183L163.36153846153846,151.32489350674797L163.54615384615383,149.5173224791184L163.92692307692306,151.7378115201321L164.03076923076924,151.81657856967013L164.76923076923075,151.26013697842336L164.80384615384614,150.788272343037L164.98846153846156,150.70582298157063L165.17307692307693,151.79045118297606L165.9923076923077,150.6759439611761L166.09615384615384,149.52268815960457L166.45384615384617,150.8651042203663L166.67307692307693,152.05899603191364L166.7076923076923,151.82163229896634L166.96153846153845,152.28881416955L167.71153846153845,151.67001193009855L167.80384615384614,151.073502002615L168.04615384615383,151.33014369068042L168.3,150.9222453895658L168.63461538461536,152.28790094187556L169.16538461538462,152.91880430716694L169.48846153846156,151.20576795302878L170.16923076923075,151.65907152213484L170.35384615384618,152.5295889278819L170.71153846153845,151.70746251944124L171.04615384615383,151.84203149678362L171.33461538461538,151.6066927391413L171.3923076923077,151.45321467686432L171.5423076923077,145.6290995309874L171.76153846153846,147.5180975008085L172.24615384615385,147.6606343274161L172.2576923076923,149.8013032613602L172.48846153846154,149.37152996888202L173.15769230769232,151.08000342536235L173.35384615384618,150.88089796893755L173.6653846153846,149.90951588149642L173.67692307692306,150.7241157152997L173.76923076923077,150.6508498673884L173.90769230769232,151.54476982714223L174.04615384615383,151.48475958920412L174.2192307692308,151.33702015141782L174.2653846153846,152.10140632918558L174.46153846153848,152.7950805907314L174.66923076923078,152.73054691164882L174.87692307692305,153.33768348997347L175.05,152.58278442237088L175.1653846153846,153.12497459315244L175.2,151.9934364823281L175.33846153846153,151.04494474934216L175.35,150.5444189316432L175.39615384615385,152.03765176200272L175.7192307692308,152.33081247784736L176.01923076923077,153.4040603310051L176.39999999999998,152.5906599012126L176.57307692307694,150.28095004243312L176.98846153846154,150.03561550547278L177.6,151.283022637186L177.64615384615385,152.0158564418659L177.87692307692308,152.13011093259485L178.44230769230768,151.90736226630588L178.77692307692305,152.05434021438586L179.26153846153846,151.92128191641228L179.85000000000002,151.94389853329216L180.02307692307693,151.02634484738562L180.1153846153846,151.3450307111171L180.1846153846154,151.56877346695822L180.76153846153846,152.57923079646446L180.79615384615386,150.36124535868655L180.83076923076922,151.45213031750973L180.98076923076923,152.47000639576945L181.2923076923077,151.11929705404776L181.58076923076922,150.50818840660776L181.66153846153847,151.60642939804868L181.91538461538462,152.4365278288655L182.3076923076923,150.73941227227047L182.71153846153845,151.84141968893763L182.97692307692307,152.64910641510937L183.01153846153846,152.79340286895427L183.16153846153847,153.0113070992815L183.77307692307693,153.50416203443334L183.78461538461536,152.52952914598063L184.00384615384615,152.84841296769665L184.03846153846155,151.59737405000618L184.1423076923077,152.02339464615875L184.15384615384613,152.74362092802582L184.22307692307692,151.81981980556046L184.45384615384614,152.94060394877965L184.47692307692307,152.84693223216996L185.42307692307693,151.6645564435653L185.4923076923077,151.4272978215654L186.3576923076923,151.86431845183606L187.05,152.18148471805713L187.11923076923077,152.76631737436807L187.38461538461536,153.33955834097242L187.81153846153848,152.26527134052856L187.82307692307694,151.89333007765975L187.8923076923077,148.7976092698167L187.99615384615385,150.28457304251134L188.1923076923077,150.29664032704795L188.33076923076922,150.87549516139725L188.4,151.69187491284788L188.63076923076923,152.59693669987905L189.08076923076925,151.2106087011885L189.65769230769232,152.78544862938918L189.9346153846154,151.60312621517775L190.2,151.1607161997187L190.61538461538464,150.71113043656516L190.8923076923077,151.47897846180538L190.92692307692306,150.58656412469352L191.7923076923077,151.49062344942692L191.86153846153846,152.51155360945583L192.2076923076923,153.68379133363678L192.31153846153848,153.2468382711417L192.35769230769233,152.36807948620358L192.42692307692306,152.4604709790423L193.1076923076923,150.0069413361713L193.48846153846154,150.96237511800317L193.5,152.4234554536139L193.5923076923077,152.66939887505742L193.6384615384615,151.35488647879345L193.8346153846154,151.39501979447115L193.90384615384613,152.52584346456354L193.95,153.21236106424348L194.26153846153846,153.45321877848397L194.5730769230769,153.79319575459533L194.79230769230767,153.08094014245734L195.16153846153844,153.23027708317915L195.1730769230769,151.61304857841776L195.18461538461537,152.836461681942L195.46153846153845,152.67146389563078L196.35,152.76855433511253L197.0769230769231,153.06233263181159L197.56153846153845,151.8045545796544L197.6076923076923,151.4925091761345L198.1153846153846,151.8096593468186L198.3346153846154,152.91992918432038L198.76153846153846,151.0811744855659L199.1076923076923,150.23779810826878L199.18846153846155,151.65730455881894L199.30384615384614,151.68042721370782L199.77692307692308,151.5763795794244L199.97307692307692,146.29558750517342L200.0423076923077,149.19121565387948L200.12307692307695,151.6079715056199L200.66538461538462,152.3698742799746L200.72307692307695,152.82162340285103L200.90769230769232,153.08888371468618L200.9769230769231,152.7983613993587L201.09230769230768,152.90818071132077L201.3,153.67682320782646L201.49615384615385,153.09184937571945L201.51923076923077,153.18336654913702L201.88846153846154,151.4417563778894L202.24615384615385,152.25327556522112L202.78846153846155,152.64503351266038L202.92692307692306,152.5890358487657L203.05384615384617,152.90318209081238L203.79230769230767,152.021900240477L204.15,152.39262470388178L204.5769230769231,153.29020616432288L204.85384615384618,152.98732808691418L204.9576923076923,152.84396989472006L205.02692307692308,153.61037503154452L205.20000000000002,153.36349602101075L205.5576923076923,153.1060917798151L205.59230769230768,153.38755112206755L205.81153846153845,153.33664731422553L206.03076923076924,153.34578430422837L207.33461538461538,153.36889843802865L207.4269230769231,153.4244106317235L207.49615384615385,154.02304700342853L207.77307692307693,152.46399690108322L207.7846153846154,152.47237894622577L208.22307692307692,153.10746450610813L208.53461538461536,153.70705770857845L208.67307692307693,154.24422747735807L208.91538461538462,153.79927090388315L209.59615384615387,154.17737612624035L209.74615384615385,153.67225750237148L209.86153846153846,153.37604054480457L209.90769230769232,152.8236922736148L210.45000000000002,152.34334152431367L211.28076923076924,150.8194265186255L211.53461538461536,151.64662228640705L211.58076923076922,152.84074846016938L211.6153846153846,152.9446566409324L211.73076923076925,152.39575469234313L211.96153846153848,152.9535907789393L212.26153846153846,153.51547418068787L212.65384615384613,153.98382600862348L212.7576923076923,153.98841103818157L213.40384615384616,152.84434700850332L214.02692307692308,152.83367882128766L214.3269230769231,153.65565747518067L214.3846153846154,154.07483827694492L214.6153846153846,154.1245246022894L215.20384615384614,153.57848212808096L215.25,153.76023775526716L215.6192307692308,154.12176808827422L216.1846153846154,154.51073504604878L216.41538461538462,153.91679562251556L216.7846153846154,154.32359797169738L216.9,153.34332589900478L216.91153846153844,153.3780283799528L217.2,153.99823214572723L217.30384615384617,154.01995705865056L217.4653846153846,153.64019809396405L217.95000000000002,153.95025536779366L218.23846153846154,152.6477787903774L219.10384615384615,153.42625130001176L219.87692307692308,153.09363992383163L220.23461538461538,153.1303622841542L220.62692307692308,153.65384412674337L220.63846153846154,154.17231137972016L220.8923076923077,154.2500326591488L221.33076923076922,154.08289961637593L221.38846153846154,154.15607989428364L221.44615384615383,154.33351813799393L221.87307692307695,153.97689564255626L221.9653846153846,154.23134194152206L222.12692307692308,154.443456653277L222.25384615384615,154.36542031676765L222.46153846153848,153.25926428294895L222.48461538461538,153.9295315690739L222.75000000000003,154.13874125654417L222.76153846153846,153.389764040261L222.7730769230769,152.63517627987235L222.8076923076923,153.14753495379074L223.02692307692308,153.33747334166634L223.43076923076922,153.39710407784145L223.62692307692308,153.81326084781028L223.77692307692308,154.47670301745586L223.78846153846155,154.48974650547058L224.0307692307692,153.5119364809701L224.14615384615385,153.24087638567144L224.23846153846156,153.98834328020516L224.35384615384615,153.8194719629878L224.91923076923075,153.90580687984195L225.01153846153846,154.23198292368272L225.05769230769232,154.08737522267472L225.38076923076923,154.43639727512402L225.54230769230767,154.78036490986887L225.61153846153846,154.3953122774371L225.7730769230769,153.92097974223546L225.87692307692308,154.02362350837976L225.95769230769233,154.22872303965147L225.9692307692308,154.21614434967907L226.01538461538462,153.67580694347902L226.30384615384617,154.3064447828548L226.41923076923075,154.20781462198002L226.4653846153846,153.47244900498094L226.64999999999998,152.8880520584184L226.81153846153848,152.6521047515868L227.2269230769231,153.3885985613286L227.31923076923076,153.64548477234956L227.44615384615386,153.7314290908129L228.01153846153846,153.69856871483628L228.02307692307693,153.68672370504083L228.08076923076925,154.2154315965071L228.3923076923077,154.63827571294127L228.83076923076922,154.87821272736142L230.11153846153846,154.43370134443254L230.2153846153846,154.67044365143903L230.4,154.4320653512247L230.4346153846154,154.35758703703686L230.53846153846152,154.40409310612085L230.86153846153846,154.66443578293473L231.25384615384615,154.8756646209392L231.26538461538462,154.4522754687627L231.3692307692308,153.80542843720673L231.40384615384613,154.17827689942038L231.85384615384615,154.3440961065669L232.1423076923077,153.41998476521843L232.3153846153846,153.4250659628908L232.33846153846153,153.4353143742204L232.43076923076924,153.62936077314737L232.6153846153846,154.02596120415998L232.84615384615387,154.56565473901554L233.12307692307692,154.84158497260407L233.37692307692308,154.5537477416181L233.70000000000002,154.87314814075134L233.83846153846153,155.11722207578228L234.32307692307694,154.39304889373307L234.35769230769233,154.56650829468563L234.83076923076922,154.87597924749193L234.92307692307693,155.16259184516304L235.85769230769233,155.03619675620993L235.86923076923074,155.04705162627755L236.87307692307692,154.9421408223108L236.96538461538464,155.12649506694424L237.47307692307692,155.06752790654508L237.48461538461538,155.199857030927L238.0730769230769,154.5043568079882L238.1769230769231,154.27368531392295L238.76538461538462,154.7102589392142L238.88076923076923,154.40187394073467L238.96153846153845,154.8814020790956L239.29615384615386,155.0229952250154L239.72307692307695,154.78953781212752L239.91923076923078,154.98541674847385L240.40384615384613,155.26187910432358L240.9576923076923,155.2536657879933L241.41923076923078,155.3319043333007L241.7076923076923,154.84391797793944L241.92692307692306,154.7998751306566L241.98461538461538,155.1013154442963L242.0423076923077,155.0839453955878L242.25,155.27736857897128L242.30769230769232,155.23375309327892L242.3653846153846,155.09252667654843L242.50384615384615,154.5412597096222L242.74615384615385,153.99340919248803L243.28846153846155,153.94034971724477L243.53076923076924,153.29758022535162L243.9576923076923,154.08816978817174L244.1423076923077,154.74438610467263L244.53461538461536,154.860672282311L244.66153846153847,154.7129633502708L244.81153846153845,154.86003361819215L245.23846153846154,155.16759210265184L245.31923076923078,154.28729667327704L245.36538461538464,154.85778800786582L245.65384615384616,154.8578788478884L245.95384615384617,154.67818362949566L246.8884615384615,154.8961108852224L246.9230769230769,154.61711317472438L246.98076923076923,154.62811257122624L247.5576923076923,153.96841909395854L247.78846153846152,154.49121816233367L247.96153846153845,154.60367593594236L247.99615384615385,154.9723056516966L248.01923076923077,154.99173257570985L248.25,154.2835720371993L248.31923076923078,152.40390391598888L248.5846153846154,153.4370935735151L248.87307692307692,153.79925377977162L248.89615384615385,152.23581250794095L249.04615384615383,152.3059913190446L249.5076923076923,153.01960058344852L249.57692307692307,153.29012200807603L249.73846153846154,154.06934089481874L249.8653846153846,154.3273180072459L249.96923076923076,154.24577109187558L250.01538461538462,154.59138290126452L250.5,153.8003026457985L250.58076923076922,153.81082291080713L250.62692307692308,153.90860815524553L250.6846153846154,154.34242599005697L250.69615384615386,153.3668711262655L251.15769230769232,153.44856789649796L251.37692307692308,153.8287609491722L251.68846153846152,154.25125131004907L251.95384615384614,154.7240392675257L252.76153846153846,155.108432793111L252.87692307692308,154.67804476603294L253.01538461538462,154.67717938078596L253.21153846153845,154.20780326994154L253.39615384615385,154.46165030715997L253.48846153846154,154.65493095192693L253.59230769230768,154.47057041241754L253.67307692307693,154.62930976801533L254.1346153846154,155.04228158174257L254.2846153846154,154.7769427862215L254.34230769230768,155.01413694792677L254.41153846153844,154.90861375718526L254.44615384615383,155.01434614264497L255.3230769230769,154.9504835136445L255.33461538461538,154.4491118924446L255.3576923076923,154.59519239286345L255.84230769230768,154.75453779895463L255.87692307692308,154.52199522137258L256.2346153846154,154.86420062377073L256.48846153846154,154.62223136689676L256.54615384615386,154.93110453906007L256.58076923076925,155.0659985323092L256.63846153846157,155.18329158283566L257.11153846153843,155.08846406926094L257.2846153846154,155.0068668580167L257.4576923076923,154.91968804708793L257.5615384615385,155.1192042636822L257.5846153846154,155.22705465230052L257.80384615384617,155.15293453736723L258.0346153846154,155.1185417298816L258.15000000000003,155.0914399254675L258.3115384615385,155.04892681335542L258.32307692307694,154.74196636927206L258.7846153846154,155.0879070006435L258.8076923076923,155.14193651967494L259.0615384615385,155.29458185026124L259.3269230769231,155.43927197952763L259.8,155.08940311923442L259.95,155.1254210580055L259.96153846153845,154.91935252971436L260.0769230769231,155.10105352037837L260.1807692307692,155.2426346283179L260.1923076923077,155.32311880358063L260.2153846153846,155.41378829415441L260.2730769230769,155.1568577518958L260.4,155.18435319566865L261.2423076923077,155.11593139054858L261.66923076923075,155.16814506635805L261.6807692307692,155.3598116169672L261.87692307692305,155.51366158412873L261.9230769230769,155.08538730047331L262.35,155.14059254718387L262.7076923076923,155.23656788676269L262.71923076923076,155.20982819138044L262.75384615384615,155.3650390222796L262.7653846153846,155.45516083721836L263.1576923076923,154.8511490648062L263.2153846153846,154.9085116192741L263.3192307692308,154.79592935808256L263.37692307692305,154.54785915802572L263.5961538461538,155.00801592648978L263.9769230769231,155.02875993151042L264.25384615384615,155.1433900868435L264.2653846153846,155.00964275527235L264.6807692307692,154.6242146091356L265.11923076923074,155.06368777424882L265.58076923076925,154.606547538315L265.65,154.58845100410267L265.6730769230769,153.48069752369813L265.68461538461537,154.1641574620574L265.8923076923077,154.41092961881276L266.0423076923077,154.7691259539349L266.1461538461539,154.8889819798975L266.1923076923077,154.78804413635186L266.9307692307692,155.00610703883262L267.6807692307693,155.2911677034192L267.94615384615383,155.10002029330985L268.1307692307692,155.15470426055168L268.36153846153843,154.94405023059173L268.9153846153846,155.1787366495709L268.95,155.2060840298194L269.0076923076923,155.245873456118L269.78076923076924,155.43038332747267L269.98846153846154,155.26178707800418L270.8538461538462,155.45534022471423L271.30384615384617,155.45718647358487L271.31538461538463,155.54513328239145L271.7076923076923,155.21574477271628L272.0423076923077,154.76705358202096L272.1923076923077,154.8582889349749L272.3192307692308,154.93416379386127L272.5615384615385,155.24510304891618L272.7692307692308,155.35366530975955L272.9307692307692,154.90861049003158L272.9423076923077,155.01212844468952" style="fill: none;" fill="none"></path></g></g></g></g><g opacity="0.2"><g><g><g><path stroke="rgb(255, 112, 67)" stroke-width="2px" d="M23.16923076923077,132.79387098550797L23.446153846153848,118.05085563659668L23.48076923076923,-45.27233839035034L23.78076923076923,122.72050249576569L24.046153846153846,133.18671098351479L24.784615384615385,57.615960121154785L24.888461538461538,114.06816619634628L25.603846153846156,111.38275825977325L25.66153846153846,139.9980330169201L25.903846153846153,126.30546885728836L26.111538461538462,137.2165801078081L26.515384615384615,135.91549107432365L26.53846153846154,136.7726361900568L26.63076923076923,133.09592175483704L26.965384615384615,114.90179109573364L27.196153846153845,141.0693652778864L27.819230769230767,143.37141026556492L28.26923076923077,97.34722995758057L28.430769230769233,123.39141550660133L29.146153846153847,143.92346495389938L29.457692307692305,142.26931273937225L29.642307692307693,141.50528566539288L29.723076923076924,141.44711838662624L29.734615384615385,143.18899630010128L30.276923076923076,141.5050801038742L30.426923076923078,141.69835567474365L30.58846153846154,141.66051776707172L30.703846153846154,132.5578147470951L31.2,140.42783164978027L31.29230769230769,137.97520688176155L31.78846153846154,143.94202782213688L31.834615384615383,141.61196281015873L31.85769230769231,131.29350000619888L32.01923076923077,128.77370569109917L32.042307692307695,139.79049810767174L32.12307692307692,139.54006052017212L32.215384615384615,116.3791312277317L32.284615384615385,147.83539348840714L32.60769230769231,139.3153141438961L33.86538461538461,152.11961150541902L34.16538461538462,135.46862022578716L34.176923076923075,133.24102166295052L34.246153846153845,138.6645342260599L34.52307692307692,152.93472028523684L34.55769230769231,147.0579545199871L34.66153846153846,137.69067791104317L35.22692307692308,134.89964716136456L35.261538461538464,139.91779904067516L35.573076923076925,114.3021111190319L35.64230769230769,137.9259477108717L35.699999999999996,136.60738462209702L36.3,137.8046863079071L36.35769230769231,146.41438583284616L36.36923076923077,142.1567034870386L36.57692307692308,150.83271284773946L36.72692307692308,147.86870572715998L37.315384615384616,140.1813952177763L37.511538461538464,144.59476786851883L38.146153846153844,146.39832617342472L38.18076923076923,143.49723115563393L38.34230769230769,139.492416664958L38.38846153846154,147.59601975232363L38.94230769230769,143.16599330306053L39.02307692307693,131.59763821959496L39.276923076923076,147.48326660692692L39.41538461538461,139.71642434597015L39.53076923076923,128.70451766252518L39.87692307692308,145.03557995706797L40.00384615384615,146.56120715290308L40.16538461538461,134.0916418582201L40.534615384615385,141.39673326909542L40.869230769230775,136.60996541380882L41.05384615384615,146.86515571922064L41.23846153846154,145.2214533239603L41.284615384615385,141.23341397941113L41.480769230769226,143.67111763358116L41.88461538461539,145.4029727652669L42.369230769230775,140.32684922218323L42.473076923076924,139.72128355503082L42.68076923076923,143.01651161909103L42.784615384615385,147.30259328335524L42.94615384615385,148.29429233819246L42.96923076923076,146.9694118797779L43.003846153846155,143.31525748968124L43.51153846153846,141.06086166203022L44.03076923076923,128.32095313072205L44.238461538461536,133.17012017965317L44.34230769230769,144.91847222298384L44.49230769230769,151.56389218568802L44.52692307692308,143.9422890841961L44.61923076923077,142.30269460380077L45.08076923076923,147.4587278664112L45.276923076923076,141.31899785995483L45.392307692307696,139.8125780671835L45.426923076923075,146.24869794398546L46.05,130.03169709444046L46.18846153846154,149.807335190475L46.45384615384616,142.50113308429718L46.926923076923075,146.31049305200577L47.01923076923077,146.50287608802319L47.06538461538461,143.8523128181696L47.146153846153844,150.6839804686606L47.75769230769231,138.5326061695814L47.83846153846154,147.1654525846243L48.19615384615384,145.9709094017744L48.2423076923077,147.88178872317076L48.33461538461538,131.83791708946228L48.473076923076924,149.96710887551308L48.70384615384615,147.44258531928062L48.761538461538464,144.48831087350845L48.77307692307692,139.33625622093678L49.00384615384615,145.00575563311577L49.06153846153846,149.1742494776845L49.465384615384615,141.72506806254387L49.580769230769235,144.49086911976337L49.71923076923077,138.31562073528767L50.019230769230774,127.4161588549614L50.12307692307692,150.23323909565806L50.526923076923076,142.10648679733276L50.53846153846154,146.26444992423058L50.56153846153846,148.374074742198L51.06923076923077,147.20146165788174L51.26538461538462,143.66645602881908L51.28846153846154,149.0885051265359L51.34615384615385,130.40157255530357L51.63461538461539,146.67421625554562L51.646153846153844,147.02254356443882L51.76153846153846,144.3286916911602L51.784615384615385,146.03598487377167L51.84230769230769,118.07518881559372L52.003846153846155,142.2826556712389L52.073076923076925,144.31254914402962L52.17692307692308,142.40471279621124L52.349999999999994,144.78559792041779L52.419230769230765,104.37563025951385L53.94230769230769,139.13155540823936L54.15,145.55941436439753L54.57692307692307,137.75345374643803L54.738461538461536,149.9513018578291L55.142307692307696,140.4223040342331L56.1,142.48106762766838L56.37692307692308,139.91177807748318L57.19615384615384,148.64701203256845L57.28846153846154,139.74117130041122L57.70384615384615,126.35833662748337L58.01538461538461,140.87085120379925L58.050000000000004,152.00610872358084L58.71923076923077,129.47950315475464L59.434615384615384,149.2039531171322L59.82692307692308,134.77048291265965L59.83846153846154,144.42685195803642L60.230769230769226,146.32021743804216L60.34615384615385,144.45296888053417L60.39230769230769,145.20324455201626L60.41538461538462,148.93483197689056L60.426923076923075,140.6521112024784L61.09615384615385,150.19038382917643L61.557692307692314,138.8259066492319L61.91538461538462,148.41627983748913L62.22692307692308,147.28215715289116L62.284615384615385,147.11494015157223L62.53846153846153,104.62974673509598L62.75769230769231,150.59342630952597L62.93076923076923,142.5552713572979L63.11538461538462,148.24622873961926L64.5,133.77344323694706L64.7076923076923,141.66833573579788L64.73076923076923,143.05657224357128L64.82307692307693,143.68377889692783L65.14615384615384,132.14672884345055L65.3076923076923,138.19001469016075L65.95384615384616,146.4736783951521L66,148.95110117644072L66.12692307692308,123.41528981924057L66.72692307692307,142.86354599893093L66.96923076923078,136.75565548241138L67.02692307692307,136.6364616304636L67.05,141.1619369238615L67.16538461538461,146.5946951135993L67.54615384615384,138.48525275290012L67.68461538461538,151.1932803504169L68.28461538461538,146.19773526489735L68.6076923076923,141.32595247030258L68.93076923076923,148.0462293177843L69.36923076923077,145.43015794456005L69.49615384615385,143.3908099681139L69.53076923076924,148.99946449697018L70.18846153846154,149.82509968429804L70.24615384615385,146.58290715515614L70.37307692307692,146.0783902257681L71.21538461538462,150.91929834336042L71.35384615384615,136.8425098657608L71.37692307692308,140.99376372992992L71.43461538461538,152.44523023441434L71.44615384615385,114.17868137359619L71.73461538461538,145.90623643249273L71.79230769230769,150.21731935068965L71.82692307692308,146.34723418951035L72.14999999999999,143.6028964072466L72.18461538461538,140.802183046937L72.62307692307692,146.30847324430943L72.77307692307693,147.58448642492294L72.79615384615384,149.220393396914L73.65,143.6813890784979L73.73076923076923,147.01826987415552L74.11153846153846,155.65198888955638L74.79230769230769,148.87832444161177L74.98846153846154,151.98635094612837L75.23076923076923,150.87829976156354L75.78461538461539,148.22587682306767L75.81923076923076,134.44086700677872L76.36153846153846,146.8726580515504L76.77692307692308,142.96941150724888L76.82307692307693,145.07875914871693L76.91538461538461,149.40819174796343L77.34230769230768,143.04141241312027L77.4,144.15590596199036L77.76923076923076,148.96754145622253L77.86153846153846,151.17015136405826L78.2076923076923,148.23196608573198L78.34615384615385,141.4880251288414L78.36923076923077,147.5543968603015L78.8076923076923,150.52582674100995L78.94615384615383,147.2419983893633L79.43076923076923,150.79821929335594L80.21538461538462,142.5135609358549L80.31923076923077,148.89853379130363L80.35384615384615,148.86618304997683L81.23076923076923,145.6292615160346L81.25384615384615,151.2298891991377L81.26538461538462,136.68080058693886L81.87692307692308,147.9873976111412L82.2,144.97513558715582L82.96153846153845,149.55303437262774L83.41153846153846,148.41710672527552L84.44999999999999,145.2035051509738L84.63461538461539,149.54216746240854L84.79615384615384,142.1774625480175L85.49999999999999,150.75999811291695L85.75384615384615,147.19170743227005L86.59615384615384,152.98310946673155L86.61923076923077,140.44773000478745L86.98846153846154,149.22961316257715L87.26538461538462,148.87750153243542L87.42692307692307,149.86222077906132L87.92307692307692,145.83196108788252L88.26923076923077,146.47297152876854L88.31538461538463,140.97242246568203L88.48846153846154,155.4401264130138L88.96153846153845,147.62714110314846L88.99615384615385,152.22899708896875L89.6076923076923,149.1378863081336L89.97692307692307,151.27602715045214L90.17307692307692,149.73852844536304L90.20769230769231,149.7838076800108L90.6,147.1515877917409L90.62307692307692,137.52558548748493L90.70384615384614,141.56208960711956L91.11923076923077,143.62434376776218L91.36153846153846,150.02750284969807L91.63846153846154,143.57886427640915L91.69615384615385,148.63472940027714L91.7653846153846,151.69949515163898L92.07692307692307,155.22106302529573L92.3076923076923,151.47566385567188L92.36538461538461,141.1364008784294L92.53846153846153,143.13921858370304L92.59615384615385,146.1994188800454L93.09230769230768,147.67458403855562L93.58846153846153,147.18564535677433L93.70384615384614,144.97812750190496L94.28076923076922,149.1179242953658L94.5,146.5940267071128L94.65,127.22897055745125L94.71923076923076,145.34977012872696L94.86923076923077,148.37797112762928L95.52692307692308,148.7792994901538L95.79230769230769,145.03038720786572L95.85000000000001,148.50085978209972L96.12692307692308,147.97260447591543L96.25384615384615,153.9751579761505L96.38076923076923,143.0997401624918L96.53076923076922,149.454992800951L96.8076923076923,140.5310871899128L97.91538461538461,135.61592030525208L97.96153846153847,144.61758121848106L98.1923076923077,155.03155851364136L98.81538461538462,142.92956705391407L98.93076923076923,147.01075626909733L99.15,151.10560935735703L99.77307692307693,143.40280282497406L99.87692307692308,146.4531613662839L100.01538461538462,144.69067093729973L100.05000000000001,152.14365988224745L100.22307692307693,147.55064702033997L100.25769230769231,143.45744240283966L100.39615384615384,146.96536231786013L100.7076923076923,150.7666364237666L100.75384615384615,149.94082087278366L100.88076923076923,148.19954174011946L101.79230769230769,147.7041079774499L101.95384615384616,151.96842067688704L102.04615384615384,148.88745667785406L102.21923076923076,146.73734817653894L102.96923076923076,146.6335303261876L103.33846153846154,145.19085250794888L103.63846153846154,149.6595755815506L103.8923076923077,145.28548043221235L104.95384615384616,135.40229281783104L105.04615384615384,145.11122129112482L105.31153846153846,151.00684135779738L105.51923076923077,139.28343752026558L106.22307692307692,150.64815839007497L106.58076923076923,148.69828106462955L107.1923076923077,140.8218214660883L107.31923076923077,131.9839188158512L107.52692307692307,147.54214937239885L107.6423076923077,145.38271301984787L107.65384615384616,145.7862587943673L107.87307692307692,148.45173986256123L108.13846153846153,149.97803082317114L108.3576923076923,139.9744982123375L108.8076923076923,146.96838738769293L108.8423076923077,148.60060884058475L108.92307692307692,149.86549384891987L109.03846153846153,147.60031731426716L109.07307692307693,148.99413514882326L109.24615384615385,154.36954697966576L109.62692307692308,152.2183499969542L109.84615384615385,149.46397650241852L110.75769230769231,148.97282372415066L111.16153846153846,140.7157278507948L111.35769230769232,150.48415444791317L111.53076923076924,146.23756778240204L111.65769230769232,147.7171757221222L111.72692307692307,148.43788037449121L112.0153846153846,145.73691607266665L112.13076923076922,147.20082043856382L112.33846153846153,147.96745482832193L112.5,143.2807655930519L112.73076923076923,137.9272036254406L112.82307692307693,147.6250132098794L112.93846153846154,144.4224874228239L113.34230769230768,149.27927152067423L113.4,150.0502790659666L114.10384615384615,145.13139881193638L114.11538461538461,144.89175917208195L114.4846153846154,147.99758020043373L115.16538461538461,149.3498467579484L115.56923076923076,151.6772146038711L115.69615384615385,143.79580727219582L115.83461538461539,147.53094693273306L116.03076923076922,149.41530815511942L117.34615384615384,144.64147873967886L117.3923076923077,143.1619324684143L117.55384615384615,149.32001315057278L117.75,134.24359956383705L117.81923076923077,140.51988077163696L118.30384615384615,151.10101671516895L118.48846153846154,148.84101635217667L118.61538461538461,148.15003059059381L119.04230769230769,150.71373815089464L119.10000000000001,148.69278925657272L119.12307692307691,145.55114548653364L119.1923076923077,147.31528372317553L119.4576923076923,141.42375200986862L119.51538461538462,140.56580321490765L119.61923076923077,146.100041821599L120.6576923076923,147.70295351743698L120.6923076923077,137.30166400969028L121.01538461538462,136.32022976875305L121.07307692307691,146.6847085133195L121.13076923076923,154.17291644588113L121.80000000000001,149.86376978456974L122.1,141.78960774838924L122.20384615384616,144.8819373100996L122.58461538461538,150.5573217496276L122.59615384615384,150.01298954337835L122.69999999999999,152.33101296052337L123.13846153846154,152.10720951482654L123.23076923076923,143.58776442706585L123.28846153846155,153.36052140966058L124.19999999999999,148.22972811758518L124.51153846153845,152.78943271934986L124.71923076923078,150.80589071661234L124.75384615384615,148.3843859732151L124.99615384615385,152.25967913493514L125.12307692307692,149.15931775420904L125.39999999999999,150.07877652347088L125.48076923076924,151.50861967727542L125.67692307692307,136.21921153366566L125.69999999999999,150.03350458294153L125.73461538461538,148.59959893673658L125.97692307692307,150.2017265148461L126.0576923076923,151.17624195292592L126.32307692307693,147.0001565888524L126.51923076923077,146.64498805999756L126.72692307692307,150.09721406549215L126.79615384615384,151.21215719729662L126.91153846153846,148.6159802004695L127.13076923076923,147.4232161194086L127.4423076923077,145.5477437749505L127.53461538461538,151.83039705827832L127.77692307692307,153.70274652540684L128.59615384615384,150.51782608777285L129.4153846153846,149.59312085807323L129.49615384615385,150.39859974384308L129.80769230769232,152.0569911673665L130.05,150.5928308442235L130.35,148.88207958638668L130.45384615384614,148.28458254039288L130.8230769230769,151.65613824874163L131.0653846153846,146.80262324213982L131.56153846153848,146.49678748846054L131.59615384615384,152.86894623562694L131.82692307692307,154.28560062870383L131.90769230769232,148.54095024615526L132.20769230769233,153.36167122796178L133.01538461538462,151.67210640013218L133.11923076923077,149.79947412014008L133.2,143.0472596436739L133.35,147.17047226428986L133.60384615384615,146.7632356658578L133.73076923076923,152.68032563850284L134.0423076923077,152.46305308118463L134.31923076923076,137.541641831398L134.38846153846154,143.34204149246216L134.65384615384616,151.99837099015713L134.86153846153846,152.0191035270691L135.66923076923075,137.3311057239771L136.1769230769231,149.79042079299688L136.5,146.69148541241884L136.53461538461536,152.47092907130718L136.99615384615385,153.4687643032521L137.27307692307693,150.57440987974405L138.02307692307693,149.85753132402897L138.9230769230769,148.0607923567295L138.98076923076923,150.17525317519903L139.01538461538462,149.38080962747335L139.1769230769231,147.68194115161896L139.31538461538463,148.5312298387289L139.58076923076922,150.5902202129364L139.65,148.3096908852458L139.8230769230769,142.45516820251942L140.0076923076923,154.90350794419646L140.2846153846154,148.61305658519268L140.48076923076923,151.84103851392865L141.29999999999998,149.35752215981483L141.53076923076924,151.4959869273007L141.61153846153846,150.56656870245934L141.66923076923078,154.69492210168391L142.91538461538462,142.27749408781528L142.95,146.0487628430128L143.1923076923077,152.9595822878182L143.25,141.86492681503296L143.74615384615385,147.93173221498728L143.87307692307692,152.35949052497745L143.98846153846154,150.22513964027166L144.0346153846154,149.35140438377857L144.36923076923077,154.96807564608753L144.47307692307692,145.1612543016672L144.73846153846154,145.64122585952282L144.75,148.73005557060242L144.88846153846154,144.72620257735252L145.24615384615385,154.35401117056608L145.35,150.70218393579125L145.54615384615386,148.71674778312445L145.60384615384615,151.69514487311244L145.7076923076923,139.506515532732L145.79999999999998,151.11528898403049L145.8923076923077,148.44845087826252L146.08846153846153,146.52479027211666L146.4346153846154,147.4159100651741L146.54999999999998,146.18382538110018L146.97692307692307,152.51902217790484L147.08076923076925,147.3128043860197L147.0923076923077,150.32936894521117L147.34615384615384,150.1859430372715L147.42692307692306,154.97227051015943L147.75,148.8265832811594L147.8653846153846,152.9171000160277L147.92307692307693,150.3648256547749L148.05,150.83292238786817L148.15384615384616,154.10990023612976L148.3153846153846,146.51787611097097L148.75384615384615,144.72372058779L148.78846153846155,145.98655661195517L149.18076923076924,151.81563575193286L149.22692307692307,136.8948816359043L149.4923076923077,151.41752674803138L149.56153846153848,150.5515746474266L149.58461538461538,148.7930283471942L150.04615384615386,150.29703444987535L150.11538461538464,150.92470129579306L150.13846153846154,148.97797668725252L150.26538461538462,153.8236821796745L150.32307692307694,152.4402016028762L150.48461538461538,147.45798121392727L150.58846153846153,148.13413935899734L150.7730769230769,146.28564397990704L151.06153846153845,152.9538278914988L151.28076923076924,149.28738854825497L151.3846153846154,148.90449175983667L151.5923076923077,151.2109745554626L151.90384615384616,152.44345179572701L152.16923076923078,153.11837972141802L152.1923076923077,154.7900396436453L152.20384615384617,152.2412701062858L152.8846153846154,152.38270107284188L152.91923076923075,152.30148338526487L153.02307692307693,151.60066548362374L153.46153846153845,145.78092148900032L154.04999999999998,151.3564146347344L154.71923076923076,154.74832035321742L155.1346153846154,150.02480866760015L155.33076923076922,148.4347346201539L155.56153846153845,151.11334112286568L155.8846153846154,145.3100775256753L155.91923076923078,146.98806691914797L156,152.47584729641676L156.02307692307693,150.57758149504662L156.21923076923076,149.20391532033682L156.31153846153848,151.41209660843015L156.4153846153846,151.8912144228816L156.77307692307693,149.873068459332L157.22307692307695,146.126697845757L157.36153846153846,152.8417232595384L157.5,152.5723239481449L157.62692307692308,146.85790072381496L157.78846153846155,146.213713362813L157.81153846153848,146.07206688821316L158.22692307692307,152.12289286404848L158.6423076923077,152.9464820511639L158.95384615384614,148.0989790558815L159.12692307692308,151.24153326451778L159.47307692307692,147.16667269170284L159.75,148.91812446713448L159.95769230769233,151.41935293003917L160.33846153846153,149.9518940076232L160.65,151.3323268033564L160.8,145.85728693008423L160.82307692307694,153.29852720536292L161.06538461538463,151.27838514000177L161.12307692307692,154.6044697286561L161.2846153846154,150.39879204332829L161.4,150.23633677512407L161.45769230769233,151.61127345263958L161.53846153846152,142.79091116786003L161.75769230769228,151.21037676930428L161.89615384615385,151.96754505112767L163.01538461538462,150.05397585779428L163.18846153846155,155.46089328615926L163.3153846153846,148.66140730679035L163.36153846153846,152.0367035716772L163.54615384615383,146.80596593767405L163.92692307692306,155.0685450816527L164.03076923076924,151.93472914397717L164.76923076923075,150.4254745915532L164.80384615384614,150.08047538995743L164.98846153846156,150.5821489393711L165.17307692307693,153.41739348508418L165.9923076923077,149.00418312847614L166.09615384615384,147.79280445724726L166.45384615384617,152.8787283115089L166.67307692307693,153.84983374923468L166.7076923076923,151.46558669954538L166.96153846153845,152.98958697542548L167.71153846153845,150.74180857092142L167.80384615384614,150.17873711138964L168.04615384615383,151.71510622277856L168.3,150.31039793789387L168.63461538461536,154.3363842703402L169.16538461538462,153.86515935510397L169.48846153846156,148.6362134218216L170.16923076923075,152.33902687579393L170.35384615384618,153.83536503650248L170.71153846153845,150.47427290678024L171.04615384615383,152.04388496279716L171.33461538461538,151.25368460267782L171.3923076923077,151.2229975834489L171.5423076923077,136.89292681217194L171.76153846153846,150.35159445554018L172.24615384615385,147.8744395673275L172.2576923076923,153.0123066622764L172.48846153846154,148.72687003016472L173.15769230769232,153.64271361008286L173.35384615384618,150.58223978430033L173.6653846153846,148.45244275033474L173.67692307692306,151.9460154660046L173.76923076923077,150.54095109552145L173.90769230769232,152.88564976677299L174.04615384615383,151.39474423229694L174.2192307692308,151.11541099473834L174.2653846153846,153.24798559583724L174.46153846153848,153.8355919830501L174.66923076923078,152.63374639302492L174.87692307692305,154.2483883574605L175.05,151.45043582096696L175.1653846153846,153.93825984932482L175.2,150.29612931609154L175.33846153846153,149.62220714986324L175.35,149.79363020509481L175.39615384615385,154.277501007542L175.7192307692308,152.77055355161428L176.01923076923077,155.01393211074173L176.39999999999998,151.37055925652385L176.57307692307694,146.81638525426388L176.98846153846154,149.66761370003223L177.6,153.1541333347559L177.64615384615385,153.11510714888573L177.87692307692308,152.3014926686883L178.44230769230768,151.5732392668724L178.77692307692305,152.27480713650584L179.26153846153846,151.7216944694519L179.85000000000002,151.97782345861197L180.02307692307693,149.6500143185258L180.1153846153846,151.82305950671434L180.1846153846154,151.90438760071993L180.76153846153846,154.0949167907238L180.79615384615386,147.0342672020197L180.83076923076922,153.08845775574446L180.98076923076923,153.99682051315904L181.2923076923077,149.09323304146528L181.58076923076922,149.5915254354477L181.66153846153847,153.25379088521004L181.91538461538462,153.68167547509074L182.3076923076923,148.19373893737793L182.71153846153845,153.49443081393838L182.97692307692307,153.860636504367L183.01153846153846,153.0098475497216L183.16153846153847,153.33816344477236L183.77307692307693,154.2434444371611L183.78461538461536,151.06757981330156L184.00384615384615,153.32673870027065L184.03846153846155,149.7208156734705L184.1423076923077,152.66242554038763L184.15384615384613,153.82396035082638L184.22307692307692,150.4341181218624L184.45384615384614,154.6217801636085L184.47692307692307,152.7064246572554L185.42307692307693,149.89099276065826L185.4923076923077,151.07140988856554L186.3576923076923,152.51984939724207L187.05,152.65723411738873L187.11923076923077,153.6435663588345L187.38461538461536,154.1994197908789L187.81153846153848,150.65384083986282L187.82307692307694,151.33541818335652L187.8923076923077,144.15402805805206L187.99615384615385,152.51501870155334L188.1923076923077,150.31474125385284L188.33076923076922,151.7437774129212L188.4,152.9164445400238L188.63076923076923,153.9545293804258L189.08076923076925,149.13111670315266L189.65769230769232,155.14770852169022L189.9346153846154,149.82964259386063L190.2,150.49710117653012L190.61538461538464,150.03675179183483L190.8923076923077,152.63075049966574L190.92692307692306,149.2479426190257L191.7923076923077,152.846712436527L191.86153846153846,154.04294884949923L192.2076923076923,155.44214791990817L192.31153846153848,152.59140867739916L192.35769230769233,151.0499413087964L192.42692307692306,152.59905821830034L193.1076923076923,146.3266468718648L193.48846153846154,152.39552579075098L193.5,154.61507595703006L193.5923076923077,153.03831400722265L193.6384615384615,149.3831178843975L193.8346153846154,151.45521976798773L193.90384615384613,154.22207896970212L193.95,154.24213746376336L194.26153846153846,153.8145053498447L194.5730769230769,154.3031612187624L194.79230769230767,152.01255672425032L195.16153846153844,153.45428249426186L195.1730769230769,149.1872058212757L195.18461538461537,154.67158133722842L195.46153846153845,152.42396721616387L196.35,152.91418999433517L197.0769230769231,153.5030000768602L197.56153846153845,149.9178875014186L197.6076923076923,151.02444107085466L198.1153846153846,152.28538460284472L198.3346153846154,154.58533394057304L198.76153846153846,148.3230424374342L199.1076923076923,148.9727335423231L199.18846153846155,153.78656423464417L199.30384615384614,151.7151111960411L199.77692307692308,151.4203081279993L199.97307692307692,138.37439939379692L200.0423076923077,153.53465787693858L200.12307692307695,155.23310528323054L200.66538461538462,153.51272844150662L200.72307692307695,153.4992470871657L200.90769230769232,153.48977418243885L200.9769230769231,152.36257792636752L201.09230769230768,153.07290967926383L201.3,154.82978695258498L201.49615384615385,152.21438862755895L201.51923076923077,153.32064230926335L201.88846153846154,148.82934112101793L202.24615384615385,153.4705543462187L202.78846153846155,153.2326704338193L202.92692307692306,152.50503935292363L203.05384615384617,153.37440145388246L203.79230769230767,150.69997746497393L204.15,152.94871139898896L204.5769230769231,154.63657835498452L204.85384615384618,152.53301097080112L204.9576923076923,152.62893260642886L205.02692307692308,154.75998273678124L205.20000000000002,152.99317750521004L205.5576923076923,152.71998541802168L205.59230769230768,153.8097401354462L205.81153846153845,153.26029160246253L206.03076923076924,153.3594897892326L207.33461538461538,153.4035696387291L207.4269230769231,153.50767892226577L207.49615384615385,154.92100156098604L207.77307692307693,150.12542174756527L207.7846153846154,152.48495201393962L208.22307692307692,154.06009284593165L208.53461538461536,154.60644751228392L208.67307692307693,155.0499821305275L208.91538461538462,153.13183604367077L209.59615384615387,154.74453395977616L209.74615384615385,152.91457956656814L209.86153846153846,152.93171510845423L209.90769230769232,151.9951698668301L210.45000000000002,151.62281540036201L211.28076923076924,148.5335540100932L211.53461538461536,152.88741593807936L211.58076923076922,154.63193772081286L211.6153846153846,153.10051891207695L211.73076923076925,151.57240176945925L211.96153846153848,153.7903449088335L212.26153846153846,154.35829928331077L212.65384615384613,154.6863537505269L212.7576923076923,153.9952885825187L213.40384615384616,151.12825096398592L214.02692307692308,152.81767654046416L214.3269230769231,154.88862545602024L214.3846153846154,154.70360947959125L214.6153846153846,154.19905409030616L215.20384615384614,152.7594184167683L215.25,154.03287119604647L215.6192307692308,154.66406358778477L216.1846153846154,155.0941854827106L216.41538461538462,153.02588648721576L216.7846153846154,154.9338014954701L216.9,151.87291778996587L216.91153846153844,153.43008210137486L217.2,154.92853779438883L217.30384615384617,154.05254442803562L217.4653846153846,153.07055964693427L217.95000000000002,154.4153412785381L218.23846153846154,150.694063924253L219.10384615384615,154.59396006446332L219.87692307692308,152.59472285956144L220.23461538461538,153.185445824638L220.62692307692308,154.43906689062715L220.63846153846154,154.9500122591853L220.8923076923077,154.36661457829177L221.33076923076922,153.83220005221665L221.38846153846154,154.2658503111452L221.44615384615383,154.5996755035594L221.87307692307695,153.44196189939976L221.9653846153846,154.61301138997078L222.12692307692308,154.76162872090936L222.25384615384615,154.2483658120036L222.46153846153848,151.6000302322209L222.48461538461538,154.93493249826133L222.75000000000003,154.4525557877496L222.76153846153846,152.2662982158363L222.7730769230769,151.50329463928938L222.8076923076923,153.91607296466827L223.02692307692308,153.6223809234798L223.43076923076922,153.4865501821041L223.62692307692308,154.4374960027635L223.77692307692308,155.47186627192423L223.78846153846155,154.50931173749268L224.0307692307692,152.04522144421935L224.14615384615385,152.83428624272346L224.23846153846156,155.10954362200573L224.35384615384615,153.56616498716176L224.91923076923075,154.03530925512314L225.01153846153846,154.7212469894439L225.05769230769232,153.87046367116272L225.38076923076923,154.95993035379797L225.54230769230767,155.2963163619861L225.61153846153846,153.81773332878947L225.7730769230769,153.20948093943298L225.87692307692308,154.17758915759623L225.95769230769233,154.536372336559L225.9692307692308,154.1972763147205L226.01538461538462,152.86530083417892L226.30384615384617,155.25240154191852L226.41923076923075,154.0598693806678L226.4653846153846,152.36940057948232L226.64999999999998,152.0114566385746L226.81153846153848,152.2981837913394L227.2269230769231,154.49333927594125L227.31923076923076,154.03081408888102L227.44615384615386,153.8603455685079L228.01153846153846,153.6492781508714L228.02307692307693,153.66895619034767L228.08076923076925,155.00849343370646L228.3923076923077,155.27254188759252L228.83076923076922,155.23811824899167L230.11153846153846,153.7669342700392L230.2153846153846,155.02555711194873L230.4,154.07449790090322L230.4346153846154,154.24586956575513L230.53846153846152,154.47385220974684L230.86153846153846,155.05494979815558L231.25384615384615,155.1925078779459L231.26538461538462,153.81719174049795L231.3692307692308,152.8351578898728L231.40384615384613,154.73754959274083L231.85384615384615,154.59282491728663L232.1423076923077,152.03381775319576L232.3153846153846,153.4326877593994L232.33846153846153,153.45068699121475L232.43076923076924,153.9204303715378L232.6153846153846,154.62086185067892L232.84615384615387,155.37519504129887L233.12307692307692,155.25548032298684L233.37692307692308,154.12199189513922L233.70000000000002,155.35224873945117L233.83846153846153,155.4833329783287L234.32307692307694,153.30678912065923L234.35769230769233,154.82669739611447L234.83076923076922,155.34018567670137L234.92307692307693,155.59251074166968L235.85769230769233,154.84660412278026L235.86923076923074,155.06333393137902L236.87307692307692,154.78477461636066L236.96538461538464,155.4030264338944L237.47307692307692,154.97907716594636L237.48461538461538,155.39835071749985L238.0730769230769,153.46110647358L238.1769230769231,153.92767807282507L238.76538461538462,155.36511937715113L238.88076923076923,153.93929644301534L238.96153846153845,155.600694286637L239.29615384615386,155.23538494389504L239.72307692307695,154.43935169279575L239.91923076923078,155.27923515299335L240.40384615384613,155.67657263809815L240.9576923076923,155.2413458134979L241.41923076923078,155.4492621512618L241.7076923076923,154.11193844489753L241.92692307692306,154.73381085973233L241.98461538461538,155.55347591475584L242.0423076923077,155.05789032252505L242.25,155.5675033540465L242.30769230769232,155.16832986474037L242.3653846153846,154.8806870514527L242.50384615384615,153.71435925923288L242.74615384615385,153.1716334167868L243.28846153846155,153.86076050437987L243.53076923076924,152.33342598751187L243.9576923076923,155.27405413240194L244.1423076923077,155.72871057942393L244.53461538461536,155.03510154876858L244.66153846153847,154.4913999522105L244.81153846153845,155.08063902007416L245.23846153846154,155.62892982934136L245.31923076923078,152.96685352921486L245.36538461538464,155.713525009749L245.65384615384616,154.85801510792226L245.95384615384617,154.40864080190659L246.8884615384615,155.22300176881254L246.9230769230769,154.19861660897732L246.98076923076923,154.64461166597903L247.5576923076923,152.978878878057L247.78846153846152,155.27541676489636L247.96153846153845,154.77236259635538L247.99615384615385,155.5252502253279L248.01923076923077,155.02087296172976L248.25,153.22133122943342L248.31923076923078,149.5844017341733L248.5846153846154,154.98687805980444L248.87307692307692,154.3424940891564L248.89615384615385,149.89065060019493L249.04615384615383,152.41125953570008L249.5076923076923,154.09001448005438L249.57692307692307,153.69590414501727L249.73846153846154,155.2381692249328L249.8653846153846,154.7142836758867L249.96923076923076,154.1234507188201L250.01538461538462,155.10980061534792L250.5,152.61368226259947L250.58076923076922,153.82660330832005L250.62692307692308,154.05528602190316L250.6846153846154,154.9931527422741L250.69615384615386,151.90353883057833L251.15769230769232,153.57111305184662L251.37692307692308,154.39905052818358L251.68846153846152,154.88498685136437L251.95384615384614,155.4332212037407L252.76153846153846,155.6850230814889L252.87692307692308,154.03246272541583L253.01538461538462,154.6758813029155L253.21153846153845,153.5037391036749L253.39615384615385,154.84242086298764L253.48846153846154,154.94485191907734L253.59230769230768,154.19402960315347L253.67307692307693,154.867418801412L254.1346153846154,155.66173930233344L254.2846153846154,154.3789345929399L254.34230769230768,155.36992819048464L254.41153846153844,154.75032897107303L254.44615384615383,155.1729447208345L255.3230769230769,154.85468957014382L255.33461538461538,153.69705446064472L255.3576923076923,154.81431314349174L255.84230769230768,154.99355590809137L255.87692307692308,154.17318135499954L256.2346153846154,155.37750872736797L256.48846153846154,154.25927748158574L256.54615384615386,155.39441429730505L256.58076923076925,155.26833952218294L256.63846153846157,155.35923115862533L257.11153846153843,154.94622279889882L257.2846153846154,154.8844710411504L257.4576923076923,154.7889198306948L257.5615384615385,155.41847858857363L257.5846153846154,155.38883023522794L257.80384615384617,155.04175436496735L258.0346153846154,155.06695251865312L258.15000000000003,155.05078721884638L258.3115384615385,154.98515714518726L258.32307692307694,154.28152570314705L258.7846153846154,155.60681794770062L258.8076923076923,155.22298079822212L259.0615384615385,155.52354984614067L259.3269230769231,155.6563071734272L259.8,154.5645998287946L259.95,155.17944796616212L259.96153846153845,154.61024973727763L260.0769230769231,155.37360500637442L260.1807692307692,155.45500629022717L260.1923076923077,155.44384506647475L260.2153846153846,155.5497925300151L260.2730769230769,154.77146193850785L260.4,155.22559636132792L261.2423076923077,155.01329868286848L261.66923076923075,155.24646558007225L261.6807692307692,155.6473114428809L261.87692307692305,155.74443653487106L261.9230769230769,154.44297587499022L262.35,155.22340041724965L262.7076923076923,155.38053089613095L262.71923076923076,155.16971864830703L262.75384615384615,155.59785526862834L262.7653846153846,155.5903435596265L263.1576923076923,153.945131406188L263.2153846153846,154.9945554509759L263.3192307692308,154.6270559662953L263.37692307692305,154.17575385794044L263.5961538461538,155.69825107918587L263.9769230769231,155.05987593904138L264.25384615384615,155.31533531984314L264.2653846153846,154.80902175791562L264.6807692307692,154.0460723899305L265.11923076923074,155.72289752191864L265.58076923076925,153.92083718441427L265.65,154.56130620278418L265.6730769230769,151.8190673030913L265.68461538461537,155.18934736959636L265.8923076923077,154.7810878539458L266.0423076923077,155.30642045661807L266.1461538461539,155.06876601884142L266.1923076923077,154.63663737103343L266.9307692307692,155.33320139255375L267.6807692307693,155.71875870029908L267.94615384615383,154.81329917814583L268.1307692307692,155.2367302114144L268.36153846153843,154.62806918565184L268.9153846153846,155.53076627803966L268.95,155.24710510019213L269.0076923076923,155.30555759556592L269.78076923076924,155.70714813450468L269.98846153846154,155.0088927038014L270.8538461538462,155.74566994477937L271.30384615384617,155.4599558468908L271.31538461538463,155.67705349560129L271.7076923076923,154.72166200820357L272.0423076923077,154.09401679597795L272.1923076923077,154.99514196440578L272.3192307692308,155.04797608219087L272.5615384615385,155.71151193149853L272.7692307692308,155.51650870102458L272.9307692307692,154.24102826043963L272.9423076923077,155.16740537667647" style="fill: none;" fill="none"></path></g></g></g></g></g></g><g transform="translate(30, 178)" clip-path="url(#clip_1)"><clipPath id="clip_1"><rect width="300" height="22"></rect></clipPath><g><g><line x1="0" y1="0" x2="0" y2="5" style="visibility: inherit;" fill="rgb(0, 0, 0)" stroke="rgb(204, 204, 204)" stroke-width="1px"></line><line x1="23.076923076923077" y1="0" x2="23.076923076923077" y2="5" style="visibility: inherit;" fill="rgb(0, 0, 0)" stroke="rgb(204, 204, 204)" stroke-width="1px"></line><line x1="46.15384615384615" y1="0" x2="46.15384615384615" y2="5" style="visibility: inherit;" fill="rgb(0, 0, 0)" stroke="rgb(204, 204, 204)" stroke-width="1px"></line><line x1="69.23076923076924" y1="0" x2="69.23076923076924" y2="5" style="visibility: inherit;" fill="rgb(0, 0, 0)" stroke="rgb(204, 204, 204)" stroke-width="1px"></line><line x1="92.3076923076923" y1="0" x2="92.3076923076923" y2="5" style="visibility: inherit;" fill="rgb(0, 0, 0)" stroke="rgb(204, 204, 204)" stroke-width="1px"></line><line x1="115.38461538461539" y1="0" x2="115.38461538461539" y2="5" style="visibility: inherit;" fill="rgb(0, 0, 0)" stroke="rgb(204, 204, 204)" stroke-width="1px"></line><line x1="138.46153846153848" y1="0" x2="138.46153846153848" y2="5" style="visibility: inherit;" fill="rgb(0, 0, 0)" stroke="rgb(204, 204, 204)" stroke-width="1px"></line><line x1="161.53846153846152" y1="0" x2="161.53846153846152" y2="5" style="visibility: inherit;" fill="rgb(0, 0, 0)" stroke="rgb(204, 204, 204)" stroke-width="1px"></line><line x1="184.6153846153846" y1="0" x2="184.6153846153846" y2="5" style="visibility: inherit;" fill="rgb(0, 0, 0)" stroke="rgb(204, 204, 204)" stroke-width="1px"></line><line x1="207.69230769230768" y1="0" x2="207.69230769230768" y2="5" style="visibility: inherit;" fill="rgb(0, 0, 0)" stroke="rgb(204, 204, 204)" stroke-width="1px"></line><line x1="230.76923076923077" y1="0" x2="230.76923076923077" y2="5" style="visibility: inherit;" fill="rgb(0, 0, 0)" stroke="rgb(204, 204, 204)" stroke-width="1px"></line><line x1="253.84615384615384" y1="0" x2="253.84615384615384" y2="5" style="visibility: inherit;" fill="rgb(0, 0, 0)" stroke="rgb(204, 204, 204)" stroke-width="1px"></line><line x1="276.92307692307696" y1="0" x2="276.92307692307696" y2="5" style="visibility: inherit;" fill="rgb(0, 0, 0)" stroke="rgb(204, 204, 204)" stroke-width="1px"></line><line x1="300" y1="0" x2="300" y2="5" style="visibility: inherit;" fill="rgb(0, 0, 0)" stroke="rgb(204, 204, 204)" stroke-width="1px"></line></g><g transform="translate(0, 8)"><text x="0" y="0" dx="0em" dy="0.95em" style="text-anchor: middle; visibility: hidden; font-family: &quot;Helvetica Neue&quot;, sans-serif; font-size: 12px; font-weight: 200;" fill="rgb(50, 49, 63)" stroke="none" stroke-width="1px">-2k</text><text x="23.076923076923077" y="0" dx="0em" dy="0.95em" style="text-anchor: middle; visibility: inherit; font-family: &quot;Helvetica Neue&quot;, sans-serif; font-size: 12px; font-weight: 200;" fill="rgb(50, 49, 63)" stroke="none" stroke-width="1px">0</text><text x="46.15384615384615" y="0" dx="0em" dy="0.95em" style="text-anchor: middle; visibility: hidden; font-family: &quot;Helvetica Neue&quot;, sans-serif; font-size: 12px; font-weight: 200;" fill="rgb(50, 49, 63)" stroke="none" stroke-width="1px">2k</text><text x="69.23076923076924" y="0" dx="0em" dy="0.95em" style="text-anchor: middle; visibility: inherit; font-family: &quot;Helvetica Neue&quot;, sans-serif; font-size: 12px; font-weight: 200;" fill="rgb(50, 49, 63)" stroke="none" stroke-width="1px">4k</text><text x="92.3076923076923" y="0" dx="0em" dy="0.95em" style="text-anchor: middle; visibility: hidden; font-family: &quot;Helvetica Neue&quot;, sans-serif; font-size: 12px; font-weight: 200;" fill="rgb(50, 49, 63)" stroke="none" stroke-width="1px">6k</text><text x="115.38461538461539" y="0" dx="0em" dy="0.95em" style="text-anchor: middle; visibility: inherit; font-family: &quot;Helvetica Neue&quot;, sans-serif; font-size: 12px; font-weight: 200;" fill="rgb(50, 49, 63)" stroke="none" stroke-width="1px">8k</text><text x="138.46153846153848" y="0" dx="0em" dy="0.95em" style="text-anchor: middle; visibility: hidden; font-family: &quot;Helvetica Neue&quot;, sans-serif; font-size: 12px; font-weight: 200;" fill="rgb(50, 49, 63)" stroke="none" stroke-width="1px">10k</text><text x="161.53846153846152" y="0" dx="0em" dy="0.95em" style="text-anchor: middle; visibility: inherit; font-family: &quot;Helvetica Neue&quot;, sans-serif; font-size: 12px; font-weight: 200;" fill="rgb(50, 49, 63)" stroke="none" stroke-width="1px">12k</text><text x="184.6153846153846" y="0" dx="0em" dy="0.95em" style="text-anchor: middle; visibility: hidden; font-family: &quot;Helvetica Neue&quot;, sans-serif; font-size: 12px; font-weight: 200;" fill="rgb(50, 49, 63)" stroke="none" stroke-width="1px">14k</text><text x="207.69230769230768" y="0" dx="0em" dy="0.95em" style="text-anchor: middle; visibility: inherit; font-family: &quot;Helvetica Neue&quot;, sans-serif; font-size: 12px; font-weight: 200;" fill="rgb(50, 49, 63)" stroke="none" stroke-width="1px">16k</text><text x="230.76923076923077" y="0" dx="0em" dy="0.95em" style="text-anchor: middle; visibility: hidden; font-family: &quot;Helvetica Neue&quot;, sans-serif; font-size: 12px; font-weight: 200;" fill="rgb(50, 49, 63)" stroke="none" stroke-width="1px">18k</text><text x="253.84615384615384" y="0" dx="0em" dy="0.95em" style="text-anchor: middle; visibility: inherit; font-family: &quot;Helvetica Neue&quot;, sans-serif; font-size: 12px; font-weight: 200;" fill="rgb(50, 49, 63)" stroke="none" stroke-width="1px">20k</text><text x="276.92307692307696" y="0" dx="0em" dy="0.95em" style="text-anchor: middle; visibility: hidden; font-family: &quot;Helvetica Neue&quot;, sans-serif; font-size: 12px; font-weight: 200;" fill="rgb(50, 49, 63)" stroke="none" stroke-width="1px">22k</text><text x="300" y="0" dx="0em" dy="0.95em" style="text-anchor: middle; visibility: hidden; font-family: &quot;Helvetica Neue&quot;, sans-serif; font-size: 12px; font-weight: 200;" fill="rgb(50, 49, 63)" stroke="none" stroke-width="1px">24k</text></g><line x1="0" y1="0" x2="300" y2="0" fill="rgb(0, 0, 0)" stroke="rgb(204, 204, 204)" stroke-width="1px"></line></g></g></g></g></svg>