<svg viewBox="0 0 330 200" xmlns="http://www.w3.org/2000/svg"><g><g><g><g><g><line x1="30" y1="178" x2="25" y2="178" style="visibility: inherit;" fill="rgb(0, 0, 0)" stroke="rgb(204, 204, 204)" stroke-width="1px"></line><line x1="30" y1="155.75" x2="25" y2="155.75" style="visibility: inherit;" fill="rgb(0, 0, 0)" stroke="rgb(204, 204, 204)" stroke-width="1px"></line><line x1="30" y1="133.5" x2="25" y2="133.5" style="visibility: inherit;" fill="rgb(0, 0, 0)" stroke="rgb(204, 204, 204)" stroke-width="1px"></line><line x1="30" y1="111.25" x2="25" y2="111.25" style="visibility: inherit;" fill="rgb(0, 0, 0)" stroke="rgb(204, 204, 204)" stroke-width="1px"></line><line x1="30" y1="89" x2="25" y2="89" style="visibility: inherit;" fill="rgb(0, 0, 0)" stroke="rgb(204, 204, 204)" stroke-width="1px"></line><line x1="30" y1="66.75" x2="25" y2="66.75" style="visibility: inherit;" fill="rgb(0, 0, 0)" stroke="rgb(204, 204, 204)" stroke-width="1px"></line><line x1="30" y1="44.5" x2="25" y2="44.5" style="visibility: inherit;" fill="rgb(0, 0, 0)" stroke="rgb(204, 204, 204)" stroke-width="1px"></line><line x1="30" y1="22.25" x2="25" y2="22.25" style="visibility: inherit;" fill="rgb(0, 0, 0)" stroke="rgb(204, 204, 204)" stroke-width="1px"></line><line x1="30" y1="0" x2="25" y2="0" style="visibility: inherit;" fill="rgb(0, 0, 0)" stroke="rgb(204, 204, 204)" stroke-width="1px"></line></g><g transform="translate(20, 0)"><text x="0" y="178" dx="0em" dy="0.3em" style="text-anchor: end; visibility: hidden; font-family: &quot;Helvetica Neue&quot;, sans-serif; font-size: 12px; font-weight: 200;" fill="rgb(50, 49, 63)" stroke="none" stroke-width="1px">-1</text><text x="0" y="155.75" dx="0em" dy="0.3em" style="text-anchor: end; visibility: inherit; font-family: &quot;Helvetica Neue&quot;, sans-serif; font-size: 12px; font-weight: 200;" fill="rgb(50, 49, 63)" stroke="none" stroke-width="1px">0</text><text x="0" y="133.5" dx="0em" dy="0.3em" style="text-anchor: end; visibility: hidden; font-family: &quot;Helvetica Neue&quot;, sans-serif; font-size: 12px; font-weight: 200;" fill="rgb(50, 49, 63)" stroke="none" stroke-width="1px">1</text><text x="0" y="111.25" dx="0em" dy="0.3em" style="text-anchor: end; visibility: inherit; font-family: &quot;Helvetica Neue&quot;, sans-serif; font-size: 12px; font-weight: 200;" fill="rgb(50, 49, 63)" stroke="none" stroke-width="1px">2</text><text x="0" y="89" dx="0em" dy="0.3em" style="text-anchor: end; visibility: hidden; font-family: &quot;Helvetica Neue&quot;, sans-serif; font-size: 12px; font-weight: 200;" fill="rgb(50, 49, 63)" stroke="none" stroke-width="1px">3</text><text x="0" y="66.75" dx="0em" dy="0.3em" style="text-anchor: end; visibility: inherit; font-family: &quot;Helvetica Neue&quot;, sans-serif; font-size: 12px; font-weight: 200;" fill="rgb(50, 49, 63)" stroke="none" stroke-width="1px">4</text><text x="0" y="44.5" dx="0em" dy="0.3em" style="text-anchor: end; visibility: hidden; font-family: &quot;Helvetica Neue&quot;, sans-serif; font-size: 12px; font-weight: 200;" fill="rgb(50, 49, 63)" stroke="none" stroke-width="1px">5</text><text x="0" y="22.25" dx="0em" dy="0.3em" style="text-anchor: end; visibility: inherit; font-family: &quot;Helvetica Neue&quot;, sans-serif; font-size: 12px; font-weight: 200;" fill="rgb(50, 49, 63)" stroke="none" stroke-width="1px">6</text><text x="0" y="0" dx="0em" dy="0.3em" style="text-anchor: end; visibility: hidden; font-family: &quot;Helvetica Neue&quot;, sans-serif; font-size: 12px; font-weight: 200;" fill="rgb(50, 49, 63)" stroke="none" stroke-width="1px">7</text></g><line x1="30" y1="0" x2="30" y2="178" fill="rgb(0, 0, 0)" stroke="rgb(204, 204, 204)" stroke-width="1px"></line></g></g><g transform="translate(30, 0)" clip-path="url(#clip_0)"><clipPath id="clip_0"><rect width="300" height="178"></rect></clipPath><g><g><g><line x1="0" y1="0" x2="0" y2="178" fill="rgb(0, 0, 0)" stroke="rgb(60, 60, 60)" stroke-width="1px" opacity="0.25"></line><line x1="23.076923076923077" y1="0" x2="23.076923076923077" y2="178" fill="rgb(0, 0, 0)" stroke="rgb(60, 60, 60)" stroke-width="1px" opacity="0.25"></line><line x1="46.15384615384615" y1="0" x2="46.15384615384615" y2="178" fill="rgb(0, 0, 0)" stroke="rgb(60, 60, 60)" stroke-width="1px" opacity="0.25"></line><line x1="69.23076923076924" y1="0" x2="69.23076923076924" y2="178" fill="rgb(0, 0, 0)" stroke="rgb(60, 60, 60)" stroke-width="1px" opacity="0.25"></line><line x1="92.3076923076923" y1="0" x2="92.3076923076923" y2="178" fill="rgb(0, 0, 0)" stroke="rgb(60, 60, 60)" stroke-width="1px" opacity="0.25"></line><line x1="115.38461538461539" y1="0" x2="115.38461538461539" y2="178" fill="rgb(0, 0, 0)" stroke="rgb(60, 60, 60)" stroke-width="1px" opacity="0.25"></line><line x1="138.46153846153848" y1="0" x2="138.46153846153848" y2="178" fill="rgb(0, 0, 0)" stroke="rgb(60, 60, 60)" stroke-width="1px" opacity="0.25"></line><line x1="161.53846153846152" y1="0" x2="161.53846153846152" y2="178" fill="rgb(0, 0, 0)" stroke="rgb(60, 60, 60)" stroke-width="1px" opacity="0.25"></line><line x1="184.6153846153846" y1="0" x2="184.6153846153846" y2="178" fill="rgb(0, 0, 0)" stroke="rgb(60, 60, 60)" stroke-width="1px" opacity="0.25"></line><line x1="207.69230769230768" y1="0" x2="207.69230769230768" y2="178" fill="rgb(0, 0, 0)" stroke="rgb(60, 60, 60)" stroke-width="1px" opacity="0.25"></line><line x1="230.76923076923077" y1="0" x2="230.76923076923077" y2="178" fill="rgb(0, 0, 0)" stroke="rgb(60, 60, 60)" stroke-width="1px" opacity="0.25"></line><line x1="253.84615384615384" y1="0" x2="253.84615384615384" y2="178" fill="rgb(0, 0, 0)" stroke="rgb(60, 60, 60)" stroke-width="1px" opacity="0.25"></line><line x1="276.92307692307696" y1="0" x2="276.92307692307696" y2="178" fill="rgb(0, 0, 0)" stroke="rgb(60, 60, 60)" stroke-width="1px" opacity="0.25"></line><line x1="300" y1="0" x2="300" y2="178" fill="rgb(0, 0, 0)" stroke="rgb(60, 60, 60)" stroke-width="1px" opacity="0.25"></line></g><g><line x1="0" y1="178" x2="300" y2="178" fill="rgb(0, 0, 0)" stroke="rgb(60, 60, 60)" stroke-width="1px" opacity="0.25"></line><line x1="0" y1="155.75" x2="300" y2="155.75" fill="rgb(0, 0, 0)" stroke="rgb(60, 60, 60)" stroke-width="1px" opacity="0.25"></line><line x1="0" y1="133.5" x2="300" y2="133.5" fill="rgb(0, 0, 0)" stroke="rgb(60, 60, 60)" stroke-width="1px" opacity="0.25"></line><line x1="0" y1="111.25" x2="300" y2="111.25" fill="rgb(0, 0, 0)" stroke="rgb(60, 60, 60)" stroke-width="1px" opacity="0.25"></line><line x1="0" y1="89" x2="300" y2="89" fill="rgb(0, 0, 0)" stroke="rgb(60, 60, 60)" stroke-width="1px" opacity="0.25"></line><line x1="0" y1="66.75" x2="300" y2="66.75" fill="rgb(0, 0, 0)" stroke="rgb(60, 60, 60)" stroke-width="1px" opacity="0.25"></line><line x1="0" y1="44.5" x2="300" y2="44.5" fill="rgb(0, 0, 0)" stroke="rgb(60, 60, 60)" stroke-width="1px" opacity="0.25"></line><line x1="0" y1="22.25" x2="300" y2="22.25" fill="rgb(0, 0, 0)" stroke="rgb(60, 60, 60)" stroke-width="1px" opacity="0.25"></line><line x1="0" y1="0" x2="300" y2="0" fill="rgb(0, 0, 0)" stroke="rgb(60, 60, 60)" stroke-width="1px" opacity="0.25"></line></g></g></g><g><g><line x1="0" y1="155.75" x2="300" y2="155.75" fill="rgb(0, 0, 0)" stroke="rgb(153, 153, 153)" stroke-width="1.5px"></line></g></g><g><g><line x1="23.076923076923077" y1="0" x2="23.076923076923077" y2="178" fill="rgb(0, 0, 0)" stroke="rgb(153, 153, 153)" stroke-width="1.5px"></line></g></g><g><g><g><g><g><path stroke="rgb(255, 112, 67)" stroke-width="2px" d="M23.16923076923077,127.73556166887283L23.446153846153848,57.01245603710413L23.48076923076923,68.02639450467365L23.78076923076923,97.2550980260267L24.046153846153846,106.72960634600943L24.784615384615385,116.69049561155359L24.888461538461538,117.78443329078975L25.603846153846156,82.0828220186371L25.66153846153846,100.4401070134911L25.903846153846153,100.83691241404064L26.111538461538462,111.43955634472053L26.515384615384615,118.62685322899029L26.53846153846154,122.99992068884598L26.63076923076923,126.35851851732949L26.965384615384615,94.13611174161173L27.196153846153845,109.13950818087949L27.819230769230767,115.86500720692763L28.26923076923077,26.784022662396183L28.430769230769233,68.18442902918514L29.146153846153847,92.27784261310092L29.457692307692305,108.05185772204706L29.642307692307693,118.28311074581964L29.723076923076924,123.09249687785585L29.734615384615385,127.08358379234639L30.276923076923076,129.44835765351155L30.426923076923078,131.76954939656275L30.58846153846154,132.3014845015591L30.703846153846154,132.2398707823272L31.2,132.38074120444838L31.29230769230769,132.89226492366328L31.78846153846154,46.61393456507105L31.834615384615383,79.0999158419059L31.85769230769231,98.9914413412144L32.01923076923077,112.71315834019074L32.042307692307695,109.51202568925042L32.12307692307692,117.911731243444L32.215384615384615,123.69588986657173L32.284615384615385,127.25642679834496L32.60769230769231,128.31516628920954L33.86538461538461,127.78630263412782L34.16538461538462,129.48647181411724L34.176923076923075,130.44591914592743L34.246153846153845,131.64722026012396L34.52307692307692,131.10527922276438L34.55769230769231,132.13231259335095L34.66153846153846,133.79859390119583L35.22692307692308,134.06866650737265L35.261538461538464,131.90220467417703L35.573076923076925,129.49302849867237L35.64230769230769,131.05977937996636L35.699999999999996,134.75806975020922L36.3,133.0080335238761L36.35769230769231,131.8088881790132L36.36923076923077,131.3662061345269L36.57692307692308,130.8054561884215L36.72692307692308,131.5551625174889L37.315384615384616,131.34783027664471L37.511538461538464,133.8294724946958L38.146153846153844,133.83405168209924L38.18076923076923,137.02936797949363L38.34230769230769,124.38904324539081L38.38846153846154,113.32770874123301L38.94230769230769,119.3773204447063L39.02307692307693,116.54875620372485L39.276923076923076,120.61105036835309L39.41538461538461,125.37752322018407L39.53076923076923,127.52374614274659L39.87692307692308,128.6115213215122L40.00384615384615,129.8353365886074L40.16538461538461,131.3731909232057L40.534615384615385,131.33070599059565L40.869230769230775,130.97941461217582L41.05384615384615,132.59209246642698L41.23846153846154,132.68055738930292L41.284615384615385,133.75734013273944L41.480769230769226,133.22764775725977L41.88461538461539,133.48101962550152L42.369230769230775,132.6338652309398L42.473076923076924,131.9959197721851L42.68076923076923,131.24011165392233L42.784615384615385,129.46277028615376L42.94615384615385,125.90949971851767L42.96923076923076,128.1436269007746L43.003846153846155,129.9165399266853L43.51153846153846,131.0800893183693L44.03076923076923,130.23996842361356L44.238461538461536,131.29635554824392L44.34230769230769,132.60626135631873L44.49230769230769,132.9501170776157L44.52692307692308,133.41082495819737L44.61923076923077,131.57195747119908L45.08076923076923,130.7034736408158L45.276923076923076,131.50561705430528L45.392307692307696,130.7671822142612L45.426923076923075,128.8380393762595L46.05,130.68399578208962L46.18846153846154,132.25176643058802L46.45384615384616,132.00172738269058L46.926923076923075,132.98089289686135L47.01923076923077,134.3904144169155L47.06538461538461,134.73965196617024L47.146153846153844,133.34866757874238L47.75769230769231,133.34892195275157L47.83846153846154,134.05632555968003L48.19615384615384,134.197977140465L48.2423076923077,133.87962721283355L48.33461538461538,133.58988088664483L48.473076923076924,134.62740897713346L48.70384615384615,133.92230556951904L48.761538461538464,134.4840078624901L48.77307692307692,135.27165297703843L49.00384615384615,135.83194452546178L49.06153846153846,136.07629950059737L49.465384615384615,135.39798535831738L49.580769230769235,135.73632951931936L49.71923076923077,135.26116548989285L50.019230769230774,135.2075447262172L50.12307692307692,135.5517715883758L50.526923076923076,133.91422884896437L50.53846153846154,135.09317435166264L50.56153846153846,135.62429453337802L51.06923076923077,135.51901391389737L51.26538461538462,136.17416448737842L51.28846153846154,136.63076564875638L51.34615384615385,136.31228850011468L51.63461538461539,136.90168614223265L51.646153846153844,136.24867909571327L51.76153846153846,136.60311516774175L51.784615384615385,135.40303020866202L51.84230769230769,134.17840023750952L52.003846153846155,133.462782179802L52.073076923076925,133.78760090797505L52.17692307692308,133.81054722863055L52.349999999999994,135.51241485832702L52.419230769230765,133.31089101170642L53.94230769230769,131.1837320681521L54.15,131.7058193657463L54.57692307692307,131.96507617078214L54.738461538461536,133.6128657713055L55.142307692307696,133.95513581958528L56.1,133.4648962362237L56.37692307692308,131.2098451938407L57.19615384615384,130.79280751265145L57.28846153846154,132.50375849793588L57.70384615384615,131.13496606820962L58.01538461538461,133.59708522721613L58.050000000000004,137.19052370169453L58.71923076923077,134.3994992481392L59.434615384615384,134.93526451031693L59.82692307692308,134.30719814443785L59.83846153846154,134.9631391808045L60.230769230769226,134.5522643950374L60.34615384615385,133.65713166158145L60.39230769230769,136.6741417167231L60.41538461538462,135.23509066806105L60.426923076923075,133.34076186124008L61.09615384615385,136.45432376923276L61.557692307692314,136.11054152287312L61.91538461538462,136.93552683614055L62.22692307692308,134.91182551874138L62.284615384615385,135.930045790037L62.53846153846153,134.01789147052796L62.75769230769231,135.03907397027987L62.93076923076923,134.39379471919642L63.11538461538462,138.54716680575433L64.5,133.83179978209154L64.7076923076923,133.93166251586325L64.73076923076923,137.09533575538666L64.82307692307693,138.37239803888718L65.14615384615384,137.47996985923243L65.3076923076923,137.5064385712802L65.95384615384616,137.74816692356228L66,137.13829291751358L66.12692307692308,135.43460863167272L66.72692307692307,135.11124197443857L66.96923076923078,137.65057641148886L67.02692307692307,134.9426812760849L67.05,134.85890389280434L67.16538461538461,136.95545936701842L67.54615384615384,136.8748996441254L67.68461538461538,141.93021787611775L68.28461538461538,139.81412804966052L68.6076923076923,138.02400724199344L68.93076923076923,135.76050010983306L69.36923076923077,134.1378437260637L69.49615384615385,136.50328829168376L69.53076923076924,136.81893847155033L70.18846153846154,139.47636223892843L70.24615384615385,138.29100198185728L70.37307692307692,138.15429128191641L71.21538461538462,137.76921042193038L71.35384615384615,136.41134368413128L71.37692307692308,135.85465188642405L71.43461538461538,137.2341514755491L71.44615384615385,135.57749200637363L71.73461538461538,136.6666058288528L71.79230769230769,136.36050711789807L71.82692307692308,136.855882040972L72.14999999999999,137.87534407515196L72.18461538461538,135.8029316052131L72.62307692307692,137.44942762758328L72.77307692307693,138.38574017468687L72.79615384615384,137.13573234905954L73.65,136.47332921999788L73.73076923076923,136.10369782673177L74.11153846153846,136.06255531327042L74.79230769230769,137.71544383177826L74.98846153846154,134.0042216909508L75.23076923076923,134.70869752362847L75.78461538461539,136.5863930737703L75.81923076923076,134.5358621809321L76.36153846153846,137.17001001438126L76.77692307692308,136.73674327969923L76.82307692307693,137.18303532505257L76.91538461538461,136.50080494346753L77.34230769230768,135.0543141619118L77.4,136.5241475078912L77.76923076923076,135.94009787878105L77.86153846153846,137.64142085338062L78.2076923076923,139.04157245292916L78.34615384615385,138.7363833793083L78.36923076923077,141.5392119948911L78.8076923076923,140.19960680990502L78.94615384615383,135.1738599621599L79.43076923076923,137.10856239100366L80.21538461538462,136.21273263156456L80.31923076923077,138.1283040872815L80.35384615384615,135.57454770991816L81.23076923076923,137.1360472571231L81.25384615384615,139.78428933211427L81.26538461538462,137.97300356738722L81.87692307692308,138.68590914674377L82.2,138.45807941238746L82.96153846153845,138.91196697640817L83.41153846153846,142.65829660706757L84.44999999999999,142.79934981592322L84.63461538461539,141.31313684658898L84.79615384615384,137.1748770658773L85.49999999999999,137.8473101368309L85.75384615384615,140.44729798500305L86.59615384615384,143.1145110783849L86.61923076923077,143.30879735099518L86.98846153846154,140.13296957699802L87.26538461538462,139.21076675586906L87.42692307692307,138.57524538834696L87.92307692307692,139.07967672824742L88.26923076923077,138.51049581813743L88.31538461538463,137.1310915151115L88.48846153846154,137.19321679466222L88.96153846153845,137.86246127720628L88.99615384615385,139.4413630237338L89.6076923076923,139.48965809167368L89.97692307692307,140.59459663880432L90.17307692307692,138.39075798066L90.20769230769231,137.6542594925853L90.6,139.5709175644095L90.62307692307692,138.0853060589895L90.70384615384614,138.6334915105501L91.11923076923077,138.1196371581554L91.36153846153846,140.1854608873367L91.63846153846154,135.7599316489601L91.69615384615385,138.26687760662458L91.7653846153846,136.74586288637772L92.07692307692307,137.4293180317095L92.3076923076923,137.76383625330993L92.36538461538461,135.0518396667389L92.53846153846153,136.16261292527605L92.59615384615385,139.07046769279532L93.09230769230768,138.32598174940523L93.58846153846153,139.75561434823857L93.70384615384614,141.6959784734165L94.28076923076922,142.58776295232266L94.5,140.5442375901192L94.65,138.86235667841729L94.71923076923076,139.15271696792303L94.86923076923077,141.53096215335285L95.52692307692308,140.68779766206595L95.79230769230769,140.5787865379134L95.85000000000001,138.94729922167534L96.12692307692308,141.0980610606198L96.25384615384615,141.7771495614722L96.38076923076923,141.9300034483835L96.53076923076922,140.11253943685082L96.8076923076923,138.059618286153L97.91538461538461,138.04632924309988L97.96153846153847,136.9349450845219L98.1923076923077,138.95638871662004L98.81538461538462,139.638983627988L98.93076923076923,138.7290727501113L99.15,138.38755145102732L99.77307692307693,137.6966084863543L99.87692307692308,139.287141217339L100.01538461538462,138.88960449311017L100.05000000000001,138.79851913698243L100.22307692307693,138.1435036256774L100.25769230769231,140.77429364889048L100.39615384615384,140.15110406738032L100.7076923076923,141.83470356739468L100.75384615384615,143.39033945665898L100.88076923076923,142.232933034099L101.79230769230769,144.12350087141803L101.95384615384616,143.86498430833706L102.04615384615384,144.38376762548378L102.21923076923076,143.53539692210728L102.96923076923076,143.18078806905493L103.33846153846154,145.2936131591114L103.63846153846154,145.97067161706167L103.8923076923077,143.44396634880945L104.95384615384616,137.93055251827388L105.04615384615384,136.75535642856687L105.31153846153846,137.57919527145822L105.51923076923077,137.4272656801498L106.22307692307692,138.8092705168221L106.58076923076923,140.31542277681191L107.1923076923077,138.10903201310254L107.31923076923077,135.81921650057086L107.52692307692307,139.3448329423967L107.6423076923077,140.8179270359935L107.65384615384616,140.90834838945042L107.87307692307692,140.97823819993954L108.13846153846153,140.70772971796407L108.3576923076923,140.1646965806926L108.8076923076923,140.2317845979479L108.8423076923077,140.4238632893054L108.92307692307692,142.23642586323547L109.03846153846153,140.53506386669235L109.07307692307693,140.85531728501175L109.24615384615385,143.02937944552335L109.62692307692308,143.7898845185103L109.84615384615385,143.56931034977805L110.75769230769231,139.5514871135686L111.16153846153846,140.89677451582756L111.35769230769232,142.27974731643204L111.53076923076924,138.67869993996146L111.65769230769232,137.05921552748396L111.72692307692307,141.2575689504797L112.0153846153846,139.74365551175205L112.13076923076922,137.7826457434984L112.33846153846153,138.24281989420007L112.5,133.62000667383998L112.73076923076923,136.50312400061327L112.82307692307693,135.65679506181738L112.93846153846154,138.64660916757026L113.34230769230768,138.5483343543496L113.4,141.31938555490294L114.10384615384615,141.95230690629074L114.11538461538461,141.6871641635346L114.4846153846154,140.6579639291434L115.16538461538461,141.49655564878395L115.56923076923076,144.26851570757634L115.69615384615385,142.95505432577374L115.83461538461539,142.5369298773494L116.03076923076922,139.9186464320115L117.34615384615384,137.1615726095731L117.3923076923077,134.1689896787581L117.55384615384615,137.47095499070747L117.75,136.81543185491716L117.81923076923077,135.5386888335905L118.30384615384615,137.56758845751057L118.48846153846154,140.56738796773294L118.61538461538461,135.98063202466216L119.04230769230769,140.5992073909381L119.10000000000001,142.78463225042455L119.12307692307691,141.0193651525714L119.1923076923077,142.73057286492218L119.4576923076923,142.04652302593723L119.51538461538462,141.65106542784415L119.61923076923077,140.81694790648487L120.6576923076923,141.33838126019873L120.6923076923077,140.72547070357942L121.01538461538462,140.42483503326025L121.07307692307691,139.79507811489253L121.13076923076923,142.85307281686394L121.80000000000001,142.69492419048265L122.1,143.32924421122144L122.20384615384616,141.4904948681025L122.58461538461538,143.86638590153623L122.59615384615384,143.74411124859196L122.69999999999999,143.2062691979047L123.13846153846154,143.5841017086766L123.23076923076923,143.31092864987028L123.28846153846155,143.41678041050895L124.19999999999999,144.4074593235854L124.51153846153845,143.3726359397056L124.71923076923078,145.6757765316893L124.75384615384615,145.3993465157705L124.99615384615385,145.35497297658668L125.12307692307692,144.19555078038064L125.39999999999999,143.95172698550516L125.48076923076924,144.27288119347747L125.67692307692307,142.19033342213544L125.69999999999999,141.0882785714335L125.73461538461538,142.96813986281555L125.97692307692307,143.55153292763234L126.0576923076923,141.61896698086264L126.32307692307693,142.61740215664386L126.51923076923077,140.81062217381765L126.72692307692307,142.01963456766111L126.79615384615384,144.18112182793797L126.91153846153846,143.40920433508026L127.13076923076923,145.7538735276858L127.4423076923077,144.30272645988464L127.53461538461538,145.1839247240925L127.77692307692307,145.64639505113985L128.59615384615384,142.74632055381431L129.4153846153846,141.10576550852952L129.49615384615385,141.62861749346075L129.80769230769232,143.36416985878358L130.05,143.48899556570655L130.35,143.65509558542612L130.45384615384614,140.84862710728672L130.8230769230769,144.00854698535457L131.0653846153846,143.8562125904361L131.56153846153848,145.5131628002524L131.59615384615384,143.84234003340003L131.82692307692307,145.6025268740344L131.90769230769232,143.6802796189122L132.20769230769233,145.42332250560122L133.01538461538462,145.7136791538286L133.11923076923077,144.83319041079807L133.2,145.39116645423488L133.35,141.85573529343554L133.60384615384615,140.68845763290375L133.73076923076923,141.86103762676984L134.0423076923077,143.7837569325606L134.31923076923076,143.55291603859902L134.38846153846154,143.95242938909914L134.65384615384616,143.39781692334404L134.86153846153846,144.3216159743571L135.66923076923075,141.1627074600758L136.1769230769231,140.68211417326344L136.5,141.33801020937568L136.53461538461536,143.84348899577503L136.99615384615385,146.0583901939061L137.27307692307693,145.91738171203534L138.02307692307693,145.6031572450614L138.9230769230769,145.41979767557478L138.98076923076923,145.11581753299532L139.01538461538462,144.3885901010388L139.1769230769231,142.64584043242655L139.31538461538463,142.50230756770446L139.58076923076922,143.90529485267922L139.65,145.08242224885538L139.8230769230769,142.17805543681095L140.0076923076923,145.69300512754984L140.2846153846154,144.90314428379574L140.48076923076923,145.28843964857126L141.29999999999998,143.6479951543943L141.53076923076924,144.3484003247819L141.61153846153846,143.5235289276839L141.66923076923078,143.8948099697352L142.91538461538462,140.14032340554718L142.95,139.17591441576673L143.1923076923077,141.50159387531875L143.25,140.4083364113748L143.74615384615385,141.34913023141502L143.87307692307692,139.81091854469466L143.98846153846154,142.0331525265961L144.0346153846154,143.28899091838534L144.36923076923077,145.80536354397975L144.47307692307692,145.00550638327147L144.73846153846154,143.308780358369L144.75,142.36753138669422L144.88846153846154,141.77058603029306L145.24615384615385,145.24640240169083L145.35,146.8687149101288L145.54615384615386,146.01580237530413L145.60384615384615,147.10604589988438L145.7076923076923,143.60542105918913L145.79999999999998,144.0527785348045L145.8923076923077,140.6244619326083L146.08846153846153,141.5055624923878L146.4346153846154,142.7158855129345L146.54999999999998,144.3770232426562L146.97692307692307,146.61451340183248L147.08076923076925,142.8140044478454L147.0923076923077,143.53497363733516L147.34615384615384,143.0432455277876L147.42692307692306,145.03408431329942L147.75,140.6823587734617L147.8653846153846,142.81480853671533L147.92307692307693,141.15646743723573L148.05,142.47594065635695L148.15384615384616,143.06721351247603L148.3153846153846,140.6161781412457L148.75384615384615,141.87346595895855L148.78846153846155,141.06951046212058L149.18076923076924,143.11721459462368L149.22692307692307,141.05903119703606L149.4923076923077,143.42415000713154L149.56153846153848,145.1952460570114L149.58461538461538,144.97088832336527L150.04615384615386,145.37422897325672L150.11538461538464,142.2725105518503L150.13846153846154,143.9170418223383L150.26538461538462,146.19354267362604L150.32307692307694,145.67954622771651L150.48461538461538,145.500755030312L150.58846153846153,146.99120840930811L150.7730769230769,145.94338931741638L151.06153846153845,146.05754706026508L151.28076923076924,141.6096347258174L151.3846153846154,142.90144428823493L151.5923076923077,143.64251847990812L151.90384615384616,144.0806635375527L152.16923076923078,145.92360329662012L152.1923076923077,147.94724190404563L152.20384615384617,149.15544389140933L152.8846153846154,146.86530848415094L152.91923076923075,146.93229385358927L153.02307692307693,147.28395533646844L153.46153846153845,147.71723610809863L154.04999999999998,146.3770426252569L154.71923076923076,147.24921414489063L155.1346153846154,147.49008773109026L155.33076923076922,146.05860540473884L155.56153846153845,145.6401171070601L155.8846153846154,143.9396894325176L155.91923076923078,140.74111412461752L156,144.62879153636788L156.02307692307693,144.69555105297383L156.21923076923076,145.67715756016145L156.31153846153848,146.36857226441603L156.4153846153846,146.2563910600561L156.77307692307693,145.4492316852223L157.22307692307695,144.53803279460735L157.36153846153846,146.8355272186474L157.5,147.95178851322387L157.62692307692308,147.8031969269279L157.78846153846155,141.68567618132613L157.81153846153848,143.8429097080289L158.22692307692307,146.35118103886L158.6423076923077,146.94456788816663L158.95384615384614,146.9169842744983L159.12692307692308,145.6119132366846L159.47307692307692,144.67934755248248L159.75,142.66207460023415L159.95769230769233,144.02285016749772L160.33846153846153,145.6738252501158L160.65,144.1698135829251L160.8,141.97457793928868L160.82307692307694,143.69153942214064L161.06538461538463,143.68706391779548L161.12307692307692,137.96867136077861L161.2846153846154,143.08362334917058L161.4,144.99264643460552L161.45769230769233,144.96830145639206L161.53846153846152,144.33431665970102L161.75769230769228,146.6535726331068L161.89615384615385,145.9494212295051L163.01538461538462,145.94932164403411L163.18846153846155,147.27440825493701L163.3153846153846,145.4231370889638L163.36153846153846,148.56185085198248L163.54615384615383,146.82973420394043L163.92692307692306,146.64597836597312L164.03076923076924,146.84703491904466L164.76923076923075,146.73480054007845L164.80384615384614,146.8703592107706L164.98846153846156,146.65444688713626L165.17307692307693,148.534702709115L165.9923076923077,148.34486643123415L166.09615384615384,145.79438960938327L166.45384615384617,147.4153008573572L166.67307692307693,147.85302533884766L166.7076923076923,148.8963605280514L166.96153846153845,148.72631935571405L167.71153846153845,146.85163343724471L167.80384615384614,146.01739250884572L168.04615384615383,146.33427035967182L168.3,142.75034063553613L168.63461538461536,145.42865974304559L169.16538461538462,147.02540681718278L169.48846153846156,142.90488135789923L170.16923076923075,144.6580777852243L170.35384615384618,146.31276620259914L170.71153846153845,147.10015486378094L171.04615384615383,147.87584328769816L171.33461538461538,148.07279750775797L171.3923076923077,148.65915987236204L171.5423076923077,146.3638263424808L171.76153846153846,144.34089834574306L172.24615384615385,143.29750722100403L172.2576923076923,145.69705721110145L172.48846153846154,146.18497981649662L173.15769230769232,147.4334535987498L173.35384615384618,147.7607619697643L173.6653846153846,148.69514891712623L173.67692307692306,148.16597507720445L173.76923076923077,147.8550426413134L173.90769230769232,148.6941155343959L174.04615384615383,149.1709848075932L174.2192307692308,149.06042542337332L174.2653846153846,148.8326492028174L174.46153846153848,148.17690138022525L174.66923076923078,148.1056511372353L174.87692307692305,148.42924742520006L175.05,147.11604273986907L175.1653846153846,148.04079564018303L175.2,148.67114230157884L175.33846153846153,149.3189235413787L175.35,148.67435853092178L175.39615384615385,149.2768123204011L175.7192307692308,149.48055180338014L176.01923076923077,149.8948493416726L176.39999999999998,146.53798041436787L176.57307692307694,146.3419400852544L176.98846153846154,146.5782511801495L177.6,147.7505832446202L177.64615384615385,148.1162356247058L177.87692307692308,146.8288616513938L178.44230769230768,146.9094785795051L178.77692307692305,146.71573440107335L179.26153846153846,146.70711380465406L179.85000000000002,146.6501120938276L180.02307692307693,146.86552296062794L180.1153846153846,148.67487018990806L180.1846153846154,148.95247773342308L180.76153846153846,146.94245398648366L180.79615384615386,146.06051476662032L180.83076923076922,146.21528915384215L180.98076923076923,148.0742835823822L181.2923076923077,146.80931220198443L181.58076923076922,146.78101198223095L181.66153846153847,146.55770272521295L181.91538461538462,148.49123582844803L182.3076923076923,147.5885442591004L182.71153846153845,148.72591601588084L182.97692307692307,148.6283190445766L183.01153846153846,149.26394144723804L183.16153846153847,146.41800660508866L183.77307692307693,147.17108418415782L183.78461538461536,147.33954415244338L184.00384615384615,147.19641782356786L184.03846153846155,146.63294384189538L184.1423076923077,144.95955145542678L184.15384615384613,147.0640109430841L184.22307692307692,147.98547175533125L184.45384615384614,148.0042702407035L184.47692307692307,148.32791478040176L185.42307692307693,147.14917362691378L185.4923076923077,145.0744875607575L186.3576923076923,146.31572419629603L187.05,147.95667540863818L187.11923076923077,148.49979335865774L187.38461538461536,148.27496163726687L187.81153846153848,150.0380577276995L187.82307692307694,149.06844276075662L187.8923076923077,147.00087963274183L187.99615384615385,148.46118046630062L188.1923076923077,147.40772488587282L188.33076923076922,146.31155808194387L188.4,148.15616340591853L188.63076923076923,149.3637359583637L189.08076923076925,149.07498255039815L189.65769230769232,147.9240727613304L189.9346153846154,147.8262429708203L190.2,146.90921965980294L190.61538461538464,147.0274774089084L190.8923076923077,148.82084608105575L190.92692307692306,148.99315916912408L191.7923076923077,150.11704776535424L191.86153846153846,150.80098369628186L192.2076923076923,151.27655692791936L192.31153846153848,150.41497806546687L192.35769230769233,149.38602050446033L192.42692307692306,147.6411842721853L193.1076923076923,146.89129452515564L193.48846153846154,147.4290559238727L193.5,148.92726763168187L193.5923076923077,147.0379799668742L193.6384615384615,148.8017481693478L193.8346153846154,148.75052991681406L193.90384615384613,149.7868257070965L193.95,150.81844311686675L194.26153846153846,149.98095848102759L194.5730769230769,149.12131158971425L194.79230769230767,148.6118937400796L195.16153846153844,146.1327888409983L195.1730769230769,148.28616401646678L195.18461538461537,149.5709057455906L195.46153846153845,149.00382698211962L196.35,150.16440068414147L197.0769230769231,148.08021039205988L197.56153846153845,147.40101560019374L197.6076923076923,147.6746067915137L198.1153846153846,148.20699804507348L198.3346153846154,150.03300231833845L198.76153846153846,148.87437231027835L199.1076923076923,148.2948169570193L199.18846153846155,145.91031602984816L199.30384615384614,146.83955268541666L199.77692307692308,146.22320419537837L199.97307692307692,144.09171935908682L200.0423076923077,146.67677097614222L200.12307692307695,146.041556791041L200.66538461538462,148.29364109669547L200.72307692307695,149.80705040922416L200.90769230769232,148.69591572720202L200.9769230769231,149.24477932654852L201.09230769230768,148.40414900960346L201.3,149.14937716950072L201.49615384615385,149.37549856441672L201.51923076923077,150.4177713029829L201.88846153846154,147.327665533617L202.24615384615385,148.44435512482812L202.78846153846155,148.51035115694816L202.92692307692306,148.01344355687985L203.05384615384617,148.90184928474122L203.79230769230767,148.6759798854428L204.15,148.12075918196663L204.5769230769231,148.68187718855754L204.85384615384618,147.6668762371982L204.9576923076923,148.99277703947098L205.02692307692308,149.46294665924472L205.20000000000002,149.24386875982142L205.5576923076923,150.0691264146868L205.59230769230768,149.55443352307697L205.81153846153845,149.36760091093672L206.03076923076924,150.44470881257948L207.33461538461538,150.30563240250643L207.4269230769231,150.42698232531964L207.49615384615385,151.52422163456927L207.77307692307693,150.3389832918063L207.7846153846154,150.44457770998568L208.22307692307692,146.84321052798802L208.53461538461536,147.9065597770761L208.67307692307693,149.63318612832728L208.91538461538462,149.55668514763656L209.59615384615387,149.5696353631934L209.74615384615385,150.32919621871235L209.86153846153846,150.5741396063943L209.90769230769232,150.74467797514077L210.45000000000002,142.9264015044944L211.28076923076924,144.7383238694773L211.53461538461536,147.38690773080026L211.58076923076922,147.92659381884476L211.6153846153846,149.98279406865322L211.73076923076925,150.35709539347818L211.96153846153848,150.20552844878395L212.26153846153846,149.74863970921254L212.65384615384613,151.51571470734962L212.7576923076923,151.10974668554957L213.40384615384616,150.94193916375932L214.02692307692308,150.05728439602552L214.3269230769231,150.71619195409593L214.3846153846154,150.24678931038366L214.6153846153846,149.99744157135956L215.20384615384614,149.58993862951084L215.25,148.74095762303045L215.6192307692308,149.7251564683352L216.1846153846154,148.77907212506736L216.41538461538462,149.5716563041866L216.7846153846154,149.90026401137473L216.9,148.49921355638003L216.91153846153844,149.9042484491652L217.2,149.09969673035062L217.30384615384617,149.93996162252137L217.4653846153846,150.16912075600928L217.95000000000002,150.64441070539894L218.23846153846154,149.51069417049374L219.10384615384615,149.19645260840588L219.87692307692308,150.2573461238738L220.23461538461538,149.2750295730946L220.62692307692308,150.67742704942927L220.63846153846154,151.83265870791737L220.8923076923077,151.2584022580508L221.33076923076922,151.09962958389065L221.38846153846154,150.70516548629726L221.44615384615383,151.15365221545773L221.87307692307695,150.9021605026464L221.9653846153846,151.78532107751016L222.12692307692308,151.9113761698034L222.25384615384615,152.91785497530262L222.46153846153848,149.98585039415335L222.48461538461538,150.84349139951692L222.75000000000003,151.89020819916144L222.76153846153846,151.7405774367083L222.7730769230769,151.0112712336915L222.8076923076923,151.23640458603722L223.02692307692308,151.42318464559332L223.43076923076922,150.98026774669893L223.62692307692308,151.84638475161915L223.77692307692308,152.73308988679722L223.78846153846155,152.44671195458935L224.0307692307692,151.67640198446253L224.14615384615385,151.88138606951796L224.23846153846156,153.1999017072464L224.35384615384615,152.13547667102483L224.91923076923075,151.48259108952564L225.01153846153846,152.32170349622893L225.05769230769232,151.07413811245638L225.38076923076923,150.62770031248974L225.54230769230767,152.5035611941245L225.61153846153846,151.44014813326757L225.7730769230769,150.96647086783028L225.87692307692308,151.2389028209077L225.95769230769233,151.57937380150716L225.9692307692308,151.9115580929861L226.01538461538462,151.22886771640452L226.30384615384617,151.21336677629515L226.41923076923075,150.9535983872936L226.4653846153846,150.67404700949942L226.64999999999998,151.38210307589264L226.81153846153848,151.00087018925603L227.2269230769231,151.40852584313546L227.31923076923076,149.23621522409434L227.44615384615386,149.17168420268723L228.01153846153846,150.36929425724523L228.02307692307693,150.41438585000145L228.08076923076925,151.16847688541952L228.3923076923077,152.47166167735244L228.83076923076922,152.1068146976184L230.11153846153846,152.01924122287937L230.2153846153846,152.6779645937032L230.4,150.54266185506262L230.4346153846154,150.67905286815213L230.53846153846152,151.95192132587104L230.86153846153846,152.00007420000355L231.25384615384615,152.22434061000897L231.26538461538462,152.23654878127667L231.3692307692308,150.50876404933985L231.40384615384613,151.06920833642994L231.85384615384615,151.59612817767686L232.1423076923077,151.55912884148017L232.3153846153846,152.2014172595564L232.33846153846153,151.45557618867298L232.43076923076924,150.16812437016333L232.6153846153846,150.52125789218286L232.84615384615387,149.42577483649933L233.12307692307692,151.1506599926703L233.37692307692308,151.29718444012124L233.70000000000002,152.4961132966728L233.83846153846153,152.02356624086207L234.32307692307694,151.3713244332642L234.35769230769233,151.72507407419505L234.83076923076922,152.4184916520275L234.92307692307693,153.57548333822385L235.85769230769233,152.04589638482747L235.86923076923074,152.9377841546906L236.87307692307692,153.7879722530632L236.96538461538464,153.90784568279915L237.47307692307692,151.26355728322227L237.48461538461538,150.72848923393462L238.0730769230769,151.80495109491574L238.1769230769231,150.6687143494667L238.76538461538462,151.09877312779315L238.88076923076923,151.88285484298999L238.96153846153845,151.10529062381346L239.29615384615386,152.7853735408542L239.72307692307695,152.15483254768597L239.91923076923078,153.17182505922403L240.40384615384613,154.07974567459902L240.9576923076923,154.35838988838722L241.41923076923078,154.61803987759725L241.7076923076923,153.27381680094228L241.92692307692306,152.9926622565569L241.98461538461538,153.42353233656178L242.0423076923077,153.19472087300355L242.25,153.23930421696028L242.30769230769232,152.37951221898746L242.3653846153846,152.54715055427283L242.50384615384615,151.17364500881035L242.74615384615385,150.62776694250584L243.28846153846155,151.4245913210659L243.53076923076924,151.15876066882305L243.9576923076923,152.40661169632608L244.1423076923077,153.37314541031023L244.53461538461536,151.2505855196065L244.66153846153847,152.1376588982848L244.81153846153845,152.59998959630772L245.23846153846154,153.69649460177152L245.31923076923078,152.8376359791191L245.36538461538464,153.74294102735857L245.65384615384616,153.75209901957237L245.95384615384617,153.38425046490744L246.8884615384615,153.14140606991717L246.9230769230769,152.82285203529756L246.98076923076923,152.63101089145755L247.5576923076923,152.43589290914545L247.78846153846152,152.66187372542984L247.96153846153845,152.47556514434555L247.99615384615385,153.6950051269608L248.01923076923077,153.3813478309916L248.25,152.94417177194396L248.31923076923078,152.69637294443868L248.5846153846154,153.06130448628917L248.87307692307692,152.91400066107187L248.89615384615385,151.5299619918446L249.04615384615383,151.28232797595146L249.5076923076923,152.267542678787L249.57692307692307,150.99027246157746L249.73846153846154,152.3284710417415L249.8653846153846,152.43923816503437L249.96923076923076,152.91976200071784L250.01538461538462,152.9069758238066L250.5,152.05665970931463L250.58076923076922,152.81912408077724L250.62692307692308,151.79448983105425L250.6846153846154,152.09064082820657L250.69615384615386,151.5832824141946L251.15769230769232,151.96000155843296L251.37692307692308,153.04308164626062L251.68846153846152,153.44228194138228L251.95384615384614,153.6095124981154L252.76153846153846,154.38903028395617L252.87692307692308,152.74285953865555L253.01538461538462,153.09612035155956L253.21153846153845,153.3345585340301L253.39615384615385,153.06016750926017L253.48846153846154,153.79485648189032L253.59230769230768,153.87481109538103L253.67307692307693,153.0868469937946L254.1346153846154,154.02591284440416L254.2846153846154,152.59905448154484L254.34230769230768,153.3772833725564L254.41153846153844,153.25869848166423L254.44615384615383,153.33082770532081L255.3230769230769,152.79405499533243L255.33461538461538,152.35899924209969L255.3576923076923,152.09208858741079L255.84230769230768,152.11504512269946L255.87692307692308,151.75640045547277L256.2346153846154,152.45665442612045L256.48846153846154,152.59872570583985L256.54615384615386,153.72628002360324L256.58076923076925,153.66977612745677L256.63846153846157,153.491911565196L257.11153846153843,152.56829917724818L257.2846153846154,152.77257039648825L257.4576923076923,153.1023764051648L257.5615384615385,153.6111220747323L257.5846153846154,154.36122747159175L257.80384615384617,154.31264860419137L258.0346153846154,153.9833287499112L258.15000000000003,153.67854094813836L258.3115384615385,153.89315998962863L258.32307692307694,152.85349195844736L258.7846153846154,153.78505345577332L258.8076923076923,154.12277968574662L259.0615384615385,154.28606358862876L259.3269230769231,154.71839073138364L259.8,154.31396420426324L259.95,154.00859624297712L259.96153846153845,153.22683529496965L260.0769230769231,153.27686718219982L260.1807692307692,153.31493179344812L260.1923076923077,153.60907728355335L260.2153846153846,153.52037609446768L260.2730769230769,152.8930534903927L260.4,153.20681787340186L261.2423076923077,153.21471642886604L261.66923076923075,153.9494203962237L261.6807692307692,153.60152255891862L261.87692307692305,154.01450427188934L261.9230769230769,153.86758494639076L262.35,153.90827553131388L262.7076923076923,154.3436719441903L262.71923076923076,153.51515669909074L262.75384615384615,153.40139869771573L262.7653846153846,153.78125925464732L263.1576923076923,152.98868890317263L263.2153846153846,152.78453179426182L263.3192307692308,152.84459498958103L263.37692307692305,152.92558450288362L263.5961538461538,153.48559073455206L263.9769230769231,153.4815932681982L264.25384615384615,153.7474280354872L264.2653846153846,153.68509373486012L264.6807692307692,153.36746831041555L265.11923076923074,154.20625673321325L265.58076923076925,153.4864018326249L265.65,152.95637981684484L265.6730769230769,152.27977912629532L265.68461538461537,153.58258688136124L265.8923076923077,153.80064527427663L266.0423076923077,153.90294684610075L266.1461538461539,153.5347103820223L266.1923076923077,153.77672036340704L266.9307692307692,153.62032131985347L267.6807692307693,153.71178293755963L267.94615384615383,153.2616483049471L268.1307692307692,153.90616035509876L268.36153846153843,153.61622123151287L268.9153846153846,153.8854787616686L268.95,153.28982196264002L269.0076923076923,154.07582364685854L269.78076923076924,154.63301800370974L269.98846153846154,154.49419958848216L270.8538461538462,154.93464936645154L271.30384615384617,154.93528189409568L271.31538461538463,155.07327100518373L271.7076923076923,153.93406362463847L272.0423076923077,153.86040023717175L272.1923076923077,154.10705507660145L272.3192307692308,153.45309563496252L272.5615384615385,154.0753851534041L272.7692307692308,154.57306161641253L272.9307692307692,154.17308228906498L272.9423076923077,153.44340823111835" style="fill: none;" fill="none"></path></g></g></g></g><g opacity="0.2"><g><g><g><path stroke="rgb(255, 112, 67)" stroke-width="2px" d="M23.16923076923077,127.73556166887283L23.446153846153848,14.578592658042908L23.48076923076923,78.59977543354034L23.78076923076923,131.6280533671379L24.046153846153846,119.09952440857887L24.784615384615385,130.46999138593674L24.888461538461538,119.34878167510033L25.603846153846156,30.02953004837036L25.66153846153846,127.51353666186333L25.903846153846153,101.42612218856812L26.111538461538462,127.24735704064369L26.515384615384615,129.36868560314178L26.53846153846154,129.54524305462837L26.63076923076923,131.38983541727066L26.965384615384615,45.84037780761719L27.196153846153845,131.63402128219604L27.819230769230767,125.95040974020958L28.26923076923077,-106.8148365020752L28.430769230769233,130.2787316441536L29.146153846153847,128.41576075553894L29.457692307692305,131.71201530098915L29.642307692307693,133.62965361773968L29.723076923076924,130.30648112297058L29.734615384615385,133.0701668858528L30.276923076923076,132.9955016374588L30.426923076923078,135.25132711231709L30.58846153846154,133.09938579797745L30.703846153846154,132.1474502980709L31.2,132.59204670786858L31.29230769230769,133.65955021977425L31.78846153846154,-82.80353236198425L31.834615384615383,127.82888129353523L31.85769230769231,128.8287272155285L32.01923076923077,133.2957328557968L32.042307692307695,104.71032685041428L32.12307692307692,130.51128935813904L32.215384615384615,132.37212771177292L32.284615384615385,132.59723216295242L32.60769230769231,129.90327551960945L33.86538461538461,126.99300715327263L34.16538461538462,132.0367255806923L34.176923076923075,131.88509014248848L34.246153846153845,133.44917193055153L34.52307692307692,130.29236766695976L34.55769230769231,133.67286264896393L34.66153846153846,136.29801586270332L35.22692307692308,134.47377541661263L35.261538461538464,128.65251192450523L35.573076923076925,125.87926423549652L35.64230769230769,133.4099057018757L35.699999999999996,140.30550530552864L36.3,130.38297918438911L36.35769230769231,130.0101701617241L36.36923076923077,130.70218306779861L36.57692307692308,129.96433126926422L36.72692307692308,132.67972201108932L37.315384615384616,131.03683191537857L37.511538461538464,137.55193582177162L38.146153846153844,133.84092046320438L38.18076923076923,141.8223424255848L38.34230769230769,105.42855614423752L38.38846153846154,96.7357069849968L38.94230769230769,128.45173799991608L39.02307692307693,112.30590984225273L39.276923076923076,126.70449161529541L39.41538461538461,132.52723249793053L39.53076923076923,130.74308052659035L39.87692307692308,130.24318408966064L40.00384615384615,131.67105948925018L40.16538461538461,133.6799724251032L40.534615384615385,131.26697859168053L40.869230769230775,130.45247754454613L41.05384615384615,135.0111092478037L41.23846153846154,132.8132547736168L41.284615384615385,135.3725142478943L41.480769230769226,132.4331091940403L41.88461538461539,133.86107742786407L42.369230769230775,131.3631336390972L42.473076923076924,131.03900158405304L42.68076923076923,130.10639947652817L42.784615384615385,126.79675823450089L42.94615384615385,120.57959386706352L42.96923076923076,131.49481767416L43.003846153846155,132.57590946555138L43.51153846153846,132.82541340589523L44.03076923076923,128.97978708148003L44.238461538461536,132.88093623518944L44.34230769230769,134.5711200684309L44.49230769230769,133.46590065956116L44.52692307692308,134.1018867790699L44.61923076923077,128.81365624070168L45.08076923076923,129.40074789524078L45.276923076923076,132.70883217453957L45.392307692307696,129.65952995419502L45.426923076923075,125.94432511925697L46.05,133.4529303908348L46.18846153846154,134.60342240333557L46.45384615384616,131.62666881084442L46.926923076923075,134.44964116811752L47.01923076923077,136.5046966969967L47.06538461538461,135.2635082900524L47.146153846153844,131.26219099760056L47.75769230769231,133.34930351376534L47.83846153846154,135.11743097007275L48.19615384615384,134.41045451164246L48.2423076923077,133.40210232138634L48.33461538461538,133.15526139736176L48.473076923076924,136.1837011128664L48.70384615384615,132.86465045809746L48.761538461538464,135.32656130194664L48.77307692307692,136.45312064886093L49.00384615384615,136.67238184809685L49.06153846153846,136.4428319633007L49.465384615384615,134.38051414489746L49.580769230769235,136.2438457608223L49.71923076923077,134.5484194457531L50.019230769230774,135.12711358070374L50.12307692307692,136.06811188161373L50.526923076923076,131.45791473984718L50.53846153846154,136.86159260571003L50.56153846153846,136.42097480595112L51.06923076923077,135.36109298467636L51.26538461538462,137.15689034759998L51.28846153846154,137.31566739082336L51.34615384615385,135.83457277715206L51.63461538461539,137.78578260540962L51.646153846153844,135.26916852593422L51.76153846153846,137.1347692757845L51.784615384615385,133.60290277004242L51.84230769230769,132.3414552807808L52.003846153846155,132.38935509324074L52.073076923076925,134.2748290002346L52.17692307692308,133.8449667096138L52.349999999999994,138.0652163028717L52.419230769230765,130.0086052417755L53.94230769230769,127.99299365282059L54.15,132.4889503121376L54.57692307692307,132.35396137833595L54.738461538461536,136.08455017209053L55.142307692307696,134.46854089200497L56.1,132.72953686118126L56.37692307692308,127.82726863026619L57.19615384615384,130.16725099086761L57.28846153846154,135.0701849758625L57.70384615384615,129.08177742362022L58.01538461538461,137.2902639657259L58.050000000000004,142.5806814134121L58.71923076923077,130.21296256780624L59.434615384615384,135.73891240358353L59.82692307692308,133.3650985956192L59.83846153846154,135.94705073535442L60.230769230769226,133.9359522163868L60.34615384615385,132.31443256139755L60.39230769230769,141.19965679943562L60.41538461538462,133.07651409506798L60.426923076923075,130.4992686510086L61.09615384615385,141.12466663122177L61.557692307692314,135.59486815333366L61.91538461538462,138.17300480604172L62.22692307692308,131.8762735426426L62.284615384615385,137.45737619698048L62.53846153846153,131.14965999126434L62.75769230769231,136.57084771990776L62.93076923076923,133.42587584257126L63.11538461538462,144.77722493559122L64.5,126.75874924659729L64.7076923076923,134.08145661652088L64.73076923076923,141.8408456146717L64.82307692307693,140.28799146413803L65.14615384615384,136.1413275897503L65.3076923076923,137.54614163935184L65.95384615384616,138.11075945198536L66,136.2234819084406L66.12692307692308,132.87908220291138L66.72692307692307,134.62619198858738L66.96923076923078,141.45957806706429L67.02692307692307,130.88083857297897L67.05,134.7332378178835L67.16538461538461,140.10029257833958L67.54615384615384,136.75406005978584L67.68461538461538,149.5131952241063L68.28461538461538,136.63999330997467L68.6076923076923,135.33882603049278L68.93076923076923,132.36523941159248L69.36923076923077,131.7038591504097L69.49615384615385,140.05145514011383L69.53076923076924,137.29241374135017L70.18846153846154,143.46249788999557L70.24615384615385,136.51296159625053L70.37307692307692,137.94922523200512L71.21538461538462,137.19158913195133L71.35384615384615,134.37454357743263L71.37692307692308,135.0196141898632L71.43461538461538,139.30340085923672L71.44615384615385,133.0925028026104L71.73461538461538,138.30027656257153L71.79230769230769,135.901359051466L71.82692307692308,137.59894442558289L72.14999999999999,139.40453712642193L72.18461538461538,132.6943129003048L72.62307692307692,139.91917166113853L72.77307692307693,139.79020899534225L72.79615384615384,135.2607206106186L73.65,135.47972452640533L73.73076923076923,135.54925073683262L74.11153846153846,136.00084154307842L74.79230769230769,140.19477660953999L74.98846153846154,128.43738847970963L75.23076923076923,135.765411272645L75.78461538461539,139.402936398983L75.81923076923076,131.4600658416748L76.36153846153846,141.12123176455498L76.77692307692308,136.0868431776762L76.82307692307693,137.85247339308262L76.91538461538461,135.47745937108994L77.34230769230768,132.88457798957825L77.4,138.72889752686024L77.76923076923076,135.0640234351158L77.86153846153846,140.19340531527996L78.2076923076923,141.141799852252L78.34615384615385,138.27859976887703L78.36923076923077,145.74345491826534L78.8076923076923,138.19019903242588L78.94615384615383,127.63523969054222L79.43076923076923,140.01061603426933L80.21538461538462,134.8689879924059L80.31923076923077,141.00166127085686L80.35384615384615,131.74391314387321L81.23076923076923,139.47829657793045L81.25384615384615,143.75665244460106L81.26538461538462,135.25607492029667L81.87692307692308,139.75526751577854L82.2,138.116334810853L82.96153846153845,139.5927983224392L83.41153846153846,148.27779105305672L84.44999999999999,143.01092962920666L84.63461538461539,139.08381739258766L84.79615384615384,130.96748739480972L85.49999999999999,138.85595974326134L85.75384615384615,144.34727975726128L86.59615384615384,147.1153307184577L86.61923076923077,143.60022675991058L86.98846153846154,135.36922791600227L87.26538461538462,137.82746252417564L87.42692307692307,137.6219633370638L87.92307692307692,139.83632373809814L88.26923076923077,137.6567244529724L88.31538461538463,135.06198506057262L88.48846153846154,137.2864047139883L88.96153846153845,138.86632800102234L88.99615384615385,141.80971564352512L89.6076923076923,139.5621006935835L89.97692307692307,142.2520044595003L90.17307692307692,135.0849999934435L90.20769230769231,136.54951176047325L90.6,142.44590467214584L90.62307692307692,135.85688880085945L90.70384615384614,139.455769687891L91.11923076923077,137.34885562956333L91.36153846153846,143.28419648110867L91.63846153846154,129.1216377913952L91.69615384615385,142.02729654312134L91.7653846153846,134.46434080600739L92.07692307692307,138.45450074970722L92.3076923076923,138.26561358571053L92.36538461538461,130.9838447868824L92.53846153846153,137.82877281308174L92.59615384615385,143.43224984407425L93.09230769230768,137.20925283432007L93.58846153846153,141.90006324648857L93.70384615384614,144.60652466118336L94.28076923076922,143.92543967068195L94.5,137.47894954681396L94.65,136.33953531086445L94.71923076923076,139.58825740218163L94.86923076923077,145.09832993149757L95.52692307692308,139.4230509251356L95.79230769230769,140.41526985168457L95.85000000000001,136.50006824731827L96.12692307692308,144.32420381903648L96.25384615384615,142.79578231275082L96.38076923076923,142.15928427875042L96.53076923076922,137.38634341955185L96.8076923076923,134.98023656010628L97.91538461538461,138.0263956785202L97.96153846153847,135.2678688466549L98.1923076923077,141.98855416476727L98.81538461538462,140.66287599503994L98.93076923076923,137.3642064332962L99.15,137.87526950240135L99.77307692307693,136.6601940393448L99.87692307692308,141.67294031381607L100.01538461538462,138.2932994067669L100.05000000000001,138.66189110279083L100.22307692307693,137.16098035871983L100.25769230769231,144.7204786837101L100.39615384615384,139.2163196951151L100.7076923076923,144.3601028174162L100.75384615384615,145.72379329055548L100.88076923076923,140.49682340025902L101.79230769230769,146.95935262739658L101.95384615384616,143.47720946371555L102.04615384615384,145.16194260120392L102.21923076923076,142.26284086704254L102.96923076923076,142.6488747894764L103.33846153846154,148.46285079419613L103.63846153846154,146.98625930398703L103.8923076923077,139.65390844643116L104.95384615384616,129.66043177247047L105.04615384615384,134.99256229400635L105.31153846153846,138.8149535357952L105.51923076923077,137.19937129318714L106.22307692307692,140.88227777183056L106.58076923076923,142.57465116679668L107.1923076923077,134.79944586753845L107.31923076923077,132.38449323177338L107.52692307692307,144.63325760513544L107.6423076923077,143.02756817638874L107.65384615384616,141.04398041963577L107.87307692307692,141.08307291567326L108.13846153846153,140.30196699500084L108.3576923076923,139.35014687478542L108.8076923076923,140.3324166238308L108.8423076923077,140.71198132634163L108.92307692307692,144.95526972413063L109.03846153846153,137.98302087187767L109.07307692307693,141.33569741249084L109.24615384615385,146.29047268629074L109.62692307692308,144.93064212799072L109.84615384615385,143.2384490966797L110.75769230769231,133.52475225925446L111.16153846153846,142.91470561921597L111.35769230769232,144.35420651733875L111.53076923076924,133.27712887525558L111.65769230769232,134.6299889087677L111.72692307692307,147.55509908497334L112.0153846153846,137.47278535366058L112.13076923076922,134.84113109111786L112.33846153846153,138.9330811202526L112.5,126.68578684329987L112.73076923076923,140.8277999907732L112.82307692307693,134.38730165362358L112.93846153846154,143.13133032619953L113.34230769230768,138.40092213451862L113.4,145.47596235573292L114.10384615384615,142.9016889333725L114.11538461538461,141.28945004940033L114.4846153846154,139.1141635775566L115.16538461538461,142.75444322824478L115.56923076923076,148.42645579576492L115.69615384615385,140.98486225306988L115.83461538461539,141.90974320471287L116.03076923076922,135.9912212640047L117.34615384615384,133.02596187591553L117.3923076923077,129.68011528253555L117.55384615384615,142.42390295863152L117.75,135.83214715123177L117.81923076923077,133.62357430160046L118.30384615384615,140.61093789339066L118.48846153846154,145.06708723306656L118.61538461538461,129.10049811005592L119.04230769230769,147.52707044035196L119.10000000000001,146.06276953965425L119.12307692307691,138.37146450579166L119.1923076923077,145.29738443344831L119.4576923076923,141.02044826745987L119.51538461538462,141.0578790307045L119.61923076923077,139.56577162444592L120.6576923076923,142.12053129076958L120.6923076923077,139.80610486865044L121.01538461538462,139.9738815277815L121.07307692307691,138.85044273734093L121.13076923076923,147.44006486982107L121.80000000000001,142.45770125091076L122.1,144.2807242423296L122.20384615384616,138.73237085342407L122.58461538461538,147.43022245168686L122.59615384615384,143.56069926917553L122.69999999999999,142.39950612187386L123.13846153846154,144.15085047483444L123.23076923076923,142.90116906166077L123.28846153846155,143.57555805146694L124.19999999999999,145.8934776932001L124.51153846153845,141.82040086388588L124.71923076923078,149.13048741966486L124.75384615384615,144.98470149189234L124.99615384615385,145.28841266781092L125.12307692307692,142.4564174860716L125.39999999999999,143.5859912931919L125.48076923076924,144.75461250543594L125.67692307692307,139.0665117651224L125.69999999999999,139.4351962953806L125.73461538461538,145.7879317998886L125.97692307692307,144.42662252485752L126.0576923076923,138.72011806070805L126.32307692307693,144.11505492031574L126.51923076923077,138.10045219957829L126.72692307692307,143.83315315842628L126.79615384615384,147.42335271835327L126.91153846153846,142.25132809579372L127.13076923076923,149.27087731659412L127.4423076923077,142.1260058581829L127.53461538461538,146.50572212040424L127.77692307692307,146.34010054171085L128.59615384615384,138.39620880782604L129.4153846153846,138.6449329406023L129.49615384615385,142.41289547085762L129.80769230769232,145.96749840676785L130.05,143.676234126091L130.35,143.9042456150055L130.45384615384614,136.6389243900776L130.8230769230769,148.74842680245638L131.0653846153846,143.62771099805832L131.56153846153848,147.99858811497688L131.59615384615384,141.3361058831215L131.82692307692307,148.24280713498592L131.90769230769232,140.79690873622894L132.20769230769233,148.0378868356347L133.01538461538462,146.14921412616968L133.11923076923077,143.51245729625225L133.2,146.2281305193901L133.35,136.55258855223656L133.60384615384615,138.93754114210606L133.73076923076923,143.61990761756897L134.0423076923077,146.6678358912468L134.31923076923076,143.20665469765663L134.38846153846154,144.55169941484928L134.65384615384616,142.56589822471142L134.86153846153846,145.70731455087662L135.66923076923075,136.42434468865395L136.1769230769231,139.96122424304485L136.5,142.32185426354408L136.53461538461536,147.60170717537403L136.99615384615385,149.3807419911027L137.27307692307693,145.7058689892292L138.02307692307693,145.1318205446005L138.9230769230769,145.14475832134485L138.98076923076923,144.65984731912613L139.01538461538462,143.29774895310402L139.1769230769231,140.0317159295082L139.31538461538463,142.2870082706213L139.58076923076922,146.00977578014135L139.65,146.84811334311962L139.8230769230769,137.82150521874428L140.0076923076923,150.96542966365814L140.2846153846154,143.71835301816463L140.48076923076923,145.8663826957345L141.29999999999998,141.18732841312885L141.53076923076924,145.39900808036327L141.61153846153846,142.28622183203697L141.66923076923078,144.45173153281212L142.91538461538462,134.50859355926514L142.95,137.72930093109608L143.1923076923077,144.99011306464672L143.25,138.76845021545887L143.74615384615385,142.76032096147537L143.87307692307692,137.5036010146141L143.98846153846154,145.3665034994483L144.0346153846154,145.17274850606918L144.36923076923077,149.57992248237133L144.47307692307692,143.80572064220905L144.73846153846154,140.76369132101536L144.75,140.95565792918205L144.88846153846154,140.8751679956913L145.24615384615385,150.46012695878744L145.35,149.30218367278576L145.54615384615386,144.7364335730672L145.60384615384615,148.7414111867547L145.7076923076923,138.35448379814625L145.79999999999998,144.7238147482276L145.8923076923077,135.48198702931404L146.08846153846153,142.827213332057L146.4346153846154,144.53137004375458L146.54999999999998,146.8687298372388L146.97692307692307,149.97074864059687L147.08076923076925,137.11324101686478L147.0923076923077,144.61642742156982L147.34615384615384,142.30565336346626L147.42692307692306,148.02034249156713L147.75,134.15477046370506L147.8653846153846,146.0134831815958L147.92307692307693,138.66895578801632L148.05,144.45515048503876L148.15384615384616,143.9541227966547L148.3153846153846,136.93962508440018L148.75384615384615,143.7593976855278L148.78846153846155,139.86357721686363L149.18076923076924,146.18877079337835L149.22692307692307,137.9717561006546L149.4923076923077,146.97182822227478L149.56153846153848,147.85189013183117L149.58461538461538,144.6343517228961L150.04615384615386,145.9792399480939L150.11538461538464,137.61993291974068L150.13846153846154,146.38383872807026L150.26538461538462,149.6082939505577L150.32307692307694,144.9085515588522L150.48461538461538,145.23256823420525L150.58846153846153,149.22688847780228L150.7730769230769,144.37166067957878L151.06153846153845,146.22878367453814L151.28076923076924,134.9377662241459L151.3846153846154,144.8391586318612L151.5923076923077,144.7541297674179L151.90384615384616,144.73788112401962L152.16923076923078,148.6880129352212L152.1923076923077,150.98269981518388L152.20384615384617,150.96774687245488L152.8846153846154,143.43010537326336L152.91923076923075,147.0327719077468L153.02307692307693,147.8114475607872L153.46153846153845,148.36715726554394L154.04999999999998,144.3667524009943L154.71923076923076,148.5574714243412L155.1346153846154,147.8513981103897L155.33076923076922,143.91138191521168L155.56153846153845,145.012384660542L155.8846153846154,141.3890479207039L155.91923076923078,135.9432511627674L156,150.46030765399337L156.02307692307693,144.79569032788277L156.21923076923076,147.14956732094288L156.31153846153848,147.40569432079792L156.4153846153846,146.0881192535162L156.77307692307693,144.23849262297153L157.22307692307695,143.17123445868492L157.36153846153846,150.28176885470748L157.5,149.62618045508862L157.62692307692308,147.58030954748392L157.78846153846155,132.50939506292343L157.81153846153848,147.07875999808311L158.22692307692307,150.11358803510666L158.6423076923077,147.83464816212654L158.95384615384614,146.8756088539958L159.12692307692308,143.65430667996407L159.47307692307692,143.2804990261793L159.75,139.63616517186165L159.95769230769233,146.06401351839304L160.33846153846153,148.150287874043L160.65,141.91379608213902L160.8,138.68172447383404L160.82307692307694,146.26698164641857L161.06538461538463,143.68035066127777L161.12307692307692,129.3910825252533L161.2846153846154,150.7560513317585L161.4,147.85618106275797L161.45769230769233,144.93178398907185L161.53846153846152,143.38333946466446L161.75769230769228,150.13245659321547L161.89615384615385,144.8931941241026L163.01538461538462,145.94917226582766L163.18846153846155,149.26203817129135L163.3153846153846,142.64623034000397L163.36153846153846,153.2699214965105L163.54615384615383,144.23155923187733L163.92692307692306,146.37034460902214L164.03076923076924,147.14861974865198L164.76923076923075,146.56644897162914L164.80384615384614,147.0736972168088L164.98846153846156,146.33057840168476L165.17307692307693,151.35508644208312L165.9923076923077,148.06011201441288L166.09615384615384,141.96867437660694L166.45384615384617,149.84666772931814L166.67307692307693,148.50961206108332L166.7076923076923,150.46136331185699L166.96153846153845,148.47125759720802L167.71153846153845,144.03960455954075L167.80384615384614,144.76603111624718L168.04615384615383,146.809587135911L168.3,137.37444604933262L168.63461538461536,149.44613840430975L169.16538461538462,149.4205274283886L169.48846153846156,136.72409316897392L170.16923076923075,147.28787242621183L170.35384615384618,148.79479882866144L170.71153846153845,148.28123785555363L171.04615384615383,149.03937592357397L171.33461538461538,148.3682288378477L171.3923076923077,149.53870341926813L171.5423076923077,142.92082604765892L171.76153846153846,141.30650635063648L172.24615384615385,141.7324205338955L172.2576923076923,149.29638219624758L172.48846153846154,146.91686372458935L173.15769230769232,149.30616427212954L173.35384615384618,148.25172452628613L173.6653846153846,150.0967293381691L173.67692307692306,147.37221431732178L173.76923076923077,147.38864398747683L173.90769230769232,149.95272487401962L174.04615384615383,149.8862887173891L174.2192307692308,148.89458634704351L174.2653846153846,148.49098487198353L174.46153846153848,147.19327964633703L174.66923076923078,147.99877577275038L174.87692307692305,148.91464185714722L175.05,145.14623571187258L175.1653846153846,149.427924990654L175.2,149.61666229367256L175.33846153846153,150.29059540107846L175.35,147.70751101523638L175.39615384615385,150.18049300462008L175.7192307692308,149.78616102784872L176.01923076923077,150.51629564911127L176.39999999999998,141.5026770234108L176.57307692307694,146.0478795915842L176.98846153846154,146.93271782249212L177.6,149.50908134132624L177.64615384615385,148.66471419483423L177.87692307692308,144.8978006914258L178.44230769230768,147.03040397167206L178.77692307692305,146.4251181334257L179.26153846153846,146.69418291002512L179.85000000000002,146.5646095275879L180.02307692307693,147.1886392608285L180.1153846153846,151.38889103382826L180.1846153846154,149.36888904869556L180.76153846153846,143.92741836607456L180.79615384615386,144.73760593682528L180.83076923076922,146.44745073467493L180.98076923076923,150.8627752251923L181.2923076923077,144.9118551313877L181.58076923076922,146.73856165260077L181.66153846153847,146.22273883968592L181.91538461538462,151.3915354833007L182.3076923076923,146.2345069050789L182.71153846153845,150.43197365105152L182.97692307692307,148.48192358762026L183.01153846153846,150.2173750512302L183.16153846153847,142.1491043418646L183.77307692307693,148.30070055276155L183.78461538461536,147.59223410487175L184.00384615384615,146.98172833025455L184.03846153846155,145.78773286938667L184.1423076923077,142.44946287572384L184.15384615384613,150.22070017457008L184.22307692307692,149.36766297370195L184.45384615384614,148.03246796876192L184.47692307692307,148.81338158994913L185.42307692307693,145.38106189668179L185.4923076923077,141.96245846152306L186.3576923076923,148.17757914960384L187.05,150.4181022271514L187.11923076923077,149.31447028368711L187.38461538461536,147.93771405518055L187.81153846153848,152.68270186334848L187.82307692307694,147.6140203103423L187.8923076923077,143.8995349407196L187.99615384615385,150.6516317166388L188.1923076923077,145.82754151523113L188.33076923076922,144.66730787605047L188.4,150.9230713918805L188.63076923076923,151.1750947870314L189.08076923076925,148.64185243844986L189.65769230769232,146.19770807772875L189.9346153846154,147.67949828505516L190.2,145.53368469327688L190.61538461538464,147.20486403256655L190.8923076923077,151.5108990892768L190.92692307692306,149.25162880122662L191.7923076923077,151.80288065969944L191.86153846153846,151.8268875926733L192.2076923076923,151.9899167753756L192.31153846153848,149.12260977178812L192.35769230769233,147.84258416295052L192.42692307692306,145.0239299237728L193.1076923076923,145.7664599046111L193.48846153846154,148.23569802194834L193.5,151.17458519339561L193.5923076923077,144.20404846966267L193.6384615384615,151.44740047305822L193.8346153846154,148.67370253801346L193.90384615384613,151.3412693925202L193.95,152.36586923152208L194.26153846153846,148.7247315272689L194.5730769230769,147.8318412527442L194.79230769230767,147.84776696562767L195.16153846153844,142.41413149237633L195.1730769230769,151.51622677966952L195.18461538461537,151.4980183392763L195.46153846153845,148.1532088369131L196.35,151.90526123717427L197.0769230769231,144.95392495393753L197.56153846153845,146.38222341239452L197.6076923076923,148.0849935784936L198.1153846153846,149.00558492541313L198.3346153846154,152.77200872823596L198.76153846153846,147.1364272981882L199.1076923076923,147.4254839271307L199.18846153846155,142.3335646390915L199.30384615384614,148.23340766876936L199.77692307692308,145.29868146032095L199.97307692307692,140.89449210464954L200.0423076923077,150.5543484017253L200.12307692307695,145.0887355133891L200.66538461538462,151.6717675551772L200.72307692307695,152.0771643780172L200.90769230769232,147.0292137041688L200.9769230769231,150.0680747255683L201.09230769230768,147.1432035341859L201.3,150.26721940934658L201.49615384615385,149.71468065679073L201.51923076923077,151.98118041083217L201.88846153846154,142.6925068795681L202.24615384615385,150.11938951164484L202.78846153846155,148.6093452051282L202.92692307692306,147.26808215677738L203.05384615384617,150.23445787653327L203.79230769230767,148.3371757864952L204.15,147.28792812675238L204.5769230769231,149.5235541984439L204.85384615384618,146.1443748101592L204.9576923076923,150.9816282428801L205.02692307692308,150.16820108890533L205.20000000000002,148.9152519106865L205.5576923076923,151.30701289698482L205.59230769230768,148.78239418566227L205.81153846153845,149.08735199272633L206.03076923076924,152.0603706650436L207.33461538461538,150.0970177873969L207.4269230769231,150.6090072095394L207.49615384615385,153.17008059844375L207.77307692307693,148.5611257776618L207.7846153846154,150.60296933725476L208.22307692307692,141.44115975499153L208.53461538461536,149.5015836507082L208.67307692307693,152.22312565520406L208.91538461538462,149.44193367660046L209.59615384615387,149.58906068652868L209.74615384615385,151.4685375019908L209.86153846153846,150.94155468791723L209.90769230769232,151.00048552826047L210.45000000000002,131.19898679852486L211.28076923076924,147.45620741695166L211.53461538461536,151.3597835227847L211.58076923076922,148.73612295091152L211.6153846153846,153.06709444336593L211.73076923076925,150.9185473807156L211.96153846153848,149.97817803174257L212.26153846153846,149.06330659985542L212.65384615384613,154.16632720455527L212.7576923076923,150.50079465284944L213.40384615384616,150.69022788107395L214.02692307692308,148.73030224442482L214.3269230769231,151.7045532912016L214.3846153846154,149.54268534481525L214.6153846153846,149.6234199628234L215.20384615384614,148.97868421673775L215.25,147.46748611330986L215.6192307692308,151.20145473629236L216.1846153846154,147.3599456101656L216.41538461538462,150.7605325728655L216.7846153846154,150.3931755721569L216.9,146.39763787388802L216.91153846153844,152.01180078834295L217.2,147.8928691521287L217.30384615384617,151.20035896077752L217.4653846153846,150.51285945624113L217.95000000000002,151.35734562948346L218.23846153846154,147.81011936813593L219.10384615384615,148.72509026527405L219.87692307692308,151.84868639707565L220.23461538461538,147.80155474692583L220.62692307692308,152.78102326393127L220.63846153846154,153.5655061956495L220.8923076923077,150.397017583251L221.33076923076922,150.86147057265043L221.38846153846154,150.11346933990717L221.44615384615383,151.82638230919838L221.87307692307695,150.52492293342948L221.9653846153846,153.11006193980575L222.12692307692308,152.10045880824327L222.25384615384615,154.42757318355143L222.46153846153848,145.58784352242947L222.48461538461538,152.12995290756226L222.75000000000003,153.46028339862823L222.76153846153846,151.5161312930286L222.7730769230769,149.91731192916632L222.8076923076923,151.57410461455584L223.02692307692308,151.70335473492742L223.43076923076922,150.3158923983574L223.62692307692308,153.14556025899947L223.77692307692308,154.06314758956432L223.78846153846155,152.0171450562775L224.0307692307692,150.52093702927232L224.14615384615385,152.18886219710112L224.23846153846156,155.177675163839L224.35384615384615,150.53883911669254L224.91923076923075,150.5032627172768L225.01153846153846,153.5803721062839L225.05769230769232,149.20279003679752L225.38076923076923,149.95804361253977L225.54230769230767,155.31735251657665L225.61153846153846,149.84502854198217L225.7730769230769,150.25595496967435L225.87692307692308,151.6475507505238L225.95769230769233,152.09008027240634L225.9692307692308,152.40983453020453L226.01538461538462,150.20483215153217L226.30384615384617,151.19011536613107L226.41923076923075,150.56394580379128L226.4653846153846,150.25471994280815L226.64999999999998,152.4441871754825L226.81153846153848,150.4290208593011L227.2269230769231,152.02000932395458L227.31923076923076,145.9777492955327L227.44615384615386,149.07488767057657L228.01153846153846,152.16570933908224L228.02307692307693,150.48202323913574L228.08076923076925,152.29961343854666L228.3923076923077,154.42643886525184L228.83076923076922,151.55954422801733L230.11153846153846,151.8878810107708L230.2153846153846,153.66604964993894L230.4,147.33970774710178L230.4346153846154,150.8836393877864L230.53846153846152,153.86122401244938L230.86153846153846,152.07230351120234L231.25384615384615,152.56074022501707L231.26538461538462,152.2548610381782L231.3692307692308,147.9170869514346L231.40384615384613,151.90987476706505L231.85384615384615,152.3865079395473L232.1423076923077,151.50362983718514L232.3153846153846,153.1648498866707L232.33846153846153,150.33681458234787L232.43076923076924,148.23694664239883L232.6153846153846,151.05095817521214L232.84615384615387,147.78255025297403L233.12307692307692,153.7379877269268L233.37692307692308,151.5169711112976L233.70000000000002,154.29450658150017L233.83846153846153,151.31474565714598L234.32307692307694,150.39296172186732L234.35769230769233,152.25569853559136L234.83076923076922,153.45861801877618L234.92307692307693,155.31097086751834L235.85769230769233,149.7515159547329L235.86923076923074,154.27561580948532L236.87307692307692,155.0632544006221L236.96538461538464,154.08765582740307L237.47307692307692,147.29712468385696L237.48461538461538,149.92588716000319L238.0730769230769,153.41964388638735L238.1769230769231,148.9643592312932L238.76538461538462,151.74386129528284L238.88076923076923,153.0589774157852L238.96153846153845,149.9389442950487L239.29615384615386,155.30549791641533L239.72307692307695,151.20902105793357L239.91923076923078,154.69731382653117L240.40384615384613,155.44162659766153L240.9576923076923,154.7763562090695L241.41923076923078,155.00751486141235L241.7076923076923,151.25748218595982L241.92692307692306,152.57093043997884L241.98461538461538,154.06983745656908L242.0423076923077,152.8515036776662L242.25,153.30617923289537L242.30769230769232,151.08982422202826L242.3653846153846,152.7986080572009L242.50384615384615,149.1133866906166L242.74615384615385,149.80894984304905L243.28846153846155,152.619827888906L243.53076923076924,150.76001469045877L243.9576923076923,154.27838823758066L244.1423076923077,154.82294598128647L244.53461538461536,148.06674568355083L244.66153846153847,153.46826896630228L244.81153846153845,153.29348564334214L245.23846153846154,155.34125210996717L245.31923076923078,151.5493480451405L245.36538461538464,155.10089859971777L245.65384615384616,153.76583600789309L245.95384615384617,152.83247763291L246.8884615384615,152.77713947743177L246.9230769230769,152.34502098336816L246.98076923076923,152.34324917569757L247.5576923076923,152.1432159356773L247.78846153846152,153.0008449498564L247.96153846153845,152.19610227271914L247.99615384615385,155.5241651008837L248.01923076923077,152.91086188703775L248.25,152.2884076833725L248.31923076923078,152.3246747031808L248.5846153846154,153.60870179906487L248.87307692307692,152.6930449232459L248.89615384615385,149.45390398800373L249.04615384615383,150.91087695211172L249.5076923076923,153.74536473304033L249.57692307692307,149.07436713576317L249.73846153846154,154.33576891198754L249.8653846153846,152.60538884997368L249.96923076923076,153.64054775424302L250.01538461538462,152.88779655843973L250.5,150.78118553757668L250.58076923076922,153.96282063797116L250.62692307692308,150.25753845646977L250.6846153846154,152.53486732393503L250.69615384615386,150.82224479317665L251.15769230769232,152.52508027479053L251.37692307692308,154.66770177800208L251.68846153846152,154.0410823840648L251.95384615384614,153.86035833321512L252.76153846153846,155.55830696271732L252.87692307692308,150.2736034207046L253.01538461538462,153.62601157091558L253.21153846153845,153.69221580773592L253.39615384615385,152.64858097210526L253.48846153846154,154.89688994083554L253.59230769230768,153.99474301561713L253.67307692307693,151.90490084141493L254.1346153846154,155.43451162031852L254.2846153846154,150.45876693725586L254.34230769230768,154.54462670907378L254.41153846153844,153.0808211453259L254.44615384615383,153.4390215408057L255.3230769230769,151.98889593034983L255.33461538461538,151.70641561225057L255.3576923076923,151.69172260537744L255.84230769230768,152.14947992563248L255.87692307692308,151.21843345463276L256.2346153846154,153.507035382092L256.48846153846154,152.8118326254189L256.54615384615386,155.4176115002483L256.58076923076925,153.5850202832371L256.63846153846157,153.22511472180486L257.11153846153843,151.18288059532642L257.2846153846154,153.07897722534835L257.4576923076923,153.59708541817963L257.5615384615385,154.37424057908356L257.5846153846154,155.48638556688093L257.80384615384617,154.2397803030908L258.0346153846154,153.48934896849096L258.15000000000003,153.2213592454791L258.3115384615385,154.21508855186403L258.32307692307694,151.29398991167545L258.7846153846154,155.1823957017623L258.8076923076923,154.62936903070658L259.0615384615385,154.53098944295198L259.3269230769231,155.3668814455159L259.8,153.70732441358268L259.95,153.55054430104792L259.96153846153845,152.05419387295842L260.0769230769231,153.35191501304507L260.1807692307692,153.3720287103206L260.1923076923077,154.0502955187112L260.2153846153846,153.38732431083918L260.2730769230769,151.95206958428025L260.4,153.67746444791555L261.2423076923077,153.2265642620623L261.66923076923075,155.05147634726018L261.6807692307692,153.079675802961L261.87692307692305,154.63397684134543L261.9230769230769,153.64720595814288L262.35,153.96931140869856L262.7076923076923,154.99676656350493L262.71923076923076,152.2723838314414L262.75384615384615,153.2307616956532L262.7653846153846,154.35105009004474L263.1576923076923,151.7998333759606L263.2153846153846,152.47829613089561L263.3192307692308,152.93468978255987L263.37692307692305,153.04706877283752L263.5961538461538,154.32560008205473L263.9769230769231,153.4755970686674L264.25384615384615,154.14618018642068L264.2653846153846,153.59159228391945L264.6807692307692,152.89103017374873L265.11923076923074,155.4644393674098L265.58076923076925,152.40661948174238L265.65,152.16134679317474L265.6730769230769,151.26487809047103L265.68461538461537,155.5367985139601L265.8923076923077,154.12773286364973L266.0423076923077,154.05639920383692L266.1461538461539,152.98235568590462L266.1923076923077,154.13973533548415L266.9307692307692,153.38572275452316L267.6807692307693,153.84897536411881L267.94615384615383,152.58644635602832L268.1307692307692,154.87292843032628L268.36153846153843,153.181312546134L268.9153846153846,154.28936505690217L268.95,152.3963367640972L269.0076923076923,155.2548261731863L269.78076923076924,155.46880953898653L269.98846153846154,154.28597196564078L270.8538461538462,155.59532403340563L271.30384615384617,154.9362306855619L271.31538461538463,155.28025467181578L271.7076923076923,152.2252525538206L272.0423076923077,153.74990515597165L272.1923076923077,154.477037335746L272.3192307692308,152.47215647250414L272.5615384615385,155.0088194310665L272.7692307692308,155.31957631092519L272.9307692307692,153.5731132980436L272.9423076923077,152.34889714419842" style="fill: none;" fill="none"></path></g></g></g></g></g></g><g transform="translate(30, 178)" clip-path="url(#clip_1)"><clipPath id="clip_1"><rect width="300" height="22"></rect></clipPath><g><g><line x1="0" y1="0" x2="0" y2="5" style="visibility: inherit;" fill="rgb(0, 0, 0)" stroke="rgb(204, 204, 204)" stroke-width="1px"></line><line x1="23.076923076923077" y1="0" x2="23.076923076923077" y2="5" style="visibility: inherit;" fill="rgb(0, 0, 0)" stroke="rgb(204, 204, 204)" stroke-width="1px"></line><line x1="46.15384615384615" y1="0" x2="46.15384615384615" y2="5" style="visibility: inherit;" fill="rgb(0, 0, 0)" stroke="rgb(204, 204, 204)" stroke-width="1px"></line><line x1="69.23076923076924" y1="0" x2="69.23076923076924" y2="5" style="visibility: inherit;" fill="rgb(0, 0, 0)" stroke="rgb(204, 204, 204)" stroke-width="1px"></line><line x1="92.3076923076923" y1="0" x2="92.3076923076923" y2="5" style="visibility: inherit;" fill="rgb(0, 0, 0)" stroke="rgb(204, 204, 204)" stroke-width="1px"></line><line x1="115.38461538461539" y1="0" x2="115.38461538461539" y2="5" style="visibility: inherit;" fill="rgb(0, 0, 0)" stroke="rgb(204, 204, 204)" stroke-width="1px"></line><line x1="138.46153846153848" y1="0" x2="138.46153846153848" y2="5" style="visibility: inherit;" fill="rgb(0, 0, 0)" stroke="rgb(204, 204, 204)" stroke-width="1px"></line><line x1="161.53846153846152" y1="0" x2="161.53846153846152" y2="5" style="visibility: inherit;" fill="rgb(0, 0, 0)" stroke="rgb(204, 204, 204)" stroke-width="1px"></line><line x1="184.6153846153846" y1="0" x2="184.6153846153846" y2="5" style="visibility: inherit;" fill="rgb(0, 0, 0)" stroke="rgb(204, 204, 204)" stroke-width="1px"></line><line x1="207.69230769230768" y1="0" x2="207.69230769230768" y2="5" style="visibility: inherit;" fill="rgb(0, 0, 0)" stroke="rgb(204, 204, 204)" stroke-width="1px"></line><line x1="230.76923076923077" y1="0" x2="230.76923076923077" y2="5" style="visibility: inherit;" fill="rgb(0, 0, 0)" stroke="rgb(204, 204, 204)" stroke-width="1px"></line><line x1="253.84615384615384" y1="0" x2="253.84615384615384" y2="5" style="visibility: inherit;" fill="rgb(0, 0, 0)" stroke="rgb(204, 204, 204)" stroke-width="1px"></line><line x1="276.92307692307696" y1="0" x2="276.92307692307696" y2="5" style="visibility: inherit;" fill="rgb(0, 0, 0)" stroke="rgb(204, 204, 204)" stroke-width="1px"></line><line x1="300" y1="0" x2="300" y2="5" style="visibility: inherit;" fill="rgb(0, 0, 0)" stroke="rgb(204, 204, 204)" stroke-width="1px"></line></g><g transform="translate(0, 8)"><text x="0" y="0" dx="0em" dy="0.95em" style="text-anchor: middle; visibility: hidden; font-family: &quot;Helvetica Neue&quot;, sans-serif; font-size: 12px; font-weight: 200;" fill="rgb(50, 49, 63)" stroke="none" stroke-width="1px">-2k</text><text x="23.076923076923077" y="0" dx="0em" dy="0.95em" style="text-anchor: middle; visibility: inherit; font-family: &quot;Helvetica Neue&quot;, sans-serif; font-size: 12px; font-weight: 200;" fill="rgb(50, 49, 63)" stroke="none" stroke-width="1px">0</text><text x="46.15384615384615" y="0" dx="0em" dy="0.95em" style="text-anchor: middle; visibility: hidden; font-family: &quot;Helvetica Neue&quot;, sans-serif; font-size: 12px; font-weight: 200;" fill="rgb(50, 49, 63)" stroke="none" stroke-width="1px">2k</text><text x="69.23076923076924" y="0" dx="0em" dy="0.95em" style="text-anchor: middle; visibility: inherit; font-family: &quot;Helvetica Neue&quot;, sans-serif; font-size: 12px; font-weight: 200;" fill="rgb(50, 49, 63)" stroke="none" stroke-width="1px">4k</text><text x="92.3076923076923" y="0" dx="0em" dy="0.95em" style="text-anchor: middle; visibility: hidden; font-family: &quot;Helvetica Neue&quot;, sans-serif; font-size: 12px; font-weight: 200;" fill="rgb(50, 49, 63)" stroke="none" stroke-width="1px">6k</text><text x="115.38461538461539" y="0" dx="0em" dy="0.95em" style="text-anchor: middle; visibility: inherit; font-family: &quot;Helvetica Neue&quot;, sans-serif; font-size: 12px; font-weight: 200;" fill="rgb(50, 49, 63)" stroke="none" stroke-width="1px">8k</text><text x="138.46153846153848" y="0" dx="0em" dy="0.95em" style="text-anchor: middle; visibility: hidden; font-family: &quot;Helvetica Neue&quot;, sans-serif; font-size: 12px; font-weight: 200;" fill="rgb(50, 49, 63)" stroke="none" stroke-width="1px">10k</text><text x="161.53846153846152" y="0" dx="0em" dy="0.95em" style="text-anchor: middle; visibility: inherit; font-family: &quot;Helvetica Neue&quot;, sans-serif; font-size: 12px; font-weight: 200;" fill="rgb(50, 49, 63)" stroke="none" stroke-width="1px">12k</text><text x="184.6153846153846" y="0" dx="0em" dy="0.95em" style="text-anchor: middle; visibility: hidden; font-family: &quot;Helvetica Neue&quot;, sans-serif; font-size: 12px; font-weight: 200;" fill="rgb(50, 49, 63)" stroke="none" stroke-width="1px">14k</text><text x="207.69230769230768" y="0" dx="0em" dy="0.95em" style="text-anchor: middle; visibility: inherit; font-family: &quot;Helvetica Neue&quot;, sans-serif; font-size: 12px; font-weight: 200;" fill="rgb(50, 49, 63)" stroke="none" stroke-width="1px">16k</text><text x="230.76923076923077" y="0" dx="0em" dy="0.95em" style="text-anchor: middle; visibility: hidden; font-family: &quot;Helvetica Neue&quot;, sans-serif; font-size: 12px; font-weight: 200;" fill="rgb(50, 49, 63)" stroke="none" stroke-width="1px">18k</text><text x="253.84615384615384" y="0" dx="0em" dy="0.95em" style="text-anchor: middle; visibility: inherit; font-family: &quot;Helvetica Neue&quot;, sans-serif; font-size: 12px; font-weight: 200;" fill="rgb(50, 49, 63)" stroke="none" stroke-width="1px">20k</text><text x="276.92307692307696" y="0" dx="0em" dy="0.95em" style="text-anchor: middle; visibility: hidden; font-family: &quot;Helvetica Neue&quot;, sans-serif; font-size: 12px; font-weight: 200;" fill="rgb(50, 49, 63)" stroke="none" stroke-width="1px">22k</text><text x="300" y="0" dx="0em" dy="0.95em" style="text-anchor: middle; visibility: hidden; font-family: &quot;Helvetica Neue&quot;, sans-serif; font-size: 12px; font-weight: 200;" fill="rgb(50, 49, 63)" stroke="none" stroke-width="1px">24k</text></g><line x1="0" y1="0" x2="300" y2="0" fill="rgb(0, 0, 0)" stroke="rgb(204, 204, 204)" stroke-width="1px"></line></g></g></g></g></svg>