<svg viewBox="0 0 1496 400" xmlns="http://www.w3.org/2000/svg"><g><g><g><g><g><line x1="40" y1="378" x2="35" y2="378" style="visibility: inherit;" fill="rgb(0, 0, 0)" stroke="rgb(204, 204, 204)" stroke-width="1px"></line><line x1="40" y1="346.5" x2="35" y2="346.5" style="visibility: inherit;" fill="rgb(0, 0, 0)" stroke="rgb(204, 204, 204)" stroke-width="1px"></line><line x1="40" y1="315" x2="35" y2="315" style="visibility: inherit;" fill="rgb(0, 0, 0)" stroke="rgb(204, 204, 204)" stroke-width="1px"></line><line x1="40" y1="283.5" x2="35" y2="283.5" style="visibility: inherit;" fill="rgb(0, 0, 0)" stroke="rgb(204, 204, 204)" stroke-width="1px"></line><line x1="40" y1="252" x2="35" y2="252" style="visibility: inherit;" fill="rgb(0, 0, 0)" stroke="rgb(204, 204, 204)" stroke-width="1px"></line><line x1="40" y1="220.5" x2="35" y2="220.5" style="visibility: inherit;" fill="rgb(0, 0, 0)" stroke="rgb(204, 204, 204)" stroke-width="1px"></line><line x1="40" y1="189" x2="35" y2="189" style="visibility: inherit;" fill="rgb(0, 0, 0)" stroke="rgb(204, 204, 204)" stroke-width="1px"></line><line x1="40" y1="157.5" x2="35" y2="157.5" style="visibility: inherit;" fill="rgb(0, 0, 0)" stroke="rgb(204, 204, 204)" stroke-width="1px"></line><line x1="40" y1="126" x2="35" y2="126" style="visibility: inherit;" fill="rgb(0, 0, 0)" stroke="rgb(204, 204, 204)" stroke-width="1px"></line><line x1="40" y1="94.5" x2="35" y2="94.5" style="visibility: inherit;" fill="rgb(0, 0, 0)" stroke="rgb(204, 204, 204)" stroke-width="1px"></line><line x1="40" y1="63" x2="35" y2="63" style="visibility: inherit;" fill="rgb(0, 0, 0)" stroke="rgb(204, 204, 204)" stroke-width="1px"></line><line x1="40" y1="31.5" x2="35" y2="31.5" style="visibility: inherit;" fill="rgb(0, 0, 0)" stroke="rgb(204, 204, 204)" stroke-width="1px"></line><line x1="40" y1="0" x2="35" y2="0" style="visibility: inherit;" fill="rgb(0, 0, 0)" stroke="rgb(204, 204, 204)" stroke-width="1px"></line></g><g transform="translate(30, 0)"><text x="0" y="378" dx="0em" dy="0.3em" style="text-anchor: end; visibility: hidden; font-family: &quot;Helvetica Neue&quot;, sans-serif; font-size: 12px; font-weight: 200;" fill="rgb(50, 49, 63)" stroke="none" stroke-width="1px">-10</text><text x="0" y="346.5" dx="0em" dy="0.3em" style="text-anchor: end; visibility: inherit; font-family: &quot;Helvetica Neue&quot;, sans-serif; font-size: 12px; font-weight: 200;" fill="rgb(50, 49, 63)" stroke="none" stroke-width="1px">0</text><text x="0" y="315" dx="0em" dy="0.3em" style="text-anchor: end; visibility: inherit; font-family: &quot;Helvetica Neue&quot;, sans-serif; font-size: 12px; font-weight: 200;" fill="rgb(50, 49, 63)" stroke="none" stroke-width="1px">10</text><text x="0" y="283.5" dx="0em" dy="0.3em" style="text-anchor: end; visibility: inherit; font-family: &quot;Helvetica Neue&quot;, sans-serif; font-size: 12px; font-weight: 200;" fill="rgb(50, 49, 63)" stroke="none" stroke-width="1px">20</text><text x="0" y="252" dx="0em" dy="0.3em" style="text-anchor: end; visibility: inherit; font-family: &quot;Helvetica Neue&quot;, sans-serif; font-size: 12px; font-weight: 200;" fill="rgb(50, 49, 63)" stroke="none" stroke-width="1px">30</text><text x="0" y="220.5" dx="0em" dy="0.3em" style="text-anchor: end; visibility: inherit; font-family: &quot;Helvetica Neue&quot;, sans-serif; font-size: 12px; font-weight: 200;" fill="rgb(50, 49, 63)" stroke="none" stroke-width="1px">40</text><text x="0" y="189" dx="0em" dy="0.3em" style="text-anchor: end; visibility: inherit; font-family: &quot;Helvetica Neue&quot;, sans-serif; font-size: 12px; font-weight: 200;" fill="rgb(50, 49, 63)" stroke="none" stroke-width="1px">50</text><text x="0" y="157.5" dx="0em" dy="0.3em" style="text-anchor: end; visibility: inherit; font-family: &quot;Helvetica Neue&quot;, sans-serif; font-size: 12px; font-weight: 200;" fill="rgb(50, 49, 63)" stroke="none" stroke-width="1px">60</text><text x="0" y="126" dx="0em" dy="0.3em" style="text-anchor: end; visibility: inherit; font-family: &quot;Helvetica Neue&quot;, sans-serif; font-size: 12px; font-weight: 200;" fill="rgb(50, 49, 63)" stroke="none" stroke-width="1px">70</text><text x="0" y="94.5" dx="0em" dy="0.3em" style="text-anchor: end; visibility: inherit; font-family: &quot;Helvetica Neue&quot;, sans-serif; font-size: 12px; font-weight: 200;" fill="rgb(50, 49, 63)" stroke="none" stroke-width="1px">80</text><text x="0" y="63" dx="0em" dy="0.3em" style="text-anchor: end; visibility: inherit; font-family: &quot;Helvetica Neue&quot;, sans-serif; font-size: 12px; font-weight: 200;" fill="rgb(50, 49, 63)" stroke="none" stroke-width="1px">90</text><text x="0" y="31.5" dx="0em" dy="0.3em" style="text-anchor: end; visibility: inherit; font-family: &quot;Helvetica Neue&quot;, sans-serif; font-size: 12px; font-weight: 200;" fill="rgb(50, 49, 63)" stroke="none" stroke-width="1px">100</text><text x="0" y="0" dx="0em" dy="0.3em" style="text-anchor: end; visibility: hidden; font-family: &quot;Helvetica Neue&quot;, sans-serif; font-size: 12px; font-weight: 200;" fill="rgb(50, 49, 63)" stroke="none" stroke-width="1px">110</text></g><line x1="40" y1="0" x2="40" y2="378" fill="rgb(0, 0, 0)" stroke="rgb(204, 204, 204)" stroke-width="1px"></line></g></g><g transform="translate(40, 0)" clip-path="url(#clip_0)"><clipPath id="clip_0"><rect width="1456" height="378"></rect></clipPath><g><g><g><line x1="0" y1="0" x2="0" y2="378" fill="rgb(0, 0, 0)" stroke="rgb(60, 60, 60)" stroke-width="1px" opacity="0.25"></line><line x1="112" y1="0" x2="112" y2="378" fill="rgb(0, 0, 0)" stroke="rgb(60, 60, 60)" stroke-width="1px" opacity="0.25"></line><line x1="224" y1="0" x2="224" y2="378" fill="rgb(0, 0, 0)" stroke="rgb(60, 60, 60)" stroke-width="1px" opacity="0.25"></line><line x1="336" y1="0" x2="336" y2="378" fill="rgb(0, 0, 0)" stroke="rgb(60, 60, 60)" stroke-width="1px" opacity="0.25"></line><line x1="448" y1="0" x2="448" y2="378" fill="rgb(0, 0, 0)" stroke="rgb(60, 60, 60)" stroke-width="1px" opacity="0.25"></line><line x1="560" y1="0" x2="560" y2="378" fill="rgb(0, 0, 0)" stroke="rgb(60, 60, 60)" stroke-width="1px" opacity="0.25"></line><line x1="672" y1="0" x2="672" y2="378" fill="rgb(0, 0, 0)" stroke="rgb(60, 60, 60)" stroke-width="1px" opacity="0.25"></line><line x1="784" y1="0" x2="784" y2="378" fill="rgb(0, 0, 0)" stroke="rgb(60, 60, 60)" stroke-width="1px" opacity="0.25"></line><line x1="896" y1="0" x2="896" y2="378" fill="rgb(0, 0, 0)" stroke="rgb(60, 60, 60)" stroke-width="1px" opacity="0.25"></line><line x1="1008" y1="0" x2="1008" y2="378" fill="rgb(0, 0, 0)" stroke="rgb(60, 60, 60)" stroke-width="1px" opacity="0.25"></line><line x1="1120" y1="0" x2="1120" y2="378" fill="rgb(0, 0, 0)" stroke="rgb(60, 60, 60)" stroke-width="1px" opacity="0.25"></line><line x1="1232" y1="0" x2="1232" y2="378" fill="rgb(0, 0, 0)" stroke="rgb(60, 60, 60)" stroke-width="1px" opacity="0.25"></line><line x1="1344" y1="0" x2="1344" y2="378" fill="rgb(0, 0, 0)" stroke="rgb(60, 60, 60)" stroke-width="1px" opacity="0.25"></line><line x1="1456" y1="0" x2="1456" y2="378" fill="rgb(0, 0, 0)" stroke="rgb(60, 60, 60)" stroke-width="1px" opacity="0.25"></line></g><g><line x1="0" y1="378" x2="1456" y2="378" fill="rgb(0, 0, 0)" stroke="rgb(60, 60, 60)" stroke-width="1px" opacity="0.25"></line><line x1="0" y1="346.5" x2="1456" y2="346.5" fill="rgb(0, 0, 0)" stroke="rgb(60, 60, 60)" stroke-width="1px" opacity="0.25"></line><line x1="0" y1="315" x2="1456" y2="315" fill="rgb(0, 0, 0)" stroke="rgb(60, 60, 60)" stroke-width="1px" opacity="0.25"></line><line x1="0" y1="283.5" x2="1456" y2="283.5" fill="rgb(0, 0, 0)" stroke="rgb(60, 60, 60)" stroke-width="1px" opacity="0.25"></line><line x1="0" y1="252" x2="1456" y2="252" fill="rgb(0, 0, 0)" stroke="rgb(60, 60, 60)" stroke-width="1px" opacity="0.25"></line><line x1="0" y1="220.5" x2="1456" y2="220.5" fill="rgb(0, 0, 0)" stroke="rgb(60, 60, 60)" stroke-width="1px" opacity="0.25"></line><line x1="0" y1="189" x2="1456" y2="189" fill="rgb(0, 0, 0)" stroke="rgb(60, 60, 60)" stroke-width="1px" opacity="0.25"></line><line x1="0" y1="157.5" x2="1456" y2="157.5" fill="rgb(0, 0, 0)" stroke="rgb(60, 60, 60)" stroke-width="1px" opacity="0.25"></line><line x1="0" y1="126" x2="1456" y2="126" fill="rgb(0, 0, 0)" stroke="rgb(60, 60, 60)" stroke-width="1px" opacity="0.25"></line><line x1="0" y1="94.5" x2="1456" y2="94.5" fill="rgb(0, 0, 0)" stroke="rgb(60, 60, 60)" stroke-width="1px" opacity="0.25"></line><line x1="0" y1="63" x2="1456" y2="63" fill="rgb(0, 0, 0)" stroke="rgb(60, 60, 60)" stroke-width="1px" opacity="0.25"></line><line x1="0" y1="31.5" x2="1456" y2="31.5" fill="rgb(0, 0, 0)" stroke="rgb(60, 60, 60)" stroke-width="1px" opacity="0.25"></line><line x1="0" y1="0" x2="1456" y2="0" fill="rgb(0, 0, 0)" stroke="rgb(60, 60, 60)" stroke-width="1px" opacity="0.25"></line></g></g></g><g><g><line x1="0" y1="346.5" x2="1456" y2="346.5" fill="rgb(0, 0, 0)" stroke="rgb(153, 153, 153)" stroke-width="1.5px"></line></g></g><g><g><line x1="112" y1="0" x2="112" y2="378" fill="rgb(0, 0, 0)" stroke="rgb(153, 153, 153)" stroke-width="1.5px"></line></g></g><g><g><g><g><g><path stroke="rgb(255, 112, 67)" stroke-width="2px" d="M112.448,300.6148289680481L113.792,169.119555079937L113.96000000000001,117.51308690479823L115.41600000000001,94.9206472645788L116.70400000000001,82.16793370223724L120.28800000000001,71.8263263040019L120.792,68.70165647653499L124.26400000000001,62.38940202931764L124.544,65.9530702550262L125.72,66.09620172438491L126.728,68.52541951070253L128.688,70.48084781731046L128.8,71.7325883135307L129.248,72.47837166793977L130.87199999999999,67.46236688217402L131.992,71.09793963030108L135.016,73.91901149404447L137.2,60.440512568999736L137.984,67.48249788210256L141.45600000000002,73.7800706227859L142.968,78.10403795464788L143.864,81.03422235722076L144.256,82.72008499714224L144.312,84.00379810883959L146.944,85.48617712271874L147.672,86.74179188105677L148.45600000000002,87.6178026182402L149.01600000000002,87.75089832748205L151.424,89.07129937069493L151.872,89.92953319960117L154.28,79.31043121871636L154.504,84.78052247223991L154.616,87.5471066452389L155.4,89.4417497592006L155.512,89.61082958254804L155.904,91.26659023486872L156.352,91.1909326865956L156.688,93.04757368745493L158.256,94.0504700264749L164.36,97.3209119030692L165.816,99.13926024754795L165.87199999999999,100.11540307282661L166.208,101.21601110060556L167.552,102.98471103078691L167.72,103.96477772941381L168.224,104.35172262522127L170.968,104.92855539522276L171.136,105.28698858382137L172.648,104.4397213790412L172.984,105.81944806181082L173.26399999999998,107.0663932633621L176.176,108.40173430396845L176.45600000000002,109.77426094981507L176.512,110.4168019007003L177.52,111.63042232694437L178.248,112.61886756242677L181.104,113.76772205723171L182.056,115.43980437691738L185.136,117.51787783489084L185.304,119.11713585010449L186.08800000000002,118.09260786504314L186.312,117.53161833841062L189.00000000000003,119.5950827584175L189.39200000000002,119.40858621510904L190.624,121.48792241998342L191.296,122.88643921248811L191.85600000000002,123.21685620327412L193.536,124.9691788159586L194.152,126.43292361037598L194.93599999999998,127.03216169796386L196.72799999999998,128.38665389133695L198.352,129.53602660604238L199.248,131.42596288745355L200.144,132.70447589531392L200.368,133.48134093269616L201.32,134.3047861575181L203.28,135.77399016374918L205.632,137.18617144199953L206.136,138.18700041158647L207.14399999999998,139.33399895300658L207.648,140.28415333908916L208.43200000000002,140.8799608450062L208.54399999999998,141.82655148869318L208.712,142.31781306484675L211.176,143.5135038484295L213.696,144.33154278452156L214.70399999999998,145.73368206414557L215.208,147.54437313314065L215.936,149.2458731474625L216.104,149.9406797112314L216.552,150.15083528645567L218.792,151.38030341796716L219.74399999999997,152.34602476318267L220.304,152.89859393810977L220.47199999999998,153.45382601008268L223.496,154.551619870576L224.16799999999998,156.67518365330264L225.45600000000002,157.902246880214L227.75199999999998,159.96014283638036L228.2,161.505381508713L228.42399999999998,162.30360427143873L228.81599999999997,163.10235406066602L231.784,164.209200674925L232.176,165.61880928434954L233.91199999999998,167.0459324822308L234.13600000000002,168.04182615193614L234.58399999999997,167.89340990014608L235.25600000000003,169.2662723805173L236.37599999999998,170.19595437679672L236.656,170.8348735751747L236.712,171.01202544820538L237.832,171.8852735117211L238.11200000000002,172.74029534787735L240.072,173.46607379991298L240.632,174.37659313248682L241.304,174.73192733029776L242.76000000000002,174.90955961167964L243.26399999999998,176.55047102701752L245.224,177.54269388635208L245.28,178.70015475344212L245.392,179.53047310108872L247.85600000000002,180.8066231703456L248.808,181.81990178917025L248.92000000000002,182.78449341114862L249.20000000000002,182.32251695428195L250.6,183.58184047957602L250.656,184.23475293886867L251.21599999999998,184.7801119409335L251.328,185.0439966536958L251.608,183.64745237454173L252.392,184.46223759904143L252.728,185.29199183615825L253.232,185.83592447181215L254.07199999999997,186.83150043809218L254.408,184.8016654606092L261.8,187.9422241756575L262.808,190.7827489798818L264.88,192.72559215221128L265.664,195.05167815204453L267.624,196.4564621371984L272.272,198.80679132956024L273.616,200.2169311667547L277.592,202.9230368128458L278.04,204.45712111419675L280.056,204.89247380987547L281.568,206.89355862674557L281.736,209.07439803920653L284.984,209.36799087430518L288.456,211.98140716496397L290.36,213.14166229214243L290.416,214.54679127482163L292.32,215.9207005736088L292.88,216.70416190605494L293.104,217.7825901459523L293.216,218.21231554692196L293.272,217.87085002151255L296.52,219.70844789437726L298.76,220.46398559148477L300.496,222.07398248037913L302.00800000000004,223.02202826691402L302.288,223.97157526703316L303.52,222.10385542328143L304.584,224.17203615435946L305.424,224.99906489329928L306.32,226.69289833234188L313.04,227.52117700294517L314.048,229.13024282286082L314.16,230.6414432706208L314.608,231.60646180282657L316.176,231.6826389835514L316.96,232.34069575585352L320.096,233.99327075551406L320.32,235.07170319122346L320.936,234.23010214544698L323.848,235.5600107501588L325.024,236.67229261342538L325.304,236.7987313267222L325.416,237.3749627492804L325.976,238.4618667639481L327.824,238.8890833304636L328.496,240.74081213511897L331.408,241.49703702472374L332.976,241.9486282512112L334.54400000000004,242.77656235722085L336.672,243.5522018338882L337.288,244.50817244920987L337.456,245.27912969633255L340.648,246.81775857951828L340.928,247.22301190582866L341.544,247.64902549676867L345.632,248.9854514461325L346.304,248.9686103070716L346.416,249.25302264481422L346.696,250.37184715622448L346.752,248.53580463620293L348.152,249.8096447079913L348.432,250.73886280593493L348.6,251.20730724654922L350.168,251.75050941659407L350.336,251.57142423363564L352.464,252.60834270699047L353.192,253.43797677745354L353.30400000000003,253.79339054340085L357.448,254.50573807665086L357.84,255.20096340720877L359.688,256.48346420612944L362.992,257.72546708874114L363.944,258.1565123623145L365.11999999999995,258.9826523819883L367.80800000000005,260.0213336014342L367.97599999999994,259.4442777456994L370.608,260.8190446366164L372.624,261.4929079907711L372.848,262.15573739394995L373.296,262.7419851457206L375.368,262.94552239388986L375.648,263.5100126779721L377.43999999999994,264.219455253878L377.88800000000003,265.13646715867446L379.568,265.8568635105367L380.24000000000007,265.8572452425525L380.352,266.6424124073723L382.47999999999996,267.20660055111284L383.152,266.871967723551L385.50399999999996,267.9575589910642L389.312,268.458414445847L389.816,269.5474154582797L389.984,269.70111117071974L394.24,270.7102753526394L394.352,271.89241189279704L394.408,271.3050032575044L397.37600000000003,272.29863080734685L398.944,272.86493482443495L402.64,274.09212312610634L404.82399999999996,275.572843265007L409.864,276.6970495030106L410.76,277.5198399236691L411.544,277.24537483280255L414.96,278.48189206734514L416.192,279.49892032036314L420.28,281.13764812880237L420.392,281.2266344400255L422.18399999999997,281.5450504500871L423.528,282.02915349240334L424.31199999999995,282.46375559947035L426.71999999999997,282.92757304657187L428.40000000000003,283.33015287487916L428.624,283.1413034711433L429.464,284.0778312083574L431.76,284.56920498111793L431.928,285.31182373940317L434.896,285.8155370460711L436.688,286.6050066224791L437.64,286.6981418747936L437.808,286.85941075201237L439.712,287.3366777164662L439.824,286.7174897994354L440.21599999999995,286.82320906673397L442.232,287.11734150144173L443.408,288.125536126451L444.752,287.7159818855264L445.03200000000004,288.519262402495L445.368,288.78475713326947L446.88,289.5392980360652L448,289.89411139152435L448.28,289.1399879530787L449.12,289.2810948989224L449.40000000000003,289.88731199153847L451.808,290.24602183847776L454.216,290.9585109302351L454.77599999999995,291.47444672995505L457.57599999999996,292.27525603540954L458.64,292.35943935732973L459.368,291.325024385577L459.70399999999995,291.94939108093115L460.43199999999996,292.88321588635165L463.624,293.4717010009272L464.912,293.7979620831003L465.192,293.99658822398123L466.536,294.6631927262589L467.152,295.37795355384617L467.768,295.21618024387993L468.496,295.2807017986717L469.84,294.8093301597084L475.216,294.9374837388304L475.44,295.3890007489745L476.56,296.73569992982294L479.584,297.0641466462788L480.144,297.3569376947985L481.208,297.8908517648283L484.232,297.9797062569561L484.736,298.53485794149054L485.408,298.6365174870623L485.576,299.1552331698497L486.41600000000005,299.195676542077L486.584,299.43107610270596L487.256,299.5187375767542L488.768,300.2107984962173L488.992,300.6760372604196L489.608,300.6142505529681L494.032,301.29333777684917L494.81600000000003,301.81134965097283L495.26399999999995,302.0808747892104L496.104,302.0271472909762L499.74399999999997,302.3121265970894L501.53600000000006,302.8767127754228L502.992,303.4884302760325L504.224,303.2854869833685L509.37600000000003,302.43378026909215L509.824,302.8089232517873L511.11199999999997,303.6831077428815L512.12,303.5282146365736L515.536,304.5406734985885L517.272,305.2623252608047L520.24,305.02619966850676L520.856,304.2920692311883L521.8639999999999,305.4987091748214L522.424,306.04987957288597L522.48,306.29514834767446L523.544,306.6713077776782L524.832,307.02958764512255L525.896,306.69847377466505L528.08,307.1030487652263L528.248,307.4713652584339L528.64,308.0314021666875L529.1999999999999,307.8827806425113L529.368,308.073893849374L530.208,308.8313867666251L532.0559999999999,309.2127032719807L533.12,309.26183392302727L537.544,309.0068457227739L539.504,309.04489268909646L540.456,309.76396190435145L541.296,309.3813209826377L541.912,309.35192552415293L542.2479999999999,310.12859908585403L543.648,309.959427804021L544.208,309.82719215528243L545.216,310.0860854767327L546,309.33150064364463L547.12,309.4458588517629L547.568,309.726712813194L548.128,310.2435812271925L550.088,310.68051986439775L550.368,311.4037807830796L553.784,311.618014548339L553.84,311.6449954736933L555.6320000000001,311.8199385302487L558.936,312.40048293931625L560.896,313.31417272486294L561.5120000000001,313.0297305559993L562.1840000000001,313.16117056702853L563.136,313.0654606181102L569.52,312.9218153189252L569.744,312.5743842429298L570.528,313.4785120765196L571.48,312.844998309602L571.816,312.713346203321L574.168,313.69340641507733L575.064,314.42005172258155L575.6800000000001,313.93944903663123L577.752,314.94507431776117L578.032,315.3656467711377L578.144,315.0103729984431L578.48,315.3068883574765L579.768,314.97528738002546L580.048,314.74418560397964L580.552,314.86030486901006L585.592,315.41968015956525L585.76,315.0435873086908L587.328,314.8491102824008L587.608,315.2696089917061L587.888,316.4460250957988L591.1360000000001,316.78296604777466L592.592,316.70116270437893L593.096,316.53727940592205L594.944,317.34051772518774L595,317.5751641354789L595.504,317.80518019210274L597.6320000000001,318.12875749117717L598.08,317.7904173174297L598.36,318.19213332884283L602.784,318.47556604238014L604.2959999999999,318.74097378070155L605.304,319.2467155397832L605.472,319.18573396330476L606.648,319.43777285173775L607.264,319.28025186869644L608.608,319.36037091263023L609,319.57231938748293L609.952,318.5524909252449L610.064,318.74862369027875L610.232,319.152118168635L611.408,319.45826652190857L611.8,319.3906647356854L613.088,319.4739015574757L614.04,319.203186378211L615.048,319.60306706984653L615.384,320.1233116469372L615.944,320.0189831734651L617.008,320.33079826360665L618.52,320.06986811832024L618.968,320.53565565035L620.144,320.95989750436104L624.12,320.74403164989445L628.096,320.7319257724684L628.488,320.99893300941L630,321.51278115993983L631.176,321.6532536321059L632.632,321.7092958148226L633.136,321.31663219546704L634.928,322.0252295328106L636.1039999999999,321.9294538493708L638.5120000000001,322.1905819127414L638.6800000000001,322.3369001024636L639.8,322.93697877607775L640.192,322.5643166868808L641.648,323.0763925462319L645.568,323.3203740638109L646.072,323.22860658893654L646.464,322.9567703147511L647.192,322.50207929967524L648.424,322.38206691955736L649.04,322.9316853345347L650.552,323.47243130570126L651.896,322.80135216453954L652.232,322.81464457356503L653.52,323.2436896696303L654.528,323.71416506139127L658.448,322.769076944397L660.912,323.18772627413637L662.48,323.44660449922304L662.6479999999999,324.233614316584L664.8879999999999,324.93387268960555L666.2320000000001,325.02439727175283L669.872,325.1177024995568L674.24,325.2050902268459L674.52,325.3582512701255L674.688,325.33305810002696L675.472,325.0592193204654L676.144,325.0899351357515L677.432,325.47364741796827L677.768,325.6321885671292L678.608,324.9092780450627L679.504,325.95086556551723L680.848,325.8480378692023L681.8,326.1185029259129L685.776,325.9880103058102L686.896,326.3006144682456L687.288,326.2701604938441L687.568,326.6160167369803L693.616,325.6678890129066L693.784,325.4994987142167L694.96,326.2323840887595L695.24,325.69890825934704L697.648,326.01062400452787L698.264,326.1669157654792L698.824,326.5999288934916L699.048,326.8053023468524L700.672,327.53734048670947L701.176,327.1070912007476L702.4639999999999,326.7367394616595L702.52,326.70173029961535L703.192,326.4664694312951L704.928,327.45652164481527L705.432,327.79082793630624L706.384,327.64441171310824L706.664,327.9591241301446L707.168,326.8821741450637L707.616,327.265418035317L708.0640000000001,326.8321909800342L709.016,326.9030543741686L710.696,327.1341495571794L711.256,327.34940935482155L713.328,328.06317427462085L713.832,327.48071910563556L713.888,327.7283519937005L715.12,327.7674386330489L715.512,328.3948422901657L717.08,327.67553283648647L717.64,328.160267268878L717.92,327.89711701110707L718.536,328.1078892328483L719.04,328.40342966664684L719.824,327.77179462402376L721.952,327.72617870503257L722.12,327.55350629528516L724.024,328.1811239244947L724.2479999999999,327.25247537627274L725.536,328.0559413548377L725.872,328.5463770744841L725.984,328.56138638720756L728.224,328.78226211110257L728.5600000000001,328.4844707539052L728.672,328.69435610117733L729.288,329.29093319500817L729.568,329.3105672355016L730.352,329.0759619137955L730.856,329.21081951506807L731.752,328.93215541868136L733.1519999999999,329.27797110574676L734.216,328.66130841074727L734.7199999999999,328.841239001145L735.7280000000001,329.09634832012057L737.24,329.35051482360007L738.528,329.7922415723827L738.6400000000001,330.2843111223237L738.696,330.4355807987604L742,330.1765800599905L742.168,330.2240873983295L742.672,330.26730575625845L744.8,330.0386949638411L747.656,330.0483123552731L750.904,330.54822474073956L752.9200000000001,330.58026463837376L753.872,330.304370140141L754.992,330.3743071884547L756.56,329.91266343180143L756.728,329.4255403923023L757.12,330.2735884622948L757.2320000000001,330.3562791798244L758.184,330.47945437274757L758.6320000000001,330.70134318257794L759.136,330.79659809819117L760.872,330.6675765594915L763.056,330.35811633593295L763.728,330.967857739487L764.4,331.2936396486513L765.016,331.0610306386323L765.8000000000001,330.04605220581124L765.912,330.2561571909489L767.928,330.9328759761752L769.944,331.29301340652114L771.456,331.2068661837137L772.2959999999999,331.1656596653674L773.976,330.91825035053574L775.3199999999999,330.68553988241007L776.3280000000001,331.06895895065577L778.1759999999999,331.36579396284645L779.688,331.2943267080607L780.416,330.7706851514233L780.528,331.3093508453401L781.7040000000001,331.3915580303211L781.984,330.8248212451183L782.768,331.4695771476295L783.3280000000001,331.6921709216038L783.6080000000001,331.74256059625145L784,331.1919963282251L785.064,331.73822495948696L785.736,331.82332727915895L791.168,331.9116482019833L792.008,332.471826396013L792.6239999999999,332.0577607355265L792.848,332.60561606656006L793.7439999999999,332.1400905261665L795.592,332.4786501580613L796.096,332.5561868008457L799.68,332.53892568448083L799.848,332.5403389769727L800.744,332.54114609706005L801.64,333.0003470763421L805.616,332.8981636252914L806.12,332.43085534375393L807.856,332.9100817525475L808.92,333.1924872400814L809.088,333.3398632051023L810.32,333.4197734356804L813.9599999999999,333.1408985424568L814.408,332.98922903827014L815.584,333.1172363537024L816.816,332.5972766171378L818.4399999999999,333.21930285993113L821.0160000000001,333.5996208375865L822.5840000000001,332.8336169067725L825.8879999999999,333.22550433061747L826.7840000000001,333.6425725244416L828.52,333.6964281048139L830.144,333.88177529607776L831.544,333.9281998517189L831.824,334.02413321269L832.552,332.9047645898607L833.616,332.9169716174571L835.968,332.8375411781769L836.024,333.50986755091554L837.1439999999999,333.549625612489L840.3919999999999,334.02764328073954L841.344,334.09301546902356L842.8559999999999,334.13446900660335L842.9119999999999,334.2035671080025L843.36,334.17181968718006L844.032,334.43883809583923L844.704,334.5189866610619L845.5440000000001,334.50517985750747L845.7679999999999,334.5974223085017L846.72,334.6235723845822L847.728,334.6284330435194L848.7359999999999,334.7863746826409L849.576,334.5191120877599L850.136,334.74856979457945L850.304,334.69263394599204L850.976,334.6667499490085L851.032,334.5152903048696L851.2560000000001,334.820960410148L852.8240000000001,334.91405429822805L854.2800000000001,335.1548462389863L856.1279999999999,334.6034684943531L856.9680000000001,334.28037613674246L858.9839999999999,334.3159040096059L861.952,334.71325330511655L862.1759999999999,334.90410298213914L863.2959999999999,334.771502159271L866.04,334.80110641374193L867.664,334.84108950170275L870.0160000000001,334.87374430580377L872.8720000000001,334.9302073912826L873.712,334.87620586139L874.1600000000001,335.2092532609823L874.4960000000001,335.30271194308534L877.296,335.2034503861042L877.464,334.79168168567253L877.632,334.98605593599456L878.36,335.41141729210364L879.8720000000001,335.0669232836637L881.272,335.00596112199264L881.6640000000001,335.15134870402596L882.8960000000001,335.56718520279276L884.8,335.23214324924675L886.76,335.58789136775334L888.048,335.72406914453506L888.216,335.8575212873268L888.9440000000001,335.50632499201583L891.912,335.7227961644142L891.968,335.6332330575352L893.032,335.682679430888L893.2,335.44204697623604L893.704,335.2798827839777L893.76,335.6889630146554L894.096,335.69725091861073L895.216,335.87419969324105L895.328,335.91715332558056L899.92,335.63071899348677L900.2560000000001,335.33502745589124L904.456,335.6288382051021L907.816,335.9689656542319L908.1519999999999,336.1693221787559L909.4399999999999,336.2539870822398L911.5120000000001,336.3901041319351L911.568,336.2238219911087L911.904,335.50991391743594L912.4079999999999,335.94171629670484L913.36,335.8108815236284L914.0319999999999,335.7531562354203L914.368,336.1420261160157L915.4879999999999,336.4576149139179L917.672,336.2483548971041L920.4720000000001,336.34797046256205L921.816,336.20134098572817L923.104,336.0401543142991L925.1200000000001,336.0279970838187L926.464,336.422163002107L926.632,336.34049385572285L930.8320000000001,336.6722875987578L931.1679999999999,336.94306388348866L932.848,337.206565077606L933.352,337.0447514292617L933.576,336.7895693348062L933.9119999999999,336.56699987686943L937.216,336.1446044614152L939.064,336.3882822948835L939.12,336.82700950849903L939.5680000000001,336.609421246939L939.7919999999999,336.6836644325811L940.744,336.69542688334934L941.0799999999999,337.01267903688523L941.304,337.2638508131681L942.8159999999999,337.19497769180407L944.328,337.14160177411713L945.3919999999999,336.98839037240793L947.184,336.6829814089611L947.24,336.77392207940073L947.2959999999999,337.1384104976633L948.64,337.0498666769015L952.952,337.2665672210304L956.48,337.0600663606792L958.832,336.8292844929975L959.056,336.8513693141151L961.52,337.00456409735733L962.5840000000001,337.4468272035316L964.656,337.05200794130536L966.336,336.87895896667226L966.7280000000001,336.76185337682955L967.2879999999999,336.911860151174L969.5840000000001,336.8334293860688L970.536,335.8041991149482L970.8720000000001,336.59432230920174L971.2640000000001,336.8575480755006L973.8960000000001,337.30703583573313L974.176,337.60061899194125L975.072,337.4958350859225L975.408,337.5432373930299L975.968,337.4496532874873L976.9760000000001,337.6757926629526L977.928,337.63756082573786L978.04,337.80627023529564L979.8320000000001,337.13770670027463L981.568,337.43029370266754L984.2,337.52218904947375L984.872,337.46395850929696L985.488,337.6497232005184L989.072,337.52290186197666L990.808,337.5245310646958L992.8800000000001,337.75923095838226L994.224,337.596897160387L994.728,337.78157673560145L995.064,337.96879791189764L995.9040000000001,337.9147226367565L997.64,338.0118561049802L997.808,337.98981896045825L998.872,337.96857429386984L999.936,338.1354864456762L1006.2639999999999,338.1598181163376L1006.712,338.2116312882367L1007.048,338.46951777345316L1008.392,338.09868419770226L1008.448,338.1257150638332L1010.5759999999999,337.72288567472873L1012.088,337.9760897222124L1012.76,338.3106364240028L1013.936,338.2511851924525L1017.24,338.3314500843207L1017.968,338.38596804348947L1018.528,338.39258843546105L1018.7520000000001,338.347982088834L1021.384,337.1913757992446L1025.416,337.2613627882397L1026.648,337.7755224306343L1026.872,338.03520171159255L1027.04,338.3503054160699L1027.6000000000001,338.3337243472829L1028.72,338.40122343988986L1030.176,338.42874980146746L1032.08,338.76149909123814L1032.584,338.7166945387425L1035.72,338.55207470950495L1038.744,338.45129038272506L1040.2,338.68287376748447L1040.48,338.6901257907565L1041.6,338.675240716649L1044.456,338.5604884584623L1044.68,338.4791146206783L1046.472,338.68508146333255L1049.2160000000001,338.6268517001126L1050.336,338.6720189800056L1052.1280000000002,338.7936626666899L1052.6879999999999,338.4693729969332L1052.744,338.6811293561738L1054.144,338.6653544687916L1054.648,338.79562614582113L1055.432,338.7824052180179L1057.784,338.90775201352403L1059.184,338.5768155815123L1063.384,338.6668322898101L1067.136,338.79866946322625L1068.872,338.68858779777827L1070.776,338.9824214679584L1070.832,339.2322794283977L1072.064,339.1741338351697L1074.192,339.14303491707625L1074.472,339.1075704753159L1074.752,339.20319174884315L1076.824,339.1287814900789L1077.272,339.29846010002575L1078.056,339.3543451869075L1078.672,339.4927385523072L1079.68,338.92876550401155L1079.792,339.1501064684683L1081.0800000000002,339.33547212998235L1081.136,339.21298177194694L1081.192,339.00593062849106L1081.36,339.1127450836376L1082.424,339.17129965142465L1084.384,339.1269481963876L1085.336,339.3175676290371L1086.064,339.544938737403L1086.12,339.5111809052531L1087.296,339.27069122537995L1087.856,339.2673903307022L1088.304,339.56500129703886L1088.864,339.3953581381095L1091.608,339.32720765878275L1092.056,339.50084881668994L1092.28,339.3096699421746L1093.848,339.3045455327715L1094.632,339.6265225190571L1094.968,339.4271810685784L1095.752,339.2989244648928L1096.256,339.357253572292L1096.6480000000001,339.43889289197136L1096.704,339.4869626444388L1096.928,339.3162264300471L1098.328,339.40915616232667L1098.888,339.3636917250068L1099.112,339.2238807473606L1100.008,339.246537553908L1100.792,339.1647123310814L1102.808,339.33629828297194L1103.2559999999999,339.0722955942339L1103.872,339.0815333318821L1106.616,339.2585599393911L1106.672,339.2707171422998L1106.952,339.4576580991006L1108.4640000000002,339.7097872918639L1110.5919999999999,339.7031670681115L1116.808,339.6525311488793L1117.312,339.7955940210155L1118.208,339.4719175650675L1118.376,339.488578166604L1118.8799999999999,339.68154246690267L1120.4479999999999,339.73338113237855L1122.352,339.8052670407858L1122.408,339.75334667733705L1122.912,339.422325379678L1123.08,339.5580257934501L1125.264,339.664286129604L1126.664,339.53692463930264L1127.504,339.6359676021088L1127.616,339.5365595708936L1128.064,339.3858002835899L1128.96,339.49681294050157L1130.0800000000002,339.4240603356739L1131.424,339.7144182532537L1132.656,339.70192859706333L1134.224,339.92541550717976L1134.896,339.89990615321534L1137.248,339.7151362149318L1137.4160000000002,339.79625922014714L1139.712,339.9479769704962L1140.16,340.1593320535555L1144.6960000000001,339.9402513555845L1144.752,340.07740906787876L1149.624,340.20019215531926L1150.0720000000001,340.25469165913927L1152.536,339.8845241467516L1152.592,339.83516480924845L1155.448,339.90028448582984L1155.952,339.714639833458L1158.808,339.8485107582139L1159.368,339.92382101543706L1159.76,339.88725039200756L1161.384,340.1521248462008L1163.4560000000001,340.0384960342769L1164.4080000000001,340.2174709826305L1166.76,340.3945627873894L1169.4479999999999,340.4442078963373L1171.688,340.50350713583555L1173.088,340.25386636646226L1174.152,340.2158313583829L1174.432,340.3248955149351L1174.712,340.293861023122L1175.72,340.33188469859L1176,340.2071423891308L1176.28,340.2133311511947L1176.952,339.94362304698666L1178.128,339.7928255396559L1180.76,339.90571293815816L1181.9360000000001,339.7839045237592L1184.008,340.0806043238098L1184.904,340.3169389897975L1186.808,340.0404727896686L1187.424,340.1508316517255L1188.152,340.24187308790573L1190.224,340.44737021113804L1190.616,340.20592807761057L1190.8400000000001,340.41814687151447L1192.24,340.42396665512763L1193.6960000000001,340.35174894868874L1198.232,340.35937688433853L1198.3999999999999,340.28176262905436L1198.68,340.26083790379903L1201.48,340.1474505705723L1202.6,340.25992922801305L1203.44,340.2547738553198L1203.608,340.48306463248207L1203.72,340.44367621711893L1204.84,340.2847573946238L1205.1760000000002,339.9860561198187L1206.464,340.1876095572824L1207.864,340.22249111889096L1207.976,339.8080684361356L1208.704,339.7858132658897L1210.944,340.0316590367853L1211.28,339.8928729807794L1212.064,340.1961321065104L1212.6799999999998,340.2513880532548L1213.184,340.3104972721079L1213.408,340.3595394158923L1215.76,340.131979381118L1216.152,340.24491414014926L1216.376,340.11614381184836L1216.656,340.2213881284634L1216.712,340.0126738232755L1218.952,340.0817193128099L1220.0159999999998,340.2929810343641L1221.528,340.41399562945713L1222.816,340.5093330609247L1226.736,340.68264073058634L1227.296,340.39456677630346L1227.968,340.4489773046661L1228.92,340.42035913537075L1229.816,340.42111684840995L1230.264,340.55532006479547L1230.768,340.5429417542055L1231.16,340.4558507783076L1233.4,340.65152242796785L1234.1280000000002,340.41551021943786L1234.408,340.5617861688751L1234.744,340.53202710274564L1234.912,340.55861363484684L1239.168,340.48006459280384L1239.224,340.35145596626126L1239.336,340.3368746659918L1241.6879999999999,340.3671980751612L1241.856,340.28642500239954L1243.592,340.43793591259924L1244.824,340.42769243001345L1245.104,340.633734007355L1245.272,340.64664500455643L1245.5520000000001,340.6394995063578L1247.848,340.49900568545075L1248.688,340.51960024488096L1249.528,340.5568978551157L1250.0320000000002,340.65954122561976L1250.144,340.7825614644215L1251.208,340.76740765292203L1252.328,340.7185732681677L1252.8880000000001,340.6738371037916L1253.672,340.7004635681793L1253.728,340.5112379044345L1255.9679999999998,340.6955402308733L1256.08,340.75319599950495L1257.3120000000001,340.80063743498437L1258.6000000000001,340.885417870918L1260.896,340.7830257822508L1261.624,340.74833009299243L1261.68,340.6106043294466L1262.24,340.64531281205393L1262.7440000000001,340.6724413502954L1262.8,340.72655733995094L1262.912,340.72760506971156L1263.192,340.60318191351575L1263.808,340.65260093630604L1267.896,340.64901046765596L1269.968,340.7655459523961L1270.0240000000001,340.74656182055264L1270.9759999999999,340.8296539778983L1271.2,340.750155193536L1273.2720000000002,340.7669855373672L1275.008,340.8458642731649L1275.0639999999999,340.72702761474505L1275.232,340.7344042729334L1275.288,340.80190005248755L1277.192,340.6066155549644L1277.472,340.5875612209295L1277.9759999999999,340.58164815605016L1278.256,340.55917735398015L1279.32,340.70532386005044L1281.168,340.71044839203427L1282.512,340.7671988557581L1282.568,340.74122322742966L1284.584,340.64458898273006L1286.712,340.8291908739024L1288.952,340.66668295371613L1289.288,340.5918534034972L1289.3999999999999,340.3409989067605L1289.456,340.62330824784584L1290.4640000000002,340.6906517639884L1291.192,340.757380622335L1291.6960000000001,340.72356683117613L1291.92,340.7445390635876L1295.504,340.7568374666064L1299.144,340.8151869340234L1300.432,340.72843668481664L1301.328,340.83053714287854L1302.4479999999999,340.7623861113344L1305.136,340.83739267105784L1305.3039999999999,340.75925570437266L1305.584,340.8777635747728L1309.336,340.9864542206846L1310.344,340.94585580591695L1314.544,341.0402837047835L1316.7279999999998,341.0448947101748L1316.7839999999999,341.0794743078897L1318.688,340.8743615065783L1320.312,340.8031349822742L1321.04,340.8530642393149L1321.656,340.7728675033401L1322.8319999999999,340.9067024746985L1323.84,340.9941816925675L1324.624,340.8760155844492L1324.68,340.7882834915997" style="fill: none;" fill="none"></path></g></g></g></g><g opacity="0.2"><g><g><g><path stroke="rgb(255, 112, 67)" stroke-width="2px" d="M112.448,300.6148289680481L113.792,90.22239074707034L113.96000000000001,67.97087745666505L115.41600000000001,68.35193824768066L116.70400000000001,65.51799087524415L120.28800000000001,57.520160293579124L120.792,64.23332862854005L124.26400000000001,53.186074447631825L124.544,71.20878868103028L125.72,66.30873527526853L126.728,72.14721336364744L128.688,73.40334892272949L128.8,73.60611190795896L129.248,73.59558563232423L130.87199999999999,59.94425582885742L131.992,76.54873466491699L135.016,78.1494255065918L137.2,40.22618637084963L137.984,78.04440307617188L141.45600000000002,83.22585411071776L142.968,84.58975181579592L143.864,85.42940254211425L144.256,85.24884567260739L144.312,85.92935256958009L146.944,87.70973510742186L147.672,88.62520866394044L148.45600000000002,88.93181648254398L149.01600000000002,87.95054168701171L151.424,91.05189971923829L151.872,91.21688346862794L154.28,63.38178176879882L154.504,92.98565826416012L154.616,91.69698257446288L155.4,92.2837142944336L155.512,89.86444931030275L155.904,93.75023117065427L156.352,91.07744636535648L156.688,95.83253517150877L158.256,95.55481452941893L164.36,102.22657470703126L165.816,101.86678276062014L165.87199999999999,101.57961730957032L166.208,102.8669231414795L167.552,105.63776092529298L167.72,105.43487777709959L168.224,104.9321399688721L170.968,105.79380455017088L171.136,105.82463836669922L172.648,103.1688205718994L172.984,107.8890380859375L173.26399999999998,108.93681106567385L176.176,110.40474586486818L176.45600000000002,111.83305091857909L176.512,111.38061332702637L177.52,113.45085296630862L178.248,114.10153541564944L181.104,115.49100379943849L182.056,117.94792785644535L185.136,120.63498802185057L185.304,121.5160228729248L186.08800000000002,116.55581588745116L186.312,116.69013404846191L189.00000000000003,122.69027938842771L189.39200000000002,119.12884140014648L190.624,124.60692672729493L191.296,124.98421440124511L191.85600000000002,123.71248168945311L193.536,127.59766273498536L194.152,128.62854080200196L194.93599999999998,127.9310188293457L196.72799999999998,130.41839218139648L198.352,131.2600856781006L199.248,134.2608673095703L200.144,134.6222454071045L200.368,134.64663848876953L201.32,135.539953994751L203.28,137.97779617309573L205.632,139.304443359375L206.136,139.6882438659668L207.14399999999998,141.05449676513672L207.648,141.7093849182129L208.43200000000002,141.77367210388184L208.54399999999998,143.2464374542236L208.712,143.05470542907716L211.176,145.30704002380372L213.696,145.55860118865965L214.70399999999998,147.83689098358153L215.208,150.2604097366333L215.936,151.7981231689453L216.104,150.98288955688474L216.552,150.466068649292L218.792,153.2245056152344L219.74399999999997,153.79460678100588L220.304,153.72744770050048L220.47199999999998,154.28667411804201L223.496,156.19831066131593L224.16799999999998,159.86052932739258L225.45600000000002,159.74284172058105L227.75199999999998,163.04698677062987L228.2,163.82323951721193L228.42399999999998,163.50093841552734L228.81599999999997,164.30047874450685L231.784,165.86947059631348L232.176,167.73322219848632L233.91199999999998,169.18661727905274L234.13600000000002,169.53566665649413L234.58399999999997,167.67078552246093L235.25600000000003,171.32556610107423L236.37599999999998,171.59047737121583L236.656,171.7932523727417L236.712,171.27775325775147L237.832,173.19514560699463L238.11200000000002,174.02282810211182L240.072,174.5547414779663L240.632,175.74237213134765L241.304,175.26492862701417L242.76000000000002,175.17600803375242L243.26399999999998,179.0118381500244L245.224,179.031028175354L245.28,180.43634605407715L245.392,180.7759506225586L247.85600000000002,182.72084827423095L248.808,183.3398197174072L248.92000000000002,184.23138084411622L249.20000000000002,181.62955226898194L250.6,185.47082576751708L250.656,185.21412162780763L251.21599999999998,185.59815044403075L251.328,185.43982372283935L251.608,181.55263595581056L252.392,185.684415435791L252.728,186.53662319183348L253.232,186.65182342529295L254.07199999999997,188.3248643875122L254.408,181.75691299438475L261.8,192.65306224823L262.808,195.04353618621826L264.88,195.63985691070556L265.664,198.54080715179444L267.624,198.5636381149292L272.272,202.33228511810304L273.616,202.3321409225464L277.592,206.98219528198243L278.04,206.75824756622313L280.056,205.54550285339357L281.568,209.8951858520508L281.736,212.34565715789793L284.984,209.80838012695312L288.456,215.90153160095215L290.36,214.88204498291014L290.416,216.65448474884033L292.32,217.98156452178955L292.88,217.87935390472413L293.104,219.40023250579833L293.216,218.85690364837646L293.272,217.35865173339843L296.52,222.46484470367432L298.76,221.59729213714598L300.496,224.4889778137207L302.00800000000004,224.44409694671631L302.288,225.3958957672119L303.52,219.3022756576538L304.584,227.27430725097656L305.424,226.23960800170897L306.32,229.23364849090575L313.04,228.7635950088501L314.048,231.54384155273436L314.16,232.90824394226075L314.608,233.05398960113524L316.176,231.79690475463866L316.96,233.32778091430663L320.096,236.47213325500488L320.32,236.6893518447876L320.936,232.96770057678222L323.848,237.55487365722655L325.024,238.3407154083252L325.304,236.9883893966675L325.416,238.23930988311767L325.976,240.0922227859497L327.824,239.52990818023682L328.496,243.51840534210206L331.408,242.63137435913086L332.976,242.6260150909424L334.54400000000004,244.01846351623536L336.672,244.71566104888916L337.288,245.94212837219237L337.456,246.4355655670166L340.648,249.12570190429688L340.928,247.8308918952942L341.544,248.2880458831787L345.632,250.99009037017822L346.304,248.9433485984802L346.416,249.67964115142823L346.696,252.05008392333986L346.752,245.78174085617067L348.152,251.72040481567382L348.432,252.13268995285034L348.6,251.90997390747071L350.168,252.5653126716614L350.336,251.302796459198L352.464,254.16372041702272L353.192,254.6824278831482L353.30400000000003,254.3265111923218L357.448,255.5742593765259L357.84,256.24380140304567L359.688,258.4072154045105L362.992,259.5884714126587L363.944,258.80308027267455L365.11999999999995,260.22186241149905L367.80800000000005,261.579355430603L367.97599999999994,258.5786939620972L370.608,262.8811949729919L372.624,262.50370302200315L372.848,263.14998149871826L373.296,263.6213567733765L375.368,263.2508282661438L375.648,264.35674810409546L377.43999999999994,265.2836191177368L377.88800000000003,266.51198501586913L379.568,266.9374580383301L380.24000000000007,265.85781784057616L380.352,267.820163154602L382.47999999999996,268.05288276672366L383.152,266.37001848220825L385.50399999999996,269.585945892334L389.312,269.2096976280212L389.816,271.1809169769287L389.984,269.9316547393799L394.24,272.2240216255188L394.352,273.66561670303344L394.408,270.4238903045654L397.37600000000003,273.7890721321106L398.944,273.71439085006716L402.64,275.93290557861326L404.82399999999996,277.7939234733582L409.864,278.38335886001585L410.76,278.754025554657L411.544,276.83367719650266L414.96,280.3366679191589L416.192,281.02446269989014L420.28,283.5957398414612L420.392,281.36011390686036L422.18399999999997,282.0226744651794L423.528,282.75530805587766L424.31199999999995,283.1156587600708L426.71999999999997,283.62329921722414L428.40000000000003,283.9340226173401L428.624,282.85802936553955L429.464,285.48262281417846L431.76,285.3062656402588L431.928,286.42575187683104L434.896,286.571107006073L436.688,287.78921098709105L437.64,286.83784475326536L437.808,287.1013140678406L439.712,288.05257816314696L439.824,285.78870792388915L440.21599999999995,286.9817879676819L442.232,287.55854015350343L443.408,289.63782806396483L444.752,287.1016505241394L445.03200000000004,289.724183177948L445.368,289.1829992294312L446.88,290.6711093902588L448,290.4263314247131L448.28,288.00880279541013L449.12,289.49275531768797L449.40000000000003,290.79663763046267L451.808,290.7840866088867L454.216,292.0272445678711L454.77599999999995,292.2483504295349L457.57599999999996,293.4764699935913L458.64,292.48571434020994L459.368,289.773401927948L459.70399999999995,292.8859411239624L460.43199999999996,294.2839530944824L463.624,294.3544286727905L464.912,294.28735370635985L465.192,294.2945274353027L466.536,295.6630994796753L467.152,296.4500947952271L467.768,294.97352027893066L468.496,295.3774841308594L469.84,294.1022727012634L475.216,295.12971410751345L475.44,296.06627626419066L476.56,298.75574870109557L479.584,297.5568167209625L480.144,297.79612426757814L481.208,298.69172286987305L484.232,298.1129879951477L484.736,299.36758546829225L485.408,298.78900680541994L485.576,299.93330669403076L486.41600000000005,299.25634160041807L486.584,299.7841754436493L487.256,299.65022978782656L488.768,301.248889875412L488.992,301.373895406723L489.608,300.5215704917908L494.032,302.3119686126709L494.81600000000003,302.5883674621582L495.26399999999995,302.4851624965668L496.104,301.94655604362487L499.74399999999997,302.73959555625913L501.53600000000006,303.723592042923L502.992,304.406006526947L504.224,302.9810720443726L509.37600000000003,301.1562201976776L509.824,303.37163772583006L511.11199999999997,304.9943844795227L512.12,303.2958749771118L515.536,306.05936179161074L517.272,306.34480290412904L520.24,304.6720112800598L520.856,303.19087357521056L521.8639999999999,307.308669090271L522.424,306.87663516998293L522.48,306.66305150985715L523.544,307.23554692268374L524.832,307.56700744628904L525.896,306.2018029689789L528.08,307.7099112510681L528.248,308.02383999824525L528.64,308.871457529068L529.1999999999999,307.6598483562469L529.368,308.36056365966795L530.208,309.96762614250184L532.0559999999999,309.78467803001405L533.12,309.3355298995972L537.544,308.6243634223938L539.504,309.10196313858035L540.456,310.8425657272339L541.296,308.8073596000671L541.912,309.3078323364258L542.2479999999999,311.2936094284058L543.648,309.7056708812714L544.208,309.62883868217466L545.216,310.47442545890806L546,308.19962339401246L547.12,309.61739616394044L547.568,310.14799375534056L548.128,311.0188838481903L550.088,311.3359278202057L550.368,312.4886721611023L553.784,311.93936519622804L553.84,311.6854668617249L555.6320000000001,312.0823531150818L558.936,313.27129955291747L560.896,314.684707403183L561.5120000000001,312.60306730270383L562.1840000000001,313.3583305835724L563.136,312.92189569473265L569.52,312.7063473701477L569.744,312.05323762893676L570.528,314.8347038269043L571.48,311.89472765922545L571.816,312.51586804389956L574.168,315.1634967327118L575.064,315.51001968383787L575.6800000000001,313.2185450077057L577.752,316.4535122394562L578.032,315.9965054512024L578.144,314.47746233940126L578.48,315.75166139602663L579.768,314.47788591384887L580.048,314.3975329399109L580.552,315.0344837665558L585.592,316.25874309539796L585.76,314.47944803237914L587.328,314.5573947429657L587.608,315.9003570556641L587.888,318.21064925193787L591.1360000000001,317.2883774757385L592.592,316.5784576892853L593.096,316.2914544582367L594.944,318.5453752040863L595,317.9271337509155L595.504,318.1502042770386L597.6320000000001,318.61412343978884L598.08,317.2829070568085L598.36,318.79470734596254L602.784,318.90071511268616L604.2959999999999,319.1390853881836L605.304,320.00532817840576L605.472,319.094261598587L606.648,319.8158311843872L607.264,319.04397039413453L608.608,319.48054947853086L609,319.89024209976196L609.952,317.0227482318878L610.064,319.0428228378296L610.232,319.7573598861694L611.408,319.91748905181885L611.8,319.2892620563507L613.088,319.59875679016113L614.04,318.79711360931395L615.048,320.2028881072998L615.384,320.90367851257326L615.944,319.86249046325685L617.008,320.798520898819L618.52,319.6784729003906L618.968,321.2343369483948L620.144,321.5962602853775L624.12,320.4202328681946L628.096,320.7137669563293L628.488,321.3994438648224L630,322.28355338573454L631.176,321.86396234035493L632.632,321.7933590888977L633.136,320.7276367664337L634.928,323.088125538826L636.1039999999999,321.7857903242111L638.5120000000001,322.58227400779725L638.6800000000001,322.55637738704684L639.8,323.83709678649905L640.192,322.0053235530853L641.648,323.8445063352585L645.568,323.68634634017945L646.072,323.09095537662506L646.464,322.5490159034729L647.192,321.8200427770615L648.424,322.2020483493805L649.04,323.7561129570007L650.552,324.2835502624512L651.896,321.79473345279695L652.232,322.83458318710325L653.52,323.88725731372836L654.528,324.41987814903257L658.448,321.35144476890565L660.912,323.81570026874545L662.48,323.834921836853L662.6479999999999,325.4141290426254L664.8879999999999,325.9842602491379L666.2320000000001,325.16018414497375L669.872,325.2576603412628L674.24,325.33617181777953L674.52,325.5879928350449L674.688,325.29526834487916L675.472,324.64846115112306L676.144,325.1360088586807L677.432,326.04921584129335L677.768,325.8700002908707L678.608,323.8249122619629L679.504,327.513246846199L680.848,325.69379632472993L681.8,326.5242005109787L685.776,325.7922713756561L686.896,326.7695207118988L687.288,326.22447953224184L687.568,327.13480110168456L693.616,324.24569742679597L693.784,325.24691326618193L694.96,327.3317121505737L695.24,324.89869451522827L697.648,326.4781976222992L698.264,326.40135340690614L698.824,327.24944858551027L699.048,327.11336252689364L700.672,328.63539769649503L701.176,326.4617172718048L702.4639999999999,326.1812118530273L702.52,326.64921655654905L703.192,326.1135781288147L704.928,328.9415999650955L705.432,328.29228737354276L706.384,327.4247873783112L706.664,328.43119275569916L707.168,325.2667491674423L707.616,327.840283870697L708.0640000000001,326.18235039711L709.016,327.0093494653702L710.696,327.48079233169557L711.256,327.67229905128477L713.328,329.1338216543198L713.832,326.6070363521576L713.888,328.099801325798L715.12,327.8260685920715L715.512,329.33594777584074L717.08,326.5965686559677L717.64,328.8873689174652L717.92,327.5023916244507L718.536,328.4240475654602L719.04,328.84674031734465L719.824,326.8243420600891L721.952,327.6577548265457L722.12,327.29449768066405L724.024,329.122550368309L724.2479999999999,325.8595025539398L725.536,329.26114032268526L725.872,329.28203065395354L725.984,328.5839003562927L728.224,329.1135756969452L728.5600000000001,328.03778371810915L728.672,329.00918412208557L729.288,330.1857988357544L729.568,329.34001829624174L730.352,328.72405393123626L730.856,329.4131059169769L731.752,328.51415927410125L733.1519999999999,329.7966946363449L734.216,327.736314368248L734.7199999999999,329.11113488674164L735.7280000000001,329.479012298584L737.24,329.73176457881925L738.528,330.45483169555666L738.6400000000001,331.0224154472351L738.696,330.6624853134155L742,329.78807895183564L742.168,330.295348405838L742.672,330.33213329315186L744.8,329.69577877521516L747.656,330.06273844242094L750.904,331.2980933189392L752.9200000000001,330.62832448482516L753.872,329.89052839279174L754.992,330.4792127609253L756.56,329.2201977968216L756.728,328.69485583305357L757.12,331.5456605672836L757.2320000000001,330.4803152561188L758.184,330.6642171621323L758.6320000000001,331.0341763973236L759.136,330.93948047161103L760.872,330.47404425144197L763.056,329.8939260005951L763.728,331.8824698448181L764.4,331.78231251239777L765.016,330.71211712360383L765.8000000000001,328.5235845565796L765.912,330.5713146686554L767.928,331.9479541540146L769.944,331.8332195520401L771.456,331.0776453495026L772.2959999999999,331.1038498878479L773.976,330.54713637828826L775.3199999999999,330.33647418022156L776.3280000000001,331.6440875530243L778.1759999999999,331.8110464811325L779.688,331.18712582588194L780.416,329.9852228164673L780.528,332.1173493862152L781.7040000000001,331.51486880779265L781.984,329.97471606731415L782.768,332.4367110013962L783.3280000000001,332.0260615825653L783.6080000000001,331.81814510822295L784,330.3661499261856L785.064,332.5575679063797L785.736,331.950980758667L791.168,332.0441295862198L792.008,333.3120936870575L792.6239999999999,331.43666224479676L792.848,333.42739906311033L793.7439999999999,331.44180221557616L795.592,332.9864896059036L796.096,332.6724917650223L799.68,332.51303400993345L799.848,332.5424589157104L800.744,332.5423567771912L801.64,333.6891485452652L805.616,332.7448884487152L806.12,331.72989292144774L807.856,333.62892136573794L808.92,333.61609547138215L809.088,333.56092715263367L810.32,333.5396387815475L813.9599999999999,332.72258620262147L814.408,332.76172478199004L815.584,333.3092473268509L816.816,331.817337012291L818.4399999999999,334.15234222412107L821.0160000000001,334.17009780406954L822.5840000000001,331.68461101055146L825.8879999999999,333.8133354663849L826.7840000000001,334.26817481517793L828.52,333.7772114753723L830.144,334.15979608297346L831.544,333.9978366851807L831.824,334.16803325414656L832.552,331.22571165561675L833.616,332.93528215885163L835.968,332.7183955192566L836.024,334.5183571100235L837.1439999999999,333.60926270484924L840.3919999999999,334.7446697831154L841.344,334.1910737514496L842.8559999999999,334.196649312973L842.9119999999999,334.3072142601013L843.36,334.12419855594635L844.032,334.839365708828L844.704,334.6392095088959L845.5440000000001,334.4844696521759L845.7679999999999,334.73578598499296L846.72,334.662797498703L847.728,334.6357240319252L848.7359999999999,335.02328714132307L849.576,334.1182181954384L850.136,335.0927563548088L850.304,334.608730173111L850.976,334.6279239535332L851.032,334.2881008386612L851.2560000000001,335.27946556806563L852.8240000000001,335.0536951303482L854.2800000000001,335.5160341501236L856.1279999999999,333.77640187740326L856.9680000000001,333.79573760032656L858.9839999999999,334.36919581890106L861.952,335.30927724838256L862.1759999999999,335.190377497673L863.2959999999999,334.5726009249687L866.04,334.8455127954483L867.664,334.9010641336441L870.0160000000001,334.92272651195526L872.8720000000001,335.0149020195007L873.712,334.7952035665512L874.1600000000001,335.7088243603706L874.4960000000001,335.4428999662399L877.296,335.05455805063247L877.464,334.174028635025L877.632,335.2776173114777L878.36,336.04945932626725L879.8720000000001,334.55018227100373L881.272,334.9145178794861L881.6640000000001,335.36943007707595L882.8960000000001,336.190939950943L884.8,334.7295803189278L886.76,336.12151354551315L888.048,335.9283358097076L888.216,336.05769950151443L888.9440000000001,334.9795305490494L891.912,336.0475029230118L891.968,335.4988883972168L893.032,335.7568489909172L893.2,335.08109829425814L893.704,335.0366364955902L893.76,336.302583360672L894.096,335.70968277454375L895.216,336.1396228551865L895.328,335.9815837740898L899.92,335.2010674953461L900.2560000000001,334.891490149498L904.456,336.06955432891846L907.816,336.47915682792666L908.1519999999999,336.46985696554185L909.4399999999999,336.38098443746566L911.5120000000001,336.5942797064781L911.568,335.9743987798691L911.904,334.4390518069267L912.4079999999999,336.5894198656082L913.36,335.6146293640137L914.0319999999999,335.6665683031082L914.368,336.72533093690873L915.4879999999999,336.93099811077116L917.672,335.9344648718834L920.4720000000001,336.49739381074903L921.816,335.9813967704773L923.104,335.7983743071556L925.1200000000001,336.0097612380981L926.464,337.0134118795395L926.632,336.21799013614657L930.8320000000001,337.16997821331023L931.1679999999999,337.34922831058503L932.848,337.60181686878207L933.352,336.80203095674517L933.576,336.4067961931229L933.9119999999999,336.2331456899643L937.216,335.51101133823397L939.064,336.7537990450859L939.12,337.4851003289223L939.5680000000001,336.283038854599L939.7919999999999,336.7950292110443L940.744,336.71307055950166L941.0799999999999,337.48855726718904L941.304,337.6406084775925L942.8159999999999,337.091668009758L944.328,337.06153789758685L945.3919999999999,336.7585732698441L947.184,336.22486796379087L947.24,336.91033308506013L947.2959999999999,337.6851431250572L948.64,336.91705094575883L952.952,337.59161803722384L956.48,336.7503150701523L958.832,336.4831116914749L959.056,336.88449654579165L961.52,337.2343562722206L962.5840000000001,338.11022186279297L964.656,336.459779047966L966.336,336.6193855047226L966.7280000000001,336.58619499206543L967.2879999999999,337.13687031269075L969.5840000000001,336.71578323841095L970.536,334.2603537082672L970.8720000000001,337.7795071005821L971.2640000000001,337.2523867249489L973.8960000000001,337.9812674760818L974.176,338.04099372625353L975.072,337.3386592268944L975.408,337.6143408536911L975.968,337.30927712917327L976.9760000000001,338.0150017261505L977.928,337.58021306991577L978.04,338.05933434963225L979.8320000000001,336.13486139774324L981.568,337.86917420625684L984.2,337.6600320696831L984.872,337.37661269903185L985.488,337.92837023735046L989.072,337.3326698541641L990.808,337.5269748687744L992.8800000000001,338.11128079891205L994.224,337.3533964633942L994.728,338.058596098423L995.064,338.249629676342L995.9040000000001,337.8336097240448L997.64,338.1575563073158L997.808,337.95676324367525L998.872,337.9367072939873L999.936,338.3858546733856L1006.2639999999999,338.19631562232973L1006.712,338.28935104608536L1007.048,338.8563475012779L1008.392,337.54243383407595L1008.448,338.1662613630295L1010.5759999999999,337.1186415910721L1012.088,338.355895793438L1012.76,338.8124564766884L1013.936,338.1620083451271L1017.24,338.45184742212297L1017.968,338.4677449822426L1018.528,338.40251902341845L1018.7520000000001,338.2810725688934L1021.384,335.45646636486055L1025.416,337.3663432717323L1026.648,338.54676189422605L1026.872,338.42472063302995L1027.04,338.82296097278595L1027.6000000000001,338.30885274410247L1028.72,338.5024720788002L1030.176,338.47003934383395L1032.08,339.2606230258942L1032.584,338.6494877099991L1035.72,338.30514496564865L1038.744,338.30011389255526L1040.2,339.03024884462354L1040.48,338.70100382566454L1041.6,338.6529131054878L1044.456,338.38836007118226L1044.68,338.35705386400224L1046.472,338.994031727314L1049.2160000000001,338.53950705528257L1050.336,338.7397698998451L1052.1280000000002,338.97612819671633L1052.6879999999999,337.9829384922981L1052.744,338.9987638950348L1054.144,338.6416921377182L1054.648,338.9910336613655L1055.432,338.76257382631303L1057.784,339.0957722067833L1059.184,338.0804109334946L1063.384,338.8018573522568L1067.136,338.9964252233505L1068.872,338.5234652996063L1070.776,339.4231719732285L1070.832,339.6070663690567L1072.064,339.08691544532775L1074.192,339.0963865399361L1074.472,339.05437381267546L1074.752,339.3466236591339L1076.824,339.0171661019325L1077.272,339.552978014946L1078.056,339.4381728172302L1078.672,339.70032860040664L1079.68,338.08280593156815L1079.792,339.4821179151535L1081.0800000000002,339.6135206222534L1081.136,339.0292462348938L1081.192,338.6953539133072L1081.36,339.2729667663574L1082.424,339.25913150310515L1084.384,339.06042101383207L1085.336,339.60349677801133L1086.064,339.8859953999519L1086.12,339.4605441570282L1087.296,338.9099567055702L1087.856,339.26243898868563L1088.304,340.0114177465439L1088.864,339.1408933997154L1091.608,339.22498193979266L1092.056,339.76131055355074L1092.28,339.02290163040163L1093.848,339.2968589186668L1094.632,340.1094879984856L1094.968,339.1281688928604L1095.752,339.1065395593643L1096.256,339.4447472333908L1096.6480000000001,339.5613518714905L1096.704,339.55906727313993L1096.928,339.0601221084595L1098.328,339.548550760746L1098.888,339.29549506902697L1099.112,339.0141642808914L1100.008,339.2805227637291L1100.792,339.0419744968414L1102.808,339.5936772108078L1103.2559999999999,338.67629156112673L1103.872,339.0953899383545L1106.616,339.5240998506546L1106.672,339.2889529466629L1106.952,339.73806953430176L1108.4640000000002,340.08798108100893L1110.5919999999999,339.6932367324829L1116.808,339.57657727003095L1117.312,340.01018832921983L1118.208,338.98640288114547L1118.376,339.5135690689087L1118.8799999999999,339.9709889173508L1120.4479999999999,339.8111391305923L1122.352,339.9130959033966L1122.408,339.675466132164L1122.912,338.92579343318937L1123.08,339.7615764141083L1125.264,339.82367663383485L1126.664,339.34588240385057L1127.504,339.7845320463181L1127.616,339.38744752407075L1128.064,339.15966135263443L1128.96,339.663331925869L1130.0800000000002,339.3149314284325L1131.424,340.14995512962344L1132.656,339.6831941127777L1134.224,340.26064587235453L1134.896,339.8616421222687L1137.248,339.43798130750656L1137.4160000000002,339.9179437279701L1139.712,340.17555359601977L1140.16,340.4763646781445L1144.6960000000001,339.6116303086281L1144.752,340.2831456363201L1149.624,340.38436678648L1150.0720000000001,340.3364409148693L1152.536,339.32927287817L1152.592,339.7611258029938L1155.448,339.9979640007019L1155.952,339.43617285490035L1158.808,340.0493171453476L1159.368,340.0367864012718L1159.76,339.8323944568634L1161.384,340.5494365274906L1163.4560000000001,339.868052816391L1164.4080000000001,340.4859334051609L1166.76,340.6602004945278L1169.4479999999999,340.5186755597591L1171.688,340.59245599508284L1173.088,339.87940521240233L1174.152,340.1587788462639L1174.432,340.4884917497635L1174.712,340.2473092854023L1175.72,340.38892021179197L1176,340.02002892494204L1176.28,340.22261429429057L1176.952,339.5390608906746L1178.128,339.56662927865983L1180.76,340.07504403591156L1181.9360000000001,339.6011919021606L1184.008,340.52565402388575L1184.904,340.67144098877907L1186.808,339.62577348947525L1187.424,340.31636994481084L1188.152,340.37843524217607L1190.224,340.7556158959866L1190.616,339.84376487731936L1190.8400000000001,340.7364750623703L1192.24,340.43269633054734L1193.6960000000001,340.24342238903046L1198.232,340.37081878781316L1198.3999999999999,340.1653412461281L1198.68,340.22945081591604L1201.48,339.9773695707321L1202.6,340.42864721417425L1203.44,340.2470407962799L1203.608,340.8255007982254L1203.72,340.38459359407426L1204.84,340.04637916088103L1205.1760000000002,339.5380042076111L1206.464,340.48993971347807L1207.864,340.2748134613037L1207.976,339.18643441200254L1208.704,339.7524305105209L1210.944,340.40042769312856L1211.28,339.68469389677045L1212.064,340.6510207951069L1212.6799999999998,340.33427197337153L1213.184,340.3991611003876L1213.408,340.4331026315689L1215.76,339.7906393289566L1216.152,340.41431627869605L1216.376,339.92298831939695L1216.656,340.3792546033859L1216.712,339.6996023654938L1218.952,340.1852875471115L1220.0159999999998,340.6098736166954L1221.528,340.59551752209666L1222.816,340.6523392081261L1226.736,340.9426022350788L1227.296,339.9624558448792L1227.968,340.53059309720993L1228.92,340.37743188142775L1229.816,340.42225341796876L1230.264,340.75662488937377L1230.768,340.52437428832053L1231.16,340.32521431446077L1233.4,340.9450299024582L1234.1280000000002,340.0614919066429L1234.408,340.7812000930309L1234.744,340.4873885035515L1234.912,340.5984934329987L1239.168,340.3622410297394L1239.224,340.1585430264473L1239.336,340.31500271558764L1241.6879999999999,340.41268318891525L1241.856,340.16526539325713L1243.592,340.6652022778988L1244.824,340.4123272061348L1245.104,340.9427963733673L1245.272,340.6660115003586L1245.5520000000001,340.6287812590599L1247.848,340.2882649540901L1248.688,340.55049208402636L1249.528,340.61284427046775L1250.0320000000002,340.8135062813759L1250.144,340.9670918226242L1251.208,340.74467693567277L1252.328,340.6453216910362L1252.8880000000001,340.6067328572273L1253.672,340.74040326476097L1253.728,340.2273994088173L1255.9679999999998,340.9719937205315L1256.08,340.83967965245245L1257.3120000000001,340.87179958820343L1258.6000000000001,341.0125885248184L1260.896,340.62943764925L1261.624,340.6962865591049L1261.68,340.4040156841278L1262.24,340.69737553596497L1262.7440000000001,340.71313415765763L1262.8,340.80773132443426L1262.912,340.7291766643524L1263.192,340.4165471792221L1263.808,340.7267294704914L1267.896,340.64362476468085L1269.968,340.9403491795063L1270.0240000000001,340.7180856227875L1270.9759999999999,340.9542922139168L1271.2,340.6309070169926L1273.2720000000002,340.79223105311394L1275.008,340.9641823768616L1275.0639999999999,340.5487726271152L1275.232,340.74546926021577L1275.288,340.90314372181894L1277.192,340.31368880867956L1277.472,340.55897971987724L1277.9759999999999,340.5727785587311L1278.256,340.5254711508751L1279.32,340.9245436191559L1281.168,340.71813519001006L1282.512,340.85232455134394L1282.568,340.7022597849369L1284.584,340.4996376156807L1286.712,341.10609371066096L1288.952,340.4229210734367L1289.288,340.4796090781689L1289.3999999999999,339.9647171616554L1289.456,341.0467722594738L1290.4640000000002,340.79166703820226L1291.192,340.8574739098549L1291.6960000000001,340.6728461444378L1291.92,340.77599741220473L1295.504,340.7752850711346L1299.144,340.902711135149L1300.432,340.59831131100657L1301.328,340.9836878299713L1302.4479999999999,340.6601595640183L1305.136,340.949902510643L1305.3039999999999,340.64205025434495L1305.584,341.055525380373L1309.336,341.1494901895523L1310.344,340.88495818376543L1314.544,341.18192555308343L1316.7279999999998,341.0518112182617L1316.7839999999999,341.13134370446204L1318.688,340.5666923046112L1320.312,340.6962951958179L1321.04,340.927958124876L1321.656,340.65257239937785L1322.8319999999999,341.107454931736L1323.84,341.12540051937106L1324.624,340.6987664222717L1324.68,340.65668535232544" style="fill: none;" fill="none"></path></g></g></g></g></g></g><g transform="translate(40, 378)" clip-path="url(#clip_1)"><clipPath id="clip_1"><rect width="1456" height="22"></rect></clipPath><g><g><line x1="0" y1="0" x2="0" y2="5" style="visibility: inherit;" fill="rgb(0, 0, 0)" stroke="rgb(204, 204, 204)" stroke-width="1px"></line><line x1="112" y1="0" x2="112" y2="5" style="visibility: inherit;" fill="rgb(0, 0, 0)" stroke="rgb(204, 204, 204)" stroke-width="1px"></line><line x1="224" y1="0" x2="224" y2="5" style="visibility: inherit;" fill="rgb(0, 0, 0)" stroke="rgb(204, 204, 204)" stroke-width="1px"></line><line x1="336" y1="0" x2="336" y2="5" style="visibility: inherit;" fill="rgb(0, 0, 0)" stroke="rgb(204, 204, 204)" stroke-width="1px"></line><line x1="448" y1="0" x2="448" y2="5" style="visibility: inherit;" fill="rgb(0, 0, 0)" stroke="rgb(204, 204, 204)" stroke-width="1px"></line><line x1="560" y1="0" x2="560" y2="5" style="visibility: inherit;" fill="rgb(0, 0, 0)" stroke="rgb(204, 204, 204)" stroke-width="1px"></line><line x1="672" y1="0" x2="672" y2="5" style="visibility: inherit;" fill="rgb(0, 0, 0)" stroke="rgb(204, 204, 204)" stroke-width="1px"></line><line x1="784" y1="0" x2="784" y2="5" style="visibility: inherit;" fill="rgb(0, 0, 0)" stroke="rgb(204, 204, 204)" stroke-width="1px"></line><line x1="896" y1="0" x2="896" y2="5" style="visibility: inherit;" fill="rgb(0, 0, 0)" stroke="rgb(204, 204, 204)" stroke-width="1px"></line><line x1="1008" y1="0" x2="1008" y2="5" style="visibility: inherit;" fill="rgb(0, 0, 0)" stroke="rgb(204, 204, 204)" stroke-width="1px"></line><line x1="1120" y1="0" x2="1120" y2="5" style="visibility: inherit;" fill="rgb(0, 0, 0)" stroke="rgb(204, 204, 204)" stroke-width="1px"></line><line x1="1232" y1="0" x2="1232" y2="5" style="visibility: inherit;" fill="rgb(0, 0, 0)" stroke="rgb(204, 204, 204)" stroke-width="1px"></line><line x1="1344" y1="0" x2="1344" y2="5" style="visibility: inherit;" fill="rgb(0, 0, 0)" stroke="rgb(204, 204, 204)" stroke-width="1px"></line><line x1="1456" y1="0" x2="1456" y2="5" style="visibility: inherit;" fill="rgb(0, 0, 0)" stroke="rgb(204, 204, 204)" stroke-width="1px"></line></g><g transform="translate(0, 8)"><text x="0" y="0" dx="0em" dy="0.95em" style="text-anchor: middle; visibility: hidden; font-family: &quot;Helvetica Neue&quot;, sans-serif; font-size: 12px; font-weight: 200;" fill="rgb(50, 49, 63)" stroke="none" stroke-width="1px">-2k</text><text x="112" y="0" dx="0em" dy="0.95em" style="text-anchor: middle; visibility: inherit; font-family: &quot;Helvetica Neue&quot;, sans-serif; font-size: 12px; font-weight: 200;" fill="rgb(50, 49, 63)" stroke="none" stroke-width="1px">0</text><text x="224" y="0" dx="0em" dy="0.95em" style="text-anchor: middle; visibility: inherit; font-family: &quot;Helvetica Neue&quot;, sans-serif; font-size: 12px; font-weight: 200;" fill="rgb(50, 49, 63)" stroke="none" stroke-width="1px">2k</text><text x="336" y="0" dx="0em" dy="0.95em" style="text-anchor: middle; visibility: inherit; font-family: &quot;Helvetica Neue&quot;, sans-serif; font-size: 12px; font-weight: 200;" fill="rgb(50, 49, 63)" stroke="none" stroke-width="1px">4k</text><text x="448" y="0" dx="0em" dy="0.95em" style="text-anchor: middle; visibility: inherit; font-family: &quot;Helvetica Neue&quot;, sans-serif; font-size: 12px; font-weight: 200;" fill="rgb(50, 49, 63)" stroke="none" stroke-width="1px">6k</text><text x="560" y="0" dx="0em" dy="0.95em" style="text-anchor: middle; visibility: inherit; font-family: &quot;Helvetica Neue&quot;, sans-serif; font-size: 12px; font-weight: 200;" fill="rgb(50, 49, 63)" stroke="none" stroke-width="1px">8k</text><text x="672" y="0" dx="0em" dy="0.95em" style="text-anchor: middle; visibility: inherit; font-family: &quot;Helvetica Neue&quot;, sans-serif; font-size: 12px; font-weight: 200;" fill="rgb(50, 49, 63)" stroke="none" stroke-width="1px">10k</text><text x="784" y="0" dx="0em" dy="0.95em" style="text-anchor: middle; visibility: inherit; font-family: &quot;Helvetica Neue&quot;, sans-serif; font-size: 12px; font-weight: 200;" fill="rgb(50, 49, 63)" stroke="none" stroke-width="1px">12k</text><text x="896" y="0" dx="0em" dy="0.95em" style="text-anchor: middle; visibility: inherit; font-family: &quot;Helvetica Neue&quot;, sans-serif; font-size: 12px; font-weight: 200;" fill="rgb(50, 49, 63)" stroke="none" stroke-width="1px">14k</text><text x="1008" y="0" dx="0em" dy="0.95em" style="text-anchor: middle; visibility: inherit; font-family: &quot;Helvetica Neue&quot;, sans-serif; font-size: 12px; font-weight: 200;" fill="rgb(50, 49, 63)" stroke="none" stroke-width="1px">16k</text><text x="1120" y="0" dx="0em" dy="0.95em" style="text-anchor: middle; visibility: inherit; font-family: &quot;Helvetica Neue&quot;, sans-serif; font-size: 12px; font-weight: 200;" fill="rgb(50, 49, 63)" stroke="none" stroke-width="1px">18k</text><text x="1232" y="0" dx="0em" dy="0.95em" style="text-anchor: middle; visibility: inherit; font-family: &quot;Helvetica Neue&quot;, sans-serif; font-size: 12px; font-weight: 200;" fill="rgb(50, 49, 63)" stroke="none" stroke-width="1px">20k</text><text x="1344" y="0" dx="0em" dy="0.95em" style="text-anchor: middle; visibility: inherit; font-family: &quot;Helvetica Neue&quot;, sans-serif; font-size: 12px; font-weight: 200;" fill="rgb(50, 49, 63)" stroke="none" stroke-width="1px">22k</text><text x="1456" y="0" dx="0em" dy="0.95em" style="text-anchor: middle; visibility: hidden; font-family: &quot;Helvetica Neue&quot;, sans-serif; font-size: 12px; font-weight: 200;" fill="rgb(50, 49, 63)" stroke="none" stroke-width="1px">24k</text></g><line x1="0" y1="0" x2="1456" y2="0" fill="rgb(0, 0, 0)" stroke="rgb(204, 204, 204)" stroke-width="1px"></line></g></g></g></g></svg>