<svg viewBox="0 0 330 200" xmlns="http://www.w3.org/2000/svg"><g><g><g><g><g><line x1="40" y1="178" x2="35" y2="178" style="visibility: inherit;" fill="rgb(0, 0, 0)" stroke="rgb(204, 204, 204)" stroke-width="1px"></line><line x1="40" y1="163.16666666666666" x2="35" y2="163.16666666666666" style="visibility: inherit;" fill="rgb(0, 0, 0)" stroke="rgb(204, 204, 204)" stroke-width="1px"></line><line x1="40" y1="148.33333333333334" x2="35" y2="148.33333333333334" style="visibility: inherit;" fill="rgb(0, 0, 0)" stroke="rgb(204, 204, 204)" stroke-width="1px"></line><line x1="40" y1="133.5" x2="35" y2="133.5" style="visibility: inherit;" fill="rgb(0, 0, 0)" stroke="rgb(204, 204, 204)" stroke-width="1px"></line><line x1="40" y1="118.66666666666667" x2="35" y2="118.66666666666667" style="visibility: inherit;" fill="rgb(0, 0, 0)" stroke="rgb(204, 204, 204)" stroke-width="1px"></line><line x1="40" y1="103.83333333333333" x2="35" y2="103.83333333333333" style="visibility: inherit;" fill="rgb(0, 0, 0)" stroke="rgb(204, 204, 204)" stroke-width="1px"></line><line x1="40" y1="89" x2="35" y2="89" style="visibility: inherit;" fill="rgb(0, 0, 0)" stroke="rgb(204, 204, 204)" stroke-width="1px"></line><line x1="40" y1="74.16666666666666" x2="35" y2="74.16666666666666" style="visibility: inherit;" fill="rgb(0, 0, 0)" stroke="rgb(204, 204, 204)" stroke-width="1px"></line><line x1="40" y1="59.33333333333334" x2="35" y2="59.33333333333334" style="visibility: inherit;" fill="rgb(0, 0, 0)" stroke="rgb(204, 204, 204)" stroke-width="1px"></line><line x1="40" y1="44.5" x2="35" y2="44.5" style="visibility: inherit;" fill="rgb(0, 0, 0)" stroke="rgb(204, 204, 204)" stroke-width="1px"></line><line x1="40" y1="29.666666666666657" x2="35" y2="29.666666666666657" style="visibility: inherit;" fill="rgb(0, 0, 0)" stroke="rgb(204, 204, 204)" stroke-width="1px"></line><line x1="40" y1="14.833333333333343" x2="35" y2="14.833333333333343" style="visibility: inherit;" fill="rgb(0, 0, 0)" stroke="rgb(204, 204, 204)" stroke-width="1px"></line><line x1="40" y1="0" x2="35" y2="0" style="visibility: inherit;" fill="rgb(0, 0, 0)" stroke="rgb(204, 204, 204)" stroke-width="1px"></line></g><g transform="translate(30, 0)"><text x="0" y="178" dx="0em" dy="0.3em" style="text-anchor: end; visibility: hidden; font-family: &quot;Helvetica Neue&quot;, sans-serif; font-size: 12px; font-weight: 200;" fill="rgb(50, 49, 63)" stroke="none" stroke-width="1px">-10</text><text x="0" y="163.16666666666666" dx="0em" dy="0.3em" style="text-anchor: end; visibility: inherit; font-family: &quot;Helvetica Neue&quot;, sans-serif; font-size: 12px; font-weight: 200;" fill="rgb(50, 49, 63)" stroke="none" stroke-width="1px">0</text><text x="0" y="148.33333333333334" dx="0em" dy="0.3em" style="text-anchor: end; visibility: hidden; font-family: &quot;Helvetica Neue&quot;, sans-serif; font-size: 12px; font-weight: 200;" fill="rgb(50, 49, 63)" stroke="none" stroke-width="1px">10</text><text x="0" y="133.5" dx="0em" dy="0.3em" style="text-anchor: end; visibility: inherit; font-family: &quot;Helvetica Neue&quot;, sans-serif; font-size: 12px; font-weight: 200;" fill="rgb(50, 49, 63)" stroke="none" stroke-width="1px">20</text><text x="0" y="118.66666666666667" dx="0em" dy="0.3em" style="text-anchor: end; visibility: hidden; font-family: &quot;Helvetica Neue&quot;, sans-serif; font-size: 12px; font-weight: 200;" fill="rgb(50, 49, 63)" stroke="none" stroke-width="1px">30</text><text x="0" y="103.83333333333333" dx="0em" dy="0.3em" style="text-anchor: end; visibility: inherit; font-family: &quot;Helvetica Neue&quot;, sans-serif; font-size: 12px; font-weight: 200;" fill="rgb(50, 49, 63)" stroke="none" stroke-width="1px">40</text><text x="0" y="89" dx="0em" dy="0.3em" style="text-anchor: end; visibility: hidden; font-family: &quot;Helvetica Neue&quot;, sans-serif; font-size: 12px; font-weight: 200;" fill="rgb(50, 49, 63)" stroke="none" stroke-width="1px">50</text><text x="0" y="74.16666666666666" dx="0em" dy="0.3em" style="text-anchor: end; visibility: inherit; font-family: &quot;Helvetica Neue&quot;, sans-serif; font-size: 12px; font-weight: 200;" fill="rgb(50, 49, 63)" stroke="none" stroke-width="1px">60</text><text x="0" y="59.33333333333334" dx="0em" dy="0.3em" style="text-anchor: end; visibility: hidden; font-family: &quot;Helvetica Neue&quot;, sans-serif; font-size: 12px; font-weight: 200;" fill="rgb(50, 49, 63)" stroke="none" stroke-width="1px">70</text><text x="0" y="44.5" dx="0em" dy="0.3em" style="text-anchor: end; visibility: inherit; font-family: &quot;Helvetica Neue&quot;, sans-serif; font-size: 12px; font-weight: 200;" fill="rgb(50, 49, 63)" stroke="none" stroke-width="1px">80</text><text x="0" y="29.666666666666657" dx="0em" dy="0.3em" style="text-anchor: end; visibility: hidden; font-family: &quot;Helvetica Neue&quot;, sans-serif; font-size: 12px; font-weight: 200;" fill="rgb(50, 49, 63)" stroke="none" stroke-width="1px">90</text><text x="0" y="14.833333333333343" dx="0em" dy="0.3em" style="text-anchor: end; visibility: inherit; font-family: &quot;Helvetica Neue&quot;, sans-serif; font-size: 12px; font-weight: 200;" fill="rgb(50, 49, 63)" stroke="none" stroke-width="1px">100</text><text x="0" y="0" dx="0em" dy="0.3em" style="text-anchor: end; visibility: hidden; font-family: &quot;Helvetica Neue&quot;, sans-serif; font-size: 12px; font-weight: 200;" fill="rgb(50, 49, 63)" stroke="none" stroke-width="1px">110</text></g><line x1="40" y1="0" x2="40" y2="178" fill="rgb(0, 0, 0)" stroke="rgb(204, 204, 204)" stroke-width="1px"></line></g></g><g transform="translate(40, 0)" clip-path="url(#clip_0)"><clipPath id="clip_0"><rect width="290" height="178"></rect></clipPath><g><g><g><line x1="0" y1="0" x2="0" y2="178" fill="rgb(0, 0, 0)" stroke="rgb(60, 60, 60)" stroke-width="1px" opacity="0.25"></line><line x1="22.30769230769231" y1="0" x2="22.30769230769231" y2="178" fill="rgb(0, 0, 0)" stroke="rgb(60, 60, 60)" stroke-width="1px" opacity="0.25"></line><line x1="44.61538461538462" y1="0" x2="44.61538461538462" y2="178" fill="rgb(0, 0, 0)" stroke="rgb(60, 60, 60)" stroke-width="1px" opacity="0.25"></line><line x1="66.92307692307692" y1="0" x2="66.92307692307692" y2="178" fill="rgb(0, 0, 0)" stroke="rgb(60, 60, 60)" stroke-width="1px" opacity="0.25"></line><line x1="89.23076923076924" y1="0" x2="89.23076923076924" y2="178" fill="rgb(0, 0, 0)" stroke="rgb(60, 60, 60)" stroke-width="1px" opacity="0.25"></line><line x1="111.53846153846155" y1="0" x2="111.53846153846155" y2="178" fill="rgb(0, 0, 0)" stroke="rgb(60, 60, 60)" stroke-width="1px" opacity="0.25"></line><line x1="133.84615384615384" y1="0" x2="133.84615384615384" y2="178" fill="rgb(0, 0, 0)" stroke="rgb(60, 60, 60)" stroke-width="1px" opacity="0.25"></line><line x1="156.15384615384616" y1="0" x2="156.15384615384616" y2="178" fill="rgb(0, 0, 0)" stroke="rgb(60, 60, 60)" stroke-width="1px" opacity="0.25"></line><line x1="178.46153846153848" y1="0" x2="178.46153846153848" y2="178" fill="rgb(0, 0, 0)" stroke="rgb(60, 60, 60)" stroke-width="1px" opacity="0.25"></line><line x1="200.76923076923077" y1="0" x2="200.76923076923077" y2="178" fill="rgb(0, 0, 0)" stroke="rgb(60, 60, 60)" stroke-width="1px" opacity="0.25"></line><line x1="223.0769230769231" y1="0" x2="223.0769230769231" y2="178" fill="rgb(0, 0, 0)" stroke="rgb(60, 60, 60)" stroke-width="1px" opacity="0.25"></line><line x1="245.3846153846154" y1="0" x2="245.3846153846154" y2="178" fill="rgb(0, 0, 0)" stroke="rgb(60, 60, 60)" stroke-width="1px" opacity="0.25"></line><line x1="267.6923076923077" y1="0" x2="267.6923076923077" y2="178" fill="rgb(0, 0, 0)" stroke="rgb(60, 60, 60)" stroke-width="1px" opacity="0.25"></line><line x1="290" y1="0" x2="290" y2="178" fill="rgb(0, 0, 0)" stroke="rgb(60, 60, 60)" stroke-width="1px" opacity="0.25"></line></g><g><line x1="0" y1="178" x2="290" y2="178" fill="rgb(0, 0, 0)" stroke="rgb(60, 60, 60)" stroke-width="1px" opacity="0.25"></line><line x1="0" y1="163.16666666666666" x2="290" y2="163.16666666666666" fill="rgb(0, 0, 0)" stroke="rgb(60, 60, 60)" stroke-width="1px" opacity="0.25"></line><line x1="0" y1="148.33333333333334" x2="290" y2="148.33333333333334" fill="rgb(0, 0, 0)" stroke="rgb(60, 60, 60)" stroke-width="1px" opacity="0.25"></line><line x1="0" y1="133.5" x2="290" y2="133.5" fill="rgb(0, 0, 0)" stroke="rgb(60, 60, 60)" stroke-width="1px" opacity="0.25"></line><line x1="0" y1="118.66666666666667" x2="290" y2="118.66666666666667" fill="rgb(0, 0, 0)" stroke="rgb(60, 60, 60)" stroke-width="1px" opacity="0.25"></line><line x1="0" y1="103.83333333333333" x2="290" y2="103.83333333333333" fill="rgb(0, 0, 0)" stroke="rgb(60, 60, 60)" stroke-width="1px" opacity="0.25"></line><line x1="0" y1="89" x2="290" y2="89" fill="rgb(0, 0, 0)" stroke="rgb(60, 60, 60)" stroke-width="1px" opacity="0.25"></line><line x1="0" y1="74.16666666666666" x2="290" y2="74.16666666666666" fill="rgb(0, 0, 0)" stroke="rgb(60, 60, 60)" stroke-width="1px" opacity="0.25"></line><line x1="0" y1="59.33333333333334" x2="290" y2="59.33333333333334" fill="rgb(0, 0, 0)" stroke="rgb(60, 60, 60)" stroke-width="1px" opacity="0.25"></line><line x1="0" y1="44.5" x2="290" y2="44.5" fill="rgb(0, 0, 0)" stroke="rgb(60, 60, 60)" stroke-width="1px" opacity="0.25"></line><line x1="0" y1="29.666666666666657" x2="290" y2="29.666666666666657" fill="rgb(0, 0, 0)" stroke="rgb(60, 60, 60)" stroke-width="1px" opacity="0.25"></line><line x1="0" y1="14.833333333333343" x2="290" y2="14.833333333333343" fill="rgb(0, 0, 0)" stroke="rgb(60, 60, 60)" stroke-width="1px" opacity="0.25"></line><line x1="0" y1="0" x2="290" y2="0" fill="rgb(0, 0, 0)" stroke="rgb(60, 60, 60)" stroke-width="1px" opacity="0.25"></line></g></g></g><g><g><line x1="0" y1="163.16666666666666" x2="290" y2="163.16666666666666" fill="rgb(0, 0, 0)" stroke="rgb(153, 153, 153)" stroke-width="1.5px"></line></g></g><g><g><line x1="22.30769230769231" y1="0" x2="22.30769230769231" y2="178" fill="rgb(0, 0, 0)" stroke="rgb(153, 153, 153)" stroke-width="1.5px"></line></g></g><g><g><g><g><g><path stroke="rgb(255, 112, 67)" stroke-width="2px" d="M22.396923076923077,141.55936390558878L22.664615384615384,79.63830900589625L22.698076923076925,55.33685044723303L22.988076923076925,44.69808257432547L23.244615384615386,38.69283650528632L23.95846153846154,33.822979053207234L24.058846153846154,32.35157368471755L24.750384615384615,29.379136405340034L24.806153846153844,31.057265887287485L25.040384615384617,31.124666420477553L25.241153846153846,32.26858379075409L25.63153846153846,33.189393945717626L25.653846153846157,33.7788378830912L25.743076923076924,34.13002687008802L26.06653846153846,31.76799287044173L26.289615384615384,33.47998215395131L26.891923076923074,34.80842340195747L27.326923076923077,28.46140538963479L27.483076923076926,31.77747254765677L28.174615384615386,34.742996219195476L28.47576923076923,36.779150147955875L28.654230769230768,38.158972432765324L28.732307692307693,38.95284425791354L28.74346153846154,39.557344082998554L29.267692307692307,40.25539557630671L29.412692307692307,40.84666390166166L29.568846153846156,41.25917689430358L29.680384615384618,41.321851593364585L30.16,41.943627745988636L30.24923076923077,42.347769601928604L30.728846153846156,37.34724009770241L30.773461538461536,39.92310317475847L30.79576923076923,41.22588619802255L30.951923076923077,42.118072637930425L30.974230769230772,42.197692237284514L31.052307692307693,42.97738905239851L31.14153846153846,42.94176195294713L31.20846153846154,43.816053217902066L31.520769230769233,44.28831657331358L32.736538461538466,45.828365922609294L33.026538461538465,46.68462519593527L33.0376923076923,47.14429033588132L33.104615384615386,47.662566073830135L33.37230769230769,48.495445935132466L33.40576923076923,48.95695882496207L33.50615384615384,49.13917097166504L34.052692307692304,49.4108012178562L34.08615384615385,49.579587216720114L34.387307692307694,49.180609538278645L34.45423076923077,49.83032210318075L34.51,50.41750793883189L35.089999999999996,51.04631932832376L35.14576923076923,51.692641399648366L35.15692307692308,51.99521359345147L35.35769230769231,52.566706810042575L35.50269230769231,53.03216514844436L36.07153846153846,53.57316012218848L36.261153846153846,54.360542801828814L36.87461538461538,55.339106493678756L36.908076923076926,56.09219624687461L37.064230769230775,55.6097465607875L37.10884615384615,55.345576889516124L37.644230769230774,56.31726119311723L37.722307692307695,56.229440069548716L37.9676923076923,57.20859838824616L38.10153846153846,57.86715920588064L38.213076923076926,58.02275239201796L38.54769230769231,58.84792018317627L38.67038461538461,59.537196832399275L38.82653846153846,59.81937773078721L39.183461538461536,60.45720738798407L39.50692307692308,60.99844639120515L39.68538461538461,61.88841638615537L39.863846153846154,62.49046748509491L39.90846153846154,62.8562928201585L40.09807692307692,63.244052740841866L40.488461538461536,63.93590013001945L40.95692307692308,64.60089554676168L41.05730769230769,65.07218537900104L41.25807692307692,65.61230638527825L41.35846153846154,66.05973358295734L41.51461538461539,66.3402990222516L41.536923076923074,66.78604805552219L41.57038461538462,67.01738287180613L42.06115384615384,67.58043302915463L42.56307692307692,67.96564713133554L42.76384615384615,68.62591377623787L42.86423076923077,69.47856724259005L43.00923076923077,70.27980269906965L43.04269230769231,70.6069867423259L43.13192307692307,70.70594889150557L43.57807692307692,71.28490478412209L43.7676923076923,71.73966245462042L43.87923076923077,71.99986698672893L43.9126923076923,72.2613254756474L44.515,72.77827602371039L44.64884615384615,73.77826108541764L44.90538461538462,74.35608450973041L45.362692307692306,75.3251466266553L45.45192307692307,76.05279869987014L45.49653846153846,76.4286813764976L45.574615384615385,76.8048122296258L46.16576923076923,77.32602571464722L46.24384615384616,77.98980966300057L46.589615384615385,78.66184122179122L46.634230769230776,79.1308070239276L46.723461538461535,79.06091788948677L46.8573076923077,79.70739810511132L47.08038461538461,80.14518486526407L47.136153846153846,80.44605157772777L47.14730769230769,80.52947230100678L47.370384615384616,80.9406843520803L47.42615384615385,81.34331368233379L47.81653846153846,81.6850823713876L47.92807692307693,82.11384544334035L48.06192307692308,82.28117212908202L48.35192307692308,82.36481907639941L48.45230769230769,83.13752339367491L48.84269230769231,83.60476061314994L48.853846153846156,84.14980832304947L48.87615384615384,84.54080479363436L49.36692307692308,85.14174318603575L49.55653846153846,85.61889555151403L49.57884615384616,86.0731212359377L49.63461538461539,85.85557676683118L49.91346153846154,86.44859154858341L49.924615384615386,86.756047680208L50.036153846153844,87.01285694573059L50.058461538461536,87.13712011734883L50.114230769230765,86.47948815520748L50.270384615384614,86.8631700863211L50.33730769230769,87.253900917556L50.43769230769231,87.51003850789039L50.605,87.97885470365188L50.67192307692307,87.0230064867419L52.14423076923077,88.50189392398686L52.345,89.83949555137292L52.7576923076923,90.75437937326352L52.91384615384615,91.84973203985166L53.30423076923077,92.51124407518867L54.23,93.61801284831144L54.497692307692304,94.28204695154058L55.28961538461538,95.55635066848293L55.378846153846155,96.27875015430429L55.78038461538461,96.48375750835406L56.08153846153846,97.42606728984316L56.115,98.45302341528773L56.761923076923075,98.59127612599556L57.45346153846154,99.82193247450684L57.832692307692305,100.36829600000358L57.84384615384616,101.02997049449272L58.22307692307692,101.67694365635548L58.33461538461538,102.04587518327455L58.379230769230766,102.55370647084526L58.401538461538465,102.75606393479393L58.41269230769231,102.59526799954823L59.059615384615384,103.46059186560622L59.50576923076923,103.81637416741874L59.85153846153846,104.57452085054891L60.15269230769231,105.02095510981665L60.20846153846154,105.46809628976693L60.45384615384615,104.5885880035558L60.665769230769236,105.56249321554493L60.83307692307692,105.95194061113034L61.011538461538464,106.74956588136735L62.35,107.13960186911174L62.55076923076923,107.89731011235246L62.573076923076925,108.60893360362567L62.66230769230769,109.06336031984955L62.97461538461538,109.0992321139475L63.13076923076923,109.40911069984637L63.75538461538462,110.18730739280821L63.8,110.69514065618459L63.92269230769231,110.29883116902L64.5026923076923,110.92508442732345L64.73692307692308,111.44885736822677L64.7926923076923,111.50839729141946L64.815,111.77974436341775L64.92653846153846,112.29156688884329L65.29461538461538,112.49274294397492L65.42846153846153,113.36472105833644L66.00846153846153,113.72082695873233L66.32076923076923,113.93348102834813L66.63307692307693,114.32335476080772L67.05692307692308,114.6886029799791L67.17961538461539,115.13876903692952L67.21307692307693,115.5018123966857L67.84884615384615,116.2263519236885L67.90461538461538,116.4171855006283L68.02730769230769,116.61779507519793L68.84153846153846,117.24711734764969L68.97538461538461,117.23918686417656L68.9976923076923,117.37311648353686L69.05346153846153,117.89997035398932L69.0646153846154,117.03537890276223L69.34346153846154,117.63522951857792L69.39923076923077,118.0727978292498L69.4326923076923,118.29338806848085L69.745,118.54918168294643L69.77846153846154,118.46485056504537L70.2023076923077,118.95313492551404L70.3473076923077,119.34380917033526L70.36961538461539,119.51117332467024L71.195,119.8466174011742L71.27307692307693,120.17399864148985L71.64115384615384,120.77792758912975L72.29923076923077,121.36278608940721L72.48884615384615,121.56576508066664L72.72307692307692,121.9547939788199L73.25846153846155,122.44390841549018L73.29192307692307,122.17217311834521L73.81615384615385,122.81955011988815L74.2176923076923,123.13687201681813L74.2623076923077,123.44899803207167L74.35153846153845,123.72506178819646L74.76423076923076,123.82090737066773L74.82000000000001,124.08672554676994L75.17692307692307,124.42080168039757L75.26615384615386,124.85262210117475L75.60076923076922,125.19185636210459L75.7346153846154,125.19203611950884L75.75692307692307,125.56177092199013L76.18076923076923,125.82744682036531L76.31461538461538,125.66986839892084L76.78307692307692,126.1810727524059L77.54153846153847,126.41692532106023L77.64192307692308,126.92973532162378L77.67538461538462,127.00211055129132L78.52307692307691,127.47732543060798L78.54538461538462,128.03399290189913L78.55653846153847,127.75738248633803L79.14769230769231,128.22528117383L79.46000000000001,128.49195343584503L80.19615384615383,129.0698357577961L80.63115384615384,129.76710608775466L81.63499999999999,130.2964942104124L81.81346153846154,130.68394578416166L81.96961538461538,130.55470031809222L82.64999999999999,131.13697562959638L82.89538461538461,131.61589369583237L83.70961538461539,132.38756975377464L83.73192307692308,132.42947336064694L84.08884615384615,132.57941529131085L84.35653846153846,132.80737915779838L84.5126923076923,133.01203306006803L84.99230769230769,133.2304444505021L85.32692307692308,133.42001907864682L85.37153846153846,133.3310899943479L85.53884615384615,133.77210041028468L85.99615384615385,134.0034880598915L86.02961538461538,134.35318684024807L86.62076923076923,134.59038516984302L86.97769230769231,134.96214597566475L87.16730769230769,135.00600331670174L87.20076923076924,135.08194474565664L87.58,135.30668950669573L87.60230769230769,135.01511424417856L87.68038461538461,135.06489739121335L88.08192307692308,135.2034041990916L88.31615384615384,135.67816251457216L88.58384615384615,135.4853036392161L88.63961538461538,135.86356800964052L88.70653846153846,135.98858933788878L89.00769230769231,136.3439022497873L89.23076923076924,136.5109836711411L89.28653846153846,136.15586734298415L89.45384615384616,136.22231452912217L89.50961538461539,136.50778183728534L89.98923076923076,136.67669811441547L90.46884615384616,137.01220885074565L90.58038461538462,137.25516274585183L91.13807692307691,137.63226342408174L91.35,137.67190530583252L91.495,137.18479984294368L91.56192307692307,137.4788137894332L91.70692307692308,137.9185513962185L92.3426923076923,138.19566872530436L92.59923076923076,138.34930489627473L92.655,138.44283784092238L92.9226923076923,138.7567415483441L93.0453846153846,139.09332204387465L93.16807692307692,139.01714307780588L93.31307692307692,139.04752624381896L93.58076923076922,138.82555758843412L94.65153846153846,138.88590504103655L94.69615384615385,139.0985241622155L94.91923076923077,139.7326840939378L95.52153846153846,139.8873494789355L95.63307692307691,140.02522462876755L95.845,140.27664448185038L96.4473076923077,140.31848601518038L96.54769230769232,140.5799066496966L96.68153846153847,140.62777807591823L96.715,140.87204101649007L96.8823076923077,140.8910857790733L96.91576923076923,141.00193530762343L97.04961538461538,141.043215049371L97.35076923076923,141.3691061701764L97.39538461538461,141.5881868580812L97.51807692307692,141.55909153023364L98.39923076923077,141.87887334465387L98.55538461538461,142.1228048620983L98.64461538461538,142.2497241070885L98.81192307692308,142.22442385659724L99.53692307692307,142.35862046106325L99.89384615384616,142.62448379371762L100.18384615384616,142.91254124109466L100.42923076923077,142.81697535195661L101.45538461538462,142.41590711084234L101.54461538461538,142.59256174290513L101.80115384615384,143.0042147572299L102.00192307692308,142.93127567542356L102.68230769230769,143.40804201785383L103.02807692307692,143.74786745085513L103.61923076923077,143.6366760343762L103.74192307692309,143.29097439987174L103.9426923076923,143.8591805108947L104.05423076923077,144.11872635971878L104.06538461538462,144.23422329599487L104.27730769230769,144.41135657255745L104.53384615384616,144.58007037257093L104.74576923076923,144.42414902616503L105.18076923076923,144.61466317515948L105.21423076923078,144.78810321693447L105.29230769230769,145.05182430071528L105.40384615384615,144.98183850361642L105.4373076923077,145.07183361160997L105.60461538461539,145.42853662555362L105.9726923076923,145.6080983661708L106.18461538461538,145.63123396375357L107.06576923076923,145.51116015516865L107.45615384615385,145.52907645147928L107.64576923076923,145.86768576448296L107.81307692307693,145.68750035690346L107.93576923076924,145.67365805105615L108.0026923076923,146.0393932203228L108.28153846153846,145.95973055321622L108.39307692307692,145.89746085619123L108.59384615384616,146.01937358428154L108.75,145.66403998563158L108.97307692307692,145.71789120532753L109.0623076923077,145.85014518716542L109.17384615384616,146.09353824984197L109.56423076923076,146.29929242291746L109.62,146.639875606847L110.30038461538462,146.74075817355646L110.31153846153846,146.75346347703018L110.66846153846154,146.83584406979966L111.32653846153846,147.10922212486318L111.71692307692307,147.53947816144338L111.8396153846154,147.40553449462402L111.97346153846155,147.4674295262727L112.16307692307691,147.42235976196724L113.43461538461538,147.3547172665838L113.47923076923077,147.19111215672356L113.63538461538461,147.6168654751865L113.825,147.31854417753743L113.89192307692308,147.2565492703469L114.36038461538462,147.7180591055126L114.53884615384615,148.06023599634793L114.66153846153847,147.83392044582104L115.07423076923077,148.30746885862828L115.13000000000001,148.50551620439816L115.15230769230769,148.33821797281183L115.21923076923076,148.47784689849422L115.47576923076923,148.3216961736628L115.53153846153846,148.21287046959887L115.63192307692307,148.26755097006296L116.63576923076923,148.5309604984196L116.66923076923077,148.35385857393376L116.98153846153846,148.26227944515168L117.03730769230769,148.46029206487748L117.09307692307692,149.01426578585233L117.74000000000001,149.17293110186216L118.02999999999999,149.13440995073927L118.13038461538461,149.05723739220667L118.49846153846154,149.43548189175507L118.50961538461539,149.54597676220962L118.61,149.6542912015722L119.03384615384616,149.8066635805014L119.12307692307692,149.6473393716997L119.17884615384617,149.836507228926L120.05999999999999,149.9699755437663L120.36115384615384,150.09495590731447L120.56192307692308,150.3331094340778L120.59538461538462,150.30439324197948L120.82961538461538,150.42307822118866L120.95230769230768,150.34890167361897L121.22,150.38662968901636L121.29807692307692,150.48643611368243L121.4876923076923,150.00619943040633L121.50999999999999,150.09855824568683L121.54346153846154,150.28856358205564L121.7776923076923,150.4327286796289L121.85576923076923,150.40089503426455L122.1123076923077,150.44009120960496L122.30192307692307,150.31261157492474L122.5026923076923,150.50091518103883L122.56961538461539,150.74589807712917L122.68115384615385,150.69676985417138L122.89307692307693,150.84360341513752L123.19423076923077,150.72073154778042L123.28346153846154,150.94007065016484L123.5176923076923,151.13984591475202L124.30961538461538,151.03819479809846L125.10153846153845,151.03249414682375L125.17961538461539,151.15822771342587L125.48076923076924,151.40019853563302L125.715,151.46634694845199L126.005,151.49273718264132L126.10538461538461,151.30783209204532L126.46230769230769,151.6415102032812L126.69653846153845,151.59640948462436L127.17615384615385,151.71937455150257L127.20961538461539,151.7882757096257L127.4326923076923,152.07085243952866L127.51076923076924,151.89536605890152L127.80076923076923,152.13650231013034L128.58153846153846,152.25139307766756L128.68192307692306,152.20817982230346L128.76,152.08017226461823L128.905,151.86605850619628L129.1503846153846,151.80954473989738L129.27307692307693,152.0683597607068L129.57423076923075,152.32299675242018L129.84192307692308,152.00698593991544L129.90884615384616,152.01324532829253L130.16538461538462,152.2152824370217L130.36615384615385,152.43682905007313L131.14692307692306,151.99178755582716L131.6376923076923,152.18892930369384L131.95000000000002,152.31083492291455L131.98346153846154,152.68143742950252L132.42961538461537,153.0111887268513L132.6973076923077,153.05381670468785L133.4223076923077,153.09775408709288L134.29230769230767,153.13890492163642L134.34807692307692,153.2110283758792L134.38153846153847,153.19916492540952L134.5376923076923,153.07021438900222L134.67153846153846,153.0846784501687L134.92807692307693,153.2653683608422L134.995,153.34002530409788L135.16230769230768,152.99960712174908L135.34076923076924,153.49009013402664L135.60846153846154,153.4416686262381L135.79807692307693,153.56903047833993L136.59,153.50758157257727L136.81307692307692,153.6547867072691L136.89115384615383,153.64044594683665L136.94692307692307,153.80330946873676L138.15153846153848,153.3568366251253L138.185,153.27754172256766L138.41923076923078,153.6226570576698L138.475,153.37144357186182L138.95461538461538,153.51823035133853L139.0773076923077,153.59182805887644L139.18884615384616,153.79573371175002L139.23346153846154,153.8924439622744L139.55692307692308,154.23716033501134L139.65730769230768,154.03455617389702L139.91384615384615,153.86015773591373L139.92499999999998,153.8436719400305L140.05884615384616,153.73288772161516L140.4046153846154,154.19910278512464L140.505,154.35652744090612L140.6946153846154,154.28758011887106L140.75038461538463,154.435778029539L140.85076923076923,153.9286428513792L140.94,154.10911219652496L141.02923076923076,153.90510580541294L141.21884615384616,153.93847534021697L141.55346153846153,154.04729793962414L141.665,154.14866366443977L142.0776923076923,154.48477518751986L142.17807692307693,154.21049735662203L142.1892307692308,154.32710755258915L142.4346153846154,154.34551343037754L142.5126923076923,154.6409574805542L142.825,154.30223503940368L142.93653846153845,154.5304962271436L142.9923076923077,154.40657890999222L143.115,154.50583143769046L143.2153846153846,154.64500127159562L143.37153846153845,154.34756466422283L143.79538461538462,154.32608415210527L143.82884615384614,154.24477280571628L144.20807692307693,154.54031761523825L144.2526923076923,154.10301750522896L144.50923076923075,154.48136920942096L144.57615384615386,154.71231513031262L144.59846153846155,154.71938300773266L145.04461538461538,154.82339326924938L145.1115384615385,154.68316347670668L145.13384615384618,154.7819983756867L145.25653846153847,155.06292621352236L145.31230769230768,155.07217187280236L145.46846153846153,154.9616963509407L145.56884615384615,155.02520072402675L145.7473076923077,154.89397794847957L146.02615384615382,155.05682237254743L146.23807692307693,154.7664362357487L146.33846153846153,154.85116545556565L146.53923076923078,154.97129629889275L146.84038461538464,155.0909831709016L147.09692307692308,155.2989920631855L147.11923076923077,155.53070735389844L147.13038461538463,155.60194016449563L147.78846153846152,155.47997685364632L147.82192307692307,155.502348034134L147.9223076923077,155.5226995360159L148.34615384615384,155.41504683482466L148.915,155.41957565936139L149.56192307692308,155.65498413717364L149.96346153846156,155.67007170801728L150.15307692307692,155.54015313477538L150.37615384615384,155.57308645382258L150.68846153846152,155.35569865307053L150.72192307692308,155.12631267150743L150.8,155.52565805896424L150.8223076923077,155.5645970740972L151.01192307692307,155.62260020727265L151.10115384615386,155.7270875304203L151.20153846153843,155.77194301978315L151.5473076923077,155.71118684547483L151.9823076923077,155.56546218993668L152.11615384615385,155.8525890942558L152.25,156.00599962290988L152.3726923076923,155.8964641631655L152.52884615384616,155.41851135617566L152.55115384615385,155.51744968251032L152.9526923076923,155.83611620042112L153.35423076923078,156.0057047258221L153.6553846153846,155.96513804418265L153.8226923076923,155.94573391649575L154.15730769230768,155.82922900104592L154.42499999999998,155.71964576473277L154.62576923076924,155.90019760110243L154.99384615384614,156.03997705128748L155.295,156.00632315882223L155.44,155.75974062686072L155.46230769230772,156.01339801711782L155.69653846153847,156.05210933702952L155.7523076923077,155.78523328473827L155.90846153846152,156.08884849809007L156.02,156.1936677884801L156.07576923076925,156.21739625961047L156.15384615384616,155.9581358371007L156.36576923076922,156.21535461055205L156.4996153846154,156.25542924785793L157.58153846153846,156.29701952368526L157.74884615384616,156.56080713886325L157.87153846153845,156.36582383842253L157.91615384615383,156.62380862393567L158.09461538461537,156.40459289327416L158.4626923076923,156.56402044480137L158.56307692307692,156.60053240886384L159.27692307692305,156.5924041583005L159.3103846153846,156.59306967698714L159.48884615384617,156.59344974940925L159.6673076923077,156.8096872475897L160.45923076923077,156.7615691145552L160.5596153846154,156.54151389203227L160.90538461538463,156.76718135437423L161.1173076923077,156.900165949033L161.15076923076924,156.96956521298466L161.39615384615385,157.00719489828336L162.12115384615382,156.87587285861724L162.2103846153846,156.80445176934413L162.44461538461536,156.86473034645246L162.69000000000003,156.61988158161518L163.0134615384615,156.91279341023213L163.52653846153848,157.09188494468358L163.83884615384616,156.73117409895636L164.49692307692308,156.91571367949712L164.67538461538462,157.11211087129792L165.02115384615382,157.1374714356002L165.34461538461537,157.22475132989905L165.62346153846153,157.24661262858723L165.67923076923077,157.2917875975101L165.82423076923078,156.7646775052783L166.03615384615384,156.7704257881147L166.50461538461536,156.73302203628435L166.51576923076922,157.04962016947874L166.73884615384614,157.06834221963769L167.38576923076923,157.29344048669748L167.57538461538462,157.32422421557195L167.87653846153844,157.34374466448517L167.8876923076923,157.37628292387421L167.97692307692307,157.3613330802065L168.11076923076925,157.4870719075645L168.24461538461537,157.5248138245212L168.4119230769231,157.51831220803263L168.45653846153846,157.56174912940025L168.64615384615385,157.57406318639056L168.84692307692308,157.5763520681123L169.0476923076923,157.6507267024076L169.215,157.52487288788694L169.32653846153843,157.63292440062207L169.35999999999999,157.60658423911795L169.49384615384616,157.59439547863363L169.505,157.523073212346L169.5496153846154,157.66701310319138L169.8619230769231,157.71085096583226L170.15192307692308,157.82423976333217L170.51999999999998,157.56459627511865L170.6873076923077,157.41245225486813L171.08884615384613,157.42918231140172L171.67999999999998,157.61629388441997L171.7246153846154,157.70616489635125L171.9476923076923,157.6437232390218L172.49423076923077,157.6576638667885L172.8176923076923,157.67649188175423L173.28615384615387,157.6918690117277L173.85500000000002,157.71845744880503L174.0223076923077,157.69302815695085L174.11153846153846,157.8498600012033L174.17846153846156,157.8938696451566L174.73615384615385,157.84712743049352L174.7696153846154,157.65322576732729L174.8030769230769,157.7447564989604L174.94807692307694,157.94505893649324L175.24923076923076,157.78283689019082L175.52807692307692,157.75412984051505L175.60615384615386,157.8225927759699L175.85153846153847,158.01840996321988L176.23076923076923,157.86063888456596L176.62115384615385,158.02816048534416L176.8776923076923,158.09228652837893L176.91115384615384,158.15512907180997L177.05615384615385,157.9897509221662L177.64730769230772,158.09168708271358L177.65846153846152,158.04951186307215L177.87038461538464,158.0727961341219L177.90384615384616,157.95948243854502L178.00423076923076,157.88311940621173L178.01538461538462,158.0757550703933L178.0823076923077,158.07965783998074L178.3053846153846,158.16298292433044L178.3276923076923,158.18320976707233L179.2423076923077,158.0483279916419L179.30923076923077,157.90908700303874L180.14576923076925,158.0474423293867L180.81500000000003,158.20760816522034L180.88192307692307,158.30195594660992L181.1384615384615,158.34182460486426L181.55115384615385,158.40592205154618L181.56230769230768,158.32761987941097L181.6292307692308,157.9914409452476L181.72961538461539,158.19477645717848L181.91923076923078,158.1331664317615L182.05307692307693,158.1059836240868L182.12,158.2891022451079L182.34307692307692,158.43771284306186L182.77807692307692,158.33917241186384L183.33576923076924,158.38608132893134L183.60346153846154,158.317033585872L183.86,158.24113086758L184.26153846153846,158.2354060341792L184.5292307692308,158.42101855654775L184.5626923076923,158.38256059872663L185.39923076923077,158.53880209676956L185.46615384615384,158.66631050598144L185.80076923076922,158.79039307887268L185.90115384615385,158.714195117483L185.94576923076923,158.59403000422088L186.0126923076923,158.4892221642401L186.67076923076922,158.29031638659237L187.03884615384615,158.4050641494425L187.05,158.61166056220324L187.13923076923078,158.5091983649607L187.18384615384613,158.54415944179746L187.37346153846156,158.5496983736407L187.4403846153846,158.69909224488245L187.48499999999999,158.81736890143895L187.78615384615384,158.78493658502944L188.0873076923077,158.7598018936319L188.29923076923075,158.68765472563126L188.65615384615384,158.54383780633617L188.66730769230767,158.58666171992945L188.67846153846153,158.7582991232383L188.94615384615383,158.71660388489013L189.80499999999998,158.81864805646407L190.5076923076923,158.72140691058436L190.97615384615384,158.61273185119987L191.02076923076922,158.6231315817791L191.51153846153846,158.6952709241524L191.72346153846155,158.9035323868482L192.13615384615383,158.71761220516495L192.47076923076924,158.63612353457052L192.54884615384617,158.5809785742742L192.6603846153846,158.65161668494437L193.11769230769232,158.6146836791541L193.3073076923077,158.13001968904967L193.37423076923076,158.5020882831691L193.4523076923077,158.6260411572463L193.97653846153847,158.8377047057156L194.0323076923077,158.975952858639L194.21076923076924,158.926610172736L194.27769230769232,158.9489318940723L194.38923076923075,158.90486318828766L194.59,159.0113521005438L194.7796153846154,158.99334874862788L194.8019230769231,159.0727939203244L195.15884615384616,158.75796770542036L195.50461538461536,158.8957467700392L196.02884615384616,158.9390202402284L196.1626923076923,158.91159950966895L196.28538461538463,158.9990760044769L196.99923076923076,158.93935590325884L197.345,158.94012309395725L197.7576923076923,159.0506431497144L198.02538461538464,158.97420025012934L198.1257692307692,159.06116576438373L198.1926923076923,159.14932811724282L198.36,159.1238640987901L198.70576923076922,159.16960419758328L198.73923076923077,159.15922691788774L198.95115384615383,159.14922281563184L199.16307692307694,159.2278216596041L200.42346153846154,159.23927943044467L200.5126923076923,159.2636782256776L200.57961538461538,159.38511683511817L200.8473076923077,159.2104915005053L200.85846153846154,159.2232203210643L201.28230769230768,159.03352817487226L201.58346153846153,159.15276182686193L201.71730769230768,159.3102996917262L201.95153846153846,159.28230413824485L202.60961538461538,159.32010083335737L202.75461538461536,159.34577331148444L202.86615384615385,159.34889085056102L202.91076923076923,159.32788574553558L203.435,158.78324045572896L204.23807692307693,158.81619729181656L204.48346153846154,159.05831479537804L204.52807692307692,159.18059763138484L204.56153846153848,159.3289797991017L204.67307692307693,159.32117178258295L204.89615384615385,159.35295706957777L205.18615384615384,159.36591921868046L205.5653846153846,159.52261068317563L205.66576923076923,159.50151224311156L206.29038461538462,159.42399285262402L206.8926923076923,159.37653356646842L207.18269230769232,159.48558605982072L207.23846153846154,159.48900103374248L207.46153846153845,159.48199166022096L208.0303846153846,159.42795488255632L208.07500000000002,159.38963598539877L208.43192307692308,159.4866256626275L208.97846153846154,159.45920529793662L209.20153846153846,159.48047454614021L209.55846153846156,159.5377564938381L209.67,159.3850486599315L209.68115384615385,159.48476461745753L209.95999999999998,159.47733623133573L210.0603846153846,159.53868109512212L210.21653846153845,159.53245536721477L210.685,159.59148110689756L210.96384615384616,159.43564331616187L211.80038461538462,159.4780321364714L212.5476923076923,159.54011419167796L212.89346153846154,159.48827679366278L213.27269230769232,159.62664291348304L213.28384615384616,159.74430089485395L213.52923076923076,159.71692016576776L213.9530769230769,159.702275701692L214.00884615384615,159.68557551483133L214.0646153846154,159.73060352194202L214.4773076923077,159.69556377046044L214.56653846153844,159.77546533810735L214.7226923076923,159.80178159595116L214.8453846153846,159.86695095849385L215.04615384615386,159.6013763484499L215.06846153846152,159.70560569150098L215.32500000000002,159.79289428343085L215.33615384615385,159.73521363864168L215.34730769230768,159.63771336473917L215.38076923076923,159.6880122351521L215.59269230769232,159.71558555014175L215.9830769230769,159.6947004734312L216.17269230769233,159.784463063409L216.3176923076923,159.89153199803636L216.32884615384614,159.87563545273824L216.56307692307692,159.76238898972917L216.67461538461538,159.76083460017193L216.76384615384617,159.90097944675375L216.8753846153846,159.82109457297219L217.42192307692306,159.7890025483157L217.51115384615386,159.87077007770054L217.55576923076924,159.78074404684412L217.86807692307693,159.77833096516753L218.02423076923077,159.92994975765123L218.09115384615384,159.83607997409248L218.2473076923077,159.77568400727756L218.3476923076923,159.80315115308989L218.42576923076925,159.8415950655315L218.43692307692308,159.8642310865347L218.48153846153846,159.78383149351424L218.76038461538462,159.82759205527552L218.87192307692308,159.80618287579682L218.91653846153847,159.74034596039735L219.095,159.75101503861276L219.25115384615384,159.71248358447747L219.65269230769232,159.79328331843652L219.74192307692306,159.66896459199373L219.8646153846154,159.67331463776458L220.41115384615384,159.75667637357571L220.4223076923077,159.76240119399304L220.47807692307694,159.85043159163996L220.7792307692308,159.9691590951105L221.2030769230769,159.96604163524827L222.44115384615384,159.94219720767333L222.54153846153844,160.00956543846763L222.72,159.85714636661908L222.75346153846155,159.86499183506749L222.85384615384615,159.95585862198064L223.16615384615383,159.98026942212536L223.54538461538462,160.01412045835943L223.55653846153845,159.98967118668253L223.65692307692308,159.83379343275843L223.6903846153846,159.89769468580454L224.1253846153846,159.947732621877L224.40423076923076,159.88775816348112L224.57153846153844,159.93439744226288L224.59384615384613,159.88758625296046L224.68307692307692,159.816593784336L224.86153846153846,159.86886958573882L225.0846153846154,159.83461042261894L225.3523076923077,159.97133981237874L225.5976923076923,159.96545843988696L225.91,160.07069830761375L226.04384615384615,160.0586859663289L226.5123076923077,159.97167790015308L226.54576923076925,160.00987868038675L227.00307692307692,160.08132248875216L227.0923076923077,160.18084948553673L227.99576923076924,160.0776845007779L228.00692307692307,160.14227199492703L228.97730769230768,160.20009048583816L229.06653846153847,160.2257542733513L229.5573076923077,160.05144258762374L229.56846153846155,160.02819930170958L230.1373076923077,160.0588641229569L230.23769230769233,159.97144415437972L230.80653846153848,160.03448390201606L230.9180769230769,160.06994746229574L230.99615384615385,160.05272637507235L231.3196153846154,160.17745561540673L231.7323076923077,160.12394786799283L231.9219230769231,160.2082270764768L232.39038461538462,160.2916195136384L232.92576923076922,160.3149973691747L233.37192307692308,160.34292134967916L233.65076923076924,160.22536564346635L233.8626923076923,160.20745497828614L233.91846153846154,160.25881323190066L233.9742307692308,160.24419910612625L234.175,160.26210443478575L234.23076923076923,160.20336334726267L234.28653846153847,160.20627763204408L234.42038461538462,160.0792722284752L234.65461538461537,160.0082617620602L235.17884615384617,160.06142037828613L235.41307692307694,160.00406086039453L235.82576923076923,160.14377663925436L236.0042307692308,160.25506650842317L236.38346153846152,160.12487872106087L236.50615384615384,160.17684665081254L236.65115384615382,160.21971801493973L237.06384615384616,160.3164865015412L237.1419230769231,160.20279152861028L237.18653846153848,160.30272524637454L237.46538461538464,160.30546577939873L237.75538461538463,160.27145849964708L238.65884615384613,160.27505049050862L238.69230769230768,160.23850197876104L238.74807692307692,160.2286485367096L239.30576923076922,160.17525450148642L239.52884615384613,160.22822064176276L239.69615384615386,160.22579297948923L239.72961538461539,160.33329498566616L239.75192307692308,160.31474700171208L239.975,160.23991221228314L240.0419230769231,160.09925394002045L240.29846153846154,160.1941653470801L240.5773076923077,160.2105910559857L240.5996153846154,160.01543963394744L240.74461538461537,160.0049596860539L241.19076923076923,160.12072832949147L241.25769230769228,160.05537404915006L241.41384615384615,160.19817861100225L241.53653846153844,160.22419860708825L241.63692307692307,160.25203310697145L241.68153846153845,160.2751270265313L242.14999999999998,160.16796912655823L242.2280769230769,160.22115004483217L242.27269230769232,160.16051216536772L242.32846153846154,160.21007165837693L242.3396153846154,160.11178820249484L242.78576923076923,160.14430168698456L242.9976923076923,160.24378471988575L243.29884615384614,160.30077042868615L243.5553846153846,160.34566477472117L244.33615384615385,160.42727526466766L244.4476923076923,160.2916213920159L244.58153846153846,160.31724328103323L244.77115384615385,160.30376700025394L244.94961538461538,160.3041238069232L245.03884615384615,160.36732003051216L245.13923076923078,160.36149109060472L245.2173076923077,160.32047999613428L245.66346153846155,160.4126216724293L245.80846153846156,160.30148364830671L245.86423076923074,160.37036491550202L245.93115384615385,160.3563513870072L245.96461538461537,160.36887097090673L246.81230769230768,160.33188226856902L246.82346153846154,160.271320534377L246.84576923076924,160.26445420779507L247.31423076923076,160.2787334851288L247.3476923076923,160.24069748790242L247.69346153846155,160.31204389535097L247.93884615384616,160.30722024482117L247.99461538461537,160.40424511457456L248.02807692307692,160.4103248963255L248.08384615384617,160.40696008500447L248.54115384615383,160.34080161907468L248.70846153846156,160.3504995862138L248.87576923076924,160.36806301113913L248.97615384615386,160.41639772000084L248.99846153846156,160.47432788536253L249.2103846153846,160.4671919635453L249.43346153846153,160.4441958776028L249.54500000000002,160.423129641468L249.70115384615386,160.4356680294601L249.7123076923077,160.34656176452208L250.15846153846152,160.43334963252764L250.18076923076922,160.4604997034706L250.42615384615385,160.48283985033655L250.68269230769232,160.52276291276033L251.14,160.47454653238265L251.28500000000003,160.4582083506684L251.29615384615386,160.39335336148542L251.40769230769232,160.40969756758096L251.50807692307694,160.42247238188514L251.51923076923077,160.44795557278115L251.54153846153847,160.44844894817103L251.59730769230768,160.3898581497508L251.72,160.41312954143513L252.53423076923076,160.41143879164753L252.94692307692307,160.46631528975266L252.95807692307693,160.4573756721121L253.1476923076923,160.49650372504206L253.1923076923077,160.4590677895487L253.60500000000002,160.46699318955385L253.95076923076923,160.50413714450625L253.96192307692306,160.44817702493287L253.9953846153846,160.45165068937072L254.00653846153847,160.48343441625076L254.38576923076923,160.39147504969222L254.44153846153847,160.38250237387686L254.54192307692307,160.37971791475377L254.5976923076923,160.3691364259483L254.80961538461537,160.43795673833063L255.1776923076923,160.44036987773043L255.44538461538463,160.4670936410713L255.45653846153846,160.45486173143513L255.85807692307694,160.40935671673532L256.2819230769231,160.49628564961543L256.7280769230769,160.41976075598274L256.79499999999996,160.384523560377L256.8173076923077,160.26639631059092L256.8284615384615,160.39933562993798L257.02923076923076,160.43104765605804L257.17423076923075,160.46247024014718L257.2746153846154,160.44654734378133L257.3192307692308,160.45642315692749L258.0330769230769,160.46221446840195L258.75807692307694,160.4896912017359L259.0146153846154,160.44884055528405L259.19307692307694,160.49691960696396L259.41615384615386,160.46482732226858L259.95153846153846,160.50014787155635L259.985,160.46335321528662L260.04076923076923,160.51915850875545L260.7880769230769,160.57034087640704L260.98884615384617,160.55122310437358L261.8253846153846,160.595689151988L262.2603846153846,160.59786047198708L262.27153846153846,160.61414398625493L262.65076923076924,160.51755647664268L262.97423076923076,160.48401594403387L263.11923076923074,160.50752760475675L263.24192307692306,160.46976300421835L263.47615384615386,160.53278582141886L263.67692307692306,160.5739797388281L263.83307692307693,160.5183353810369L263.84423076923076,160.47702238493318" style="fill: none;" fill="none"></path></g></g></g></g><g opacity="0.2"><g><g><g><path stroke="rgb(255, 112, 67)" stroke-width="2px" d="M22.396923076923077,141.55936390558878L22.664615384615384,42.48567606608074L22.698076923076925,32.007450230916334L22.988076923076925,32.18689155578613L23.244615384615386,30.85238723754881L23.95846153846154,27.086213048299157L24.058846153846154,30.247440465291334L24.750384615384615,25.0452943166097L24.806153846153844,33.53218091328938L25.040384615384617,31.22474835713703L25.241153846153846,33.97408459981281L25.63153846153846,34.565598169962556L25.653846153846157,34.66107915242512L25.743076923076924,34.65612233479817L26.06653846153846,28.227718353271484L26.289615384615384,36.0467586517334L26.891923076923074,36.8005231221517L27.326923076923077,18.942489878336602L27.483076923076926,36.751068115234375L28.174615384615386,39.19101066589357L28.47576923076923,39.83326937357586L28.654230769230768,40.228660456339526L28.732307692307693,40.14363632202148L28.74346153846154,40.46408665974934L29.267692307692307,41.302467854817706L29.412692307692307,41.733563868204754L29.568846153846156,41.877945327758795L29.680384615384618,41.415863545735675L30.16,42.87629140218098L30.24923076923077,42.95398216247557L30.728846153846156,29.846447499593097L30.773461538461536,43.786897277832026L30.79576923076923,43.180060577392595L30.951923076923077,43.45635223388672L30.974230769230772,42.31712163289387L31.052307692307693,44.14693425496418L31.14153846153846,42.888321304321295L31.20846153846154,45.12749010721842L31.520769230769233,44.99671160380046L32.736538461538466,48.13843994140623L33.026538461538465,47.96901410420736L33.0376923076923,47.83378804524739L33.104615384615386,48.439979680379224L33.37230769230769,49.74476572672526L33.40576923076923,49.649228159586585L33.50615384615384,49.412489191691094L34.052692307692304,49.8182465871175L34.08615384615385,49.8327662150065L34.387307692307694,48.5821430206299L34.45423076923077,50.80489095052084L34.51,51.29828669230143L35.089999999999996,51.98953641255697L35.14576923076923,52.66212450663248L35.15692307692308,52.44907188415527L35.35769230769231,53.423946634928384L35.50269230769231,53.73035265604655L36.07153846153846,54.38465258280438L36.261153846153846,55.54161682128907L36.87461538461538,56.806952031453434L36.908076923076926,57.22183087666828L37.064230769230775,54.886072031656894L37.10884615384615,54.94932238260904L37.644230769230774,57.77478764851888L37.722307692307695,56.097708384195954L37.9676923076923,58.677335866292324L38.10153846153846,58.85500043233236L38.213076923076926,58.25614217122394L38.54769230769231,60.08567186991375L38.67038461538461,60.57111180623373L38.82653846153846,60.24264907836914L39.183461538461536,61.4139518737793L39.50692307692308,61.81030489603678L39.68538461538461,63.22337137858072L39.863846153846154,63.393544133504236L39.90846153846154,63.4050308227539L40.09807692307692,63.82569262186688L40.488461538461536,64.9736712137858L40.95692307692308,65.598388671875L41.05730769230769,65.77912012736002L41.25807692307692,66.422487894694L41.35846153846154,66.73087437947592L41.51461538461539,66.76114718119302L41.536923076923074,67.45467160542806L41.57038461538462,67.36438509623211L42.06115384615384,68.42500826517742L42.56307692307692,68.54346828460693L42.76384615384615,69.6163137435913L42.86423076923077,70.75754744211832L43.00923076923077,71.48165588378906L43.04269230769231,71.09776280721029L43.13192307692307,70.85439211527506L43.57807692307692,72.15333862304688L43.7676923076923,72.42179896036784L43.87923076923077,72.39017378489176L43.9126923076923,72.65351320902506L44.515,73.55370184580487L44.64884615384615,75.27823867797852L44.90538461538462,75.22281964619955L45.362692307692306,76.77873980204264L45.45192307692307,77.14427680969239L45.49653846153846,76.99250539143881L45.574615384615385,77.36900850931805L46.16576923076923,78.10784594217935L46.24384615384616,78.98548558553058L46.589615384615385,79.66988855997721L46.634230769230776,79.83425572713215L46.723461538461535,78.95608418782552L46.8573076923077,80.67711842854818L47.08038461538461,80.80186500549317L47.136153846153846,80.89735164642335L47.14730769230769,80.6546033859253L47.370384615384616,81.55750242869058L47.42615384615385,81.94725767771402L47.81653846153846,82.19773540496826L47.92807692307693,82.75699005126953L48.06192307692308,82.53216215769451L48.35192307692308,82.49028949737549L48.45230769230769,84.2965798695882L48.84269230769231,84.30561644236246L48.853846153846156,84.96737988789877L48.87615384615384,85.12729949951172L49.36692307692308,86.04315077463785L49.55653846153846,86.33462409973144L49.57884615384616,86.75445976257325L49.63461538461539,85.52926006317139L49.91346153846154,87.33811372121176L49.924615384615386,87.21723187764486L50.036153846153844,87.39807084401447L50.058461538461536,87.32351487477621L50.114230769230765,85.49304021199545L50.270384615384614,87.43869298299154L50.33730769230769,87.83999716440836L50.43769230769231,87.89424489339193L50.605,88.6820789972941L50.67192307692307,85.58923416137695L52.14423076923077,90.72022507985433L52.345,91.84589799245198L52.7576923076923,92.12670510609945L52.91384615384615,93.49276103973388L53.30423076923077,93.50351212819417L54.23,95.27816600799561L54.497692307692304,95.27809810638428L55.28961538461538,97.46780624389648L55.378846153846155,97.36234938303629L55.78038461538461,96.79126853942871L56.08153846153846,98.83953196207682L56.115,99.99345760345459L56.761923076923075,98.7986551920573L57.45346153846154,101.66791699727376L57.832692307692305,101.18784128824869L57.84384615384616,102.0224822362264L58.22307692307692,102.64740339914958L58.33461538461538,102.59927247365316L58.379230769230766,103.31545340220133L58.401538461538465,103.05960013071696L58.41269230769231,102.3540740966797L59.059615384615384,104.75857766469319L59.50576923076923,104.35004762013753L59.85153846153846,105.71174087524413L60.15269230769231,105.69060649871825L60.20846153846154,106.13880805969238L60.45384615384615,103.26932557423909L60.665769230769236,107.02335103352864L60.83307692307692,106.53611170450846L61.011538461538464,107.94600378672281L62.35,107.72465585072835L62.55076923076923,109.03387247721354L62.573076923076925,109.67636884053549L62.66230769230769,109.74500039418538L62.97461538461538,109.1530398050944L63.13076923076923,109.87392857869466L63.75538461538462,111.35460243225099L63.8,111.45689055124919L63.92269230769231,109.70436693827311L64.5026923076923,111.86446431477864L64.73692307692308,112.23451677958171L64.7926923076923,111.59770717620849L64.815,112.1867649714152L64.92653846153846,113.05930067698161L65.29461538461538,112.79450702667236L65.42846153846153,114.67268822987876L66.00846153846153,114.25498580932617L66.32076923076923,114.25246213277183L66.63307692307693,114.90816535949708L67.05692307692308,115.23647530873616L67.17961538461539,115.81401812235515L67.21307692307693,116.04637743631997L67.84884615384615,117.3131612141927L67.90461538461538,116.703435866038L68.02730769230769,116.91870943705241L68.84153846153846,118.19110075632732L68.97538461538461,117.22729113896688L68.9976923076923,117.57401091257731L69.05346153846153,118.69025115966797L69.0646153846154,115.73849172592163L69.34346153846154,118.53500544230144L69.39923076923077,118.72915029525757L69.4326923076923,118.62427342732747L69.745,118.93287210464477L69.77846153846154,118.33835388819375L70.2023076923077,119.68556146621704L70.3473076923077,119.92982053756714L70.36961538461539,119.76221955617268L71.195,120.34978351593017L71.27307692307693,120.6650705019633L71.64115384615384,121.6838210105896L72.29923076923077,122.24007383982341L72.48884615384615,121.87023356755574L72.72307692307692,122.5383373260498L73.25846153846155,123.17758007049561L73.29192307692307,121.76457017262777L73.81615384615385,123.79061562220255L74.2176923076923,123.61285486221314L74.2623076923077,123.91718705495198L74.35153846153845,124.13915742238362L74.76423076923076,123.96467574437459L74.82000000000001,124.48545281092326L75.17692307692307,124.92191588083904L75.26615384615386,125.5003527323405L75.60076923076922,125.70070775349934L75.7346153846154,125.19230575561524L75.75692307692307,126.11637312571207L76.18076923076923,126.22596066792806L76.31461538461538,125.43350076675415L76.78307692307692,126.94787928263347L77.54153846153847,126.77070417404175L77.64192307692308,127.69895032246907L77.67538461538462,127.11067339579265L78.52307692307691,128.19014774958293L78.54538461538462,128.86899410883586L78.55653846153847,127.34246686299642L79.14769230769231,128.92712920506796L79.46000000000001,128.89196182886758L80.19615384615383,129.93665924072266L80.63115384615384,130.81301158269247L81.63499999999999,131.09057639439902L81.81346153846154,131.26512314478555L81.96961538461538,130.36083211898804L82.64999999999999,132.01038859685264L82.89538461538461,132.33427079518634L83.70961538461539,133.54508384068808L83.73192307692308,132.4923287709554L84.08884615384615,132.80432818730674L84.35653846153846,133.1493249575297L84.5126923076923,133.31901391347247L84.99230769230769,133.55806153615316L85.32692307692308,133.70438102086385L85.37153846153846,133.1976963678996L85.53884615384615,134.43361603418987L85.99615384615385,134.35056953430177L86.02961538461538,134.87773501078289L86.62076923076923,134.94618266423544L86.97769230769231,135.5197871843974L87.16730769230769,135.07178932825724L87.20076923076924,135.19585688908896L87.58,135.64380664825438L87.60230769230769,134.57775135040282L87.68038461538461,135.13957211176555L88.08192307692308,135.411164410909L88.31615384615384,136.39029998779296L88.58384615384615,135.19601532618205L88.63961538461538,136.4309645652771L88.70653846153846,136.17612133026122L89.00769230769231,136.8768716176351L89.23076923076924,136.7616058031718L89.28653846153846,135.6231928507487L89.45384615384616,136.32198530832926L89.50961538461539,136.93598279953002L89.98923076923076,136.9300725301107L90.46884615384616,137.51547495524088L90.58038461538462,137.61959358851115L91.13807692307691,138.1979144414266L91.35,137.73136812845866L91.495,136.45414164861043L91.56192307692307,137.91983470916747L91.70692307692308,138.5781578063965L92.3426923076923,138.6113447189331L92.59923076923076,138.5797591527303L92.655,138.5831372578939L92.9226923076923,139.22759710947673L93.0453846153846,139.5981927871704L93.16807692307692,138.9028746287028L93.31307692307692,139.09310099283854L93.58076923076922,138.49260460535686L94.65153846153846,138.97642621994018L94.69615384615385,139.41745284398397L94.91923076923077,140.6839239915212L95.52153846153846,140.1193475564321L95.63307692307691,140.23203735351564L95.845,140.6537742614746L96.4473076923077,140.38124831517538L96.54769230769232,140.97203760147096L96.68153846153847,140.69958521525064L96.715,141.2384354273478L96.8823076923077,140.91965292294822L96.91576923076923,141.16820960044862L97.04961538461538,141.1051346619924L97.35076923076923,141.85794285138448L97.39538461538461,141.91680788993835L97.51807692307692,141.51544853846232L98.39923076923077,142.3585460662842L98.55538461538461,142.48870213826498L98.64461538461538,142.44010297457376L98.81192307692308,142.1864734808604L99.53692307692307,142.55991536776224L99.89384615384616,143.0232787926992L100.18384615384616,143.34462741216024L100.42923076923077,142.6736265182495L101.45538461538462,141.81430474917093L101.54461538461538,142.85754369099936L101.80115384615384,143.62169427871703L102.00192307692308,142.82186705271403L102.68230769230769,144.12319153149923L103.02807692307692,144.25760560035707L103.61923076923077,143.4698889096578L103.74192307692309,142.77242194811504L103.9426923076923,144.7114896774292L104.05423076923077,144.50804513295492L104.06538461538462,144.40746870040894L104.27730769230769,144.67705648740133L104.53384615384616,144.83314107259116L104.74576923076923,144.19026700655618L105.18076923076923,144.90043439865113L105.21423076923078,145.04826327959697L105.29230769230769,145.44740592638652L105.40384615384615,144.87685980796815L105.4373076923077,145.20682627360026L105.60461538461539,145.96359114646913L105.9726923076923,145.87744097709657L106.18461538461538,145.66593736012777L107.06576923076923,145.33104944229126L107.45615384615385,145.55595089594522L107.64576923076923,146.37559973398845L107.81307692307693,145.41722224553428L107.93576923076924,145.65289459228515L108.0026923076923,146.58799597422282L108.28153846153846,145.84023655255635L108.39307692307692,145.8040563106537L108.59384615384616,146.20224267641703L108.75,145.13103958765666L108.97307692307692,145.7986680348714L109.0623076923077,146.0485261599223L109.17384615384616,146.45862784385682L109.56423076923076,146.60792368253072L109.62,147.1507503827413L110.30038461538462,146.89208202362062L110.31153846153846,146.7725214322408L110.66846153846154,146.95941495895386L111.32653846153846,147.51928920745848L111.71692307692307,148.1848622163137L111.8396153846154,147.20461899439493L111.97346153846155,147.56027207374572L112.16307692307691,147.35475511550902L113.43461538461538,147.2532535235087L113.47923076923077,146.94570449193318L113.63538461538461,148.25549545288087L113.825,146.87106223106383L113.89192307692308,147.16355690956115L114.36038461538462,148.4103238582611L114.53884615384615,148.57350133260093L114.66153846153847,147.4944471200307L115.07423076923077,149.01779147783915L115.13000000000001,148.80258722305297L115.15230769230769,148.08727062543232L115.21923076923076,148.68729028701782L115.47576923076923,148.0874700864156L115.53153846153846,148.04963191350302L115.63192307692307,148.34957172075906L116.63576923076923,148.9260747909546L116.66923076923077,148.088205687205L116.98153846153846,148.12491075197855L117.03730769230769,148.75731099446614L117.09307692307692,149.84522636731467L117.74000000000001,149.41092907587688L118.02999999999999,149.07662822405496L118.13038461538461,148.94147855440775L118.49846153846154,150.00284864107766L118.50961538461539,149.71171906789144L118.61,149.81676286061605L119.03384615384616,150.03522214889526L119.12307692307692,149.4083530584971L119.17884615384617,150.12025901476542L120.05999999999999,150.17017801602682L120.36115384615384,150.2824264526367L120.56192307692308,150.6903397242228L120.59538461538462,150.261318953832L120.82961538461538,150.60110569000244L120.95230769230768,150.23763685226442L121.22,150.44322171211243L121.29807692307692,150.63614575068155L121.4876923076923,149.28584440549216L121.50999999999999,150.23709646860758L121.54346153846154,150.5735715866089L121.7776923076923,150.64897632598877L121.85576923076923,150.35314456621805L122.1123076923077,150.49888547261557L122.30192307692307,150.12139212290447L122.5026923076923,150.78337059020996L122.56961538461539,151.11337242126464L122.68115384615385,150.6230775197347L122.89307692307693,151.0638537565867L123.19423076923077,150.5364237467448L123.28346153846154,151.26907930374145L123.5176923076923,151.43950881163278L124.30961538461538,150.88571812311807L125.10153846153845,151.02394316991172L125.17961538461539,151.34682806332907L125.48076923076924,151.7631547689438L125.715,151.56556956768037L126.005,151.53232253392537L126.10538461538461,151.03047445615132L126.46230769230769,152.142027370135L126.69653846153845,151.5287584066391L127.17615384615385,151.90382215181987L127.20961538461539,151.8916274468104L127.4326923076923,152.49471753438314L127.51076923076924,151.63213648796082L127.80076923076923,152.49820668697356L128.58153846153846,152.4237292289734L128.68192307692306,152.1433599392573L128.76,151.88816092809043L128.905,151.54488786856334L129.1503846153846,151.72477409044902L129.27307692307693,152.456582291921L129.57423076923075,152.70495223999023L129.84192307692308,151.53296972115834L129.90884615384616,152.02263441085816L130.16538461538462,152.51833810011544L130.36615384615385,152.76914896965027L131.14692307692306,151.3242253144582L131.6376923076923,152.48464192549386L131.95000000000002,152.4936933517456L131.98346153846154,153.23734118938447L132.42961538461537,153.50581567287446L132.6973076923077,153.11775867144266L133.4223076923077,153.1636601607005L134.29230769230767,153.20063117345174L134.34807692307692,153.31921355724336L134.38153846153847,153.181369749705L134.5376923076923,152.87678858439128L134.67153846153846,153.10637454191843L134.92807692307693,153.53640322685243L134.995,153.45201071898143L135.16230769230768,152.4889798482259L135.34076923076924,154.22581465244292L135.60846153846154,153.36903636455537L135.79807692307693,153.7600732564926L136.59,153.41540821393332L136.81307692307692,153.87559440930684L136.89115384615383,153.61893480618795L136.94692307692307,154.0476047515869L138.15153846153848,152.68712735970814L138.185,153.1585993687312L138.41923076923078,154.1403300603231L138.475,152.9946233431498L138.95461538461538,153.7384105205536L139.0773076923077,153.7022246201833L139.18884615384616,154.10159219106038L139.23346153846154,154.037509338061L139.55692307692308,154.75423489411673L139.65730769230768,153.73064993222556L139.91384615384615,153.59856007893882L139.92499999999998,153.81894324620566L140.05884615384616,153.5667113939921L140.4046153846154,154.8984253803889L140.505,154.59266442457835L140.6946153846154,154.18415913581848L140.75038461538463,154.65807489554086L140.85076923076923,153.1679400841395L140.94,154.37981621424356L141.02923076923076,153.5990962187449L141.21884615384616,153.988529642423L141.55346153846153,154.21053183873494L141.665,154.3007122516632L142.0776923076923,154.98894247214L142.17807692307693,153.79908061027527L142.1892307692308,154.50202284653983L142.4346153846154,154.37312224706014L142.5126923076923,155.0841235558192L142.825,153.7941513776779L142.93653846153845,154.87288800875345L142.9923076923077,154.22070293426515L143.115,154.65471022923788L143.2153846153846,154.8537560224533L143.37153846153845,153.90140975316365L143.79538461538462,154.29386338392894L143.82884615384614,154.1228057861328L144.20807692307693,154.98363482952118L144.2526923076923,153.44706734021506L144.50923076923075,155.04889676570892L144.57615384615386,155.05873401165007L144.59846153846155,154.7299848238627L145.04461538461538,154.97940866152445L145.1115384615385,154.47281878789266L145.13384615384618,154.9302507241567L145.25653846153847,155.48431797027587L145.31230769230768,155.08604036172233L145.46846153846153,154.7959830681483L145.56884615384615,155.1204572836558L145.7473076923077,154.6971437851588L146.02615384615382,155.3010890086492L146.23807692307693,154.33085703055065L146.33846153846153,154.97825928529105L146.53923076923078,155.15149256388347L146.84038461538464,155.2705134789149L147.09692307692308,155.61100540161132L147.11923076923077,155.87828028996785L147.13038461538463,155.70878938039144L147.78846153846152,155.29703188737233L147.82192307692307,155.5359048048655L147.9223076923077,155.5532267888387L148.34615384615384,155.25356778303782L148.915,155.42636889616648L149.56192307692308,156.008096853892L149.96346153846156,155.69270306428274L150.15307692307692,155.34527527491252L150.37615384615384,155.6224864323934L150.68846153846152,155.02961695194244L150.72192307692308,154.78223369916282L150.8,156.12467614014943L150.8223076923077,155.62300559679667L151.01192307692307,155.70960490703584L151.10115384615386,155.8838185151418L151.20153846153843,155.8392262538274L151.5473076923077,155.62005258401234L151.9823076923077,155.34687520662942L152.11615384615385,156.28327945073445L152.25,156.23611541589102L152.3726923076923,155.7321609735489L152.52884615384616,154.7015821456909L152.55115384615385,155.66585717201232L152.9526923076923,156.3141159772873L153.35423076923078,156.26008751392365L153.6553846153846,155.90428802172343L153.8226923076923,155.91662772496542L154.15730769230768,155.6544716278712L154.42499999999998,155.55527091026306L154.62576923076924,156.17102535565695L154.99384615384614,156.24964622656503L155.295,155.9558423201243L155.44,155.38986682891846L155.46230769230772,156.39388410250345L155.69653846153847,156.11017631689708L155.7523076923077,155.38491920630136L155.90846153846152,156.54427131811778L156.02,156.35089672406514L156.07576923076925,156.25298896630605L156.15384615384616,155.5692452033361L156.36576923076922,156.60118277072905L156.4996153846154,156.31554120381674L157.58153846153846,156.35940493742623L157.74884615384616,156.95648856163024L157.87153846153845,156.07334888776143L157.91615384615383,157.01078580220542L158.09461538461537,156.0757692972819L158.4626923076923,156.80316177209218L158.56307692307692,156.65530035495757L159.27692307692305,156.58021178245545L159.3103846153846,156.5940679550171L159.48884615384617,156.5940198580424L159.6673076923077,157.13404349486032L160.45923076923077,156.68939191500345L160.5596153846154,156.21143105824788L160.90538461538463,157.10568254788717L161.1173076923077,157.09964284102122L161.15076923076924,157.07366410891214L161.39615384615385,157.0636394262314L162.12115384615382,156.67888979911805L162.2103846153846,156.69732013543447L162.44461538461536,156.95514821211498L162.69000000000003,156.25260843435922L163.0134615384615,157.35216115315757L163.52653846153848,157.36052224636077L163.83884615384616,156.1901078303655L164.49692307692308,157.19252305030824L164.67538461538462,157.40670665899913L165.02115384615382,157.17551228205363L165.34461538461537,157.3556711713473L165.62346153846153,157.27940457661947L165.67923076923077,157.35955005089443L165.82423076923078,155.97401236693065L166.03615384615384,156.77904821236928L166.50461538461536,156.67691640853883L166.51576923076922,157.5245173692703L166.73884615384614,157.0964252948761L167.38576923076923,157.63108788728715L167.57538461538462,157.37039980888366L167.87653846153844,157.373025337855L167.8876923076923,157.42509031295776L167.97692307692307,157.3389083147049L168.11076923076925,157.67568014860154L168.24461538461537,157.58142669995627L168.4119230769231,157.50855978329977L168.45653846153846,157.62690451145173L168.64615384615385,157.59253427187602L168.84692307692308,157.57978539069495L169.0476923076923,157.76228865385056L169.215,157.3360921661059L169.32653846153843,157.7950016697248L169.35999999999999,157.56707399686178L169.49384615384616,157.57611233790715L169.505,157.41608981291452L169.5496153846154,157.8829229394595L169.8619230769231,157.7766077597936L170.15192307692308,157.994322959582L170.51999999999998,157.17513104279837L170.6873076923077,157.1842362244924L171.08884615384613,157.4542773962021L171.67999999999998,157.89696124394735L171.7246153846154,157.84097141424814L171.9476923076923,157.5500607530276L172.49423076923077,157.6785748084386L172.8176923076923,157.70473390420278L173.28615384615387,157.71493470668793L173.85500000000002,157.758340104421L174.0223076923077,157.65488421916962L174.11153846153846,158.08510776758195L174.17846153846156,157.95988411108652L174.73615384615385,157.7770141084989L174.7696153846154,157.3623732725779L174.8030769230769,157.88205259641012L174.94807692307694,158.24551259279252L175.24923076923076,157.5395038207372L175.52807692307692,157.71106926600137L175.60615384615386,157.92528717915218L175.85153846153847,158.31213574409486L176.23076923076923,157.62398226658502L176.62115384615385,158.27944288651148L176.8776923076923,158.18847559293113L176.91115384615384,158.24939288695654L177.05615384615385,157.7416836977005L177.64730769230772,158.24459132353465L177.65846153846152,157.98624903361002L177.87038461538464,158.10772254069647L177.90384615384616,157.78951189517974L178.00423076923076,157.7685748577118L178.01538461538462,158.36470856666566L178.0823076923077,158.08551199436187L178.3053846153846,158.287970550855L178.3276923076923,158.21355003118515L179.2423076923077,157.8460053284963L179.30923076923077,157.70022552013398L180.14576923076925,158.2549753189087L180.81500000000003,158.44785691897073L180.88192307692307,158.44347761869432L181.1384615384615,158.40162759224575L181.55115384615385,158.50206822156906L181.56230769230768,158.2101666212082L181.6292307692308,157.48717254400253L181.72961538461539,158.49977972507477L181.91923076923078,158.04075139363607L182.05307692307693,158.06520941257477L182.12,158.56378017663957L182.34307692307692,158.66062873999277L182.77807692307692,158.19136176506677L183.33576923076924,158.45644470453263L183.60346153846154,158.21346197128295L183.86,158.12727679014205L184.26153846153846,158.22681878407798L184.5292307692308,158.69943734010062L184.5626923076923,158.32487366199493L185.39923076923077,158.7731643438339L185.46615384615384,158.8575731197993L185.80076923076922,158.97651693820953L185.90115384615385,158.5998981753985L185.94576923076923,158.4137823343277L186.0126923076923,158.33201040426889L186.67076923076922,157.99195772012075L187.03884615384615,158.57718579371772L187.05,158.92155518134436L187.13923076923078,158.3555050690969L187.18384615384613,158.59660105705262L187.37346153846156,158.55800677140553L187.4403846153846,158.9231830517451L187.48499999999999,158.9947838862737L187.78615384615384,158.73628811041513L188.0873076923077,158.72209985653558L188.29923076923075,158.57943397363027L188.65615384615384,158.3281124273936L188.66730769230767,158.65089759031932L188.67846153846153,159.01575522820156L188.94615384615383,158.6540610273679L189.80499999999998,158.97171431382498L190.5076923076923,158.57554519176483L190.97615384615384,158.4497192621231L191.02076923076922,158.6387311776479L191.51153846153846,158.80347993771235L191.72346153846155,159.21592458089194L192.13615384615383,158.43873193264008L192.47076923076924,158.5138905286789L192.54884615384617,158.49826113382974L192.6603846153846,158.7575738509496L193.11769230769232,158.55928417046866L193.3073076923077,157.40302370389304L193.37423076923076,159.0601911743482L193.4523076923077,158.81197046836218L193.97653846153847,159.1552000284195L194.0323076923077,159.18332508802413L194.21076923076924,158.85259614388147L194.27769230769232,158.98241447607677L194.38923076923075,158.8387601296107L194.59,159.17108546892803L194.7796153846154,158.966343720754L194.8019230769231,159.19196167786916L195.15884615384616,158.28572838306428L195.50461538461536,159.10241536696753L196.02884615384616,159.00393044551214L196.1626923076923,158.8704684138298L196.28538461538463,159.13029074668884L196.99923076923076,158.8497757514318L197.345,158.94127388000487L197.7576923076923,159.21642323335013L198.02538461538464,158.85953590075175L198.1257692307692,159.19161403576533L198.1926923076923,159.28157164653143L198.36,159.08566807111106L198.70576923076922,159.23821434577306L198.73923076923077,159.14366099834442L198.95115384615383,159.13421666224798L199.16307692307694,159.34571992556255L200.42346153846154,159.25646608670553L200.5126923076923,159.30027641852698L200.57961538461538,159.56727474927902L200.8473076923077,158.94855349858602L200.85846153846154,159.24231355190278L201.28230769230768,158.7489899555842L201.58346153846153,159.33161230484643L201.71730769230768,159.54660648902257L201.95153846153846,159.24031080802283L202.60961538461538,159.37679587602616L202.75461538461536,159.38428202867507L202.86615384615385,159.35356715917587L202.91076923076923,159.29637808799743L203.435,157.966272521019L204.23807692307693,158.86563254594802L204.48346153846154,159.42149105072022L204.52807692307692,159.36402188539506L204.56153846153848,159.55155305067697L204.67307692307693,159.30945975780486L204.89615384615385,159.40063500006994L205.18615384615384,159.3853624423345L205.5653846153846,159.7576478799184L205.66576923076923,159.46986458301544L206.29038461538462,159.30771376689276L206.8926923076923,159.305344637235L207.18269230769232,159.6491647998492L207.23846153846154,159.4941234946251L207.46153846153845,159.4714775999387L208.0303846153846,159.34689971605937L208.07500000000002,159.33215763966243L208.43192307692308,159.6321101784706L208.97846153846154,159.41807475090027L209.20153846153846,159.5123784184456L209.55846153846156,159.6236794153849L209.67,159.1559869090716L209.68115384615385,159.63433855374655L209.95999999999998,159.466193652153L210.0603846153846,159.63069839080174L210.21653846153845,159.52311677535374L210.685,159.68001971642175L210.96384615384616,159.20188663005828L211.80038461538462,159.54161536693573L212.5476923076923,159.6332372744878L212.89346153846154,159.41052069664002L213.27269230769232,159.8341920932134L213.28384615384616,159.9207878669103L213.52923076923076,159.67584907213848L213.9530769230769,159.68030900557835L214.00884615384615,159.6605252345403L214.0646153846154,159.79814553260803L214.4773076923077,159.64300414323807L214.56653846153844,159.89531768957772L214.7226923076923,159.8412559827169L214.8453846153846,159.96470500230788L215.04615384615386,159.20301443338394L215.06846153846152,159.86194970607758L215.32500000000002,159.92382717132568L215.33615384615385,159.64869267145792L215.34730769230768,159.4914629538854L215.38076923076923,159.7634605407715L215.59269230769232,159.75694552262624L215.9830769230769,159.6633728583654L216.17269230769233,159.9191069483757L216.3176923076923,160.05213539997737L216.32884615384614,159.85179063479106L216.56307692307692,159.5925192952156L216.67461538461538,159.75850301583608L216.76384615384617,160.1111967166265L216.8753846153846,159.70126726229987L217.42192307692306,159.74086451133093L217.51115384615386,159.99342137177786L217.55576923076924,159.64570500055947L217.86807692307693,159.77471134265264L218.02423076923077,160.1573779463768L218.09115384615384,159.69527529875438L218.2473076923077,159.68509005705516L218.3476923076923,159.84435187180839L218.42576923076925,159.89926093419393L218.43692307692308,159.89818511803946L218.48153846153846,159.66323210398355L218.76038461538462,159.89323289791741L218.87192307692308,159.77406910657882L218.91653846153847,159.64159058729808L219.095,159.7670186559359L219.25115384615384,159.65468640327452L219.65269230769232,159.9144829193751L219.74192307692306,159.4824865023295L219.8646153846154,159.6798397064209L220.41115384615384,159.8817189772924L220.4223076923077,159.77098842461905L220.47807692307694,159.98247718811035L220.7792307692308,160.14725035031637L221.2030769230769,159.96136544545493L222.44115384615384,159.9064305663109L222.54153846153844,160.11061778465907L222.72,159.62851775884627L222.75346153846155,159.87676003774007L222.85384615384615,160.09215880235035L223.16615384615383,160.01688562234244L223.54538461538462,160.06489701271056L223.55653846153845,159.95299727916716L223.65692307692308,159.59997680187226L223.6903846153846,159.99354656537375L224.1253846153846,160.02278952598573L224.40423076923076,159.7977964758873L224.57153846153844,160.00435636043548L224.59384615384613,159.81736946900685L224.68307692307692,159.7101050813993L224.86153846153846,159.94728328784308L225.0846153846154,159.78322167793908L225.3523076923077,160.17643389701843L225.5976923076923,159.95663638114928L225.91,160.22855810920396L226.04384615384615,160.04066745440164L226.5123076923077,159.84116580088934L226.54576923076925,160.06717985073726L227.00307692307692,160.1884882013003L227.0923076923077,160.3301399807135L227.99576923076924,159.9229370236397L228.00692307692307,160.23915323615074L228.97730769230768,160.28681822220483L229.06653846153847,160.264249954621L229.5573076923077,159.78997505903243L229.56846153846155,159.99333437283835L230.1373076923077,160.10486135482788L230.23769230769233,159.84031420151393L230.80653846153848,160.12904352347056L230.9180769230769,160.1231428027153L230.99615384615385,160.02689474423727L231.3196153846154,160.3645494759083L231.7323076923077,160.04368624687194L231.9219230769231,160.33464588920276L232.39038461538462,160.41670816938083L232.92576923076922,160.35006415247918L233.37192307692308,160.38480732043584L233.65076923076924,160.04903208414714L233.8626923076923,160.1805889805158L233.91846153846154,160.33585061232247L233.9742307692308,160.22227791746457L234.175,160.28896242777506L234.23076923076923,160.115251715978L234.28653846153847,160.21064905921617L234.42038461538462,159.8887641231219L234.65461538461537,159.9017460624377L235.17884615384617,160.14115830262503L235.41307692307694,159.91802158355713L235.82576923076923,160.35335030754408L236.0042307692308,160.42200131217638L236.38346153846152,159.92959704001746L236.50615384615384,160.25479854544005L236.65115384615382,160.28402506113054L237.06384615384616,160.4616392314434L237.1419230769231,160.03224906921386L237.18653846153848,160.45262582302092L237.46538461538464,160.30957657893498L237.75538461538463,160.22044758001962L238.65884615384613,160.28043847680092L238.69230769230768,160.1836792111397L238.74807692307692,160.21386837363244L239.30576923076922,160.09516344865165L239.52884615384613,160.3076698521773L239.69615384615386,160.2221514860789L239.72961538461539,160.49454799493154L239.75192307692308,160.286925025781L239.975,160.12766002813976L240.0419230769231,159.88826653162639L240.29846153846154,160.3365324576696L240.5773076923077,160.23522961934407L240.5996153846154,159.7227125008901L240.74461538461537,159.98923976421355L241.19076923076923,160.29438129464785L241.25769230769228,159.95734262863795L241.41384615384615,160.4123854537805L241.53653846153844,160.26322860121726L241.63692307692307,160.29378485679626L241.68153846153845,160.30976790587107L242.14999999999998,160.00723227659861L242.2280769230769,160.3009214222431L242.27269230769232,160.06955534617106L242.32846153846154,160.28441089789072L242.3396153846154,159.96436301867166L242.78576923076923,160.19307191371917L242.9976923076923,160.39300926923752L243.29884615384614,160.38624899188676L243.5553846153846,160.41300629377366L244.33615384615385,160.54969099958737L244.4476923076923,160.08814058303832L244.58153846153846,160.35567611455917L244.77115384615385,160.28355257908504L244.94961538461538,160.30465901692708L245.03884615384615,160.4621143658956L245.13923076923078,160.35274768074353L245.2173076923077,160.2589633544286L245.66346153846155,160.55083418687184L245.80846153846156,160.13477661212286L245.86423076923074,160.473686816295L245.93115384615385,160.33533109426497L245.96461538461537,160.38765034675598L246.81230769230768,160.27639921506247L246.82346153846154,160.18047793308892L246.84576923076924,160.2541547179222L247.31423076923076,160.3001524011294L247.3476923076923,160.18364349206288L247.69346153846155,160.41906350652377L247.93884615384616,160.29998476902642L247.99461538461537,160.54978241920472L248.02807692307692,160.41944456895192L248.08384615384617,160.40191286802292L248.54115384615383,160.24156392018L248.70846153846156,160.36504653692245L248.87576923076924,160.39440814852713L248.97615384615386,160.4888997832934L248.99846153846156,160.56122313340506L249.2103846153846,160.45648808081944L249.43346153846153,160.40970174868903L249.54500000000002,160.39153028726577L249.70115384615386,160.4544756114483L249.7123076923077,160.21290236711502L250.15846153846152,160.56353143453597L250.18076923076922,160.50122480988503L250.42615384615385,160.51635007063547L250.68269230769232,160.58264750639597L251.14,160.40222196181617L251.28500000000003,160.43370107809702L251.29615384615386,160.29607087771097L251.40769230769232,160.43421387672424L251.50807692307694,160.4416346033414L251.51923076923077,160.48618035912514L251.54153846153847,160.4491890112559L251.59730769230768,160.30197195212045L251.72,160.44803662896157L252.53423076923076,160.40890266696613L252.94692307692307,160.54863003691037L252.95807692307693,160.44396624565124L253.1476923076923,160.555195804437L253.1923076923077,160.40291388630868L253.60500000000002,160.4788812895616L253.95076923076923,160.55985307693481L253.96192307692306,160.3642368455728L253.9953846153846,160.45686118602754L254.00653846153847,160.53111000657083L254.38576923076923,160.25353599985442L254.44153846153847,160.36904336015382L254.54192307692307,160.37554122606912L254.5976923076923,160.3532641927401L254.80961538461537,160.54118720690408L255.1776923076923,160.44398958683013L255.44538461538463,160.5071792860826L255.45653846153846,160.43651386698087L255.85807692307694,160.34109919468563L256.2819230769231,160.62667904893556L256.7280769230769,160.3049734155337L256.79499999999996,160.3316677669684L256.8173076923077,160.08920543591182L256.8284615384615,160.59874460895855L257.02923076923076,160.47861569523812L257.17423076923075,160.50960411628088L257.2746153846154,160.4226629992326L257.3192307692308,160.47123687664669L258.0330769230769,160.47090143561363L258.75807692307694,160.53090630173682L259.0146153846154,160.38756458560624L259.19307692307694,160.56903818448384L259.41615384615386,160.41668889522552L259.95153846153846,160.55312869548797L259.985,160.408161230882L260.04076923076923,160.6028664489587L260.7880769230769,160.64711442788442L260.98884615384617,160.5225464463234L261.8253846153846,160.66238822340966L262.2603846153846,160.6011174519857L262.27153846153846,160.63856925765674L262.65076923076924,160.37267521222432L262.97423076923076,160.43370514512063L263.11923076923074,160.5427950958411L263.24192307692306,160.41311610341072L263.47615384615386,160.6273200472196L263.67692307692306,160.63577061494192L263.83307692307693,160.43486884435018L263.84423076923076,160.4150528907776" style="fill: none;" fill="none"></path></g></g></g></g></g></g><g transform="translate(40, 178)" clip-path="url(#clip_1)"><clipPath id="clip_1"><rect width="290" height="22"></rect></clipPath><g><g><line x1="0" y1="0" x2="0" y2="5" style="visibility: inherit;" fill="rgb(0, 0, 0)" stroke="rgb(204, 204, 204)" stroke-width="1px"></line><line x1="22.30769230769231" y1="0" x2="22.30769230769231" y2="5" style="visibility: inherit;" fill="rgb(0, 0, 0)" stroke="rgb(204, 204, 204)" stroke-width="1px"></line><line x1="44.61538461538462" y1="0" x2="44.61538461538462" y2="5" style="visibility: inherit;" fill="rgb(0, 0, 0)" stroke="rgb(204, 204, 204)" stroke-width="1px"></line><line x1="66.92307692307692" y1="0" x2="66.92307692307692" y2="5" style="visibility: inherit;" fill="rgb(0, 0, 0)" stroke="rgb(204, 204, 204)" stroke-width="1px"></line><line x1="89.23076923076924" y1="0" x2="89.23076923076924" y2="5" style="visibility: inherit;" fill="rgb(0, 0, 0)" stroke="rgb(204, 204, 204)" stroke-width="1px"></line><line x1="111.53846153846155" y1="0" x2="111.53846153846155" y2="5" style="visibility: inherit;" fill="rgb(0, 0, 0)" stroke="rgb(204, 204, 204)" stroke-width="1px"></line><line x1="133.84615384615384" y1="0" x2="133.84615384615384" y2="5" style="visibility: inherit;" fill="rgb(0, 0, 0)" stroke="rgb(204, 204, 204)" stroke-width="1px"></line><line x1="156.15384615384616" y1="0" x2="156.15384615384616" y2="5" style="visibility: inherit;" fill="rgb(0, 0, 0)" stroke="rgb(204, 204, 204)" stroke-width="1px"></line><line x1="178.46153846153848" y1="0" x2="178.46153846153848" y2="5" style="visibility: inherit;" fill="rgb(0, 0, 0)" stroke="rgb(204, 204, 204)" stroke-width="1px"></line><line x1="200.76923076923077" y1="0" x2="200.76923076923077" y2="5" style="visibility: inherit;" fill="rgb(0, 0, 0)" stroke="rgb(204, 204, 204)" stroke-width="1px"></line><line x1="223.0769230769231" y1="0" x2="223.0769230769231" y2="5" style="visibility: inherit;" fill="rgb(0, 0, 0)" stroke="rgb(204, 204, 204)" stroke-width="1px"></line><line x1="245.3846153846154" y1="0" x2="245.3846153846154" y2="5" style="visibility: inherit;" fill="rgb(0, 0, 0)" stroke="rgb(204, 204, 204)" stroke-width="1px"></line><line x1="267.6923076923077" y1="0" x2="267.6923076923077" y2="5" style="visibility: inherit;" fill="rgb(0, 0, 0)" stroke="rgb(204, 204, 204)" stroke-width="1px"></line><line x1="290" y1="0" x2="290" y2="5" style="visibility: inherit;" fill="rgb(0, 0, 0)" stroke="rgb(204, 204, 204)" stroke-width="1px"></line></g><g transform="translate(0, 8)"><text x="0" y="0" dx="0em" dy="0.95em" style="text-anchor: middle; visibility: hidden; font-family: &quot;Helvetica Neue&quot;, sans-serif; font-size: 12px; font-weight: 200;" fill="rgb(50, 49, 63)" stroke="none" stroke-width="1px">-2k</text><text x="22.30769230769231" y="0" dx="0em" dy="0.95em" style="text-anchor: middle; visibility: inherit; font-family: &quot;Helvetica Neue&quot;, sans-serif; font-size: 12px; font-weight: 200;" fill="rgb(50, 49, 63)" stroke="none" stroke-width="1px">0</text><text x="44.61538461538462" y="0" dx="0em" dy="0.95em" style="text-anchor: middle; visibility: hidden; font-family: &quot;Helvetica Neue&quot;, sans-serif; font-size: 12px; font-weight: 200;" fill="rgb(50, 49, 63)" stroke="none" stroke-width="1px">2k</text><text x="66.92307692307692" y="0" dx="0em" dy="0.95em" style="text-anchor: middle; visibility: inherit; font-family: &quot;Helvetica Neue&quot;, sans-serif; font-size: 12px; font-weight: 200;" fill="rgb(50, 49, 63)" stroke="none" stroke-width="1px">4k</text><text x="89.23076923076924" y="0" dx="0em" dy="0.95em" style="text-anchor: middle; visibility: hidden; font-family: &quot;Helvetica Neue&quot;, sans-serif; font-size: 12px; font-weight: 200;" fill="rgb(50, 49, 63)" stroke="none" stroke-width="1px">6k</text><text x="111.53846153846155" y="0" dx="0em" dy="0.95em" style="text-anchor: middle; visibility: inherit; font-family: &quot;Helvetica Neue&quot;, sans-serif; font-size: 12px; font-weight: 200;" fill="rgb(50, 49, 63)" stroke="none" stroke-width="1px">8k</text><text x="133.84615384615384" y="0" dx="0em" dy="0.95em" style="text-anchor: middle; visibility: hidden; font-family: &quot;Helvetica Neue&quot;, sans-serif; font-size: 12px; font-weight: 200;" fill="rgb(50, 49, 63)" stroke="none" stroke-width="1px">10k</text><text x="156.15384615384616" y="0" dx="0em" dy="0.95em" style="text-anchor: middle; visibility: inherit; font-family: &quot;Helvetica Neue&quot;, sans-serif; font-size: 12px; font-weight: 200;" fill="rgb(50, 49, 63)" stroke="none" stroke-width="1px">12k</text><text x="178.46153846153848" y="0" dx="0em" dy="0.95em" style="text-anchor: middle; visibility: hidden; font-family: &quot;Helvetica Neue&quot;, sans-serif; font-size: 12px; font-weight: 200;" fill="rgb(50, 49, 63)" stroke="none" stroke-width="1px">14k</text><text x="200.76923076923077" y="0" dx="0em" dy="0.95em" style="text-anchor: middle; visibility: inherit; font-family: &quot;Helvetica Neue&quot;, sans-serif; font-size: 12px; font-weight: 200;" fill="rgb(50, 49, 63)" stroke="none" stroke-width="1px">16k</text><text x="223.0769230769231" y="0" dx="0em" dy="0.95em" style="text-anchor: middle; visibility: hidden; font-family: &quot;Helvetica Neue&quot;, sans-serif; font-size: 12px; font-weight: 200;" fill="rgb(50, 49, 63)" stroke="none" stroke-width="1px">18k</text><text x="245.3846153846154" y="0" dx="0em" dy="0.95em" style="text-anchor: middle; visibility: inherit; font-family: &quot;Helvetica Neue&quot;, sans-serif; font-size: 12px; font-weight: 200;" fill="rgb(50, 49, 63)" stroke="none" stroke-width="1px">20k</text><text x="267.6923076923077" y="0" dx="0em" dy="0.95em" style="text-anchor: middle; visibility: hidden; font-family: &quot;Helvetica Neue&quot;, sans-serif; font-size: 12px; font-weight: 200;" fill="rgb(50, 49, 63)" stroke="none" stroke-width="1px">22k</text><text x="290" y="0" dx="0em" dy="0.95em" style="text-anchor: middle; visibility: hidden; font-family: &quot;Helvetica Neue&quot;, sans-serif; font-size: 12px; font-weight: 200;" fill="rgb(50, 49, 63)" stroke="none" stroke-width="1px">24k</text></g><line x1="0" y1="0" x2="290" y2="0" fill="rgb(0, 0, 0)" stroke="rgb(204, 204, 204)" stroke-width="1px"></line></g></g></g></g></svg>