<svg viewBox="0 0 330 200" xmlns="http://www.w3.org/2000/svg"><g><g><g><g><g><line x1="40" y1="178" x2="35" y2="178" style="visibility: inherit;" fill="rgb(0, 0, 0)" stroke="rgb(204, 204, 204)" stroke-width="1px"></line><line x1="40" y1="163.16666666666666" x2="35" y2="163.16666666666666" style="visibility: inherit;" fill="rgb(0, 0, 0)" stroke="rgb(204, 204, 204)" stroke-width="1px"></line><line x1="40" y1="148.33333333333334" x2="35" y2="148.33333333333334" style="visibility: inherit;" fill="rgb(0, 0, 0)" stroke="rgb(204, 204, 204)" stroke-width="1px"></line><line x1="40" y1="133.5" x2="35" y2="133.5" style="visibility: inherit;" fill="rgb(0, 0, 0)" stroke="rgb(204, 204, 204)" stroke-width="1px"></line><line x1="40" y1="118.66666666666667" x2="35" y2="118.66666666666667" style="visibility: inherit;" fill="rgb(0, 0, 0)" stroke="rgb(204, 204, 204)" stroke-width="1px"></line><line x1="40" y1="103.83333333333333" x2="35" y2="103.83333333333333" style="visibility: inherit;" fill="rgb(0, 0, 0)" stroke="rgb(204, 204, 204)" stroke-width="1px"></line><line x1="40" y1="89" x2="35" y2="89" style="visibility: inherit;" fill="rgb(0, 0, 0)" stroke="rgb(204, 204, 204)" stroke-width="1px"></line><line x1="40" y1="74.16666666666666" x2="35" y2="74.16666666666666" style="visibility: inherit;" fill="rgb(0, 0, 0)" stroke="rgb(204, 204, 204)" stroke-width="1px"></line><line x1="40" y1="59.33333333333334" x2="35" y2="59.33333333333334" style="visibility: inherit;" fill="rgb(0, 0, 0)" stroke="rgb(204, 204, 204)" stroke-width="1px"></line><line x1="40" y1="44.5" x2="35" y2="44.5" style="visibility: inherit;" fill="rgb(0, 0, 0)" stroke="rgb(204, 204, 204)" stroke-width="1px"></line><line x1="40" y1="29.666666666666657" x2="35" y2="29.666666666666657" style="visibility: inherit;" fill="rgb(0, 0, 0)" stroke="rgb(204, 204, 204)" stroke-width="1px"></line><line x1="40" y1="14.833333333333343" x2="35" y2="14.833333333333343" style="visibility: inherit;" fill="rgb(0, 0, 0)" stroke="rgb(204, 204, 204)" stroke-width="1px"></line><line x1="40" y1="0" x2="35" y2="0" style="visibility: inherit;" fill="rgb(0, 0, 0)" stroke="rgb(204, 204, 204)" stroke-width="1px"></line></g><g transform="translate(30, 0)"><text x="0" y="178" dx="0em" dy="0.3em" style="text-anchor: end; visibility: hidden; font-family: &quot;Helvetica Neue&quot;, sans-serif; font-size: 12px; font-weight: 200;" fill="rgb(50, 49, 63)" stroke="none" stroke-width="1px">-10</text><text x="0" y="163.16666666666666" dx="0em" dy="0.3em" style="text-anchor: end; visibility: inherit; font-family: &quot;Helvetica Neue&quot;, sans-serif; font-size: 12px; font-weight: 200;" fill="rgb(50, 49, 63)" stroke="none" stroke-width="1px">0</text><text x="0" y="148.33333333333334" dx="0em" dy="0.3em" style="text-anchor: end; visibility: hidden; font-family: &quot;Helvetica Neue&quot;, sans-serif; font-size: 12px; font-weight: 200;" fill="rgb(50, 49, 63)" stroke="none" stroke-width="1px">10</text><text x="0" y="133.5" dx="0em" dy="0.3em" style="text-anchor: end; visibility: inherit; font-family: &quot;Helvetica Neue&quot;, sans-serif; font-size: 12px; font-weight: 200;" fill="rgb(50, 49, 63)" stroke="none" stroke-width="1px">20</text><text x="0" y="118.66666666666667" dx="0em" dy="0.3em" style="text-anchor: end; visibility: hidden; font-family: &quot;Helvetica Neue&quot;, sans-serif; font-size: 12px; font-weight: 200;" fill="rgb(50, 49, 63)" stroke="none" stroke-width="1px">30</text><text x="0" y="103.83333333333333" dx="0em" dy="0.3em" style="text-anchor: end; visibility: inherit; font-family: &quot;Helvetica Neue&quot;, sans-serif; font-size: 12px; font-weight: 200;" fill="rgb(50, 49, 63)" stroke="none" stroke-width="1px">40</text><text x="0" y="89" dx="0em" dy="0.3em" style="text-anchor: end; visibility: hidden; font-family: &quot;Helvetica Neue&quot;, sans-serif; font-size: 12px; font-weight: 200;" fill="rgb(50, 49, 63)" stroke="none" stroke-width="1px">50</text><text x="0" y="74.16666666666666" dx="0em" dy="0.3em" style="text-anchor: end; visibility: inherit; font-family: &quot;Helvetica Neue&quot;, sans-serif; font-size: 12px; font-weight: 200;" fill="rgb(50, 49, 63)" stroke="none" stroke-width="1px">60</text><text x="0" y="59.33333333333334" dx="0em" dy="0.3em" style="text-anchor: end; visibility: hidden; font-family: &quot;Helvetica Neue&quot;, sans-serif; font-size: 12px; font-weight: 200;" fill="rgb(50, 49, 63)" stroke="none" stroke-width="1px">70</text><text x="0" y="44.5" dx="0em" dy="0.3em" style="text-anchor: end; visibility: inherit; font-family: &quot;Helvetica Neue&quot;, sans-serif; font-size: 12px; font-weight: 200;" fill="rgb(50, 49, 63)" stroke="none" stroke-width="1px">80</text><text x="0" y="29.666666666666657" dx="0em" dy="0.3em" style="text-anchor: end; visibility: hidden; font-family: &quot;Helvetica Neue&quot;, sans-serif; font-size: 12px; font-weight: 200;" fill="rgb(50, 49, 63)" stroke="none" stroke-width="1px">90</text><text x="0" y="14.833333333333343" dx="0em" dy="0.3em" style="text-anchor: end; visibility: inherit; font-family: &quot;Helvetica Neue&quot;, sans-serif; font-size: 12px; font-weight: 200;" fill="rgb(50, 49, 63)" stroke="none" stroke-width="1px">100</text><text x="0" y="0" dx="0em" dy="0.3em" style="text-anchor: end; visibility: hidden; font-family: &quot;Helvetica Neue&quot;, sans-serif; font-size: 12px; font-weight: 200;" fill="rgb(50, 49, 63)" stroke="none" stroke-width="1px">110</text></g><line x1="40" y1="0" x2="40" y2="178" fill="rgb(0, 0, 0)" stroke="rgb(204, 204, 204)" stroke-width="1px"></line></g></g><g transform="translate(40, 0)" clip-path="url(#clip_0)"><clipPath id="clip_0"><rect width="290" height="178"></rect></clipPath><g><g><g><line x1="0" y1="0" x2="0" y2="178" fill="rgb(0, 0, 0)" stroke="rgb(60, 60, 60)" stroke-width="1px" opacity="0.25"></line><line x1="22.30769230769231" y1="0" x2="22.30769230769231" y2="178" fill="rgb(0, 0, 0)" stroke="rgb(60, 60, 60)" stroke-width="1px" opacity="0.25"></line><line x1="44.61538461538462" y1="0" x2="44.61538461538462" y2="178" fill="rgb(0, 0, 0)" stroke="rgb(60, 60, 60)" stroke-width="1px" opacity="0.25"></line><line x1="66.92307692307692" y1="0" x2="66.92307692307692" y2="178" fill="rgb(0, 0, 0)" stroke="rgb(60, 60, 60)" stroke-width="1px" opacity="0.25"></line><line x1="89.23076923076924" y1="0" x2="89.23076923076924" y2="178" fill="rgb(0, 0, 0)" stroke="rgb(60, 60, 60)" stroke-width="1px" opacity="0.25"></line><line x1="111.53846153846155" y1="0" x2="111.53846153846155" y2="178" fill="rgb(0, 0, 0)" stroke="rgb(60, 60, 60)" stroke-width="1px" opacity="0.25"></line><line x1="133.84615384615384" y1="0" x2="133.84615384615384" y2="178" fill="rgb(0, 0, 0)" stroke="rgb(60, 60, 60)" stroke-width="1px" opacity="0.25"></line><line x1="156.15384615384616" y1="0" x2="156.15384615384616" y2="178" fill="rgb(0, 0, 0)" stroke="rgb(60, 60, 60)" stroke-width="1px" opacity="0.25"></line><line x1="178.46153846153848" y1="0" x2="178.46153846153848" y2="178" fill="rgb(0, 0, 0)" stroke="rgb(60, 60, 60)" stroke-width="1px" opacity="0.25"></line><line x1="200.76923076923077" y1="0" x2="200.76923076923077" y2="178" fill="rgb(0, 0, 0)" stroke="rgb(60, 60, 60)" stroke-width="1px" opacity="0.25"></line><line x1="223.0769230769231" y1="0" x2="223.0769230769231" y2="178" fill="rgb(0, 0, 0)" stroke="rgb(60, 60, 60)" stroke-width="1px" opacity="0.25"></line><line x1="245.3846153846154" y1="0" x2="245.3846153846154" y2="178" fill="rgb(0, 0, 0)" stroke="rgb(60, 60, 60)" stroke-width="1px" opacity="0.25"></line><line x1="267.6923076923077" y1="0" x2="267.6923076923077" y2="178" fill="rgb(0, 0, 0)" stroke="rgb(60, 60, 60)" stroke-width="1px" opacity="0.25"></line><line x1="290" y1="0" x2="290" y2="178" fill="rgb(0, 0, 0)" stroke="rgb(60, 60, 60)" stroke-width="1px" opacity="0.25"></line></g><g><line x1="0" y1="178" x2="290" y2="178" fill="rgb(0, 0, 0)" stroke="rgb(60, 60, 60)" stroke-width="1px" opacity="0.25"></line><line x1="0" y1="163.16666666666666" x2="290" y2="163.16666666666666" fill="rgb(0, 0, 0)" stroke="rgb(60, 60, 60)" stroke-width="1px" opacity="0.25"></line><line x1="0" y1="148.33333333333334" x2="290" y2="148.33333333333334" fill="rgb(0, 0, 0)" stroke="rgb(60, 60, 60)" stroke-width="1px" opacity="0.25"></line><line x1="0" y1="133.5" x2="290" y2="133.5" fill="rgb(0, 0, 0)" stroke="rgb(60, 60, 60)" stroke-width="1px" opacity="0.25"></line><line x1="0" y1="118.66666666666667" x2="290" y2="118.66666666666667" fill="rgb(0, 0, 0)" stroke="rgb(60, 60, 60)" stroke-width="1px" opacity="0.25"></line><line x1="0" y1="103.83333333333333" x2="290" y2="103.83333333333333" fill="rgb(0, 0, 0)" stroke="rgb(60, 60, 60)" stroke-width="1px" opacity="0.25"></line><line x1="0" y1="89" x2="290" y2="89" fill="rgb(0, 0, 0)" stroke="rgb(60, 60, 60)" stroke-width="1px" opacity="0.25"></line><line x1="0" y1="74.16666666666666" x2="290" y2="74.16666666666666" fill="rgb(0, 0, 0)" stroke="rgb(60, 60, 60)" stroke-width="1px" opacity="0.25"></line><line x1="0" y1="59.33333333333334" x2="290" y2="59.33333333333334" fill="rgb(0, 0, 0)" stroke="rgb(60, 60, 60)" stroke-width="1px" opacity="0.25"></line><line x1="0" y1="44.5" x2="290" y2="44.5" fill="rgb(0, 0, 0)" stroke="rgb(60, 60, 60)" stroke-width="1px" opacity="0.25"></line><line x1="0" y1="29.666666666666657" x2="290" y2="29.666666666666657" fill="rgb(0, 0, 0)" stroke="rgb(60, 60, 60)" stroke-width="1px" opacity="0.25"></line><line x1="0" y1="14.833333333333343" x2="290" y2="14.833333333333343" fill="rgb(0, 0, 0)" stroke="rgb(60, 60, 60)" stroke-width="1px" opacity="0.25"></line><line x1="0" y1="0" x2="290" y2="0" fill="rgb(0, 0, 0)" stroke="rgb(60, 60, 60)" stroke-width="1px" opacity="0.25"></line></g></g></g><g><g><line x1="0" y1="163.16666666666666" x2="290" y2="163.16666666666666" fill="rgb(0, 0, 0)" stroke="rgb(153, 153, 153)" stroke-width="1.5px"></line></g></g><g><g><line x1="22.30769230769231" y1="0" x2="22.30769230769231" y2="178" fill="rgb(0, 0, 0)" stroke="rgb(153, 153, 153)" stroke-width="1.5px"></line></g></g><g><g><g><g><g><path stroke="rgb(255, 112, 67)" stroke-width="2px" d="M22.396923076923077,144.95740102132163L22.664615384615384,88.36551036834717L22.698076923076925,69.07304877196852L22.988076923076925,53.872652631647455L23.244615384615386,45.60032406934238L23.95846153846154,41.28435555127547L24.058846153846154,38.88462902406903L24.750384615384615,37.86748474950642L24.806153846153844,37.300674038548834L25.040384615384617,37.10293077075937L25.241153846153846,37.10569901704628L25.63153846153846,37.32255402351399L25.653846153846157,37.46300275582462L25.743076923076924,37.59406601173103L26.06653846153846,37.86786564576141L26.289615384615384,38.17408534693334L26.891923076923074,38.74950730741989L27.326923076923077,39.38590340605367L27.483076923076926,39.87412611524758L28.174615384615386,40.645194168235435L28.47576923076923,41.32093762962384L28.654230769230768,41.853768372314676L28.732307692307693,42.22962193229182L28.74346153846154,42.46316270388721L29.267692307692307,42.98553740295017L29.412692307692307,43.406092090230516L29.568846153846156,43.77456800513053L29.680384615384618,44.07894600708494L30.16,44.62402256989918L30.24923076923077,45.01907864799358L30.728846153846156,45.62633450689401L30.773461538461536,46.01213582802137L30.79576923076923,46.24937918473668L30.951923076923077,46.45031523022212L30.974230769230772,46.58368309794551L31.052307692307693,46.714281464525186L31.14153846153846,46.857196809287046L31.20846153846154,46.99377716200709L31.520769230769233,47.32245719556025L32.736538461538466,48.51251352384227L33.026538461538465,49.46830421695998L33.0376923076923,50.05113547438552L33.104615384615386,50.45697528092359L33.37230769230769,50.92603473732032L33.40576923076923,51.23582159722581L33.50615384615384,51.50678801247025L34.052692307692304,51.95474475370659L34.08615384615385,52.25074281780677L34.387307692307694,52.685131969986784L34.45423076923077,53.00407936510011L34.51,53.24408346297399L35.089999999999996,53.89726199795233L35.14576923076923,54.33855169747005L35.15692307692308,54.6131893579192L35.35769230769231,54.956236317795344L35.50269230769231,55.291258626207934L36.07153846153846,56.00279706618717L36.261153846153846,56.60108116329637L36.87461538461538,57.51704853928648L36.908076923076926,58.097107734818664L37.064230769230775,58.58813499204683L37.10884615384615,58.92376391962587L37.644230769230774,59.527702769093224L37.722307692307695,59.95827551073981L37.9676923076923,60.44089365117047L38.10153846153846,60.853370978706835L38.213076923076926,61.202542301579584L38.54769230769231,61.7216945500558L38.67038461538461,62.14860053130303L38.82653846153846,62.552312428563695L39.183461538461536,63.1326035826265L39.50692307692308,63.788684921792694L39.68538461538461,64.35252685069932L39.863846153846154,64.86134200763638L39.90846153846154,65.20932763500177L40.09807692307692,65.5997603484978L40.488461538461536,66.20895004047891L40.95692307692308,67.02632418179873L41.05730769230769,67.61383439046759L41.25807692307692,68.16068624422523L41.35846153846154,68.58611168244823L41.51461538461539,68.9928214894494L41.536923076923074,69.25851704121196L41.57038461538462,69.45043208345115L42.06115384615384,70.04329610513254L42.56307692307692,70.88867793468596L42.76384615384615,71.59170359206973L42.86423076923077,72.11165265857842L43.00923076923077,72.56552514922419L43.04269230769231,72.87057495688477L43.13192307692307,73.1409987420345L43.57807692307692,73.66968179526954L43.7676923076923,74.16978688070989L43.87923076923077,74.57868489799789L43.9126923076923,74.85680207954579L44.515,75.61597135392864L44.64884615384615,76.203258629211L44.90538461538462,76.80767498546935L45.362692307692306,77.61582953453515L45.45192307692307,78.18700710487636L45.49653846153846,78.57278363914651L45.574615384615385,78.87937590248205L46.16576923076923,79.62724735240232L46.24384615384616,80.14966610451594L46.589615384615385,80.78758520551554L46.634230769230776,81.21201693853556L46.723461538461535,81.54982602819294L46.8573076923077,81.87672163620289L47.08038461538461,82.27858503962376L47.136153846153846,82.57102764629214L47.14730769230769,82.75674182682963L47.370384615384616,83.07229615912675L47.42615384615385,83.31249159216388L47.81653846153846,83.81043962184292L47.92807692307693,84.20946743216336L48.06192307692308,84.56883684154087L48.35192307692308,85.04293049746195L48.45230769230769,85.41635364556376L48.84269230769231,85.98367507694601L48.853846153846156,86.33379597329161L48.87615384615384,86.56332911290563L49.36692307692308,87.12692337614996L49.55653846153846,87.62804832805813L49.57884615384616,87.94783533940488L49.63461538461539,88.1874423789766L49.91346153846154,88.56877849704742L49.924615384615386,88.80704791589608L50.036153846153844,89.04443128453114L50.058461538461536,89.20569494930754L50.114230769230765,89.34952254514606L50.270384615384614,89.56726983201928L50.33730769230769,89.75402983235772L50.43769230769231,89.95012539351457L50.605,90.20688597117548L50.67192307692307,90.41624591681173L52.14423076923077,91.7211838599015L52.345,92.66311335142267L52.7576923076923,93.55235185688225L52.91384615384615,94.20755880394869L53.30423076923077,94.90218423358179L54.23,96.02029486428644L54.497692307692304,96.89037551679777L55.28961538461538,97.99296684145074L55.378846153846155,98.71908475168034L55.78038461538461,99.44288919532787L56.08153846153846,100.09058209914659L56.115,100.5027506470205L56.761923076923075,101.20264770266543L57.45346153846154,102.09694659279067L57.832692307692305,102.88968928237524L57.84384615384616,103.37283576079071L58.22307692307692,103.91583143083966L58.33461538461538,104.31541072373817L58.379230769230766,104.58468418346979L58.401538461538465,104.76101459638559L58.41269230769231,104.87420053944756L59.059615384615384,105.36621651609204L59.50576923076923,105.94852769509632L59.85153846153846,106.51809895755258L60.15269230769231,107.0495429733678L60.20846153846154,107.40331986462779L60.45384615384615,107.76893726179425L60.665769230769236,108.1196543136602L60.83307692307692,108.4334058999637L61.011538461538464,108.73115272678649L62.35,109.68769526257744L62.55076923076923,110.37950477147874L62.573076923076925,110.80765248345203L62.66230769230769,111.11667823120078L62.97461538461538,111.48354036564103L63.13076923076923,111.79339867922349L63.75538461538462,112.33562963620435L63.8,112.68614612787333L63.92269230769231,112.96558438998083L64.5026923076923,113.43207554853927L64.73692307692308,113.84064606052819L64.7926923076923,114.11634182943214L64.815,114.29397252726541L64.92653846153846,114.4615718606789L65.29461538461538,114.7616965598074L65.42846153846153,115.01392136809473L66.00846153846153,115.47467484234122L66.32076923076923,115.91472793752956L66.63307692307693,116.34113065442448L67.05692307692308,116.81569469158453L67.17961538461539,117.16323078742386L67.21307692307693,117.38870634558256L67.84884615384615,117.844152304664L67.90461538461538,118.14530933527237L68.02730769230769,118.38726665076466L68.84153846153846,118.9325094121507L68.97538461538461,119.32463351594276L68.9976923076923,119.57069414917747L69.05346153846153,119.74521956720424L69.0646153846154,119.85529678192819L69.34346153846154,120.05500630096844L69.39923076923077,120.20149923854818L69.4326923076923,120.30537790870915L69.745,120.51617764244229L69.77846153846154,120.65847516304105L70.2023076923077,120.9432388352107L70.3473076923077,121.18121325453625L70.36961538461539,121.33411977299356L71.195,121.80275610451879L71.27307692307693,122.11921505390595L71.64115384615384,122.47431541438294L72.29923076923077,122.97866901649273L72.48884615384615,123.36399552559794L72.72307692307692,123.69656627338692L73.25846153846155,124.12553694980282L73.29192307692307,124.39712550443573L73.81615384615385,124.78135074974395L74.2176923076923,125.17911851208189L74.2623076923077,125.43617937446103L74.35153846153845,125.6270861570863L74.76423076923076,125.91076182354459L74.82000000000001,126.10370973644038L75.17692307692307,126.36348422148257L75.26615384615386,126.55520322667616L75.60076923076922,126.80343835242823L75.7346153846154,127.00520914487979L75.75692307692307,127.1350648790177L76.18076923076923,127.3789954958107L76.31461538461538,127.57740497774358L76.78307692307692,127.87735866657778L77.54153846153847,128.34449584773313L77.64192307692308,128.6622722945082L77.67538461538462,128.86536302575277L78.52307692307691,129.2990748533138L78.54538461538462,129.56740148038836L78.55653846153847,129.73244439266824L79.14769230769231,130.04384714148065L79.46000000000001,130.3406543186205L80.19615384615383,130.7751679283915L80.63115384615384,131.18510799224407L81.63499999999999,131.76824427176652L81.81346153846154,132.17696957585696L81.96961538461538,132.4733154328514L82.64999999999999,132.87171943854386L82.89538461538461,133.18903316103075L83.70961538461539,133.6354953462441L83.73192307692308,133.91028277801828L84.08884615384615,134.18526562170598L84.35653846153846,134.43209034989127L84.5126923076923,134.62728174441963L84.99230769230769,134.88843966432756L85.32692307692308,135.1446906271081L85.37153846153846,135.3116424097121L85.53884615384615,135.46105799119675L85.99615384615385,135.68370396280886L86.02961538461538,135.82695054998754L86.62076923076923,136.08264347706694L86.97769230769231,136.33675392783357L87.16730769230769,136.54214045077566L87.20076923076924,136.6747382601301L87.58,136.8464326421539L87.60230769230769,136.9554268765521L87.68038461538461,137.0419419500076L88.08192307692308,137.20367845532357L88.31615384615384,137.36334827802813L88.58384615384615,137.53106816328904L88.63961538461538,137.6467063505491L88.70653846153846,137.7341035603905L89.00769230769231,137.86652885274634L89.23076923076924,138.0047924820376L89.28653846153846,138.10227934104955L89.45384615384616,138.20434844722007L89.50961538461539,138.28015820163282L89.98923076923076,138.44988815930162L90.46884615384616,138.67383699663486L90.58038461538462,138.83654843160315L91.13807692307691,139.0732717433898L91.35,139.26789779182243L91.495,139.42056847601714L91.56192307692307,139.52859402292717L91.70692307692308,139.62905203855286L92.3426923076923,139.84323999617249L92.59923076923076,140.0326299603805L92.655,140.15947476323595L92.9226923076923,140.2988093620309L93.0453846153846,140.41133790527397L93.16807692307692,140.50771151849398L93.31307692307692,140.59943160495422L93.58076923076922,140.716398414063L94.65153846153846,141.02994805977002L94.69615384615385,141.22800506277036L94.91923076923077,141.39650306894274L95.52153846153846,141.62984252409473L95.63307692307691,141.79405481916467L95.845,141.9384525638926L96.4473076923077,142.15389094802387L96.54769230769232,142.30445358228275L96.68153846153847,142.42293355149977L96.715,142.5009859749652L96.8823076923077,142.5828093927489L96.91576923076923,142.6388916509183L97.04961538461538,142.70054419617844L97.35076923076923,142.8001240335762L97.39538461538461,142.8690743018901L97.51807692307692,142.93572083769533L98.39923076923077,143.1538254367806L98.55538461538461,143.31589294756438L98.64461538461538,143.43092650543642L98.81192307692308,143.5331403428574L99.53692307692307,143.73631963814853L99.89384615384616,143.92700475743746L100.18384615384616,144.0901646591703L100.42923076923077,144.2318322422592L101.45538461538462,144.50314858928252L101.54461538461538,144.68213915611264L101.80115384615384,144.83604666581724L102.00192307692308,144.96416626726176L102.68230769230769,145.16029815487812L103.02807692307692,145.33860946543663L103.61923076923077,145.54788776585053L103.74192307692309,145.69454385488385L103.9426923076923,145.81664448767395L104.05423076923077,145.9089308988422L104.06538461538462,145.96620625404734L104.27730769230769,146.0362848854952L104.53384615384616,146.12089392603792L104.74576923076923,146.2066524457615L105.18076923076923,146.32947724372238L105.21423076923078,146.4086557434604L105.29230769230769,146.4689357022408L105.40384615384615,146.5232164323308L105.4373076923077,146.56119832634795L105.60461538461539,146.61122166736843L105.9726923076923,146.70040287270498L106.18461538461538,146.7878856012882L107.06576923076923,146.9785487931765L107.45615384615385,147.15269786289116L107.64576923076923,147.28616884412833L107.81307692307693,147.39153176861487L107.93576923076924,147.47348584125925L108.0026923076923,147.5328101415862L108.28153846153846,147.61018854415988L108.39307692307692,147.67328373374488L108.59384615384616,147.74085289507278L108.75,147.8044860323419L108.97307692307692,147.8753588430176L109.0623076923077,147.93096434069216L109.17384615384616,147.98059460198408L109.56423076923076,148.06672091091986L109.62,148.12629987799315L110.30038461538462,148.2583973813247L110.31153846153846,148.33921479115037L110.66846153846154,148.43764856971788L111.32653846153846,148.5875238469292L111.71692307692307,148.73036134388343L111.8396153846154,148.83257977731802L111.97346153846155,148.91190476438072L112.16307692307691,148.98487062784434L113.43461538461538,149.19442513981897L113.47923076923077,149.3258157487677L113.63538461538461,149.42451642807123L113.825,149.50778136207143L113.89192307692308,149.56626593562055L114.36038461538462,149.63157006755722L114.53884615384615,149.67746009422493L114.66153846153847,149.7175740154176L115.07423076923077,149.79123940258756L115.13000000000001,149.84229726348045L115.15230769230769,149.87568369281524L115.21923076923076,149.90398879590967L115.47576923076923,149.95220263804995L115.53153846153846,149.98787640257282L115.63192307692307,150.02146617128614L116.63576923076923,150.16134981207546L116.66923076923077,150.2492182900061L116.98153846153846,150.33831879672704L117.03730769230769,150.39831180161616L117.09307692307692,150.440731662828L117.74000000000001,150.5402382085631L118.02999999999999,150.63291855354566L118.13038461538461,150.6999608260361L118.49846153846154,150.78144830119416L118.50961538461539,150.83159130763096L118.61,150.87284636070976L119.03384615384616,150.94424836538622L119.12307692307692,150.9968521223608L119.17884615384617,151.0345860671685L120.05999999999999,151.15220409582173L120.36115384615384,151.2546974409627L120.56192307692308,151.33731763933145L120.59538461538462,151.39040904228315L120.82961538461538,151.446738736934L120.95230769230768,151.4933447780847L121.22,151.54890163715518L121.29807692307692,151.59011318828166L121.4876923076923,151.63411964980068L121.50999999999999,151.66281152809046L121.54346153846154,151.6834480475051L121.7776923076923,151.71957034293789L121.85576923076923,151.7490971073944L122.1123076923077,151.79260700774822L122.30192307692307,151.8375762985108L122.5026923076923,151.88441767966498L122.56961538461539,151.91905294582693L122.68115384615385,151.95086783444157L122.89307692307693,151.99088659053209L123.19423076923077,152.04446843007304L123.28346153846154,152.085349398091L123.5176923076923,152.13253731244876L124.30961538461538,152.23610173889443L125.10153846153845,152.37155687666998L125.17961538461539,152.46002554967245L125.48076923076924,152.54062416438802L125.715,152.61009394417928L126.005,152.67801667267517L126.10538461538461,152.72770616182348L126.46230769230769,152.78931280435322L126.69653846153845,152.84694886959312L127.17615384615385,152.92315476232798L127.20961538461539,152.97174233135004L127.4326923076923,153.02017496945314L127.51076923076924,153.05595002167533L127.80076923076923,153.10219772652653L128.58153846153846,153.19557523724953L128.68192307692306,153.25970438637844L128.76,153.30374330074696L128.905,153.34091943536862L129.1503846153846,153.38244042337735L129.27307692307693,153.41742423975944L129.57423076923075,153.46227855088998L129.84192307692308,153.51060051562004L129.90884615384616,153.5449143515524L130.16538461538462,153.58590340931198L130.36615384615385,153.62649729283044L131.14692307692306,153.71210964698426L131.6376923076923,153.80107870844304L131.95000000000002,153.8777687880236L131.98346153846154,153.92632744865645L132.42961538461537,153.98880261912166L132.6973076923077,154.04624428789347L133.4223076923077,154.13349458718616L134.29230769230767,154.24820107983143L134.34807692307692,154.32100344399566L134.38153846153847,154.36705491165293L134.5376923076923,154.40525071712318L134.67153846153846,154.43721382672777L134.92807692307693,154.47422293854868L134.995,154.50113002637892L135.16230769230768,154.5288919618519L135.34076923076924,154.55782262230667L135.60846153846154,154.59347060051414L135.79807692307693,154.62791375513982L136.59,154.7017154880133L136.81307692307692,154.76073400662938L136.89115384615383,154.8012733869946L136.94692307692307,154.82922861972625L138.15153846153848,154.89809248049562L138.185,154.9415468684803L138.41923076923078,154.9824016820572L138.475,155.01040018625153L138.95461538461538,155.0564829903469L139.0773076923077,155.09176396514727L139.18884615384616,155.11991821121626L139.23346153846154,155.1396439535903L139.55692307692308,155.1708670065892L139.65730769230768,155.1956607742762L139.91384615384615,155.2260225631985L139.92499999999998,155.24490507234296L140.05884615384616,155.26425771905477L140.4046153846154,155.29621432737605L140.505,155.3213446782992L140.6946153846154,155.3477188877443L140.75038461538463,155.36688643607573L140.85076923076923,155.38434787777908L140.94,155.40015898021767L141.02923076923076,155.41492216272775L141.21884615384616,155.43497846255875L141.55346153846153,155.46660553532942L141.665,155.49218011807267L142.0776923076923,155.53115774061797L142.17807692307693,155.56029897570522L142.1892307692308,155.57843387468603L142.4346153846154,155.60319984482098L142.5126923076923,155.62243285651823L142.825,155.65161746308698L142.93653846153845,155.67531010289287L142.9923076923077,155.6925665472704L143.115,155.70974197952495L143.2153846153846,155.72564035118745L143.37153846153845,155.74374799168783L143.79538461538462,155.77757774970934L143.82884615384614,155.79966537782752L144.20807692307693,155.83313565947137L144.2526923076923,155.85559806285812L144.50923076923075,155.88253473594892L144.57615384615386,155.90225535008375L144.59846153846155,155.91528363569418L145.04461538461538,155.94689955598417L145.1115384615385,155.96941017718893L145.13384615384618,155.9840980379489L145.25653846153847,155.99933339806637L145.31230769230768,156.01138278356538L145.46846153846153,156.02680813935208L145.56884615384615,156.0413070547589L145.7473076923077,156.05944699136467L146.02615384615382,156.0845673749132L146.23807692307693,156.1104124786029L146.33846153846153,156.13105375140327L146.53923076923078,156.15349304618093L146.84038461538464,156.18213235025596L147.09692307692308,156.21217762958005L147.11923076923077,156.23134554424482L147.13038461538463,156.24341610073208L147.78846153846152,156.2831875503013L147.82192307692307,156.30869420488375L147.9223076923077,156.3288508994561L148.34615384615384,156.36145544667136L148.915,156.40813638102466L149.56192307692308,156.46663276512297L149.96346153846156,156.52036194896027L150.15307692307692,156.56109734592033L150.37615384615384,156.59563357323722L150.68846153846152,156.6305835264344L150.72192307692308,156.65307506029322L150.8,156.67008473776488L150.8223076923077,156.68129916609948L151.01192307692307,156.69652853899177L151.10115384615386,156.70963670944954L151.20153846153843,156.72202357611528L151.5473076923077,156.74492679533245L151.9823076923077,156.77776124535134L152.11615384615385,156.80334219490368L152.25,156.82449125978277L152.3726923076923,156.8425401163077L152.52884615384616,156.86020740540675L152.55115384615385,156.87177848898483L152.9526923076923,156.89574067801107L153.35423076923078,156.9273160549593L153.6553846153846,156.95878262118055L153.8226923076923,156.98469829954038L154.15730769230768,157.01401645579335L154.42499999999998,157.04240398866972L154.62576923076924,157.067629403649L154.99384615384614,157.0977112119068L155.295,157.12773361432568L155.44,157.15154670215458L155.46230769230772,157.16673481704876L155.69653846153847,157.1852118840342L155.7523076923077,157.19854679925393L155.90846153846152,157.21270755622675L156.02,157.22551618711486L156.07576923076925,157.2353571003457L156.15384615384616,157.24426558727703L156.36576923076922,157.25789014924376L156.4996153846154,157.27133079784397L157.58153846153846,157.31980994314324L157.74884615384616,157.35520308516644L157.87153846153845,157.38092443765535L157.91615384615383,157.3980256483237L158.09461538461537,157.4147889442412L158.4626923076923,157.43843431714185L158.56307692307692,157.45629134005114L159.27692307692305,157.49274167910698L159.3103846153846,157.51582746284495L159.48884615384617,157.53609832313035L159.6673076923077,157.55467697572533L160.45923076923077,157.59351515169038L160.5596153846154,157.62037553585625L160.90538461538463,157.64848771769041L161.1173076923077,157.67269787874758L161.15076923076924,157.68836557122233L161.39615384615385,157.70618598651188L162.12115384615382,157.74109647705933L162.2103846153846,157.76505873462426L162.44461538461536,157.78710260546725L162.69000000000003,157.8083758347622L163.0134615384615,157.8316892778908L163.52653846153848,157.86227080003627L163.83884615384616,157.89046417381093L164.49692307692308,157.92790388448472L164.67538461538462,157.95595389157594L165.02115384615382,157.9836303294702L165.34461538461537,158.01022635823512L165.62346153846153,158.03464663819088L165.67923076923077,158.05096267856527L165.82423076923078,158.06514907358508L166.03615384615384,158.0798259525205L166.50461538461536,158.1024791988952L166.51576923076922,158.11639608422257L166.73884615384614,158.1312414289276L167.38576923076923,158.15920989120565L167.57538461538462,158.18144686304268L167.87653846153844,158.20343362857543L167.8876923076923,158.2169435523131L167.97692307692307,158.22760685099234L168.11076923076925,158.2378128374402L168.24461538461537,158.24776424118585L168.4119230769231,158.2584825377586L168.45653846153846,158.26614550556278L168.64615384615385,158.27593111081242L168.84692307692308,158.2872722316781L169.0476923076923,158.29959801250692L169.215,158.31161772219735L169.32653846153843,158.3218730962777L169.35999999999999,158.32894568025094L169.49384615384616,158.33680428412967L169.505,158.34182146716563L169.5496153846154,158.34604891337025L169.8619230769231,158.35676002778848L170.15192307692308,158.3709791136478L170.51999999999998,158.3893536110338L170.6873076923077,158.4042595938613L171.08884615384613,158.42159129594387L171.67999999999998,158.44738686610035L171.7246153846154,158.46402546720964L171.9476923076923,158.47979172323502L172.49423076923077,158.50320780428862L172.8176923076923,158.52515356154808L173.28615384615387,158.54997590310316L173.85500000000002,158.57885675704642L174.0223076923077,158.600237015145L174.11153846153846,158.61519996837197L174.17846153846156,158.62578630118819L174.73615384615385,158.64568178456577L174.7696153846154,158.6584416743212L174.8030769230769,158.66692855414308L174.94807692307694,158.6754396696283L175.24923076923076,158.68759622371556L175.52807692307692,158.7015165046634L175.60615384615386,158.7116506661444L175.85153846153847,158.72322581800634L176.23076923076923,158.7387751749723L176.62115384615385,158.757004851395L176.8776923076923,158.77379153229444L176.91115384615384,158.7846394582052L177.05615384615385,158.79446336846306L177.64730769230772,158.8133373905465L177.65846153846152,158.82490709836753L177.87038461538464,158.8364741544851L177.90384615384616,158.84412792092132L178.00423076923076,158.85092302222392L178.01538461538462,158.85524622634654L178.0823076923077,158.85930498462284L178.3053846153846,158.86665787232735L178.3276923076923,158.8715532624691L179.2423076923077,158.89407926265216L179.30923076923077,158.9089680313894L180.14576923076925,158.93543957152937L180.81500000000003,158.96506422566756L180.88192307692307,158.98421529893508L181.1384615384615,159.0008567044999L181.55115384615385,159.01903345286047L181.56230769230768,159.03016838689166L181.6292307692308,159.03820836976877L181.72961538461539,159.04505964697825L181.91923076923078,159.0528754364337L182.05307692307693,159.06018011237495L182.12,159.06589973091272L182.34307692307692,159.07366801015053L182.77807692307692,159.0867997037064L183.33576923076924,159.10544664224133L183.60346153846154,159.12174242115105L183.86,159.13646850134583L184.26153846153846,159.15283217477193L184.5292307692308,159.16769688316617L184.5626923076923,159.17724563710948L185.39923076923077,159.1982906637573L185.46615384615384,159.21214132336678L185.80076923076922,159.22636976894478L185.90115384615385,159.23674060418253L185.94576923076923,159.24375656394588L186.0126923076923,159.24911183803337L186.67076923076922,159.26376741422646L187.03884615384615,159.27896883304973L187.05,159.28827910154698L187.13923076923078,159.29537324426354L187.18384615384613,159.3003838621643L187.37346153846156,159.30666181741557L187.4403846153846,159.31158107895692L187.48499999999999,159.315315343414L187.78615384615384,159.32265814233278L188.0873076923077,159.33216804239225L188.29923076923075,159.34146583620551L188.65615384615384,159.3529668061565L188.66730769230767,159.3600476103205L188.67846153846153,159.36447461747198L188.94615384615383,159.37158446015758L189.80499999999998,159.3897843422602L190.5076923076923,159.4119040764636L190.97615384615384,159.43236061477262L191.02076923076922,159.44532388057468L191.51153846153846,159.4608270629614L191.72346153846155,159.47333689914362L192.13615384615383,159.48724238625894L192.47076923076924,159.50061577331064L192.54884615384617,159.5098037523292L192.6603846153846,159.51695127103304L193.11769230769232,159.52804465540393L193.3073076923077,159.53753246614224L193.37423076923076,159.5442224575016L193.4523076923077,159.54940591611066L193.97653846153847,159.56013695691584L194.0323076923077,159.5673745570256L194.21076923076924,159.5742901637757L194.27769230769232,159.57938916015252L194.38923076923075,159.58404113368763L194.59,159.589605391323L194.7796153846154,159.59552562175162L194.8019230769231,159.59938473187665L195.15884615384616,159.60667285928793L195.50461538461536,159.615904661872L196.02884615384616,159.62866126032154L196.1626923076923,159.6381008903075L196.28538461538463,159.64540732144647L196.99923076923076,159.65949729108414L197.345,159.67256419712464L197.7576923076923,159.6858376013487L198.02538461538464,159.69725330912567L198.1257692307692,159.70538267916538L198.1926923076923,159.71110666648207L198.36,159.716706412965L198.70576923076922,159.72458963986276L198.73923076923077,159.7297612193984L198.95115384615383,159.73560626052392L199.16307692307694,159.74178875014726L200.42346153846154,159.76097740645534L200.5126923076923,159.77358537226115L200.57961538461538,159.78196553692734L200.8473076923077,159.79029280526748L200.85846153846154,159.79542313049222L201.28230769230768,159.8034831819732L201.58346153846153,159.8118540575782L201.71730769230768,159.8184721293457L201.95153846153846,159.82524037733123L202.60961538461538,159.83696671073307L202.75461538461536,159.84567642695507L202.86615384615385,159.85221219194017L202.91076923076923,159.8566610201125L203.435,159.86525756183812L204.23807692307693,159.87901395279297L204.48346153846154,159.8894127709754L204.52807692307692,159.8961081343743L204.56153846153848,159.9004831090283L204.67307692307693,159.90431518642376L204.89615384615385,159.909015886515L205.18615384615384,159.91497831217225L205.5653846153846,159.92264132264322L205.66576923076923,159.9283017891431L206.29038461538462,159.93824053075616L206.8926923076923,159.95046939690928L207.18269230769232,159.9607960850399L207.23846153846154,159.96755921783455L207.46153846153845,159.97386053845727L208.0303846153846,159.98339344608056L208.07500000000002,159.98955624866844L208.43192307692308,159.99683064759787L208.97846153846154,160.0065514509341L209.20153846153846,160.01457772082853L209.55846153846156,160.02283227499385L209.67,160.02887935512896L209.68115384615385,160.03261285070758L209.95999999999998,160.0374743746371L210.0603846153846,160.04135322848862L210.21653846153845,160.04516744462592L210.685,160.05183675993248L210.96384615384616,160.05841182018577L211.80038461538462,160.06985192107317L212.5476923076923,160.08338179791264L212.89346153846154,160.09458401324923L213.27269230769232,160.10455811255719L213.28384615384616,160.11063621978093L213.52923076923076,160.1163577612646L213.9530769230769,160.12344039776372L214.00884615384615,160.1281590666281L214.0646153846154,160.13145878906488L214.4773076923077,160.1369600283828L214.56653846153844,160.1410211285587L214.7226923076923,160.1447927626353L214.8453846153846,160.14806592101147L215.04615384615386,160.15170203467778L215.06846153846152,160.15407085669383L215.32500000000002,160.15763105066029L215.33615384615385,160.15985756106022L215.34730769230768,160.1612835783969L215.38076923076923,160.16241631225014L215.59269230769232,160.16487497477888L215.9830769230769,160.16954239679868L216.17269230769233,160.17381999298033L216.3176923076923,160.17754582924107L216.32884615384614,160.1798715835559L216.56307692307692,160.18316644226L216.67461538461538,160.18601716634325L216.76384615384617,160.18842981662368L216.8753846153846,160.1907646545133L217.42192307692306,160.1964426514523L217.51115384615386,160.2005242926091L217.55576923076924,160.20330988539516L217.86807692307693,160.20739111169135L218.02423076923077,160.21102140623702L218.09115384615384,160.21371598886475L218.2473076923077,160.21652066298537L218.3476923076923,160.21898277990945L218.42576923076925,160.22105532085655L218.43692307692308,160.22238428828572L218.48153846153846,160.2235198329138L218.76038461538462,160.226271310066L218.87192307692308,160.22875533498217L218.91653846153847,160.2305795995209L219.095,160.2330047469028L219.25115384615384,160.23561854803688L219.65269230769232,160.24014168050365L219.74192307692306,160.24351788361753L219.8646153846154,160.24644040187133L220.41115384615384,160.2521522231098L220.4223076923077,160.25566065632478L220.47807692307694,160.25817107472722L220.7792307692308,160.26183001904033L221.2030769230769,160.2670397927861L222.44115384615384,160.27866771681113L222.54153846153844,160.2863381993552L222.72,160.29216455688757L222.75346153846155,160.29588253699154L222.85384615384615,160.29879099728112L223.16615384615383,160.30263536493845L223.54538461538462,160.30745335492014L223.55653846153845,160.31041622364037L223.65692307692308,160.31284728568897L223.6903846153846,160.31452900800372L224.1253846153846,160.31838432133156L224.40423076923076,160.3224839582838L224.57153846153844,160.32596530605142L224.59384615384613,160.3281935959386L224.68307692307692,160.33009486055337L224.86153846153846,160.33238831990536L225.0846153846154,160.33518177092222L225.3523076923077,160.33852348220435L225.5976923076923,160.34206294392797L225.91,160.34608086372566L226.04384615384615,160.34930013989498L226.5123076923077,160.35405308827814L226.54576923076925,160.35710658167832L227.00307692307692,160.36169109782597L227.0923076923077,160.36497780585896L227.99576923076924,160.37221156897908L228.00692307692307,160.37661626265108L228.97730769230768,160.3847496314386L229.06653846153847,160.3901315587882L229.5573076923077,160.39603695818525L229.56846153846155,160.3996428653523L230.1373076923077,160.40491022059865L230.23769230769233,160.4086174539102L230.80653846153848,160.4138817348901L230.9180769230769,160.41763224992098L230.99615384615385,160.4202802784817L231.3196153846154,160.42356444324514L231.7323076923077,160.42765651380296L231.9219230769231,160.4310776565588L232.39038461538462,160.43551121319035L232.92576923076922,160.44086032170873L233.37192307692308,160.4462584113607L233.65076923076924,160.45084999256505L233.8626923076923,160.45461915087606L233.91846153846154,160.4571567083512L233.9742307692308,160.45895466874725L234.175,160.4609929088991L234.23076923076923,160.46247897173413L234.28653846153847,160.4636324550238L234.42038461538462,160.46494520816367L234.65461538461537,160.4668499830156L235.17884615384617,160.47042436218996L235.41307692307694,160.47363822788043L235.82576923076923,160.47745796082444L236.0042307692308,160.48056447846508L236.38346153846152,160.48412826345054L236.50615384615384,160.48680522055838L236.65115384615382,160.48904981143124L237.06384615384616,160.4922140657515L237.1419230769231,160.4944627360271L237.18653846153848,160.4960099845588L237.46538461538464,160.49813389715314L237.75538461538463,160.50062955421265L238.65884615384613,160.5058826855941L238.69230769230768,160.50917100422322L238.74807692307692,160.51137365845486L239.30576923076922,160.51496698427783L239.52884615384613,160.5180144713437L239.69615384615386,160.52051023837618L239.72961538461539,160.5221409555079L239.75192307692308,160.52320829445927L239.975,160.524729296852L240.0419230769231,160.52590218779773L240.29846153846154,160.5276054906686L240.5773076923077,160.52970746166545L240.5996153846154,160.5310547237021L240.74461538461537,160.5324051621212L241.19076923076923,160.534918836116L241.25769230769228,160.53668117643946L241.41384615384615,160.5383245149546L241.53653846153844,160.5397615686631L241.63692307692307,160.54099761340476L241.68153846153845,160.54190312361789L242.14999999999998,160.5441716965203L242.2280769230769,160.54582029041634L242.27269230769232,160.54697226915948L242.32846153846154,160.54786716123934L242.3396153846154,160.5484446252615L242.78576923076923,160.55039697678274L242.9976923076923,160.55232846135726L243.29884615384614,160.55453480518756L243.5553846153846,160.55676127853135L244.33615384615385,160.56077772010647L244.4476923076923,160.56356104391386L244.58153846153846,160.56568993992153L244.77115384615385,160.56760951359993L244.94961538461538,160.56933594592368L245.03884615384615,160.57066753098144L245.13923076923078,160.57179898771906L245.2173076923077,160.57273617080807L245.66346153846155,160.57474202647978L245.80846153846156,160.57641710242734L245.86423076923074,160.57760350188278L245.93115384615385,160.5785305755178L245.96461538461537,160.57919270377397L246.81230769230768,160.5822463483475L246.82346153846154,160.5841131224749L246.84576923076924,160.58530214952532L247.31423076923076,160.58742799000206L247.3476923076923,160.5888044272041L247.69346153846155,160.59065355266188L247.93884615384616,160.59248978737028L247.99461538461537,160.59375279452223L248.02807692307692,160.59460658057026L248.08384615384617,160.59527983560258L248.54115384615383,160.59701734797613L248.70846153846156,160.59853707641238L248.87576923076924,160.59992535644696L248.97615384615386,160.60104259173428L248.99846153846156,160.60177574189714L249.2103846153846,160.60281974414318L249.43346153846153,160.60407119396922L249.54500000000002,160.60513094546553L249.70115384615386,160.60619556674655L249.7123076923077,160.60686454158602L250.15846153846152,160.60848560918316L250.18076923076922,160.6095186538832L250.42615384615385,160.61079684340973L250.68269230769232,160.6122521097105L251.14,160.61432203539061L251.28500000000003,160.61594049108731L251.29615384615386,160.61694084707523L251.40769230769232,160.61783622048472L251.50807692307694,160.6186346535415L251.51923076923077,160.61914250082953L251.54153846153847,160.6195046426486L251.59730769230768,160.61986402600792L251.72,160.6203847888894L252.53423076923076,160.6227289194139L252.94692307692307,160.62514423177277L252.95807692307693,160.62662001398584L253.1476923076923,160.62795929241605L253.1923076923077,160.6288695923195L253.60500000000002,160.63040197243527L253.95076923076923,160.63212115417065L253.96192307692306,160.63317805558526L253.9953846153846,160.6338881613617L254.00653846153847,160.6343397586627L254.38576923076923,160.6354858697901L254.44153846153847,160.63629950810173L254.54192307692307,160.63701629318018L254.5976923076923,160.6375735382868L254.80961538461537,160.63838298443753L255.1776923076923,160.63967965199828L255.44538461538463,160.6410390600817L255.45653846153846,160.64187924853505L255.85807692307694,160.64324450964654L256.2819230769231,160.64495600665563L256.7280769230769,160.64689745468868L256.79499999999996,160.64820152181173L256.8173076923077,160.6490312102901L256.8284615384615,160.6495526474794L257.02923076923076,160.65027596088729L257.17423076923075,160.65099867224185L257.2746153846154,160.65163451854085L257.3192307692308,160.6521055008393L258.0330769230769,160.6537858731799L258.75807692307694,160.6561611116282L259.0146153846154,160.6580626269391L259.19307692307694,160.65952861508993L259.41615384615386,160.6608092518723L259.95153846153846,160.6625335613137L259.985,160.66362614627155L260.04076923076923,160.66437866923496L260.7880769230769,160.66611408931385L260.98884615384617,160.6674906055671L261.8253846153846,160.6696898254082L262.2603846153846,160.6716958708957L262.27153846153846,160.6729170394378L262.65076923076924,160.6742358870767L262.97423076923076,160.6755189872262L263.11923076923074,160.67650464712446L263.24192307692306,160.67727902375975L263.47615384615386,160.67808662360898L263.67692307692306,160.678864645795L263.83307692307693,160.67955588807817L263.84423076923076,160.6799866186191" style="fill: none;" fill="none"></path></g></g></g></g><g opacity="0.2"><g><g><g><path stroke="rgb(255, 112, 67)" stroke-width="2px" d="M22.396923076923077,144.95740102132163L22.664615384615384,54.410375976562506L22.698076923076925,50.552285639445L22.988076923076925,35.99698677062989L23.244615384615386,34.79997189839682L23.95846153846154,35.313817342122405L24.058846153846154,35.452981694539375L24.750384615384615,36.384478632609046L24.806153846153844,36.464738337198895L25.040384615384617,36.80930506388347L25.241153846153846,37.10982627868654L25.63153846153846,37.646656417846685L25.653846153846157,37.6732172648112L25.743076923076924,37.7904041290283L26.06653846153846,38.27824325561525L26.289615384615384,38.633198928833025L26.891923076923074,39.612396748860675L27.326923076923077,40.340335973103834L27.483076923076926,40.60638580322265L28.174615384615386,41.801725769042974L28.47576923076923,42.33451576232912L28.654230769230768,42.652996953328454L28.732307692307693,42.79339485168455L28.74346153846154,42.813471094767266L29.267692307692307,43.76909573872885L29.412692307692307,44.036922327677416L29.568846153846156,44.3272809346517L29.680384615384618,44.535512542724604L30.16,45.441636912028L30.24923076923077,45.61166254679361L30.728846153846156,46.53721809387207L30.773461538461536,46.59083773295086L30.79576923076923,46.60524419148763L30.951923076923077,46.7517192840576L30.974230769230772,46.78373489379882L31.052307692307693,46.910179011027026L31.14153846153846,47.071569824218756L31.20846153846154,47.19864768981935L31.520769230769233,47.81547724405925L32.736538461538466,50.29759801228842L33.026538461538465,50.90199025472006L33.0376923076923,50.92538235982259L33.104615384615386,51.06573499043783L33.37230769230769,51.62962392171222L33.40576923076923,51.7005018870036L33.50615384615384,51.91323763529459L34.052692307692304,52.62667986551922L34.08615384615385,52.694739913940424L34.387307692307694,53.33671569824219L34.45423076923077,53.48250045776368L34.51,53.604089609781894L35.089999999999996,54.877029800415045L35.14576923076923,55.000486246744785L35.15692307692308,55.02514584859213L35.35769230769231,55.47080675760904L35.50269230769231,55.79379208882651L36.07153846153846,57.070104726155606L36.261153846153846,57.49850730895996L36.87461538461538,58.89099960327148L36.908076923076926,58.96719652811686L37.064230769230775,59.32467587788901L37.10884615384615,59.427207310994476L37.644230769230774,60.43361104329428L37.722307692307695,60.60413462320963L37.9676923076923,61.16482086181641L38.10153846153846,61.47208697001139L38.213076923076926,61.72629928588867L38.54769230769231,62.5004229227702L38.67038461538461,62.78895950317383L38.82653846153846,63.15788027445477L39.183461538461536,64.0030403137207L39.50692307692308,64.77280693054199L39.68538461538461,65.19828974405924L39.863846153846154,65.62456474304199L39.90846153846154,65.7313060760498L40.09807692307692,66.18540941874186L40.488461538461536,67.1227345784505L40.95692307692308,68.25238539377848L41.05730769230769,68.49509970347086L41.25807692307692,68.98096402486166L41.35846153846154,69.22424983978271L41.51461538461539,69.60288619995117L41.536923076923074,69.6570603688558L41.57038461538462,69.73830464680988L42.06115384615384,70.93259213765462L42.56307692307692,72.15675067901611L42.76384615384615,72.64624207814535L42.86423076923077,72.89157625834149L43.00923076923077,73.24633388519287L43.04269230769231,73.32814966837564L43.13192307692307,73.54663441975912L43.57807692307692,74.46270637512207L43.7676923076923,74.91994450887044L43.87923076923077,75.19203192392985L43.9126923076923,75.27397785186767L44.515,76.75472526550293L44.64884615384615,77.08418954213461L44.90538461538462,77.71429951985678L45.362692307692306,78.82806135813395L45.45192307692307,79.04377346038818L45.49653846153846,79.15144844055176L45.574615384615385,79.33926429748536L46.16576923076923,80.74905452728271L46.24384615384616,80.93329423268636L46.589615384615385,81.74446385701498L46.634230769230776,81.84866453806559L46.723461538461535,82.05653966267904L46.8573076923077,82.36706504821777L47.08038461538461,82.88138014475504L47.136153846153846,83.00969155629477L47.14730769230769,83.03531309763592L47.370384615384616,83.54562765757242L47.42615384615385,83.67278474171957L47.81653846153846,84.55736166636149L47.92807692307693,84.80800914764404L48.06192307692308,85.10789095560709L48.35192307692308,85.75407098134359L48.45230769230769,85.97648836771647L48.84269230769231,86.83465722401935L48.853846153846156,86.85897731781006L48.87615384615384,86.90762882232666L49.36692307692308,87.97231477101644L49.55653846153846,88.37973575592041L49.57884615384616,88.42751585642496L49.63461538461539,88.54685293833414L49.91346153846154,89.14078267415364L49.924615384615386,89.16445204416911L50.036153846153844,89.40050633748372L50.058461538461536,89.44759044647218L50.114230769230765,89.56526393890381L50.270384615384614,89.8938907623291L50.33730769230769,90.0341698328654L50.43769230769231,90.24426873524983L50.605,90.59202683766684L50.67192307692307,90.73028583526612L52.14423076923077,93.67859077453613L52.345,94.07600758870443L52.7576923076923,94.88620961507162L52.91384615384615,95.19036922454835L53.30423076923077,95.94412237803141L54.23,97.69746081034343L54.497692307692304,98.19549649556478L55.28961538461538,99.64685382843017L55.378846153846155,99.80826161702474L55.78038461538461,100.52859586079916L56.08153846153846,101.06212145487467L56.115,101.12100346883138L56.761923076923075,102.2524932861328L57.45346153846154,103.4383949279785L57.832692307692305,104.07880331675211L57.84384615384616,104.0975554784139L58.22307692307692,104.73032493591309L58.33461538461538,104.91477966308594L58.379230769230766,104.98859437306722L58.401538461538465,105.02551021575927L58.41269230769231,105.04397945404052L59.059615384615384,106.10424048105875L59.50576923076923,106.8219944636027L59.85153846153846,107.37245585123698L60.15269230769231,107.84670899709066L60.20846153846154,107.93398520151774L60.45384615384615,108.31736335754395L60.665769230769236,108.64572989145914L60.83307692307692,108.90403327941895L61.011538461538464,109.17777296702067L62.35,111.12250906626383L62.55076923076923,111.41721903483072L62.573076923076925,111.44987405141195L62.66230769230769,111.5802168528239L62.97461538461538,112.03383356730143L63.13076923076923,112.25818614959717L63.75538461538462,113.14897607167562L63.8,113.2119208653768L63.92269230769231,113.38474178314209L64.5026923076923,114.13181228637696L64.73692307692308,114.45350182851155L64.7926923076923,114.52988548278809L64.815,114.5604185740153L64.92653846153846,114.71297086079915L65.29461538461538,115.21188360850016L65.42846153846153,115.39225858052572L66.00846153846153,116.16580505371094L66.32076923076923,116.5748075803121L66.63307692307693,116.98073472976685L67.05692307692308,117.52754074732462L67.17961538461539,117.68453493118287L67.21307692307693,117.72691968282064L67.84884615384615,118.52732124328614L67.90461538461538,118.5970448811849L68.02730769230769,118.7502026240031L68.84153846153846,119.75037355422974L68.97538461538461,119.91281967163086L68.9976923076923,119.93978509902954L69.05346153846153,120.00700769424438L69.0646153846154,120.02041260401408L69.34346153846154,120.35457057952881L69.39923076923077,120.42123864491782L69.4326923076923,120.4611959139506L69.745,120.83237724304199L69.77846153846154,120.87192144393921L70.2023076923077,121.37038434346516L70.3473076923077,121.53817488352456L70.36961538461539,121.56347955067952L71.195,122.50571060180664L71.27307692307693,122.59390347798666L71.64115384615384,123.00696595509847L72.29923076923077,123.73519941965739L72.48884615384615,123.94198528925578L72.72307692307692,124.19542239507041L73.25846153846155,124.76899296442667L73.29192307692307,124.80450833638508L73.81615384615385,125.3576886177063L74.2176923076923,125.77577015558879L74.2623076923077,125.82177066802979L74.35153846153845,125.91344633102418L74.76423076923076,126.33627532323203L74.82000000000001,126.3931316057841L75.17692307692307,126.7531459490458L75.26615384615386,126.84278173446656L75.60076923076922,127.1757910410563L75.7346153846154,127.30786533355713L75.75692307692307,127.32984848022461L76.18076923076923,127.74489142100015L76.31461538461538,127.8750192006429L76.78307692307692,128.3272891998291L77.54153846153847,129.04520161946613L77.64192307692308,129.13893696467082L77.67538461538462,129.16999912261963L78.52307692307691,129.94964259465536L78.54538461538462,129.96989142100017L78.55653846153847,129.98000876108807L79.14769230769231,130.51095126469932L79.46000000000001,130.78586508433023L80.19615384615383,131.4269383430481L80.63115384615384,131.80001808802285L81.63499999999999,132.6429486910502L81.81346153846154,132.7900575319926L81.96961538461538,132.9178342183431L82.64999999999999,133.46932544708253L82.89538461538461,133.66500374476115L83.70961538461539,134.30518862406413L83.73192307692308,134.32246392567953L84.08884615384615,134.59773988723754L84.35653846153846,134.8023274421692L84.5126923076923,134.92006883621215L84.99230769230769,135.28017654418946L85.32692307692308,135.5290670712789L85.37153846153846,135.56207008361815L85.53884615384615,135.68518136342368L85.99615384615385,136.01767292022706L86.02961538461538,136.04182043075562L86.62076923076923,136.46618286768594L86.97769230769231,136.71791960398355L87.16730769230769,136.8502202351888L87.20076923076924,136.87363497416177L87.58,137.10397421518962L87.60230769230769,137.11891822814943L87.68038461538461,137.17171456019082L88.08192307692308,137.44628321329753L88.31615384615384,137.60285301208495L88.58384615384615,137.78264799118043L88.63961538461538,137.82016363143921L88.70653846153846,137.8651993751526L89.00769230769231,138.06516679128012L89.23076923076924,138.21218792597452L89.28653846153846,138.24850962956748L89.45384615384616,138.35745210647582L89.50961538461539,138.39387283325195L89.98923076923076,138.70448309580485L90.46884615384616,139.0097602526347L90.58038461538462,139.08061558405558L91.13807692307691,139.42835671106974L91.35,139.55983686447144L91.495,139.64957450230918L91.56192307692307,139.69063234329224L91.70692307692308,139.77973906199136L92.3426923076923,140.16452193260193L92.59923076923076,140.3167149066925L92.655,140.34974196751912L92.9226923076923,140.50781126022338L93.0453846153846,140.58013072013856L93.16807692307692,140.65227193832396L93.31307692307692,140.73701173464457L93.58076923076922,140.89184862772623L94.65153846153846,141.50027252833047L94.69615384615385,141.52509056727092L94.91923076923077,141.6492500782013L95.52153846153846,141.97985170682273L95.63307692307691,142.04037326176962L95.845,142.1550491809845L96.4473076923077,142.47704852422078L96.54769230769232,142.53029753367105L96.68153846153847,142.6006535053253L96.715,142.61806461016337L96.8823076923077,142.70554451942445L96.91576923076923,142.7230150381724L97.04961538461538,142.7930230140686L97.35076923076923,142.94949378967286L97.39538461538461,142.97249970436096L97.51807692307692,143.0356906414032L98.39923076923077,143.48098233540853L98.55538461538461,143.55899421374002L98.64461538461538,143.60347684224448L98.81192307692308,143.68646109898884L99.53692307692307,144.0410885810852L99.89384615384616,144.21303243637084L100.18384615384616,144.33490451176962L100.42923076923077,144.4443336168925L101.45538461538462,144.9101231098175L101.54461538461538,144.95062500635782L101.80115384615384,145.06690793037416L102.00192307692308,145.1563456694285L102.68230769230769,145.4544959863027L103.02807692307692,145.6060764312744L103.61923076923077,145.86180521647134L103.74192307692309,145.91452798843383L103.9426923076923,145.99979543685913L104.05423076923077,146.04736051559448L104.06538461538462,146.05211928685506L104.27730769230769,146.14140283266704L104.53384615384616,146.24780748685203L104.74576923076923,146.33529022534688L105.18076923076923,146.51371444066365L105.21423076923078,146.52742349306743L105.29230769230769,146.55935564041138L105.40384615384615,146.60463752746583L105.4373076923077,146.61817116737365L105.60461538461539,146.68625667889913L105.9726923076923,146.83417468070985L106.18461538461538,146.919109694163L107.06576923076923,147.26454358100892L107.45615384615385,147.41392146746318L107.64576923076923,147.4863753159841L107.81307692307693,147.54957615534465L107.93576923076924,147.59641695022583L108.0026923076923,147.62179659207663L108.28153846153846,147.7262561480204L108.39307692307692,147.76792651812235L108.59384615384616,147.8422066370646L108.75,147.89993573824563L108.97307692307692,147.98166805903116L109.0623076923077,148.01437258720398L109.17384615384616,148.05503999392192L109.56423076923076,148.19591037432352L109.62,148.2156683286031L110.30038461538462,148.456543636322L110.31153846153846,148.46044090588887L110.66846153846154,148.5852992375692L111.32653846153846,148.81233676274618L111.71692307692307,148.9446175893148L111.8396153846154,148.9859074274699L111.97346153846155,149.03089224497478L112.16307692307691,149.09431942303976L113.43461538461538,149.50875690778096L113.47923076923077,149.52290166219075L113.63538461538461,149.5725674470266L113.825,149.63267876307168L113.89192307692308,149.65399279594422L114.36038461538462,149.72952626546225L114.53884615384615,149.74629513422647L114.66153846153847,149.77774489720662L115.07423076923077,149.9017374833425L115.13000000000001,149.91888405481973L115.15230769230769,149.92576333681743L115.21923076923076,149.94644645055135L115.47576923076923,150.02452340126038L115.53153846153846,150.0413870493571L115.63192307692307,150.0718508243561L116.63576923076923,150.3711752732595L116.66923076923077,150.38102100690207L116.98153846153846,150.47196955680846L117.03730769230769,150.4883013089498L117.09307692307692,150.5043614546458L117.74000000000001,150.68949802716574L118.02999999999999,150.7719390710195L118.13038461538461,150.80052423477173L118.49846153846154,150.90367951393128L118.50961538461539,150.90680581728617L118.61,150.93472894032797L119.03384615384616,151.05135137240092L119.12307692307692,151.07575775782266L119.17884615384617,151.0911869843801L120.05999999999999,151.32863113880157L120.36115384615384,151.40843745867411L120.56192307692308,151.46124793688455L120.59538461538462,151.47004614671073L120.82961538461538,151.53123327891032L120.95230769230768,151.5632538398107L121.22,151.6322369257609L121.29807692307692,151.6519305149714L121.4876923076923,151.70012934207915L121.50999999999999,151.7058493455251L121.54346153846154,151.7144028266271L121.7776923076923,151.77375378608704L121.85576923076923,151.7933872540792L122.1123076923077,151.8578718582789L122.30192307692307,151.90503023465476L122.5026923076923,151.95467975139618L122.56961538461539,151.9710058450699L122.68115384615385,151.9985901673635L122.89307692307693,152.05091472466788L123.19423076923077,152.12484118938445L123.28346153846154,152.146670850118L123.5176923076923,152.2033191839854L124.30961538461538,152.39144837856293L125.10153846153845,152.57473958333333L125.17961538461539,152.59272855917612L125.48076923076924,152.6615220864614L125.715,152.71429861386616L126.005,152.779900765419L126.10538461538461,152.80224039554597L126.46230769230769,152.8817227681478L126.69653846153845,152.933402967453L127.17615384615385,153.03746360143026L127.20961538461539,153.0446236848831L127.4326923076923,153.09282392660776L127.51076923076924,153.10961260000863L127.80076923076923,153.1715692838033L128.58153846153846,153.33564150333405L128.68192307692306,153.35589811007182L128.76,153.3698016722997L128.905,153.39668363730112L129.1503846153846,153.44472190539042L129.27307692307693,153.46989996433257L129.57423076923075,153.52956001758577L129.84192307692308,153.58308346271514L129.90884615384616,153.59638510545096L130.16538461538462,153.64738699595134L130.36615384615385,153.68738811810812L131.14692307692306,153.84052817821504L131.6376923076923,153.9345323006312L131.95000000000002,153.9928039073944L131.98346153846154,153.99916543960572L132.42961538461537,154.08251537481942L132.6973076923077,154.13240679105124L133.4223076923077,154.26437003612517L134.29230769230767,154.42026081879933L134.34807692307692,154.430206990242L134.38153846153847,154.43613211313883L134.5376923076923,154.4625444253286L134.67153846153846,154.48515849113465L134.92807692307693,154.52973660628L134.995,154.5414906581243L135.16230769230768,154.57053486506143L135.34076923076924,154.6012186129888L135.60846153846154,154.6469425678253L135.79807692307693,154.67957848707835L136.59,154.81241808732352L136.81307692307692,154.84926178455353L136.89115384615383,154.8620824575424L136.94692307692307,154.87116146882374L138.15153846153848,155.0013882716497L138.185,155.00672845045725L138.41923076923078,155.04368390242257L138.475,155.05239794254302L138.95461538461538,155.12560719648997L139.0773076923077,155.1446854273478L139.18884615384616,155.16214958031972L139.23346153846154,155.1692325671514L139.55692307692308,155.21770158608754L139.65730769230768,155.23285142580667L139.91384615384615,155.27156524658204L139.92499999999998,155.27322883605956L140.05884615384616,155.2932866891225L140.4046153846154,155.34414923985798L140.505,155.35904020468394L140.6946153846154,155.38728020191192L140.75038461538463,155.3956377585729L140.85076923076923,155.41054004033407L140.94,155.42387563387553L141.02923076923076,155.43706693649293L141.21884615384616,155.4650629123052L141.55346153846153,155.51404614448546L141.665,155.5305419921875L142.0776923076923,155.58962417443593L142.17807692307693,155.60401082833607L142.1892307692308,155.60563622315726L142.4346153846154,155.6403488000234L142.5126923076923,155.65128237406412L142.825,155.69539437294006L142.93653846153845,155.7108490626017L142.9923076923077,155.71845121383666L143.115,155.7355051279068L143.2153846153846,155.74948790868123L143.37153846153845,155.77090945243836L143.79538461538462,155.82832238674163L143.82884615384614,155.83279682000477L144.20807692307693,155.88334108193715L144.2526923076923,155.88929166793824L144.50923076923075,155.92293974558513L144.57615384615386,155.93183627128602L144.59846153846155,155.9348260641098L145.04461538461538,155.99432343641917L145.1115384615385,156.00317610899606L145.13384615384618,156.00612982908885L145.25653846153847,156.02218643824258L145.31230769230768,156.02945686181386L145.46846153846153,156.04994617303214L145.56884615384615,156.06305542786916L145.7473076923077,156.0866568962733L146.02615384615382,156.122247950236L146.23807692307693,156.14918013413748L146.33846153846153,156.16201566060386L146.53923076923078,156.18715198834738L146.84038461538464,156.2250913063685L147.09692307692308,156.25724554856617L147.11923076923077,156.26009741624196L147.13038461538463,156.26152193546295L147.78846153846152,156.34284472465515L147.82192307692307,156.34695418675742L147.9223076923077,156.3590859413147L148.34615384615384,156.4103622674942L148.915,156.47815778255463L149.56192307692308,156.55437734127045L149.96346153846156,156.6009557247162L150.15307692307692,156.62220044136046L150.37615384615384,156.64743791421256L150.68846153846152,156.68300845623017L150.72192307692308,156.68681236108145L150.8,156.69559925397238L150.8223076923077,156.69812080860137L151.01192307692307,156.71937259833018L151.10115384615386,156.7292989651362L151.20153846153843,156.74060387611388L151.5473076923077,156.77928162415822L151.9823076923077,156.82701292037964L152.11615384615385,156.84171361923217L152.25,156.85621485710143L152.3726923076923,156.86961340109508L152.52884615384616,156.8867083390554L152.55115384615385,156.88913511435192L152.9526923076923,156.9316839615504L153.35423076923078,156.97467912038167L153.6553846153846,157.00598247051238L153.8226923076923,157.02357181708018L154.15730769230768,157.05799369017282L154.42499999999998,157.0849852879842L154.62576923076924,157.10546752611796L154.99384615384614,157.1428339242935L155.295,157.172767217954L155.44,157.18726633389792L155.46230769230772,157.18951698939006L155.69653846153847,157.21292748451233L155.7523076923077,157.21854917208353L155.90846153846152,157.233948691686L156.02,157.244729133447L156.07576923076925,157.25011847019195L156.15384615384616,157.257628317674L156.36576923076922,157.27832699219385L156.4996153846154,157.29149177074433L157.58153846153846,157.39252866109211L157.74884615384616,157.40829279820124L157.87153846153845,157.4195064663887L157.91615384615383,157.42367746432623L158.09461538461537,157.43993388811748L158.4626923076923,157.47390237649282L158.56307692307692,157.48307687441508L159.27692307692305,157.54741718769074L159.3103846153846,157.5504561384519L159.48884615384617,157.56650461355844L159.6673076923077,157.58254495461782L160.45923076923077,157.65177241563796L160.5596153846154,157.66066611210505L160.90538461538463,157.69065599044166L161.1173076923077,157.70901312033334L161.15076923076924,157.71186710993447L161.39615384615385,157.7329166094462L162.12115384615382,157.79346221288046L162.2103846153846,157.80100212097167L162.44461538461536,157.82016841173171L162.69000000000003,157.8402856787046L163.0134615384615,157.8666594425837L163.52653846153848,157.9081430832545L163.83884615384616,157.9327542344729L164.49692307692308,157.9840634504954L164.67538461538462,157.99802890221278L165.02115384615382,158.0251449863116L165.34461538461537,158.05012040138246L165.62346153846153,158.07127705812454L165.67923076923077,158.07543673912684L165.82423076923078,158.0864286661148L166.03615384615384,158.10184127092361L166.50461538461536,158.13645906845727L166.51576923076922,158.13727141221364L166.73884615384614,158.15350944598515L167.38576923076923,158.2011625846227L167.57538461538462,158.21480232079824L167.87653846153844,158.23641377687454L167.8876923076923,158.2372084379196L167.97692307692307,158.24360179901123L168.11076923076925,158.25312181711197L168.24461538461537,158.2626913468043L168.4119230769231,158.2745599826177L168.45653846153846,158.27763995726903L168.64615384615385,158.29060951868692L168.84692307692308,158.3042839129766L169.0476923076923,158.31808668375015L169.215,158.329647286733L169.32653846153843,158.33725615739823L169.35999999999999,158.33955455621083L169.49384615384616,158.34859218994777L169.505,158.34934724171956L169.5496153846154,158.3523900826772L169.8619230769231,158.37282669941584L170.15192307692308,158.39230774243674L170.51999999999998,158.41691535711288L170.6873076923077,158.42661856810253L171.08884615384613,158.4475888490677L171.67999999999998,158.4860802213351L171.7246153846154,158.4889833688736L171.9476923076923,158.5034411072731L172.49423076923077,158.538331925869L172.8176923076923,158.5580721974373L173.28615384615387,158.58720941543578L173.85500000000002,158.62217803796133L174.0223076923077,158.6323074022929L174.11153846153846,158.63764439821244L174.17846153846156,158.6416658004125L174.73615384615385,158.6755250096321L174.7696153846154,158.67758150895438L174.8030769230769,158.67965887387595L174.94807692307694,158.6882063428561L175.24923076923076,158.70583105484644L175.52807692307692,158.72239692608514L175.60615384615386,158.7268519083659L175.85153846153847,158.74058854579926L176.23076923076923,158.76209921042124L176.62115384615385,158.78434936602912L176.8776923076923,158.79897155364355L176.91115384615384,158.80091134707132L177.05615384615385,158.80919923384985L177.64730769230772,158.84164842367173L177.65846153846152,158.84226166009904L177.87038461538464,158.85382473866144L177.90384615384616,158.85560857057573L178.00423076923076,158.8611156741778L178.01538461538462,158.86173103253046L178.0823076923077,158.86539312203726L178.3053846153846,158.87768720388414L178.3276923076923,158.8788963476817L179.2423076923077,158.92786826292672L179.30923076923077,158.93130118449528L180.14576923076925,158.9751468817393L180.81500000000003,159.00950120687486L180.88192307692307,159.01294190883635L181.1384615384615,159.02581881284715L181.55115384615385,159.0462985754013L181.56230769230768,159.04687078793845L181.6292307692308,159.05026834408443L181.72961538461539,159.05533656279246L181.91923076923078,159.06459912061692L182.05307692307693,159.07113712628683L182.12,159.07447915871938L182.34307692307692,159.0853204290072L182.77807692307692,159.10649724404016L183.33576923076924,159.13341705004373L183.60346153846154,159.14618608951568L183.86,159.15855762163798L184.26153846153846,159.1773776849111L184.5292307692308,159.18999394575755L184.5626923076923,159.19156876802444L185.39923076923077,159.229858203729L185.46615384615384,159.232917312781L185.80076923076922,159.2477124373118L185.90115384615385,159.25229685703914L185.94576923076923,159.2542805035909L186.0126923076923,159.25714474916458L186.67076923076922,159.28575077851613L187.03884615384615,159.30177096128463L187.05,159.30224450429282L187.13923076923078,159.3060144583384L187.18384615384613,159.30789978901544L187.37346153846156,159.31607875029246L187.4403846153846,159.31895997126898L187.48499999999999,159.3209167400996L187.78615384615384,159.33367234071096L188.0873076923077,159.3464328924815L188.29923076923075,159.35541252692542L188.65615384615384,159.37021826108298L188.66730769230767,159.37066881656648L188.67846153846153,159.37111512819925L188.94615384615383,159.38224922418595L189.80499999999998,159.41708416541417L190.5076923076923,159.4450836777687L190.97615384615384,159.46304542223612L191.02076923076922,159.4647687792778L191.51153846153846,159.4840818365415L191.72346153846155,159.49210165341697L192.13615384615383,159.50810061693193L192.47076923076924,159.52067585388818L192.54884615384617,159.523585720857L192.6603846153846,159.5276725490888L193.11769230769232,159.5446847319603L193.3073076923077,159.5517641822497L193.37423076923076,159.55425744454067L193.4523076923077,159.55718110402427L193.97653846153847,159.57623351812362L194.0323076923077,159.5782309571902L194.21076923076924,159.58466357390085L194.27769230769232,159.58703765471776L194.38923076923075,159.59101909399033L194.59,159.59795177777607L194.7796153846154,159.6044059673945L194.8019230769231,159.60517339706422L195.15884615384616,159.61760505040488L195.50461538461536,159.6297523657481L196.02884615384616,159.64779615799586L196.1626923076923,159.65226033528646L196.28538461538463,159.6563669681549L196.99923076923076,159.6806322455406L197.345,159.6921645561854L197.7576923076923,159.70574770768485L198.02538461538464,159.7143768707911L198.1257692307692,159.71757673422496L198.1926923076923,159.71969264745712L198.36,159.7251060326894L198.70576923076922,159.73641448020936L198.73923076923077,159.73751858870187L198.95115384615383,159.74437382221222L199.16307692307694,159.75106248458226L200.42346153846154,159.78976039091745L200.5126923076923,159.79249732096991L200.57961538461538,159.79453578392665L200.8473076923077,159.80278370777765L200.85846153846154,159.80311861832936L201.28230769230768,159.8155732591947L201.58346153846153,159.82441037098567L201.71730769230768,159.82839923699697L201.95153846153846,159.83539274930953L202.60961538461538,159.85455621083577L202.75461538461536,159.85874100128808L202.86615384615385,159.86201583941778L202.91076923076923,159.86333426237107L203.435,159.87815237442652L204.23807692307693,159.89964853922527L204.48346153846154,159.90501099824905L204.52807692307692,159.9061511794726L204.56153846153848,159.90704557100932L204.67307692307693,159.91006330251693L204.89615384615385,159.91606693665187L205.18615384615384,159.92392195065815L205.5653846153846,159.93413583834968L205.66576923076923,159.93679248889288L206.29038461538462,159.95314864317575L206.8926923076923,159.96881269613903L207.18269230769232,159.97628611723582L207.23846153846154,159.97770391702653L207.46153846153845,159.98331251939138L208.0303846153846,159.99769280751548L208.07500000000002,159.99880045255026L208.43192307692308,160.00774224599203L208.97846153846154,160.02113265593846L209.20153846153846,160.0266171256701L209.55846153846156,160.03521410624185L209.67,160.03794997533163L209.68115384615385,160.03821309407553L209.95999999999998,160.04476666053137L210.0603846153846,160.0471715092659L210.21653846153845,160.0508887688319L210.685,160.06184073289236L210.96384615384616,160.0682744105657L211.80038461538462,160.08701207240424L212.5476923076923,160.1036766131719L212.89346153846154,160.11138733625413L213.27269230769232,160.11951926151912L213.28384615384616,160.11975338061652L213.52923076923076,160.12494007349014L213.9530769230769,160.13406435251235L214.00884615384615,160.13523706992467L214.0646153846154,160.1364083727201L214.4773076923077,160.1452118873596L214.56653846153844,160.1471127788226L214.7226923076923,160.15045021375022L214.8453846153846,160.15297565857568L215.04615384615386,160.1571562051773L215.06846153846152,160.15762408971787L215.32500000000002,160.16297134160996L215.33615384615385,160.16319732666017L215.34730769230768,160.16342260440192L215.38076923076923,160.16411541303L215.59269230769232,160.168562968572L215.9830769230769,160.1765435298284L216.17269230769233,160.18023638725282L216.3176923076923,160.18313458363215L216.32884615384614,160.18336021502813L216.56307692307692,160.18810873031617L216.67461538461538,160.1902932524681L216.76384615384617,160.19204879204432L216.8753846153846,160.1942669113477L217.42192307692306,160.20495964686074L217.51115384615386,160.20664675434432L217.55576923076924,160.20748827457427L217.86807692307693,160.21351295113564L218.02423076923077,160.21646684805552L218.09115384615384,160.2177578628063L218.2473076923077,160.22072767416637L218.3476923076923,160.22267595529556L218.42576923076925,160.22416413227717L218.43692307692308,160.22437773942949L218.48153846153846,160.22522314985594L218.76038461538462,160.23039852579436L218.87192307692308,160.2324813723564L218.91653846153847,160.233315996329L219.095,160.23664246797563L219.25115384615384,160.23953924973807L219.65269230769232,160.24692637920379L219.74192307692306,160.24858218828837L219.8646153846154,160.250824179252L220.41115384615384,160.2607199549675L220.4223076923077,160.26092330614725L220.47807692307694,160.2619367023309L220.7792307692308,160.26731843551L221.2030769230769,160.27485445340474L222.44115384615384,160.29610960284867L222.54153846153844,160.29784392317137L222.72,160.30090409318606L222.75346153846155,160.30145950714746L222.85384615384615,160.30315368771554L223.16615384615383,160.30840191642443L223.54538461538462,160.3146803398927L223.55653846153845,160.31486052672068L223.65692307692308,160.31649387876192L223.6903846153846,160.3170515914758L224.1253846153846,160.32416729132333L224.40423076923076,160.32863341371217L224.57153846153844,160.33118732770285L224.59384615384613,160.33153603076934L224.68307692307692,160.33294675747553L224.86153846153846,160.3358285089334L225.0846153846154,160.33937194744746L225.3523076923077,160.34353604912758L225.5976923076923,160.3473721365134L225.91,160.35210774342218L226.04384615384615,160.35412905414898L226.5123076923077,160.3611825108528L226.54576923076925,160.36168682177862L227.00307692307692,160.36856787204744L227.0923076923077,160.36990786790847L227.99576923076924,160.3830622136593L228.00692307692307,160.38322330315907L228.97730769230768,160.3969496846199L229.06653846153847,160.39820444981257L229.5573076923077,160.40489505728087L229.56846153846155,160.40505172610284L230.1373076923077,160.4128112534682L230.23769230769233,160.41417830387752L230.80653846153848,160.42177815636L230.9180769230769,160.42325802246728L230.99615384615385,160.42425232132277L231.3196153846154,160.42849069039028L231.7323076923077,160.4337946196397L231.9219230769231,160.43620937069258L232.39038461538462,160.44216154813768L232.92576923076922,160.44888398448626L233.37192307692308,160.45435554583867L233.65076923076924,160.4577373643716L233.8626923076923,160.46027288834253L233.91846153846154,160.46096304456393L233.9742307692308,160.4616516093413L234.175,160.4640502691269L234.23076923076923,160.46470806598663L234.28653846153847,160.46536267995833L234.42038461538462,160.46691433787345L234.65461538461537,160.46970714529357L235.17884615384617,160.47578593095145L235.41307692307694,160.47845902641615L235.82576923076923,160.48318756024042L236.0042307692308,160.48522425492604L236.38346153846152,160.48947394092878L236.50615384615384,160.4908206562201L236.65115384615382,160.49241669774057L237.06384615384616,160.4969604472319L237.1419230769231,160.49783574144044L237.18653846153848,160.4983308573564L237.46538461538464,160.50131976604462L237.75538461538463,160.50437303980192L238.65884615384613,160.51376238266627L238.69230769230768,160.51410348216692L238.74807692307692,160.5146776398023L239.30576923076922,160.5203569730123L239.52884615384613,160.52258570194243L239.69615384615386,160.52425388892493L239.72961538461539,160.5245870312055L239.75192307692308,160.52480930288633L239.975,160.5270108004411L240.0419230769231,160.52766152421634L240.29846153846154,160.5301604449749L240.5773076923077,160.53286041816077L240.5996153846154,160.53307561675706L240.74461538461537,160.53443081974984L241.19076923076923,160.5386893471082L241.25769230769228,160.5393246869246L241.41384615384615,160.54078952272732L241.53653846153844,160.54191714922587L241.63692307692307,160.5428516805172L241.68153846153845,160.54326138893762L242.14999999999998,160.54757455587387L242.2280769230769,160.54829318126042L242.27269230769232,160.54870023727418L242.32846153846154,160.54920949935914L242.3396153846154,160.5493108212948L242.78576923076923,160.55332550406456L242.9976923076923,160.55522568821908L243.29884615384614,160.55784432093301L243.5553846153846,160.560100988547L244.33615384615385,160.56680238246918L244.4476923076923,160.56773602962494L244.58153846153846,160.56888328393302L244.77115384615385,160.57048887411753L244.94961538461538,160.57192559440932L245.03884615384615,160.57266490856807L245.13923076923078,160.5734961728255L245.2173076923077,160.57414194544157L245.66346153846155,160.57775080998738L245.80846153846156,160.57892971634865L245.86423076923074,160.57938310106596L245.93115384615385,160.5799211859703L245.96461538461537,160.5801858961582L246.81230769230768,160.58682681520781L246.82346153846154,160.58691328366598L246.84576923076924,160.587085690101L247.31423076923076,160.59061675071717L247.3476923076923,160.5908690830072L247.69346153846155,160.59342724084854L247.93884615384616,160.5952441394329L247.99461538461537,160.59564730525017L248.02807692307692,160.59588725964227L248.08384615384617,160.5962897181511L248.54115384615383,160.59962361653646L248.70846153846156,160.60081666906675L248.87576923076924,160.6020077764988L248.97615384615386,160.60271844466527L248.99846153846156,160.60287546714147L249.2103846153846,160.6043857475122L249.43346153846153,160.60594836870828L249.54500000000002,160.60672057271003L249.70115384615386,160.60779249866803L249.7123076923077,160.60786800384523L250.15846153846152,160.61091721057892L250.18076923076922,160.61106822093328L250.42615384615385,160.61271412769952L250.68269230769232,160.61443500916164L251.14,160.61742692391078L251.28500000000003,160.6183681746324L251.29615384615386,160.6184413810571L251.40769230769232,160.61917928059896L251.50807692307694,160.61983230312666L251.51923076923077,160.61990427176158L251.54153846153847,160.6200478553772L251.59730769230768,160.6204031010469L251.72,160.62116593321164L252.53423076923076,160.62624511520067L252.94692307692307,160.62876720031102L252.95807692307693,160.62883368730544L253.1476923076923,160.6299682100614L253.1923076923077,160.63023504217466L253.60500000000002,160.6327005426089L253.95076923076923,160.6346999267737L253.96192307692306,160.63476340770723L253.9953846153846,160.6349533200264L254.00653846153847,160.63501715461413L254.38576923076923,160.63720503648122L254.44153846153847,160.63751996556917L254.54192307692307,160.63809147079786L254.5976923076923,160.63840940594673L254.80961538461537,160.63959715366363L255.1776923076923,160.6416246533394L255.44538461538463,160.64307817220688L255.45653846153846,160.64313953121504L255.85807692307694,160.64529240131378L256.2819230769231,160.6475232521693L256.7280769230769,160.64980962673823L256.79499999999996,160.6501576224963L256.8173076923077,160.65027574300765L256.8284615384615,160.65033480326335L257.02923076923076,160.65136093099912L257.17423076923075,160.6520827392737L257.2746153846154,160.6525882879893L257.3192307692308,160.65281197428703L258.0330769230769,160.65630643169084L258.75807692307694,160.6597239693006L259.0146153846154,160.66091489990552L259.19307692307694,160.66172759731612L259.41615384615386,160.66273020704588L259.95153846153846,160.66512002547583L259.985,160.66526502370834L260.04076923076923,160.66550745368005L260.7880769230769,160.6687172194322L260.98884615384617,160.66955537994704L261.8253846153846,160.6729886551698L262.2603846153846,160.67470493912697L262.27153846153846,160.67474879225097L262.65076923076924,160.676214158535L262.97423076923076,160.67744363745055L263.11923076923074,160.6779831369718L263.24192307692306,160.6784405887127L263.47615384615386,160.6792980233828L263.67692307692306,160.68003167907398L263.83307692307693,160.68059275150299L263.84423076923076,160.6806327144305" style="fill: none;" fill="none"></path></g></g></g></g></g></g><g transform="translate(40, 178)" clip-path="url(#clip_1)"><clipPath id="clip_1"><rect width="290" height="22"></rect></clipPath><g><g><line x1="0" y1="0" x2="0" y2="5" style="visibility: inherit;" fill="rgb(0, 0, 0)" stroke="rgb(204, 204, 204)" stroke-width="1px"></line><line x1="22.30769230769231" y1="0" x2="22.30769230769231" y2="5" style="visibility: inherit;" fill="rgb(0, 0, 0)" stroke="rgb(204, 204, 204)" stroke-width="1px"></line><line x1="44.61538461538462" y1="0" x2="44.61538461538462" y2="5" style="visibility: inherit;" fill="rgb(0, 0, 0)" stroke="rgb(204, 204, 204)" stroke-width="1px"></line><line x1="66.92307692307692" y1="0" x2="66.92307692307692" y2="5" style="visibility: inherit;" fill="rgb(0, 0, 0)" stroke="rgb(204, 204, 204)" stroke-width="1px"></line><line x1="89.23076923076924" y1="0" x2="89.23076923076924" y2="5" style="visibility: inherit;" fill="rgb(0, 0, 0)" stroke="rgb(204, 204, 204)" stroke-width="1px"></line><line x1="111.53846153846155" y1="0" x2="111.53846153846155" y2="5" style="visibility: inherit;" fill="rgb(0, 0, 0)" stroke="rgb(204, 204, 204)" stroke-width="1px"></line><line x1="133.84615384615384" y1="0" x2="133.84615384615384" y2="5" style="visibility: inherit;" fill="rgb(0, 0, 0)" stroke="rgb(204, 204, 204)" stroke-width="1px"></line><line x1="156.15384615384616" y1="0" x2="156.15384615384616" y2="5" style="visibility: inherit;" fill="rgb(0, 0, 0)" stroke="rgb(204, 204, 204)" stroke-width="1px"></line><line x1="178.46153846153848" y1="0" x2="178.46153846153848" y2="5" style="visibility: inherit;" fill="rgb(0, 0, 0)" stroke="rgb(204, 204, 204)" stroke-width="1px"></line><line x1="200.76923076923077" y1="0" x2="200.76923076923077" y2="5" style="visibility: inherit;" fill="rgb(0, 0, 0)" stroke="rgb(204, 204, 204)" stroke-width="1px"></line><line x1="223.0769230769231" y1="0" x2="223.0769230769231" y2="5" style="visibility: inherit;" fill="rgb(0, 0, 0)" stroke="rgb(204, 204, 204)" stroke-width="1px"></line><line x1="245.3846153846154" y1="0" x2="245.3846153846154" y2="5" style="visibility: inherit;" fill="rgb(0, 0, 0)" stroke="rgb(204, 204, 204)" stroke-width="1px"></line><line x1="267.6923076923077" y1="0" x2="267.6923076923077" y2="5" style="visibility: inherit;" fill="rgb(0, 0, 0)" stroke="rgb(204, 204, 204)" stroke-width="1px"></line><line x1="290" y1="0" x2="290" y2="5" style="visibility: inherit;" fill="rgb(0, 0, 0)" stroke="rgb(204, 204, 204)" stroke-width="1px"></line></g><g transform="translate(0, 8)"><text x="0" y="0" dx="0em" dy="0.95em" style="text-anchor: middle; visibility: hidden; font-family: &quot;Helvetica Neue&quot;, sans-serif; font-size: 12px; font-weight: 200;" fill="rgb(50, 49, 63)" stroke="none" stroke-width="1px">-2k</text><text x="22.30769230769231" y="0" dx="0em" dy="0.95em" style="text-anchor: middle; visibility: inherit; font-family: &quot;Helvetica Neue&quot;, sans-serif; font-size: 12px; font-weight: 200;" fill="rgb(50, 49, 63)" stroke="none" stroke-width="1px">0</text><text x="44.61538461538462" y="0" dx="0em" dy="0.95em" style="text-anchor: middle; visibility: hidden; font-family: &quot;Helvetica Neue&quot;, sans-serif; font-size: 12px; font-weight: 200;" fill="rgb(50, 49, 63)" stroke="none" stroke-width="1px">2k</text><text x="66.92307692307692" y="0" dx="0em" dy="0.95em" style="text-anchor: middle; visibility: inherit; font-family: &quot;Helvetica Neue&quot;, sans-serif; font-size: 12px; font-weight: 200;" fill="rgb(50, 49, 63)" stroke="none" stroke-width="1px">4k</text><text x="89.23076923076924" y="0" dx="0em" dy="0.95em" style="text-anchor: middle; visibility: hidden; font-family: &quot;Helvetica Neue&quot;, sans-serif; font-size: 12px; font-weight: 200;" fill="rgb(50, 49, 63)" stroke="none" stroke-width="1px">6k</text><text x="111.53846153846155" y="0" dx="0em" dy="0.95em" style="text-anchor: middle; visibility: inherit; font-family: &quot;Helvetica Neue&quot;, sans-serif; font-size: 12px; font-weight: 200;" fill="rgb(50, 49, 63)" stroke="none" stroke-width="1px">8k</text><text x="133.84615384615384" y="0" dx="0em" dy="0.95em" style="text-anchor: middle; visibility: hidden; font-family: &quot;Helvetica Neue&quot;, sans-serif; font-size: 12px; font-weight: 200;" fill="rgb(50, 49, 63)" stroke="none" stroke-width="1px">10k</text><text x="156.15384615384616" y="0" dx="0em" dy="0.95em" style="text-anchor: middle; visibility: inherit; font-family: &quot;Helvetica Neue&quot;, sans-serif; font-size: 12px; font-weight: 200;" fill="rgb(50, 49, 63)" stroke="none" stroke-width="1px">12k</text><text x="178.46153846153848" y="0" dx="0em" dy="0.95em" style="text-anchor: middle; visibility: hidden; font-family: &quot;Helvetica Neue&quot;, sans-serif; font-size: 12px; font-weight: 200;" fill="rgb(50, 49, 63)" stroke="none" stroke-width="1px">14k</text><text x="200.76923076923077" y="0" dx="0em" dy="0.95em" style="text-anchor: middle; visibility: inherit; font-family: &quot;Helvetica Neue&quot;, sans-serif; font-size: 12px; font-weight: 200;" fill="rgb(50, 49, 63)" stroke="none" stroke-width="1px">16k</text><text x="223.0769230769231" y="0" dx="0em" dy="0.95em" style="text-anchor: middle; visibility: hidden; font-family: &quot;Helvetica Neue&quot;, sans-serif; font-size: 12px; font-weight: 200;" fill="rgb(50, 49, 63)" stroke="none" stroke-width="1px">18k</text><text x="245.3846153846154" y="0" dx="0em" dy="0.95em" style="text-anchor: middle; visibility: inherit; font-family: &quot;Helvetica Neue&quot;, sans-serif; font-size: 12px; font-weight: 200;" fill="rgb(50, 49, 63)" stroke="none" stroke-width="1px">20k</text><text x="267.6923076923077" y="0" dx="0em" dy="0.95em" style="text-anchor: middle; visibility: hidden; font-family: &quot;Helvetica Neue&quot;, sans-serif; font-size: 12px; font-weight: 200;" fill="rgb(50, 49, 63)" stroke="none" stroke-width="1px">22k</text><text x="290" y="0" dx="0em" dy="0.95em" style="text-anchor: middle; visibility: hidden; font-family: &quot;Helvetica Neue&quot;, sans-serif; font-size: 12px; font-weight: 200;" fill="rgb(50, 49, 63)" stroke="none" stroke-width="1px">24k</text></g><line x1="0" y1="0" x2="290" y2="0" fill="rgb(0, 0, 0)" stroke="rgb(204, 204, 204)" stroke-width="1px"></line></g></g></g></g></svg>