<svg viewBox="0 0 330 200" xmlns="http://www.w3.org/2000/svg"><g><g><g><g><g><line x1="40" y1="178" x2="35" y2="178" style="visibility: inherit;" fill="rgb(0, 0, 0)" stroke="rgb(204, 204, 204)" stroke-width="1px"></line><line x1="40" y1="158.22222222222223" x2="35" y2="158.22222222222223" style="visibility: inherit;" fill="rgb(0, 0, 0)" stroke="rgb(204, 204, 204)" stroke-width="1px"></line><line x1="40" y1="138.44444444444446" x2="35" y2="138.44444444444446" style="visibility: inherit;" fill="rgb(0, 0, 0)" stroke="rgb(204, 204, 204)" stroke-width="1px"></line><line x1="40" y1="118.66666666666667" x2="35" y2="118.66666666666667" style="visibility: inherit;" fill="rgb(0, 0, 0)" stroke="rgb(204, 204, 204)" stroke-width="1px"></line><line x1="40" y1="98.8888888888889" x2="35" y2="98.8888888888889" style="visibility: inherit;" fill="rgb(0, 0, 0)" stroke="rgb(204, 204, 204)" stroke-width="1px"></line><line x1="40" y1="79.1111111111111" x2="35" y2="79.1111111111111" style="visibility: inherit;" fill="rgb(0, 0, 0)" stroke="rgb(204, 204, 204)" stroke-width="1px"></line><line x1="40" y1="59.33333333333334" x2="35" y2="59.33333333333334" style="visibility: inherit;" fill="rgb(0, 0, 0)" stroke="rgb(204, 204, 204)" stroke-width="1px"></line><line x1="40" y1="39.55555555555554" x2="35" y2="39.55555555555554" style="visibility: inherit;" fill="rgb(0, 0, 0)" stroke="rgb(204, 204, 204)" stroke-width="1px"></line><line x1="40" y1="19.7777777777778" x2="35" y2="19.7777777777778" style="visibility: inherit;" fill="rgb(0, 0, 0)" stroke="rgb(204, 204, 204)" stroke-width="1px"></line><line x1="40" y1="0" x2="35" y2="0" style="visibility: inherit;" fill="rgb(0, 0, 0)" stroke="rgb(204, 204, 204)" stroke-width="1px"></line></g><g transform="translate(30, 0)"><text x="0" y="178" dx="0em" dy="0.3em" style="text-anchor: end; visibility: hidden; font-family: &quot;Helvetica Neue&quot;, sans-serif; font-size: 12px; font-weight: 200;" fill="rgb(50, 49, 63)" stroke="none" stroke-width="1px">4</text><text x="0" y="158.22222222222223" dx="0em" dy="0.3em" style="text-anchor: end; visibility: inherit; font-family: &quot;Helvetica Neue&quot;, sans-serif; font-size: 12px; font-weight: 200;" fill="rgb(50, 49, 63)" stroke="none" stroke-width="1px">4.5</text><text x="0" y="138.44444444444446" dx="0em" dy="0.3em" style="text-anchor: end; visibility: hidden; font-family: &quot;Helvetica Neue&quot;, sans-serif; font-size: 12px; font-weight: 200;" fill="rgb(50, 49, 63)" stroke="none" stroke-width="1px">5</text><text x="0" y="118.66666666666667" dx="0em" dy="0.3em" style="text-anchor: end; visibility: inherit; font-family: &quot;Helvetica Neue&quot;, sans-serif; font-size: 12px; font-weight: 200;" fill="rgb(50, 49, 63)" stroke="none" stroke-width="1px">5.5</text><text x="0" y="98.8888888888889" dx="0em" dy="0.3em" style="text-anchor: end; visibility: hidden; font-family: &quot;Helvetica Neue&quot;, sans-serif; font-size: 12px; font-weight: 200;" fill="rgb(50, 49, 63)" stroke="none" stroke-width="1px">6</text><text x="0" y="79.1111111111111" dx="0em" dy="0.3em" style="text-anchor: end; visibility: inherit; font-family: &quot;Helvetica Neue&quot;, sans-serif; font-size: 12px; font-weight: 200;" fill="rgb(50, 49, 63)" stroke="none" stroke-width="1px">6.5</text><text x="0" y="59.33333333333334" dx="0em" dy="0.3em" style="text-anchor: end; visibility: hidden; font-family: &quot;Helvetica Neue&quot;, sans-serif; font-size: 12px; font-weight: 200;" fill="rgb(50, 49, 63)" stroke="none" stroke-width="1px">7</text><text x="0" y="39.55555555555554" dx="0em" dy="0.3em" style="text-anchor: end; visibility: inherit; font-family: &quot;Helvetica Neue&quot;, sans-serif; font-size: 12px; font-weight: 200;" fill="rgb(50, 49, 63)" stroke="none" stroke-width="1px">7.5</text><text x="0" y="19.7777777777778" dx="0em" dy="0.3em" style="text-anchor: end; visibility: hidden; font-family: &quot;Helvetica Neue&quot;, sans-serif; font-size: 12px; font-weight: 200;" fill="rgb(50, 49, 63)" stroke="none" stroke-width="1px">8</text><text x="0" y="0" dx="0em" dy="0.3em" style="text-anchor: end; visibility: hidden; font-family: &quot;Helvetica Neue&quot;, sans-serif; font-size: 12px; font-weight: 200;" fill="rgb(50, 49, 63)" stroke="none" stroke-width="1px">8.5</text></g><line x1="40" y1="0" x2="40" y2="178" fill="rgb(0, 0, 0)" stroke="rgb(204, 204, 204)" stroke-width="1px"></line></g></g><g transform="translate(40, 0)" clip-path="url(#clip_0)"><clipPath id="clip_0"><rect width="290" height="178"></rect></clipPath><g><g><g><line x1="0" y1="0" x2="0" y2="178" fill="rgb(0, 0, 0)" stroke="rgb(60, 60, 60)" stroke-width="1px" opacity="0.25"></line><line x1="22.30769230769231" y1="0" x2="22.30769230769231" y2="178" fill="rgb(0, 0, 0)" stroke="rgb(60, 60, 60)" stroke-width="1px" opacity="0.25"></line><line x1="44.61538461538462" y1="0" x2="44.61538461538462" y2="178" fill="rgb(0, 0, 0)" stroke="rgb(60, 60, 60)" stroke-width="1px" opacity="0.25"></line><line x1="66.92307692307692" y1="0" x2="66.92307692307692" y2="178" fill="rgb(0, 0, 0)" stroke="rgb(60, 60, 60)" stroke-width="1px" opacity="0.25"></line><line x1="89.23076923076924" y1="0" x2="89.23076923076924" y2="178" fill="rgb(0, 0, 0)" stroke="rgb(60, 60, 60)" stroke-width="1px" opacity="0.25"></line><line x1="111.53846153846155" y1="0" x2="111.53846153846155" y2="178" fill="rgb(0, 0, 0)" stroke="rgb(60, 60, 60)" stroke-width="1px" opacity="0.25"></line><line x1="133.84615384615384" y1="0" x2="133.84615384615384" y2="178" fill="rgb(0, 0, 0)" stroke="rgb(60, 60, 60)" stroke-width="1px" opacity="0.25"></line><line x1="156.15384615384616" y1="0" x2="156.15384615384616" y2="178" fill="rgb(0, 0, 0)" stroke="rgb(60, 60, 60)" stroke-width="1px" opacity="0.25"></line><line x1="178.46153846153848" y1="0" x2="178.46153846153848" y2="178" fill="rgb(0, 0, 0)" stroke="rgb(60, 60, 60)" stroke-width="1px" opacity="0.25"></line><line x1="200.76923076923077" y1="0" x2="200.76923076923077" y2="178" fill="rgb(0, 0, 0)" stroke="rgb(60, 60, 60)" stroke-width="1px" opacity="0.25"></line><line x1="223.0769230769231" y1="0" x2="223.0769230769231" y2="178" fill="rgb(0, 0, 0)" stroke="rgb(60, 60, 60)" stroke-width="1px" opacity="0.25"></line><line x1="245.3846153846154" y1="0" x2="245.3846153846154" y2="178" fill="rgb(0, 0, 0)" stroke="rgb(60, 60, 60)" stroke-width="1px" opacity="0.25"></line><line x1="267.6923076923077" y1="0" x2="267.6923076923077" y2="178" fill="rgb(0, 0, 0)" stroke="rgb(60, 60, 60)" stroke-width="1px" opacity="0.25"></line><line x1="290" y1="0" x2="290" y2="178" fill="rgb(0, 0, 0)" stroke="rgb(60, 60, 60)" stroke-width="1px" opacity="0.25"></line></g><g><line x1="0" y1="178" x2="290" y2="178" fill="rgb(0, 0, 0)" stroke="rgb(60, 60, 60)" stroke-width="1px" opacity="0.25"></line><line x1="0" y1="158.22222222222223" x2="290" y2="158.22222222222223" fill="rgb(0, 0, 0)" stroke="rgb(60, 60, 60)" stroke-width="1px" opacity="0.25"></line><line x1="0" y1="138.44444444444446" x2="290" y2="138.44444444444446" fill="rgb(0, 0, 0)" stroke="rgb(60, 60, 60)" stroke-width="1px" opacity="0.25"></line><line x1="0" y1="118.66666666666667" x2="290" y2="118.66666666666667" fill="rgb(0, 0, 0)" stroke="rgb(60, 60, 60)" stroke-width="1px" opacity="0.25"></line><line x1="0" y1="98.8888888888889" x2="290" y2="98.8888888888889" fill="rgb(0, 0, 0)" stroke="rgb(60, 60, 60)" stroke-width="1px" opacity="0.25"></line><line x1="0" y1="79.1111111111111" x2="290" y2="79.1111111111111" fill="rgb(0, 0, 0)" stroke="rgb(60, 60, 60)" stroke-width="1px" opacity="0.25"></line><line x1="0" y1="59.33333333333334" x2="290" y2="59.33333333333334" fill="rgb(0, 0, 0)" stroke="rgb(60, 60, 60)" stroke-width="1px" opacity="0.25"></line><line x1="0" y1="39.55555555555554" x2="290" y2="39.55555555555554" fill="rgb(0, 0, 0)" stroke="rgb(60, 60, 60)" stroke-width="1px" opacity="0.25"></line><line x1="0" y1="19.7777777777778" x2="290" y2="19.7777777777778" fill="rgb(0, 0, 0)" stroke="rgb(60, 60, 60)" stroke-width="1px" opacity="0.25"></line><line x1="0" y1="0" x2="290" y2="0" fill="rgb(0, 0, 0)" stroke="rgb(60, 60, 60)" stroke-width="1px" opacity="0.25"></line></g></g></g><g><g><line x1="0" y1="336.2222222222222" x2="290" y2="336.2222222222222" fill="rgb(0, 0, 0)" stroke="rgb(153, 153, 153)" stroke-width="1.5px"></line></g></g><g><g><line x1="22.30769230769231" y1="0" x2="22.30769230769231" y2="178" fill="rgb(0, 0, 0)" stroke="rgb(153, 153, 153)" stroke-width="1.5px"></line></g></g><g><g><g><g><g><path stroke="rgb(255, 112, 67)" stroke-width="2px" d="M22.419230769230772,63.67262352837456L22.686923076923076,60.07303651173906L22.720384615384614,54.856704045855764L23.010384615384616,55.35562025877384L23.266923076923078,54.740974817181126L23.98076923076923,52.70398209441858L24.081153846153846,55.492099518024844L24.772692307692306,57.27019813093807L24.82846153846154,59.09302368604094L25.062692307692306,57.0184791097456L25.26346153846154,55.781999044025966L25.653846153846157,53.40264168912148L25.676153846153845,51.142744233099336L25.76538461538462,53.46318184016651L26.088846153846156,55.24480743613104L26.311923076923076,54.72271560129694L26.91423076923077,59.78676365490077L27.349230769230772,54.97427693957522L27.505384615384614,54.56051937848825L28.196923076923078,55.90224024999799L28.498076923076926,54.305569055677864L28.676538461538463,53.34661548684363L28.754615384615384,56.72107407978892L28.76576923076923,53.55809993982517L29.290000000000003,52.07466185809152L29.435000000000002,50.34890497357348L29.591153846153844,57.88837876672221L29.702692307692306,55.36793307443838L30.182307692307692,55.49950490860378L30.271538461538462,57.243856078053014L30.751153846153848,55.92152234729977L30.79576923076923,56.719162725876146L30.818076923076923,52.105344613693106L30.974230769230772,50.365710516116366L30.99653846153846,52.596364638082505L31.074615384615385,53.5377061826956L31.16384615384615,55.28906159005771L31.230769230769234,57.88524760549332L31.543076923076924,58.67530131231639L32.75884615384615,59.91789678568715L33.048846153846156,77.75448581385399L33.06,93.59244165869453L33.12692307692308,82.77072378115457L33.394615384615385,69.60164435280991L33.42807692307692,62.52641595936633L33.52846153846154,59.00126988722178L34.074999999999996,56.16346767156605L34.10846153846154,57.73367418682365L34.409615384615385,54.57862241298483L34.47653846153846,53.51046012312949L34.5323076923077,53.682058341131125L35.112307692307695,50.465164146243794L35.168076923076924,54.22380199252714L35.17923076923077,57.24681612119218L35.38,58.29298179307729L35.525,54.914999162243745L36.09384615384615,53.712286172693226L36.283461538461545,56.17134337991291L36.89692307692307,55.27781874360518L36.93038461538462,56.332751884590934L37.08653846153846,59.26888161306802L37.13115384615385,57.136726459295886L37.66653846153846,56.6582197032956L37.744615384615386,56.36997641154983L37.99,56.19930891279364L38.12384615384615,53.47005158845306L38.23538461538461,53.657428444526914L38.57,56.906991992388896L38.692692307692305,57.312496587034886L38.848846153846154,56.80571287735111L39.205769230769235,55.65844044206818L39.529230769230765,54.15893942121964L39.707692307692305,53.67032270831443L39.886153846153846,53.77836066803883L39.93076923076923,53.84241389227837L40.120384615384616,55.86637193291476L40.510769230769235,55.09580158721198L40.97923076923077,53.820767627674385L41.07961538461539,55.457774297307736L41.28038461538461,54.03737031772383L41.38076923076923,53.99801584229988L41.536923076923074,55.00709612986448L41.559230769230766,58.29895084062487L41.59269230769231,57.3561201788541L42.08346153846154,55.17715494287016L42.58538461538462,57.81810360754068L42.786153846153844,55.45434500008214L42.886538461538464,56.439044869651056L43.03153846153847,71.3736048731795L43.065,67.53651677861693L43.15423076923077,61.28519674251737L43.60038461538462,59.93774453069922L43.79,57.364872467117465L43.901538461538465,57.584984118698216L43.935,52.8063084982914L44.53730769230769,54.95973317840192L44.67115384615385,55.35164650358519L44.927692307692304,53.97447073770881L45.385,55.550562010089465L45.47423076923077,54.905930857719255L45.518846153846155,57.65609344030429L45.596923076923076,57.37219466213722L46.18807692307693,59.8925472795957L46.26615384615385,55.87473845415609L46.61192307692308,57.66824932588452L46.65653846153846,56.977322038835794L46.74576923076923,53.29130375593495L46.879615384615384,52.737872768697656L47.10269230769231,51.581141562151785L47.15846153846154,55.66140093392737L47.16961538461538,59.612053233967515L47.39269230769231,56.53071477593822L47.44846153846154,54.682304021541654L47.838846153846156,54.26285124430525L47.950384615384614,51.66081811420467L48.084230769230764,50.93550479471098L48.37423076923076,52.937863935718724L48.47461538461538,54.13909080473634L48.865,54.05885197429686L48.87615384615384,56.38020330493947L48.89846153846154,56.20487165744285L49.389230769230764,69.54336934795421L49.57884615384616,66.43855653444527L49.60115384615384,63.02901348813137L49.65692307692308,60.983845962480615L49.93576923076923,56.52932150367654L49.94692307692308,54.680683417342664L50.058461538461536,54.69361241585699L50.080769230769235,54.39176110117975L50.136538461538464,55.41020772271959L50.29269230769231,57.19027738089194L50.35961538461539,59.78303476892147L50.459999999999994,58.24600468907096L50.62730769230769,54.886616739630725L50.69423076923077,56.097283764481546L52.166538461538465,56.71732742218174L52.36730769230769,56.40733474337523L52.78,52.098496644093686L52.93615384615384,53.63490458300025L53.32653846153846,55.34906307043819L54.252307692307696,76.61076713710341L54.52,69.1321512341392L55.31192307692308,63.05430345614106L55.401153846153846,56.93568944130614L55.802692307692304,64.65147790428567L56.103846153846156,59.55417341791862L56.13730769230769,55.67151797693931L56.784230769230774,54.165805141089805L57.47576923076923,52.438497010842056L57.855000000000004,52.22618872164195L57.86615384615384,54.50196248699993L58.245384615384616,58.17058904547687L58.35692307692308,56.477750918741194L58.39038461538461,54.649544906170945L58.401538461538465,58.25877635505242L58.423846153846156,57.331826871923596L58.435,57.56590367930647L59.08192307692308,55.303417363562616L59.528076923076924,86.36739079085892L59.87384615384616,71.76004442595851L60.175,67.0001794028353L60.23076923076923,61.32609454626932L60.47615384615384,59.17184055547969L60.68807692307692,63.781967689136295L60.855384615384615,65.75066780288066L61.03384615384615,63.39474204457561L62.37230769230769,60.41284043887646L62.573076923076925,59.38910907221799L62.59538461538462,54.73717638083079L62.684615384615384,53.60598482426673L62.996923076923075,52.92648524948625L63.153076923076924,52.51937398524946L63.777692307692305,50.61452805393721L63.822307692307696,66.67177766067721L63.945,59.106173964027846L64.525,59.40951694284273L64.75923076923077,58.81121250199577L64.815,55.22554526717511L64.83730769230769,54.71053603617314L64.94884615384615,55.99444194234191L65.31692307692308,59.81276055996352L65.45076923076923,59.053347287855274L66.03076923076924,55.371218459111816L66.34307692307692,57.103501440864235L66.65538461538462,51.656041684152854L67.07923076923076,54.15931596236889L67.20192307692308,54.87120755837837L67.23538461538462,58.08249719602421L67.87115384615385,54.788316083592164L67.92692307692307,57.58443060542331L68.04961538461538,56.98666351055216L68.86384615384615,60.89993505023321L68.9976923076923,93.3060702423795L69.02,78.28420621199675L69.07576923076924,76.09054469955588L69.08692307692307,67.22992047139913L69.36576923076923,70.13847565930432L69.42153846153846,62.84676439135083L69.455,63.1771080461603L69.7673076923077,62.28164561925435L69.80076923076923,60.534866939016794L70.22461538461539,62.09340678653831L70.36961538461539,72.9461947778963L70.39192307692308,67.7111377855203L71.2173076923077,62.20189154718024L71.29538461538462,58.895959028378655L71.66346153846155,62.65904868701959L72.32153846153845,58.35813495155095L72.51115384615385,59.72705375467622L72.74538461538461,59.0024815068205L73.28076923076924,56.16536406007103L73.31423076923076,55.27442731191067L73.83846153846154,57.876467028964996L74.24,58.72249073170191L74.28461538461539,62.85248993598293L74.37384615384616,60.878678748916116L74.78653846153846,54.78211786675418L74.8423076923077,56.034961671929665L75.19923076923077,55.19657065482339L75.28846153846155,84.40779419614381L75.62307692307692,73.44483800653718L75.75692307692307,72.46207407535243L75.77923076923076,67.4210275059211L76.20307692307692,63.61811883984281L76.33692307692307,59.74703834695582L76.80538461538461,59.01372534446362L77.56384615384616,64.51102425900565L77.66423076923077,57.80932205798045L77.69769230769231,55.45141490362508L78.54538461538462,54.034724098153774L78.56769230769231,54.7968296710233L78.57884615384616,58.34732828492737L79.17,58.95310047573072L79.48230769230769,54.47576738314896L80.21846153846154,53.44874710523656L80.65346153846153,54.44599793762109L81.65730769230768,56.61230226734696L81.83576923076923,57.91208486518251L81.99192307692307,56.32226363476704L82.67230769230768,63.27949709687587L82.91769230769232,69.8078804141585L83.73192307692308,73.053536994833L83.75423076923077,75.00125536204737L84.11115384615384,68.70537925821694L84.37884615384614,63.59941138264824L84.535,60.535830657307045L85.01461538461538,57.89805021323188L85.34923076923077,58.683171490786336L85.39384615384614,56.87398743494491L85.56115384615384,60.342962492027084L86.01846153846154,56.96965265119499L86.05192307692307,56.55854126519617L86.64307692307693,53.87374636488485L87,54.70080887782305L87.1896153846154,57.43868982498486L87.22307692307693,68.13170729302153L87.60230769230769,64.41751026312845L87.62461538461538,59.41438131385581L87.7026923076923,58.814131124603634L88.10423076923078,54.39198590742819L88.33846153846154,56.34443489501572L88.60615384615384,55.506220297089726L88.66192307692309,56.469234514543984L88.72884615384615,55.456938200181455L89.03,57.218685353919625L89.25307692307693,55.90699347960438L89.30884615384615,56.71044534177739L89.47615384615385,73.66097340556013L89.53192307692308,68.9080249986041L90.01153846153846,60.958240699032245L90.49115384615385,55.677048352117936L90.60269230769231,54.98182266293634L91.16038461538461,55.365466041066924L91.3723076923077,53.982370139776904L91.5173076923077,53.964630959734194L91.58423076923076,52.317596341818174L91.72923076923077,55.44085586010392L92.365,54.02877344783859L92.62153846153846,54.79325928083422L92.67730769230769,56.13978698261731L92.94500000000001,54.44657792890959L93.06769230769231,51.77105412496729L93.19038461538462,52.639372909415016L93.33538461538461,53.960373420128164L93.60307692307691,55.360851585035874L94.67384615384616,57.16029401173118L94.71846153846154,58.23517617646144L94.94153846153846,54.0442130734984L95.54384615384616,53.190787775875265L95.65538461538462,52.67756318066185L95.8673076923077,56.42157408868141L96.46961538461538,56.229316896513964L96.57000000000001,54.50068065304514L96.70384615384616,54.27580588328216L96.7373076923077,54.9418559732744L96.90461538461538,56.131551453566445L96.93807692307692,57.358765280370136L97.07192307692307,56.79144299594016L97.37307692307692,58.01901854482429L97.4176923076923,56.793395922359L97.54038461538461,58.020009229712045L98.42153846153846,57.97731925853034L98.57769230769232,57.74290782098737L98.66692307692307,56.22114218404748L98.83423076923077,54.49636430619671L99.55923076923077,51.80072224650557L99.91615384615383,52.63719561936058L100.20615384615384,56.295757652106815L100.45153846153846,53.71548017177622L101.47769230769231,51.33480220557763L101.56692307692308,51.56397183848334L101.82346153846153,54.884007051928975L102.02423076923077,52.034515033701894L102.70461538461538,51.98341475956035L103.05038461538462,55.13457128954694L103.64153846153847,56.24662234119238L103.76423076923078,56.12434584802051L103.96499999999999,54.86871481878954L104.07653846153845,53.68471172683144L104.08769230769231,56.92281874888096L104.29961538461538,57.319193585618706L104.55615384615385,55.96729841862381L104.76807692307693,55.15558792704235L105.20307692307694,55.46934796835649L105.23653846153846,57.99360049379597L105.3146153846154,59.50815200905973L105.42615384615384,70.77353846292279L105.45961538461539,66.40827582501387L105.62692307692308,63.78930685785555L105.995,65.22672886636808L106.20692307692308,61.51222114753894L107.08807692307693,57.67101168429157L107.47846153846154,55.27988497823989L107.66807692307692,53.94875891188424L107.83538461538461,57.63591268898166L107.95807692307693,60.797114884303724L108.025,58.85482998947437L108.30384615384615,59.25723935653183L108.41538461538461,59.49923573428039L108.61615384615385,58.86542100803243L108.77230769230769,56.89541964786957L108.99538461538461,84.61229180065754L109.08461538461539,73.93306603227171L109.19615384615385,72.75586343324649L109.58653846153845,68.19454860465277L109.6423076923077,65.62908301750089L110.32269230769231,60.95265868636858L110.33384615384615,71.01041730112239L110.69076923076923,62.54526430686157L111.34884615384615,57.13402046155835L111.73923076923077,87.70331775382303L111.86192307692308,105.15478145090493L111.99576923076923,116.92946114213584L112.1853846153846,122.52699058230839L113.45692307692308,104.70462666139674L113.50153846153846,92.37897428649731L113.65769230769232,108.01176550587194L113.8473076923077,118.93070186469393L113.91423076923077,97.57469003971477L114.38269230769231,81.32128539494974L114.56115384615386,73.5045818787884L114.68384615384616,68.81546512390932L115.09653846153846,66.00145185809127L115.15230769230769,59.54027736146388L115.17461538461538,56.48725693201504L115.24153846153847,52.99525782199659L115.49807692307692,54.963592562799704L115.55384615384615,51.23286245025035L115.65423076923076,84.03765380370054L116.65807692307692,69.52529978479734L116.69153846153847,93.44206153388299L117.00384615384615,79.23279139420677L117.05961538461538,71.48456695688539L117.11538461538461,64.46671860159434L117.76230769230769,57.78313852857811L118.05230769230769,57.046066944864975L118.15269230769232,89.48311959807135L118.52076923076923,78.65965571134389L118.53192307692308,68.77119091826141L118.63230769230769,63.63927560984901L119.05615384615385,63.65243370629567L119.14538461538461,59.76743865124051L119.20115384615384,62.81291383703878L120.0823076923077,63.562902161679645L120.38346153846153,62.081894044268L120.58423076923077,58.012423101908L120.6176923076923,61.023375729363124L120.85192307692309,60.30569736008967L120.97461538461539,58.716771840126086L121.24230769230769,53.48517742631414L121.32038461538463,52.03012038197663L121.50999999999999,52.41237569937368L121.5323076923077,52.21071209497143L121.56576923076923,52.25707631500697L121.8,56.823830868621144L121.87807692307693,58.806471304918375L122.13461538461539,55.222504388718136L122.32423076923078,55.510063692123L122.52499999999999,55.31491204882414L122.59192307692308,56.35482679675867L122.70346153846154,150.8618577810378L122.91538461538462,112.09328171167279L123.21653846153845,88.83156267866924L123.30576923076923,76.81162842683585L123.53999999999999,70.03168056087584L124.33192307692308,66.73154326219826L125.12384615384615,61.61470822457156L125.20192307692308,60.91297768200312L125.50307692307693,58.81476955665741L125.7373076923077,56.86522493725509L126.02730769230769,56.49569602124521L126.1276923076923,54.24073282202991L126.4846153846154,57.256612476963596L126.71884615384616,59.06632134088737L127.19846153846154,58.60567237199659L127.23192307692308,57.1469122326055L127.455,55.05123785470005L127.53307692307692,56.97489546008023L127.82307692307691,58.1296407808225L128.60384615384615,55.640874983630184L128.70423076923078,55.76089743348324L128.78230769230768,53.39574854648862L128.9273076923077,55.98160187515337L129.1726923076923,55.16493955255511L129.29538461538462,52.201671234110094L129.59653846153847,51.20700059745393L129.86423076923077,53.10057280177746L129.93115384615385,53.84442588185857L130.18769230769232,53.811503246400264L130.38846153846154,52.226112034238824L131.16923076923078,56.431280403458885L131.66,55.4335923421459L131.9723076923077,56.4258463571647L132.00576923076923,56.23188025760393L132.45192307692307,52.84203181734989L132.71961538461537,56.41739187415561L133.4446153846154,56.22661895221145L134.3146153846154,57.679392290109405L134.3703846153846,53.71013917180869L134.40384615384616,56.17005517938189L134.56,54.46571210339738L134.69384615384615,53.44271393738563L134.95038461538462,52.8289150377786L135.0173076923077,52.46160895444339L135.18461538461537,56.189681369302335L135.36307692307693,54.47670317650764L135.63076923076923,55.852271159919326L135.82038461538463,55.11518832868275L136.6123076923077,53.008722948652775L136.8353846153846,50.90834113681318L136.91346153846155,52.120213557955935L136.96923076923076,51.00037545939921L138.17384615384614,48.85493218821003L138.2073076923077,50.888356804381104L138.44153846153847,54.86544333271003L138.4973076923077,53.682160354552266L138.97692307692307,51.312403580352864L139.0996153846154,53.163060129168755L139.21115384615385,54.62350949872521L139.25576923076923,56.717888759944756L139.57923076923078,57.19698250998162L139.67961538461537,55.08128002112569L139.93615384615384,54.557078712138306L139.9473076923077,53.49773006284069L140.08115384615385,52.6477253078053L140.4269230769231,51.52804143129232L140.5273076923077,56.38659100935588L140.71692307692308,54.42738849775763L140.7726923076923,54.22356922739806L140.87307692307692,54.91051397974397L140.9623076923077,54.52170587930145L141.05153846153846,54.28823240344893L141.24115384615385,51.67584310485691L141.57576923076923,52.581288130166755L141.68730769230768,52.31166723302627L142.1,52.9622092156838L142.20038461538462,54.05607054487251L142.21153846153845,55.59970296535124L142.4569230769231,54.93521927066584L142.535,56.90510323869616L142.84730769230768,57.30949981281945L142.95884615384614,55.14937888345989L143.01461538461538,52.8335523822949L143.1373076923077,55.644653863187685L143.2376923076923,54.14988283304933L143.39384615384614,57.95862451387583L143.8176923076923,58.75136192688559L143.85115384615384,59.64519530961442L144.23038461538462,54.89062441843467L144.275,53.698438422626566L144.53153846153845,56.931416908285144L144.59846153846155,56.535411203863234L144.62076923076924,53.86006448829559L145.06692307692308,54.69316559863056L145.13384615384618,56.76024072202554L145.15615384615384,66.7208332217353L145.27884615384616,71.20146711647214L145.3346153846154,63.48455926565154L145.49076923076922,62.03507692223815L145.59115384615384,62.906731883323374L145.76961538461538,61.68893125035535L146.04846153846154,58.58952579326335L146.26038461538462,59.098056838805235L146.36076923076922,56.2221207786304L146.56153846153848,55.30925089464135L146.86269230769233,60.889151441461465L147.11923076923077,56.47270095127554L147.1415384615385,58.21732486221495L147.15269230769232,58.87473628017621L147.8107692307692,56.90062403535835L147.84423076923076,58.08434609751167L147.9446153846154,55.613698173643684L148.36846153846153,58.8370872445725L148.93730769230768,56.8778459984091L149.58423076923077,54.06591768544412L149.98576923076925,57.908245425312714L150.17538461538462,56.32054090685321L150.39846153846153,53.73114231008955L150.71076923076922,56.18302674890096L150.74423076923077,56.875876687768326L150.8223076923077,58.840422405483224L150.8446153846154,68.46010476504019L151.03423076923076,64.24194242648828L151.12346153846156,60.92191513037214L151.22384615384615,62.76959907008528L151.5696153846154,60.038320500943286L152.0046153846154,56.578930088787544L152.13846153846154,58.1430259135156L152.2723076923077,57.26199937582746L152.39499999999998,55.12009398042268L152.55115384615385,57.016397751100854L152.57346153846154,54.973902422226246L152.975,56.15040209176348L153.37653846153847,54.45294699439728L153.67769230769233,51.7748755642599L153.845,58.01737598485043L154.17961538461537,54.42981908795346L154.44730769230767,55.03388666490315L154.6480769230769,55.24099095822464L155.01615384615383,57.088377635644434L155.31730769230768,58.19791870174801L155.46230769230772,54.02165488383632L155.4846153846154,53.98935613356244L155.71884615384616,56.33850580049882L155.7746153846154,57.74780698507358L155.93076923076924,57.02562248111032L156.0423076923077,54.97943726023195L156.09807692307692,55.36346895268319L156.17615384615385,63.70765521058563L156.3880769230769,60.65170316256555L156.5219230769231,59.55727115155406L157.60384615384615,56.497649366279674L157.77115384615385,58.61021164599934L157.89384615384614,59.87774901383115L157.93846153846152,59.09551664666131L158.11692307692306,57.03290363966235L158.48499999999999,59.6893272634144L158.5853846153846,60.525950212757834L159.29923076923075,59.8766823407895L159.3326923076923,61.39487774486L159.51115384615386,63.05231284686717L159.6896153846154,61.775910141931035L160.48153846153846,65.22665295771722L160.5819230769231,59.899866930609065L160.92769230769233,58.31648121725756L161.13961538461538,59.701699372173096L161.17307692307693,56.584698619072086L161.41846153846154,61.27125128339529L162.14346153846154,74.03582383929171L162.2326923076923,64.69389005213732L162.46692307692308,65.03295754948444L162.7123076923077,61.3955811262347L163.03576923076923,62.30568134785996L163.54884615384617,58.95938723617908L163.86115384615383,56.138338081046626L164.51923076923077,53.622409095237145L164.69769230769234,58.38918625439706L165.04346153846151,57.41007281153037L165.36692307692306,53.2431939385187L165.64576923076922,76.89212802964225L165.70153846153846,66.0746830643945L165.84653846153847,62.81087047706441L166.05846153846156,59.2617311621067L166.52692307692308,73.39193724327095L166.53807692307691,67.91520088288206L166.76115384615383,62.26069805115934L167.40807692307692,58.932397258158716L167.59769230769228,61.357463952361584L167.89884615384614,58.39045679888008L167.91,55.79736459446478L167.99923076923076,55.05324285674939L168.13307692307694,56.19819496806441L168.26692307692306,59.18778532122492L168.4342307692308,60.22647361515247L168.47884615384615,61.6049335804413L168.66846153846154,57.65624026233269L168.86923076923077,56.169526424652204L169.07,56.07827691368347L169.2373076923077,56.0240930538633L169.34884615384615,54.18408711215737L169.38230769230768,52.25734990116486L169.51615384615386,52.93057698374905L169.5273076923077,52.52163286559663L169.5719230769231,54.6792289733727L169.88423076923078,55.973039720313764L170.17423076923075,54.987400068489265L170.54230769230767,56.93917304958423L170.7096153846154,56.144341842445854L171.11115384615383,55.26238737272011L171.7023076923077,55.47145609849103L171.74692307692308,53.98102759993121L171.97,59.34281001427732L172.51653846153846,56.59110148843834L172.84,56.3308447207811L173.30846153846156,56.92029562031044L173.8773076923077,51.54591448698663L174.04461538461538,51.58901312904095L174.13384615384615,51.33617392288899L174.20076923076925,54.74604571658061L174.75846153846155,54.42302492140344L174.79192307692307,54.55964431889025L174.8253846153846,55.11197041905224L174.97038461538463,53.42404005986235L175.27153846153846,53.629248135987964L175.55038461538462,56.12189024443998L175.62846153846155,55.249301189714146L175.87384615384616,59.365676108386836L176.25307692307692,55.97587115304209L176.64346153846154,52.68802648956833L176.9,53.189179097001656L176.93346153846153,51.85311740964413L177.0784615384615,54.28110737069969L177.66961538461538,54.143488522490344L177.68076923076922,53.24977210926245L177.89269230769233,52.71275762048367L177.92615384615385,54.79446212844253L178.02653846153845,55.257025736945096L178.0376923076923,55.53096511664623L178.10461538461539,58.433483855143976L178.3276923076923,56.63587258033897L178.35,59.8276909642461L179.26461538461538,56.65990125389487L179.33153846153849,53.09884441512445L180.16807692307694,52.622789484632406L180.8373076923077,53.94966890291052L180.90423076923076,52.30920758835545L181.16076923076923,64.43449873853302L181.57346153846154,86.29300057368621L181.5846153846154,103.54126521169763L181.65153846153848,112.07958980532261L181.75192307692308,94.19968395046789L181.94153846153847,89.02207095988034L182.07538461538462,75.78999225040735L182.1423076923077,69.41814809750463L182.3653846153846,64.69562440673408L182.80038461538462,58.75678089064958L183.35807692307694,54.35677603696679L183.62576923076924,56.55895774254138L183.8823076923077,57.101254212989005L184.28384615384613,56.637879433446614L184.55153846153848,53.921145561001126L184.58499999999998,52.29110523753383L185.4215384615385,50.47817037518631L185.48846153846154,48.541609137682286L185.8230769230769,49.88844831816709L185.92346153846154,53.877591424711014L185.96807692307695,55.641999038176195L186.035,54.14770900203442L186.69307692307692,54.86424338217766L187.06115384615384,52.020649962005194L187.0723076923077,52.78855702025325L187.16153846153844,52.43564379128064L187.20615384615382,55.40608977954268L187.39576923076925,57.81363313272668L187.4626923076923,53.790283812334565L187.50730769230768,56.21832303466091L187.80846153846153,56.10717764851465L188.10961538461538,54.427789424666486L188.32153846153844,53.4201564903576L188.67846153846153,52.816157665780324L188.6896153846154,52.453177435025935L188.70076923076923,52.23480081594178L188.96846153846153,63.18169639397043L189.8273076923077,60.2855788952744L190.53,57.747325764627746L190.99846153846153,55.595363537389915L191.0430769230769,53.29741655450859L191.53384615384616,53.554043584370746L191.74576923076924,52.89571282596968L192.15846153846152,54.11361152329992L192.49307692307693,52.04936952696279L192.57115384615386,53.60561692830876L192.6826923076923,52.92665683233251L193.14000000000001,54.9218736668637L193.32961538461538,55.94018864646149L193.39653846153846,53.569919665741494L193.4746153846154,56.08647423325564L193.99884615384616,54.4147788948796L194.05461538461537,54.22388005258527L194.23307692307694,52.47334195773931L194.3,53.060368377904226L194.41153846153844,52.598730605871225L194.6123076923077,52.32311351950146L194.8019230769231,55.33820947454811L194.82423076923078,54.77890411219198L195.18115384615385,51.12164197021778L195.52692307692305,50.41413381290866L196.05115384615385,55.71914424851995L196.185,56.59680026981506L196.30769230769232,56.333886758433096L197.02153846153846,55.37631048252297L197.3673076923077,54.801568556766384L197.78,52.82015122045847L198.04769230769233,55.252456027685255L198.14807692307693,55.5282232910903L198.215,54.08041681021189L198.38230769230768,53.132159777831774L198.7280769230769,57.34888094631603L198.76153846153846,60.62525043600796L198.97346153846152,57.139802513802024L199.18538461538463,55.046972023417894L200.44576923076923,54.603580705505806L200.535,54.33812685076657L200.60192307692307,55.7685670623371L200.8696153846154,52.563644035145316L200.88076923076923,52.30186541685541L201.30461538461537,53.83868693131983L201.60576923076923,54.67901875533596L201.7396153846154,52.74662133960025L201.97384615384615,52.41048238288883L202.6319230769231,52.209772265291036L202.77692307692308,52.90145701084019L202.88846153846154,52.46887467783115L202.93307692307692,55.21904156627443L203.4573076923077,55.29070084240678L204.26038461538462,56.3404811438718L204.50576923076923,55.823076155127325L204.55038461538462,55.87059536755554L204.58384615384617,54.28544773567002L204.69538461538463,55.94106429230801L204.91846153846154,53.50444468703844L205.20846153846153,54.48055572484785L205.5876923076923,57.40032514769082L205.68807692307692,54.37940517501313L206.31269230769232,55.00382693272596L206.91500000000002,54.57788981130115L207.205,54.32194276264873L207.26076923076926,54.9691608697203L207.48384615384617,52.92090276844135L208.05269230769233,52.517586233683076L208.0973076923077,51.44917334597699L208.45423076923075,53.246442297652365L209.00076923076924,51.88806381066607L209.22384615384615,79.70910027302615L209.58076923076925,67.76526627546932L209.69230769230768,59.76327056782611L209.70346153846154,56.620668080034875L209.9823076923077,57.1392084041733L210.08269230769233,55.858733918372025L210.23884615384614,54.27872318658093L210.7073076923077,57.279587766657784L210.98615384615385,54.74168395136293L211.8226923076923,56.010324091520886L212.57,54.36908880983874L212.91576923076923,54.197431713366385L213.29500000000002,52.45668076874249L213.30615384615385,56.186724457881766L213.55153846153848,52.81493833751658L213.9753846153846,61.010863009969825L214.03115384615384,58.22723585068677L214.08692307692309,55.69962818575931L214.49961538461537,56.225197002872704L214.58884615384616,55.8706285404009L214.745,51.77789885614703L214.8676923076923,47.58644688747293L215.06846153846152,48.491674244137414L215.0907692307692,46.48749679840847L215.34730769230768,44.41136819962344L215.3584615384615,44.90112042267663L215.36961538461537,45.19537916617651L215.40307692307692,45.372545526778396L215.615,43.74323488985172L216.0053846153846,42.765859757153265L216.19500000000002,42.17984963182562L216.34,40.940867576675686L216.35115384615384,41.95846136563975L216.5853846153846,42.569228888475635L216.69692307692307,44.643837425994434L216.78615384615384,45.889409823218216L216.8976923076923,41.352498975528164L217.44423076923076,43.06620629788742L217.53346153846155,44.09422698646898L217.57807692307694,46.395353957859015L217.89038461538462,45.23033083039033L218.04653846153846,45.39188688663478L218.11346153846154,49.61075011293789L218.26961538461538,48.02095327549924L218.37,47.06748258270409L218.44807692307694,48.18029566127612L218.45923076923077,47.16166208033229L218.50384615384618,51.462688200076556L218.78269230769232,49.13272724228446L218.89423076923077,45.99934391915539L218.93884615384616,46.70251001428079L219.1173076923077,43.65509755452115L219.27346153846153,43.587210601804514L219.67499999999998,46.09134028727087L219.76423076923078,43.288184468857736L219.8869230769231,44.22741388905118L220.43346153846156,46.47565841982936L220.4446153846154,47.824212817875235L220.50038461538463,46.08805355606805L220.80153846153848,47.59184605982898L221.22538461538463,53.26691827771596L222.46346153846156,50.21526528886804L222.56384615384613,50.89341910509708L222.7423076923077,52.91223529077634L222.77576923076924,49.14024838068326L222.87615384615384,46.877886143210276L223.18846153846152,48.065941772324834L223.5676923076923,45.36011009038597L223.57884615384617,44.608973260449005L223.6792307692308,45.02070198334192L223.7126923076923,46.951238955982774L224.14769230769232,47.27284730628824L224.42653846153846,47.46641588634998L224.59384615384613,52.42363259251964L224.61615384615385,50.556683353254854L224.70538461538462,47.727332172461814L224.88384615384615,46.0311700316943L225.1069230769231,45.01119427094258L225.3746153846154,45.26101606546811L225.62,47.09641575093451L225.9323076923077,67.51825179091989L226.06615384615384,57.03128485208559L226.5346153846154,53.32328157884035L226.56807692307692,51.097876045014715L227.0253846153846,49.76162928979636L227.1146153846154,48.960281101709825L228.0180769230769,47.631079278430434L228.02923076923076,44.211394115181065L228.9996153846154,43.91953997049211L229.08884615384616,46.29073790848341L229.57961538461538,45.16859481418186L229.59076923076924,45.35484527690974L230.1596153846154,43.73345219313694L230.26000000000002,43.63401213551646L230.82884615384617,44.43491048904647L230.9403846153846,43.18086511667008L231.01846153846154,45.01182259783408L231.34192307692308,46.946107484888614L231.75461538461536,48.93153964691189L231.94423076923078,49.29952208526629L232.4126923076923,46.09858337173816L232.9480769230769,45.914468050115374L233.39423076923077,45.80338774263973L233.67307692307693,43.115412942079075L233.885,41.50262806174268L233.94076923076923,43.156283749616136L233.99653846153848,42.41410402730335L234.1973076923077,44.55196964904803L234.25307692307692,46.66959969036199L234.30884615384616,46.257281546123636L234.4426923076923,46.009686954746684L234.67692307692306,47.544033913570644L235.20115384615383,49.289707023489655L235.43538461538463,48.676531716670866L235.84807692307692,49.96862476934169L236.02653846153848,49.92058110821418L236.4057692307692,48.207055577499034L236.52846153846156,50.49963083795453L236.67346153846154,52.67652817725187L237.08615384615385,87.83833454279858L237.16423076923078,73.05770077179461L237.20884615384614,64.59868423464253L237.48769230769233,57.86251406861756L237.77769230769232,59.42913046740209L238.68115384615385,54.76038194322879L238.71461538461537,51.11012125917186L238.77038461538461,48.92037225840568L239.3280769230769,48.45472715278646L239.55115384615382,49.012642403325515L239.71846153846155,47.66269976423382L239.75192307692308,48.53663378472845L239.77423076923077,45.642102798913214L239.9973076923077,44.77858383985682L240.0642307692308,44.26067616925698L240.32076923076923,48.93353260720741L240.5996153846154,49.2995258109336L240.62192307692308,48.68322271922622L240.76692307692306,49.148751397513394L241.21307692307693,48.592758071174046L241.28,48.259365780204405L241.43615384615384,47.21093749519511L241.55884615384613,44.84605882144433L241.65923076923076,46.00993538577566L241.70384615384617,45.860057029534005L242.1723076923077,47.45524430411905L242.2503846153846,46.72764979020798L242.29500000000002,46.29109308186136L242.35076923076923,47.71446196077048L242.3619230769231,46.882772974530894L242.80807692307692,43.76241033284131L243.01999999999998,44.5113382929394L243.32115384615383,43.22608805063342L243.5776923076923,44.191174562286506L244.35846153846154,50.459046100219126L244.47,50.214637746530116L244.60384615384615,47.522104808426974L244.79346153846154,48.45227681124433L244.9719230769231,51.44736129887768L245.06115384615384,50.80782302593579L245.16153846153847,46.116376571773486L245.2396153846154,45.92392174113266L245.68576923076924,44.07468682221324L245.83076923076925,46.384218339937064L245.88653846153846,45.22447182359659L245.95346153846154,45.3895937115625L245.9869230769231,45.4876483201721L246.83461538461538,46.39649608981378L246.84576923076924,46.09219715679086L246.86807692307693,46.759029231574516L247.33653846153845,44.57617381539325L247.37,45.849007817067985L247.71576923076924,48.273083686009016L247.96115384615385,48.066557714182466L248.0169230769231,47.94384172622L248.05038461538462,47.86981226839802L248.10615384615386,44.35463390916169L248.56346153846152,42.244885600623974L248.73076923076923,41.866216435244155L248.89807692307693,45.05913610775562L248.99846153846156,42.66907321060606L249.02076923076922,47.977439138494674L249.2326923076923,48.72586972970595L249.45576923076922,46.62884399833251L249.5673076923077,48.74078923455724L249.72346153846155,48.347580908355894L249.73461538461538,48.11165591263506L250.18076923076922,47.12210786981956L250.2030769230769,48.21247480829038L250.44846153846152,46.321221999774565L250.705,46.8950332927738L251.1623076923077,48.0756415814314L251.3073076923077,46.2397407227846L251.31846153846152,45.99834764140732L251.43,43.23175513296721L251.53038461538463,41.57201087736061L251.54153846153847,41.46249160128613L251.56384615384616,44.81670504717036L251.61961538461537,44.284793756519434L251.7423076923077,47.3339667690484L252.55653846153845,73.07210323647786L252.9692307692308,61.236999056687054L252.98038461538462,54.9975174610847L253.17,52.10161784427237L253.2146153846154,49.51628873363592L253.62730769230768,45.343153536676795L253.97307692307692,47.96917879735332L253.98423076923078,45.30100360273926L254.0176923076923,49.55792522750727L254.02884615384616,47.98905463940693L254.40807692307692,46.18695864898703L254.46384615384616,47.65178514083536L254.56423076923076,48.53087719615485L254.62,44.75233665772657L254.83192307692306,47.61527715061467L255.2,46.823873202939325L255.46769230769232,48.03333784795174L255.47884615384615,43.55256250626999L255.88038461538463,44.3854295969966L256.30423076923074,46.5694794989206L256.75038461538463,48.704582054278575L256.8173076923077,45.74329425955824L256.8396153846154,43.96589537897714L256.85076923076923,46.31855115357442L257.0515384615385,45.184867806944965L257.19653846153847,43.631465711158086L257.29692307692306,43.5728202463292L257.3415384615385,45.24719938046357L258.05538461538464,80.9850099799763L258.7803846153846,66.84591660539029L259.0369230769231,73.90882118990517L259.2153846153846,93.38659774730898L259.4384615384615,71.66491644596566L259.9738461538461,98.05089799108748L260.0073076923077,78.76974888105113L260.06307692307695,65.5171673557032L260.8103846153846,56.70382627876478L261.01115384615383,51.41499926864232L261.8476923076923,47.36933333871903L262.2826923076923,46.67569580129998L262.2938461538461,46.26053180301852L262.6730769230769,46.01102599438164L262.9965384615385,44.12653441987115L263.14153846153846,44.73103497416116L263.2642307692308,45.09353160190122L263.4984615384615,44.45088968935798L263.6992307692308,43.190030137942045L263.84423076923076,45.853628034208384" style="fill: none;" fill="none"></path></g></g></g></g><g opacity="0.2"><g><g><g><path stroke="rgb(255, 112, 67)" stroke-width="2px" d="M22.419230769230772,63.67262352837456L22.686923076923076,57.91328430175781L22.720384615384614,49.84902487860788L23.010384615384616,55.94234572516548L23.266923076923078,53.938493728637695L23.98076923076923,49.886087841457794L24.081153846153846,59.47915204366049L24.772692307692306,59.862682978312165L24.82846153846154,61.78133731418187L25.062692307692306,53.93802218967015L25.26346153846154,53.938493728637695L25.653846153846157,49.84655401441785L25.676153846153845,47.76027700636121L25.76538461538462,56.939292271931976L26.088846153846156,57.915151596069336L26.311923076923076,53.93994606865776L26.91423076923077,67.38069279988608L27.349230769230772,47.7567687564426L27.505384615384614,53.93994606865776L28.196923076923078,57.91469891866049L28.498076923076926,51.91064982944066L28.676538461538463,51.90821668836806L28.754615384615384,61.78269534640843L28.76576923076923,48.81367619832358L29.290000000000003,49.849515279134124L29.435000000000002,47.76027700636121L29.591153846153844,69.19757016499838L29.702692307692306,51.58726840549046L30.182307692307692,55.69686253865561L30.271538461538462,59.8603818681505L30.751153846153848,53.93802218967015L30.79576923076923,57.91562313503688L30.818076923076923,45.18461799621582L30.974230769230772,47.756259494357636L30.99653846153846,55.94234572516548L31.074615384615385,54.9497184753418L31.16384615384615,57.91609467400444L31.230769230769234,61.77952660454643L31.543076923076924,59.8603818681505L32.75884615384615,61.78178999159071L33.048846153846156,104.50936932033962L33.06,117.34937540690105L33.12692307692308,66.53814697265625L33.394615384615385,49.848025215996614L33.42807692307692,51.913573371039504L33.52846153846154,53.71355077955458L34.074999999999996,51.90676434834799L34.10846153846154,60.08898395962184L34.409615384615385,49.84604475233289L34.47653846153846,51.90821668836806L34.5323076923077,53.9394556681315L35.112307692307695,45.63982285393607L35.168076923076924,59.861758761935775L35.17923076923077,61.78133731418187L35.38,59.86223030090332L35.525,49.848025215996614L36.09384615384615,51.90821668836806L36.283461538461545,59.85992919074165L36.89692307692307,53.93753178914389L36.93038461538462,57.915151596069336L37.08653846153846,63.67307620578343L37.13115384615385,53.938493728637695L37.66653846153846,55.94045956929526L37.744615384615386,55.9376114739312L37.99,55.94330766465929L38.12384615384615,49.37616560194226L38.23538461538461,53.938493728637695L38.57,61.78133731418187L38.692692307692305,57.920753479003906L38.848846153846154,56.04553731282553L39.205769230769235,53.93753178914389L39.529230769230765,51.909687889946824L39.707692307692305,52.937397638956696L39.886153846153846,53.940417607625335L39.93076923076923,53.938493728637695L40.120384615384616,58.90230899386937L40.510769230769235,53.93994606865776L40.97923076923077,51.90821668836806L41.07961538461539,57.91328430175781L41.28038461538461,51.90676434834799L41.38076923076923,53.938984129163956L41.536923076923074,56.52071656121147L41.559230769230766,63.2367329067654L41.59269230769231,55.94187418619791L42.08346153846154,51.9087070888943L42.58538461538462,61.77952660454643L42.786153846153844,51.9087070888943L42.886538461538464,57.91609467400444L43.03153846153847,93.77544487847223L43.065,61.780884636772996L43.15423076923077,51.90821668836806L43.60038461538462,57.916566212972015L43.79,53.50556437174478L43.901538461538465,57.915151596069336L43.935,45.638295067681184L44.53730769230769,58.18987019856772L44.67115384615385,55.93951649136012L44.927692307692304,51.9087070888943L45.385,57.91469891866049L45.47423076923077,53.938984129163956L45.518846153846155,61.78133731418187L45.596923076923076,56.94634649488661L46.18807692307693,63.67307620578343L46.26615384615385,49.848025215996614L46.61192307692308,60.3585156334771L46.65653846153846,55.9409311082628L46.74576923076923,47.76227633158365L46.879615384615384,51.9077262878418L47.10269230769231,49.84604475233289L47.15846153846154,61.78178999159071L47.16961538461538,65.53803168402779L47.39269230769231,51.9087070888943L47.44846153846154,51.909687889946824L47.838846153846156,53.63367207845053L47.950384615384614,47.75776841905383L48.084230769230764,49.84753481547037L48.37423076923076,55.94140264723036L48.47461538461538,55.9409311082628L48.865,53.938493728637695L48.87615384615384,59.86223030090332L48.89846153846154,55.94187418619791L49.389230769230764,89.55111588372125L49.57884615384616,61.78133731418187L49.60115384615384,57.91469891866049L49.65692307692308,57.91609467400444L49.93576923076923,49.84753481547037L49.94692307692308,51.9077262878418L50.058461538461536,54.713005913628464L50.080769230769235,53.938984129163956L50.136538461538464,56.9378776550293L50.29269230769231,59.8603818681505L50.35961538461539,63.67217085096571L50.459999999999994,55.94045956929526L50.62730769230769,49.84753481547037L50.69423076923077,57.91328430175781L52.166538461538465,57.64739290873209L52.36730769230769,55.94234572516548L52.78,45.63523949517142L52.93615384615384,55.93951649136012L53.32653846153846,57.92030080159506L54.252307692307696,108.50332323710124L54.52,57.91422737969292L55.31192307692308,53.93753178914389L55.401153846153846,47.75776841905383L55.802692307692304,76.22516059875488L56.103846153846156,51.90821668836806L56.13730769230769,49.84753481547037L56.784230769230774,51.90723588731554L57.47576923076923,49.84753481547037L57.855000000000004,51.9077262878418L57.86615384615384,57.91562313503688L58.245384615384616,63.673528883192276L58.35692307692308,53.938493728637695L58.39038461538461,51.90723588731554L58.401538461538465,63.67262352837456L58.423846153846156,55.94140264723036L58.435,57.91701889038086L59.08192307692308,51.909687889946824L59.528076923076924,132.9633509318034L59.87384615384616,49.84902487860788L60.175,59.8603818681505L60.23076923076923,52.814967261420364L60.47615384615384,55.94045956929526L60.68807692307692,70.69715838962132L60.855384615384615,68.70371797349718L61.03384615384615,59.86085340711806L62.37230769230769,55.93998803032768L62.573076923076925,57.85351202223036L62.59538461538462,47.75927734375L62.684615384615384,51.90919748942056L62.996923076923075,51.90723588731554L63.153076923076924,51.9087070888943L63.777692307692305,47.75725915696887L63.822307692307696,90.75765207078722L63.945,47.75776841905383L64.525,59.86453141106499L64.75923076923077,57.91375584072536L64.815,49.84704441494412L64.83730769230769,53.93802218967015L64.94884615384615,57.92030080159506L65.31692307692308,65.54023848639595L65.45076923076923,57.91422737969292L66.03076923076924,49.848025215996614L66.34307692307692,59.70192591349283L66.65538461538462,43.484852049085816L67.07923076923076,57.91422737969292L67.20192307692308,55.93904495239258L67.23538461538462,62.899431652492936L67.87115384615385,49.84704441494412L67.92692307692307,61.77860238817003L68.04961538461538,56.09001286824545L68.86384615384615,66.76984235975478L68.9976923076923,141.91527303059897L69.02,55.75141016642252L69.07576923076924,72.80005243089464L69.08692307692307,53.938984129163956L69.36576923076923,74.50130844116211L69.42153846153846,51.90919748942056L69.455,63.67262352837456L69.7673076923077,60.9384519788954L69.80076923076923,57.91469891866049L70.22461538461539,64.43121655782065L70.36961538461539,89.22537676493327L70.39192307692308,59.85855229695639L71.2173076923077,53.93802218967015L71.29538461538462,53.937060250176316L71.66346153846155,68.303683174981L72.32153846153845,51.90676434834799L72.51115384615385,61.78043195936415L72.74538461538461,57.91562313503688L73.28076923076924,51.909687889946824L73.31423076923076,53.93802218967015L73.83846153846154,61.77952660454643L74.24,59.99152628580728L74.28461538461539,69.04748874240452L74.37384615384616,57.917961968315964L74.78653846153846,45.63727654351126L74.8423076923077,57.91422737969292L75.19923076923077,53.938984129163956L75.28846153846155,128.22462950812445L75.62307692307692,57.00040372212729L75.75692307692307,70.9879281785753L75.77923076923076,59.85945765177408L76.20307692307692,57.91375584072536L76.33692307692307,53.940417607625335L76.80538461538461,57.91375584072536L77.56384615384616,72.7569726308187L77.66423076923077,47.7567687564426L77.69769230769231,51.914554172092025L78.54538461538462,51.909687889946824L78.56769230769231,55.93998803032768L78.57884615384616,63.67307620578343L79.17,59.861758761935775L79.48230769230769,47.759767744276246L80.21846153846154,51.90821668836806L80.65346153846153,55.94187418619791L81.65730769230768,59.861758761935775L81.83576923076923,59.861758761935775L81.99192307692307,53.93753178914389L82.67230769230768,73.71534729003906L82.91769230769232,79.60045539008247L83.73192307692308,77.92202186584473L83.75423076923077,77.92283291286891L84.11115384615384,59.26156510247124L84.37884615384614,55.94045956929526L84.535,55.94045956929526L85.01461538461538,53.94137954711914L85.34923076923077,59.86085340711806L85.39384615384614,54.160211351182724L85.56115384615384,65.54642507765028L86.01846153846154,51.909687889946824L86.05192307692307,55.94187418619791L86.64307692307693,49.84655401441785L87,55.94140264723036L87.1896153846154,61.54551124572754L87.22307692307693,84.1712334950765L87.60230769230769,58.846214718288834L87.62461538461538,51.909687889946824L87.7026923076923,57.91375584072536L88.10423076923078,47.75876808166504L88.33846153846154,59.27310837639702L88.60615384615384,54.24889840020073L88.66192307692309,57.91375584072536L88.72884615384615,53.938493728637695L89.03,59.8613060845269L89.25307692307693,53.9394556681315L89.30884615384615,57.91562313503688L89.47615384615385,99.08676550123427L89.53192307692308,61.77860238817003L90.01153846153846,49.03356424967447L90.49115384615385,47.75525983174643L90.60269230769231,53.938984129163956L91.16038461538461,55.9409311082628L91.3723076923077,51.9077262878418L91.5173076923077,53.93802218967015L91.58423076923076,49.84704441494412L91.72923076923077,60.12574513753256L92.365,51.91064982944066L92.62153846153846,55.93998803032768L92.67730769230769,58.159578535291885L92.94500000000001,51.90676434834799L93.06769230769231,47.75776841905383L93.19038461538462,53.941851086086686L93.33538461538461,55.94187418619791L93.60307692307691,57.46156883239746L94.67384615384616,59.85945765177408L94.71846153846154,59.84749942355687L94.94153846153846,47.75776841905383L95.54384615384616,51.91064982944066L95.65538461538462,51.9077262878418L95.8673076923077,62.03759045071071L96.46961538461538,55.9409311082628L96.57000000000001,51.9077262878418L96.70384615384616,53.938493728637695L96.7373076923077,55.9409311082628L96.90461538461538,57.91609467400444L96.93807692307692,59.19958602057564L97.07192307692307,55.94045956929526L97.37307692307692,59.8603818681505L97.4176923076923,54.954961988661026L97.54038461538461,59.85992919074165L98.42153846153846,57.91328430175781L98.57769230769232,57.39129066467285L98.66692307692307,53.938493728637695L98.83423076923077,51.90919748942056L99.55923076923077,47.75725915696887L99.91615384615383,53.89190567864311L100.20615384615384,61.78360070122612L100.45153846153846,49.845063951280395L101.47769230769231,47.76378525627982L101.56692307692308,51.9077262878418L101.82346153846153,59.86405987209743L102.02423076923077,47.76027700636121L102.70461538461538,51.90676434834799L103.05038461538462,59.8613060845269L103.64153846153847,57.91469891866049L103.76423076923078,55.9409311082628L103.96499999999999,52.985268274943024L104.07653846153845,51.9087070888943L104.08769230769231,61.779979281955306L104.29961538461538,57.91375584072536L104.55615384615385,53.9394556681315L104.76807692307693,53.93802218967015L105.20307692307694,55.93998803032768L105.23653846153846,61.779979281955306L105.3146153846154,61.779979281955306L105.42615384615384,87.67161814371744L105.45961538461539,59.8603818681505L105.62692307692308,59.86085340711806L105.995,67.38286187913683L106.20692307692308,55.94045956929526L107.08807692307693,51.90919748942056L107.47846153846154,51.69319491916234L107.66807692307692,51.952069812350814L107.83538461538461,63.16664335462782L107.95807692307693,65.53891817728677L108.025,55.94140264723036L108.30384615384615,59.86085340711806L108.41538461538461,59.86223030090332L108.61615384615385,57.91469891866049L108.77230769230769,53.940417607625335L108.99538461538461,126.18760002983942L109.08461538461539,57.91422737969292L109.19615384615385,70.99005953470865L109.58653846153845,61.35257636176216L109.6423076923077,61.780884636772996L110.32269230769231,53.93802218967015L110.33384615384615,86.09705522325304L110.69076923076923,49.84753481547037L111.34884615384615,49.017154693603516L111.73923076923077,133.55726369222006L111.86192307692308,131.33197699652777L111.99576923076923,134.5914806789822L112.1853846153846,130.92328474256726L113.45692307692308,77.9710807800293L113.50153846153846,73.89049572414821L113.65769230769232,131.4609523349338L113.8473076923077,135.30910640292697L113.91423076923077,65.5406723022461L114.38269230769231,56.9411784278022L114.56115384615386,61.77952660454643L114.68384615384616,61.78178999159071L115.09653846153846,61.78043195936415L115.15230769230769,49.84851561652292L115.17461538461538,51.9077262878418L115.24153846153847,47.75725915696887L115.49807692307692,57.91609467400444L115.55384615384615,45.6367672814263L115.65423076923076,133.24484083387586L116.65807692307692,47.7567687564426L116.69153846153847,129.3172041575114L117.00384615384615,57.91888618469238L117.05961538461538,59.86223030090332L117.11538461538461,53.93994606865776L117.76230769230769,47.75776841905383L118.05230769230769,55.94045956929526L118.15269230769232,138.13869857788086L118.52076923076923,62.4244598812527L118.53192307692308,53.938493728637695L118.63230769230769,55.94140264723036L119.05615384615385,63.67217085096571L119.14538461538461,53.93994606865776L119.20115384615384,67.38112661573622L120.0823076923077,64.68788464864096L120.38346153846153,59.8603818681505L120.58423076923077,51.90821668836806L120.6176923076923,65.53980467054579L120.85192307692309,59.22917980617946L120.97461538461539,56.333383560180664L121.24230769230769,45.637785805596224L121.32038461538463,49.84753481547037L121.50999999999999,52.985758675469285L121.5323076923077,51.90821668836806L121.56576923076923,52.32662264506021L121.8,63.673962699042434L121.87807692307693,61.78043195936415L122.13461538461539,49.84655401441785L122.32423076923078,55.94140264723036L122.52499999999999,55.02218458387587L122.59192307692308,57.91469891866049L122.70346153846154,292.6224042574564L122.91538461538462,53.940417607625335L123.21653846153845,53.938984129163956L123.30576923076923,58.78172704908583L123.53999999999999,59.861758761935775L124.33192307692308,61.78133731418187L125.12384615384615,53.9394556681315L125.20192307692308,59.8603818681505L125.50307692307693,55.66745736863878L125.7373076923077,53.940908008151595L126.02730769230769,55.94140264723036L126.1276923076923,50.858288023206924L126.4846153846154,61.78043195936415L126.71884615384616,61.780884636772996L127.19846153846154,57.91469891866049L127.23192307692308,54.95877202351889L127.455,51.9077262878418L127.53307692307692,59.8603818681505L127.82307692307691,59.861758761935775L128.60384615384615,51.9077262878418L128.70423076923078,55.9409311082628L128.78230769230768,49.848025215996614L128.9273076923077,59.8603818681505L129.1726923076923,53.93994606865776L129.29538461538462,47.7567687564426L129.59653846153847,49.714994642469605L129.86423076923077,55.9409311082628L129.93115384615385,54.96020550198024L130.18769230769232,53.76211929321289L130.38846153846154,49.848025215996614L131.16923076923078,62.739032957288956L131.66,53.937060250176316L131.9723076923077,57.91422737969292L132.00576923076923,55.9409311082628L132.45192307692307,47.75725915696887L132.71961538461537,61.78043195936415L133.4446153846154,55.94045956929526L134.3146153846154,59.85855229695639L134.3703846153846,47.756259494357636L134.40384615384616,59.85992919074165L134.56,51.90919748942056L134.69384615384615,51.90821668836806L134.95038461538462,51.90821668836806L135.0173076923077,51.91064982944066L135.18461538461537,61.78178999159071L135.36307692307693,51.90723588731554L135.63076923076923,57.91562313503688L135.82038461538463,54.00956408182779L136.6123076923077,49.84902487860788L136.8353846153846,47.75776841905383L136.91346153846155,53.93802218967015L136.96923076923076,49.32061831156412L138.17384615384614,45.6367672814263L138.2073076923077,53.938493728637695L138.44153846153847,60.83107312520346L138.4973076923077,51.90723588731554L138.97692307692307,47.75776841905383L139.0996153846154,55.93904495239258L139.21115384615385,56.814183553059905L139.25576923076923,59.85945765177408L139.57923076923078,57.91562313503688L139.67961538461537,51.9077262878418L139.93615384615384,53.77077674865723L139.9473076923077,51.9087070888943L140.08115384615385,51.37271817525229L140.4269230769231,49.84851561652292L140.5273076923077,63.67441537645128L140.71692307692308,51.488584730360245L140.7726923076923,53.91784032185873L140.87307692307692,55.9409311082628L140.9623076923077,53.938493728637695L141.05153846153846,53.93802218967015L141.24115384615385,47.75725915696887L141.57576923076923,53.9394556681315L141.68730769230768,51.90723588731554L142.1,53.93802218967015L142.20038461538462,55.69686253865561L142.21153846153845,57.915151596069336L142.4569230769231,53.938493728637695L142.535,59.85992919074165L142.84730769230768,57.91609467400444L142.95884615384614,51.90919748942056L143.01461538461538,49.359812630547395L143.1373076923077,59.8613060845269L143.2376923076923,51.9077262878418L143.39384615384614,63.67173703511557L143.8176923076923,59.940468046400284L143.85115384615384,60.98594538370767L144.23038461538462,47.75876808166504L144.275,51.9101594289144L144.53153846153845,61.780884636772996L144.59846153846155,55.94140264723036L144.62076923076924,49.84704441494412L145.06692307692308,55.94281726413304L145.13384615384618,59.86085340711806L145.15615384615384,81.66172197129991L145.27884615384616,77.92241795857748L145.3346153846154,51.90919748942056L145.49076923076922,59.86085340711806L145.59115384615384,64.21421432495117L145.76961538461538,59.86223030090332L146.04846153846154,53.940417607625335L146.26038461538462,59.86085340711806L146.36076923076922,51.90821668836806L146.56153846153848,53.93994606865776L146.86269230769233,69.25900226169163L147.11923076923077,49.848025215996614L147.1415384615385,60.83426072862413L147.15269230769232,59.86085340711806L147.8107692307692,53.9394556681315L147.84423076923076,59.85992919074165L147.9446153846154,51.9077262878418L148.36846153846153,63.67217085096571L148.93730769230768,53.938984129163956L149.58423076923077,49.848025215996614L149.98576923076925,63.67173703511557L150.17538461538462,53.938984129163956L150.39846153846153,49.84704441494412L150.71076923076922,59.86085340711806L150.74423076923077,57.915151596069336L150.8223076923077,61.787240982055664L150.8446153846154,82.88962830437553L151.03423076923076,57.91469891866049L151.12346153846156,55.94187418619791L151.22384615384615,65.54112497965494L151.5696153846154,55.94140264723036L152.0046153846154,51.38984447055394L152.13846153846154,60.48916965060765L152.2723076923077,55.94045956929526L152.39499999999998,51.90723588731554L152.55115384615385,59.86085340711806L152.57346153846154,51.9101594289144L152.975,57.915151596069336L153.37653846153847,51.90676434834799L153.67769230769233,47.75776841905383L153.845,67.38112661573622L154.17961538461537,49.04848374260794L154.44730769230767,55.93998803032768L154.6480769230769,55.551647398206924L155.01615384615383,59.85945765177408L155.31730769230768,59.86223030090332L155.46230769230772,47.75725915696887L155.4846153846154,53.940908008151595L155.71884615384616,59.86223030090332L155.7746153846154,59.861758761935775L155.93076923076924,55.94234572516548L156.0423076923077,51.9101594289144L156.09807692307692,55.93951649136012L156.17615384615385,76.22393459743923L156.3880769230769,56.06777509053549L156.5219230769231,57.91562313503688L157.60384615384615,51.90821668836806L157.77115384615385,61.77905506557887L157.89384615384614,61.77905506557887L157.93846153846152,57.922168095906585L158.11692307692306,53.938984129163956L158.48499999999999,63.673962699042434L158.5853846153846,61.780884636772996L159.29923076923075,58.902780532836914L159.3326923076923,63.67217085096571L159.51115384615386,65.53846549987793L159.6896153846154,59.8613060845269L160.48153846153846,70.40276718139648L160.5819230769231,51.909687889946824L160.92769230769233,55.94140264723036L161.13961538461538,61.77952660454643L161.17307692307693,51.90919748942056L161.41846153846154,68.30108027988011L162.14346153846154,93.1826826731364L162.2326923076923,50.680989371405715L162.46692307692308,65.54155879550511L162.7123076923077,55.93951649136012L163.03576923076923,63.67083168029785L163.54884615384617,53.93994606865776L163.86115384615383,51.90676434834799L164.51923076923077,49.84851561652292L164.69769230769234,65.53935199313695L165.04346153846151,55.94140264723036L165.36692307692306,46.99287562900119L165.64576923076922,112.36552916632758L165.70153846153846,49.84851561652292L165.84653846153847,57.915151596069336L166.05846153846156,53.93802218967015L166.52692307692308,94.58724636501735L166.53807692307691,59.70009634229872L166.76115384615383,53.7789438035753L167.40807692307692,53.93994606865776L167.59769230769228,64.99506399366591L167.89884615384614,53.93994606865776L167.91,51.9077262878418L167.99923076923076,53.937060250176316L168.13307692307694,57.91562313503688L168.26692307692306,63.67217085096571L168.4342307692308,61.78450605604384L168.47884615384615,63.67262352837456L168.66846153846154,51.733200285169815L168.86923076923077,53.9394556681315L169.07,55.94140264723036L169.2373076923077,55.94281726413304L169.34884615384615,51.424078199598526L169.38230769230768,49.367244084676116L169.51615384615386,53.940417607625335L169.5273076923077,51.90821668836806L169.5719230769231,57.91562313503688L169.88423076923078,57.91375584072536L170.17423076923075,53.50894059075249L170.54230769230767,59.86683252122667L170.7096153846154,54.95209503173828L171.11115384615383,53.9394556681315L171.7023076923077,55.785059187147354L171.74692307692308,51.74538485209146L171.97,67.38548363579643L172.51653846153846,52.463538699679916L172.84,55.94045956929526L173.30846153846156,57.80447196960449L173.8773076923077,43.484342787000855L174.04461538461538,51.653661092122405L174.13384615384615,50.956915113661026L174.20076923076925,59.86085340711806L174.75846153846155,53.938493728637695L174.79192307692307,54.76457341512045L174.8253846153846,55.94045956929526L174.97038461538463,50.89214452107748L175.27153846153846,53.937060250176316L175.55038461538462,59.86085340711806L175.62846153846155,53.940417607625335L175.87384615384616,65.54023848639595L176.25307692307692,50.89116372002495L176.64346153846154,47.756259494357636L176.9,53.940908008151595L176.93346153846153,49.84902487860788L177.0784615384615,57.923092312282975L177.66961538461538,53.937060250176316L177.68076923076922,51.90919748942056L177.89269230769233,51.90723588731554L177.92615384615385,57.91701889038086L178.02653846153845,55.950871149698884L178.0376923076923,55.94187418619791L178.10461538461539,62.787261962890625L178.3276923076923,53.9394556681315L178.35,64.61541854010689L179.26461538461538,51.90821668836806L179.33153846153849,47.75725915696887L180.16807692307694,51.9087070888943L180.8373076923077,55.93998803032768L180.90423076923076,49.84851561652292L181.16076923076923,82.62243546379936L181.57346153846154,119.08075332641602L181.5846153846154,129.41366216871472L181.65153846153848,124.88707669576009L181.75192307692308,67.37982516818577L181.94153846153847,81.25565147399902L182.07538461538462,55.94187418619791L182.1423076923077,59.8603818681505L182.3653846153846,57.61183887057835L182.80038461538462,49.84851561652292L183.35807692307694,47.7567687564426L183.62576923076924,59.86223030090332L183.8823076923077,57.91469891866049L184.28384615384613,55.94281726413304L184.55153846153848,49.84604475233289L184.58499999999998,49.84604475233289L185.4215384615385,47.75876808166504L185.48846153846154,45.6367672814263L185.8230769230769,51.9087070888943L185.92346153846154,59.8613060845269L185.96807692307695,58.28861045837402L186.035,51.90627394782173L186.69307692307692,55.93904495239258L187.06115384615384,47.75525983174643L187.0723076923077,53.940417607625335L187.16153846153844,51.90627394782173L187.20615384615382,59.861758761935775L187.39576923076925,61.4249481625027L187.4626923076923,47.75525983174643L187.50730769230768,59.8603818681505L187.80846153846153,55.94045956929526L188.10961538461538,51.9087070888943L188.32153846153844,51.9087070888943L188.67846153846153,51.9101594289144L188.6896153846154,51.9087070888943L188.70076923076923,51.90723588731554L188.96846153846153,79.60203976101344L189.8273076923077,55.94140264723036L190.53,53.93994606865776L190.99846153846153,52.3674201965332L191.0430769230769,49.850496080186645L191.53384615384616,53.938984129163956L191.74576923076924,51.90821668836806L192.15846153846152,55.94045956929526L192.49307692307693,48.95300653245715L192.57115384615386,55.93998803032768L192.6826923076923,51.90821668836806L193.14000000000001,57.91469891866049L193.32961538461538,57.46766111585829L193.39653846153846,50.01451619466147L193.4746153846154,59.8613060845269L193.99884615384616,51.90723588731554L194.05461538461537,53.93753178914389L194.23307692307694,49.84753481547037L194.3,53.940908008151595L194.41153846153844,51.90627394782173L194.6123076923077,51.909687889946824L194.8019230769231,59.86085340711806L194.82423076923078,53.93994606865776L195.18115384615385,45.63574875725638L195.52692307692305,49.35287157694498L196.05115384615385,63.67665990193686L196.185,57.91328430175781L196.30769230769232,55.93951649136012L197.02153846153846,53.93994606865776L197.3673076923077,53.9394556681315L197.78,49.848025215996614L198.04769230769233,58.90091323852539L198.14807692307693,55.94187418619791L198.215,51.9087070888943L198.38230769230768,51.70977422926161L198.7280769230769,63.673962699042434L198.76153846153846,65.53980467054579L198.97346153846152,51.911630630493164L199.18538461538463,51.9077262878418L200.44576923076923,53.938493728637695L200.535,53.93994606865776L200.60192307692307,57.91422737969292L200.8696153846154,47.756259494357636L200.88076923076923,51.90919748942056L201.30461538461537,56.143919203016495L201.60576923076923,55.93951649136012L201.7396153846154,49.848025215996614L201.97384615384615,51.90627394782173L202.6319230769231,51.9087070888943L202.77692307692308,53.938984129163956L202.88846153846154,51.82000117831761L202.93307692307692,59.344291898939346L203.4573076923077,55.39818975660536L204.26038461538462,57.915151596069336L204.50576923076923,55.046968672010635L204.55038461538462,55.94187418619791L204.58384615384617,51.9077262878418L204.69538461538463,58.42448912726509L204.91846153846154,49.849515279134124L205.20846153846153,55.944722281561965L205.5876923076923,61.779979281955306L205.68807692307692,49.848025215996614L206.31269230769232,55.94045956929526L206.91500000000002,53.938984129163956L207.205,53.93802218967015L207.26076923076926,55.93998803032768L207.48384615384617,49.84851561652292L208.05269230769233,51.91261143154567L208.0973076923077,49.84655401441785L208.45423076923075,55.94234572516548L209.00076923076924,49.850496080186645L209.22384615384615,121.44065496656629L209.58076923076925,49.849515279134124L209.69230769230768,47.76027700636121L209.70346153846154,51.90676434834799L209.9823076923077,57.91701889038086L210.08269230769233,53.93802218967015L210.23884615384614,51.9087070888943L210.7073076923077,61.780884636772996L210.98615384615385,50.93482822842067L211.8226923076923,57.91328430175781L212.57,51.90723588731554L212.91576923076923,53.93994606865776L213.29500000000002,49.84555435180664L213.30615384615385,61.78178999159071L213.55153846153848,47.75725915696887L213.9753846153846,73.30475001864964L214.03115384615384,54.05179511176216L214.08692307692309,51.90821668836806L214.49961538461537,57.01355022854274L214.58884615384616,55.33877584669325L214.745,45.638804329766145L214.8676923076923,41.29926893446179L215.06846153846152,49.849515279134124L215.0907692307692,43.481230629814974L215.34730769230768,41.29717530144583L215.3584615384615,45.63574875725638L215.36961538461537,45.6367672814263L215.40307692307692,45.638295067681184L215.615,41.29926893446179L216.0053846153846,41.29979705810547L216.19500000000002,41.300834443834106L216.34,39.082394493950716L216.35115384615384,43.484852049085816L216.5853846153846,43.48538017272949L216.69692307692307,47.755750232272675L216.78615384615384,47.75776841905383L216.8976923076923,34.54713270399304L217.44423076923076,45.6367672814263L217.53346153846155,45.63625801934134L217.57807692307694,49.84704441494412L217.89038461538462,43.482796139187286L218.04653846153846,45.6342209710015L218.11346153846154,55.93904495239258L218.26961538461538,45.63625801934134L218.37,45.63727654351126L218.44807692307694,49.849515279134124L218.45923076923077,45.633711708916536L218.50384615384618,57.91422737969292L218.78269230769232,45.637785805596224L218.89423076923077,41.29926893446179L218.93884615384616,47.75725915696887L219.1173076923077,39.083978864881715L219.27346153846153,43.48538017272949L219.67499999999998,49.84753481547037L219.76423076923078,39.08345074123807L219.8869230769231,45.63625801934134L220.43346153846156,49.848025215996614L220.4446153846154,49.84704441494412L220.50038461538463,43.48381466335721L220.80153846153848,49.84753481547037L221.22538461538463,61.77952660454643L222.46346153846156,45.637785805596224L222.56384615384613,51.91064982944066L222.7423076923077,55.94045956929526L222.77576923076924,43.48226801554361L222.87615384615384,43.484342787000855L223.18846153846152,49.848025215996614L223.5676923076923,41.30136256747775L223.57884615384617,43.48226801554361L223.6792307692308,45.638295067681184L223.7126923076923,49.84704441494412L224.14769230769232,47.75525983174643L224.42653846153846,47.7567687564426L224.59384615384613,59.85945765177408L224.61615384615385,47.756259494357636L224.70538461538462,43.48330540127225L224.88384615384615,43.48692682054309L225.1069230769231,43.481230629814974L225.3746153846154,45.63574875725638L225.62,49.849515279134124L225.9323076923077,98.15100585089789L226.06615384615384,41.300834443834106L226.5346153846154,47.76127666897244L226.56807692307692,47.759767744276246L227.0253846153846,47.75725915696887L227.1146153846154,47.75825881958008L228.0180769230769,45.63727654351126L228.02923076923076,39.0818663703071L228.9996153846154,43.48175875345865L229.08884615384616,49.84753481547037L229.57961538461538,43.48538017272949L229.59076923076924,45.6342209710015L230.1596153846154,41.30136256747775L230.26000000000002,43.484852049085816L230.82884615384617,45.63625801934134L230.9403846153846,41.29979705810547L231.01846153846154,47.75825881958008L231.34192307692308,49.84753481547037L231.75461538461536,51.909687889946824L231.94423076923078,49.85149574279785L232.4126923076923,41.29717530144583L232.9480769230769,45.638295067681184L233.39423076923077,45.6367672814263L233.67307692307693,39.08345074123807L233.885,39.08345074123807L233.94076923076923,45.6367672814263L233.99653846153848,41.300834443834106L234.1973076923077,47.75876808166504L234.25307692307692,49.84604475233289L234.30884615384616,45.638804329766145L234.4426923076923,45.638295067681184L234.67692307692306,49.84555435180664L235.20115384615383,51.90821668836806L235.43538461538463,47.7567687564426L235.84807692307692,51.90676434834799L236.02653846153848,49.84851561652292L236.4057692307692,45.6367672814263L236.52846153846156,53.938493728637695L236.67346153846154,55.94187418619791L237.08615384615385,140.5810440911187L237.16423076923078,50.88675011528862L237.20884615384614,51.9101594289144L237.48769230769233,47.75825881958008L237.77769230769232,61.77905506557887L238.68115384615385,47.75725915696887L238.71461538461537,45.63473023308646L238.77038461538461,45.63574875725638L239.3280769230769,47.756259494357636L239.55115384615382,49.849515279134124L239.71846153846155,45.637785805596224L239.75192307692308,49.84753481547037L239.77423076923077,41.30030632019043L239.9973076923077,43.48330540127225L240.0642307692308,43.48381466335721L240.32076923076923,55.94281726413304L240.5996153846154,49.84851561652292L240.62192307692308,47.75876808166504L240.76692307692306,49.84704441494412L241.21307692307693,47.75876808166504L241.28,47.75927734375L241.43615384615384,45.638295067681184L241.55884615384613,41.298740810818146L241.65923076923076,47.755750232272675L241.70384615384617,45.63523949517142L242.1723076923077,49.848025215996614L242.2503846153846,45.63625801934134L242.29500000000002,45.63625801934134L242.35076923076923,49.849515279134124L242.3619230769231,45.63523949517142L242.80807692307692,39.0818663703071L243.01999999999998,45.63473023308646L243.32115384615383,41.29821268717447L243.5776923076923,45.638804329766145L244.35846153846154,59.86085340711806L244.47,49.848025215996614L244.60384615384615,43.48330540127225L244.79346153846154,49.84753481547037L244.9719230769231,55.93998803032768L245.06115384615384,49.84851561652292L245.16153846153847,39.07920689053006L245.2396153846154,45.63523949517142L245.68576923076924,41.300834443834106L245.83076923076925,49.84851561652292L245.88653846153846,43.484852049085816L245.95346153846154,45.63727654351126L245.9869230769231,45.63473023308646L246.83461538461538,47.759767744276246L246.84576923076924,45.63574875725638L246.86807692307693,47.75927734375L247.33653846153845,41.30189069112143L247.37,47.75825881958008L247.71576923076924,51.90919748942056L247.96115384615385,47.7567687564426L248.0169230769231,47.759767744276246L248.05038461538462,47.75876808166504L248.10615384615386,39.0818663703071L248.56346153846152,39.08026313781738L248.73076923076923,41.29821268717447L248.89807692307693,49.84851561652292L248.99846153846156,39.083978864881715L249.02076923076922,55.93998803032768L249.2326923076923,49.84851561652292L249.45576923076922,43.48330540127225L249.5673076923077,51.9087070888943L249.72346153846155,47.75776841905383L249.73461538461538,47.75776841905383L250.18076923076922,45.637785805596224L250.2030769230769,49.848025215996614L250.44846153846152,43.484342787000855L250.705,47.755750232272675L251.1623076923077,49.84655401441785L251.3073076923077,43.48588943481445L251.31846153846152,45.63625801934134L251.43,39.0818663703071L251.53038461538463,39.082394493950716L251.54153846153847,41.29821268717447L251.56384615384616,49.848025215996614L251.61961538461537,43.48692682054309L251.7423076923077,51.9077262878418L252.55653846153845,111.67930793762207L252.9692307692308,43.484342787000855L252.98038461538462,45.638295067681184L253.17,47.75776841905383L253.2146153846154,45.638295067681184L253.62730769230768,39.08345074123807L253.97307692307692,51.90821668836806L253.98423076923078,41.298740810818146L254.0176923076923,55.94330766465929L254.02884615384616,45.63574875725638L254.40807692307692,43.48381466335721L254.46384615384616,49.84902487860788L254.56423076923076,49.849515279134124L254.62,39.084525850084106L254.83192307692306,51.909687889946824L255.2,45.6367672814263L255.46769230769232,49.84753481547037L255.47884615384615,36.831399493747284L255.88038461538463,45.63473023308646L256.30423076923074,49.84555435180664L256.75038461538463,51.90723588731554L256.8173076923077,41.30136256747775L256.8396153846154,41.29979705810547L256.85076923076923,49.84753481547037L257.0515384615385,43.484342787000855L257.19653846153847,41.30136256747775L257.29692307692306,43.484852049085816L257.3415384615385,47.75876808166504L258.05538461538464,134.59172587924533L258.7803846153846,45.63727654351126L259.0369230769231,84.5031780666775L259.2153846153846,122.60326258341472L259.4384615384615,39.082394493950716L259.9738461538461,137.62987030877008L260.0073076923077,49.848025215996614L260.06307692307695,45.638295067681184L260.8103846153846,43.48381466335721L261.01115384615383,43.48175875345865L261.8476923076923,41.300834443834106L262.2826923076923,45.63523949517142L262.2938461538461,45.637785805596224L262.6730769230769,45.6367672814263L262.9965384615385,41.29979705810547L263.14153846153846,45.637785805596224L263.2642307692308,45.63727654351126L263.4984615384615,43.48692682054309L263.6992307692308,41.298740810818146L263.84423076923076,49.84902487860788" style="fill: none;" fill="none"></path></g></g></g></g></g></g><g transform="translate(40, 178)" clip-path="url(#clip_1)"><clipPath id="clip_1"><rect width="290" height="22"></rect></clipPath><g><g><line x1="0" y1="0" x2="0" y2="5" style="visibility: inherit;" fill="rgb(0, 0, 0)" stroke="rgb(204, 204, 204)" stroke-width="1px"></line><line x1="22.30769230769231" y1="0" x2="22.30769230769231" y2="5" style="visibility: inherit;" fill="rgb(0, 0, 0)" stroke="rgb(204, 204, 204)" stroke-width="1px"></line><line x1="44.61538461538462" y1="0" x2="44.61538461538462" y2="5" style="visibility: inherit;" fill="rgb(0, 0, 0)" stroke="rgb(204, 204, 204)" stroke-width="1px"></line><line x1="66.92307692307692" y1="0" x2="66.92307692307692" y2="5" style="visibility: inherit;" fill="rgb(0, 0, 0)" stroke="rgb(204, 204, 204)" stroke-width="1px"></line><line x1="89.23076923076924" y1="0" x2="89.23076923076924" y2="5" style="visibility: inherit;" fill="rgb(0, 0, 0)" stroke="rgb(204, 204, 204)" stroke-width="1px"></line><line x1="111.53846153846155" y1="0" x2="111.53846153846155" y2="5" style="visibility: inherit;" fill="rgb(0, 0, 0)" stroke="rgb(204, 204, 204)" stroke-width="1px"></line><line x1="133.84615384615384" y1="0" x2="133.84615384615384" y2="5" style="visibility: inherit;" fill="rgb(0, 0, 0)" stroke="rgb(204, 204, 204)" stroke-width="1px"></line><line x1="156.15384615384616" y1="0" x2="156.15384615384616" y2="5" style="visibility: inherit;" fill="rgb(0, 0, 0)" stroke="rgb(204, 204, 204)" stroke-width="1px"></line><line x1="178.46153846153848" y1="0" x2="178.46153846153848" y2="5" style="visibility: inherit;" fill="rgb(0, 0, 0)" stroke="rgb(204, 204, 204)" stroke-width="1px"></line><line x1="200.76923076923077" y1="0" x2="200.76923076923077" y2="5" style="visibility: inherit;" fill="rgb(0, 0, 0)" stroke="rgb(204, 204, 204)" stroke-width="1px"></line><line x1="223.0769230769231" y1="0" x2="223.0769230769231" y2="5" style="visibility: inherit;" fill="rgb(0, 0, 0)" stroke="rgb(204, 204, 204)" stroke-width="1px"></line><line x1="245.3846153846154" y1="0" x2="245.3846153846154" y2="5" style="visibility: inherit;" fill="rgb(0, 0, 0)" stroke="rgb(204, 204, 204)" stroke-width="1px"></line><line x1="267.6923076923077" y1="0" x2="267.6923076923077" y2="5" style="visibility: inherit;" fill="rgb(0, 0, 0)" stroke="rgb(204, 204, 204)" stroke-width="1px"></line><line x1="290" y1="0" x2="290" y2="5" style="visibility: inherit;" fill="rgb(0, 0, 0)" stroke="rgb(204, 204, 204)" stroke-width="1px"></line></g><g transform="translate(0, 8)"><text x="0" y="0" dx="0em" dy="0.95em" style="text-anchor: middle; visibility: hidden; font-family: &quot;Helvetica Neue&quot;, sans-serif; font-size: 12px; font-weight: 200;" fill="rgb(50, 49, 63)" stroke="none" stroke-width="1px">-2k</text><text x="22.30769230769231" y="0" dx="0em" dy="0.95em" style="text-anchor: middle; visibility: inherit; font-family: &quot;Helvetica Neue&quot;, sans-serif; font-size: 12px; font-weight: 200;" fill="rgb(50, 49, 63)" stroke="none" stroke-width="1px">0</text><text x="44.61538461538462" y="0" dx="0em" dy="0.95em" style="text-anchor: middle; visibility: hidden; font-family: &quot;Helvetica Neue&quot;, sans-serif; font-size: 12px; font-weight: 200;" fill="rgb(50, 49, 63)" stroke="none" stroke-width="1px">2k</text><text x="66.92307692307692" y="0" dx="0em" dy="0.95em" style="text-anchor: middle; visibility: inherit; font-family: &quot;Helvetica Neue&quot;, sans-serif; font-size: 12px; font-weight: 200;" fill="rgb(50, 49, 63)" stroke="none" stroke-width="1px">4k</text><text x="89.23076923076924" y="0" dx="0em" dy="0.95em" style="text-anchor: middle; visibility: hidden; font-family: &quot;Helvetica Neue&quot;, sans-serif; font-size: 12px; font-weight: 200;" fill="rgb(50, 49, 63)" stroke="none" stroke-width="1px">6k</text><text x="111.53846153846155" y="0" dx="0em" dy="0.95em" style="text-anchor: middle; visibility: inherit; font-family: &quot;Helvetica Neue&quot;, sans-serif; font-size: 12px; font-weight: 200;" fill="rgb(50, 49, 63)" stroke="none" stroke-width="1px">8k</text><text x="133.84615384615384" y="0" dx="0em" dy="0.95em" style="text-anchor: middle; visibility: hidden; font-family: &quot;Helvetica Neue&quot;, sans-serif; font-size: 12px; font-weight: 200;" fill="rgb(50, 49, 63)" stroke="none" stroke-width="1px">10k</text><text x="156.15384615384616" y="0" dx="0em" dy="0.95em" style="text-anchor: middle; visibility: inherit; font-family: &quot;Helvetica Neue&quot;, sans-serif; font-size: 12px; font-weight: 200;" fill="rgb(50, 49, 63)" stroke="none" stroke-width="1px">12k</text><text x="178.46153846153848" y="0" dx="0em" dy="0.95em" style="text-anchor: middle; visibility: hidden; font-family: &quot;Helvetica Neue&quot;, sans-serif; font-size: 12px; font-weight: 200;" fill="rgb(50, 49, 63)" stroke="none" stroke-width="1px">14k</text><text x="200.76923076923077" y="0" dx="0em" dy="0.95em" style="text-anchor: middle; visibility: inherit; font-family: &quot;Helvetica Neue&quot;, sans-serif; font-size: 12px; font-weight: 200;" fill="rgb(50, 49, 63)" stroke="none" stroke-width="1px">16k</text><text x="223.0769230769231" y="0" dx="0em" dy="0.95em" style="text-anchor: middle; visibility: hidden; font-family: &quot;Helvetica Neue&quot;, sans-serif; font-size: 12px; font-weight: 200;" fill="rgb(50, 49, 63)" stroke="none" stroke-width="1px">18k</text><text x="245.3846153846154" y="0" dx="0em" dy="0.95em" style="text-anchor: middle; visibility: inherit; font-family: &quot;Helvetica Neue&quot;, sans-serif; font-size: 12px; font-weight: 200;" fill="rgb(50, 49, 63)" stroke="none" stroke-width="1px">20k</text><text x="267.6923076923077" y="0" dx="0em" dy="0.95em" style="text-anchor: middle; visibility: hidden; font-family: &quot;Helvetica Neue&quot;, sans-serif; font-size: 12px; font-weight: 200;" fill="rgb(50, 49, 63)" stroke="none" stroke-width="1px">22k</text><text x="290" y="0" dx="0em" dy="0.95em" style="text-anchor: middle; visibility: hidden; font-family: &quot;Helvetica Neue&quot;, sans-serif; font-size: 12px; font-weight: 200;" fill="rgb(50, 49, 63)" stroke="none" stroke-width="1px">24k</text></g><line x1="0" y1="0" x2="290" y2="0" fill="rgb(0, 0, 0)" stroke="rgb(204, 204, 204)" stroke-width="1px"></line></g></g></g></g></svg>